<?xml version="1.0" encoding="UTF-8"?>
<svg id="Layer_1" data-name="Layer 1" xmlns="http://www.w3.org/2000/svg" viewBox="0 0 429.39 427">
  <defs>
    <style>
      .cls-1 {
        fill: none;
        stroke: #000;
        stroke-miterlimit: 10;
        stroke-width: 2px;
      }
    </style>
  </defs>
  <path class="cls-1" d="M327.47,337.3l-1.83,5.85-3.28,10.07-2.46,7.39-1.59,5.04-4.2,13.72-1.42,4.11-4.56,12.74c-1.43,4-3.76,7.77-6.9,10.71-5.75,5.38-12.7,8.72-20.09,11.3l-16,4.44-4.63,1.61-4.52.94c-1.82.49-3.87.31-5.55-.49-4.12.55-7.19-1.31-9.38-4.42l-4.87-6.92-30-.12-6.34-.33-12.9-.93c-3.39-.25-6.73-1.07-10.12-.46-2.98.53-5.39,2.77-6.56,5.48s-2.82,4.31-5.78,5.02c-5.77,1.39-9.91-1.6-11.32,1.26l-16.58-2.76c-.9-1.2-1.91-2-3.5-2.36l-26.08-6.04-13.41-4.17c-1.16-.36-2.18-.56-3.2-1.06-1.34-1.09-2.98-1.22-4.57-.56l-8.02-3.02c-6.74-2.54-13.11-5.51-19.21-9.32l-4.85-3.02-5.63-4.19-10.78-8.33c-3.87-3-9.77-11.31-11.08-16.5l-.69-2.73-.59-4.63-.29-5.55-.38-11.62c-.07-2.27.11-4.16.02-6.48l-.22-5.81-.14-20.03-.05-5.1-.18-33.66-.18-35.35-.15-39.48-.05-14.54-.18-18.28-.05-12.49.08-6.76-.05-2.93-.03-10.99-.16-11.22-6.43-4.07-2.99-2.46c-2.66-2.19-4.07-5.06-4.13-8.55l-.32-19.72c-.08-4.88-1.66-8.16-.74-16.23.26-2.25.15-5.04.05-7.37l-.43-10.09c-4.73-2.99-5.73-3.91-6.41-9.6,1.02-1.1,2.86-2.26,4.43-2.51l6.5-.99-.27-11.99c-.03-1.39-.73-2.94-.62-4.42.48-6.38-2.98-5.79-4.49-7.95-.95-1.35-.98-3.32-1.17-5.06,2.35-1.4,4.62-1.84,7.23-1.78l2.97.07,15.93-.04,8.63.62,5.49.34,14.14,1.06c7.67.58,15.1,1.45,22.73,2.46,4.07.54,8.01.74,12.11,1.17l5.76.6,31.09,3.35,11.06,1.52c1.65.23,3.84.04,5.3.32l7.75,1.52,10.82,1.67,5.47.67,5.15.7,10.99,1.84,23.49,3.54,31.46,4.92,11.17,1.81,14.39,2.41,6.35,1.23,9.45,1.29c2.58.35,4.66.51,7.12,1.11l8.24,2.01,7.59,1.41,8.46,1.41,8.48.95c2.15.24,4.15.79,6.16.36l6.74,2.3,10.28,2.31,7.28,1.68,3.5.8,4,.84,11.09,2.18,4.29.81,5.21,1.38,17.73,4.26,9.79,2.69,8.05,2.17c2.36.64,4.48,1.31,6.71,2.33,1.36.62,2.43,1.2,2.3,2.97-.11,1.54-.88,3.42-2.51,3.97l-4.73,1.61-1.86,4.67c-1.21,3.04-2.12,5.85-2.28,9.11-1.69,1.46-1.57,3.85-1.61,5.92l-.02.98c0,.26.83.33,1.1.51l5.9,3.89c.56.37,1.33,1.12,1.45,1.65.15.63-.29,1.93-.67,2.48l-2.99,4.36c-1.65-.14-4.44.52-5.11,2.01l-4.87,13.67-3.63,11.25-2.11,5.73-1.76,5.75-2.13,5.73-1.88,5.24c-2.53,7.06-4.63,7.79-11.36,10.14-1.82.64-3.42,1.03-5.39,1.31-2.4,5.02-3.62,10.41-5.33,15.75l-8.37,26.07-2.4,7.76-2.78,8.67-4.56,14.72-2.72,8.14-1.06,3.64-4.34,12.79-3.26,11.34-1.49,4.39-5.36,17.04-3.85,12.23-3.76,11.44-4.67,14.78ZM416.04,70.06l-3.12-.65-4.07-.75-1.03,1.85,4.52-.38c1.04-.09,2.64.6,3.69-.07Z"/>
</svg>