<?xml version="1.0" encoding="UTF-8"?>
<svg id="Layer_1" data-name="Layer 1" xmlns="http://www.w3.org/2000/svg" viewBox="0 0 107.13 734.3">
  <defs>
    <style>
      .cls-1 {
        fill: none;
        stroke: #000;
        stroke-miterlimit: 10;
        stroke-width: 2px;
      }
    </style>
  </defs>
  <path class="cls-1" d="M57.91,519.29l-3.16,18.65c-.76,4.49-1.96,8.59-1.77,12.97l1.12-2.76c.42,1.51.15,2.85-.04,4.57l-1.29,11.31-1.64,24.85-.67,14.71-.43,11.54-.28,16.08c-.04,2.44-1.25,5.73-1.92,7.98-2.48,1.88-3.67,3.9-3.62,7.01l.14,9.09,2.75,66.9c.23,5.61.33,11.2-3.09,11.12-.76-.02-2.83-.61-2.93-1.38l-.19-9.53-.57-10.38-2.39-63.95c-.28-4.14-1.28-7.55-4.81-9.95l-3.8-16.68-4.58-33.02c-4.07-11.27-9.09-21.73-14.88-32.2l-2.48-6.54c-3.28-6.36-4.94-12.69-5.9-19.73-1.02-7.45-.16-14.21.2-21.65l2.02-41.52,3.16-37.52.36-16.8,1.34-18.65c-1.43-1.77-1.92-4.02-.83-6.09.88-2.03.77-3.87.69-6.12-.33-9.3.57-18.29,1.5-27.55l-.12-6.01.08-11.56-.36-28.55c-.05-3.9,1.43-8.09,3.17-11.43.77-1.47,1.43-2.3,1.42-4.04-.03-3.32,0-6.46-.52-9.59l-3.7-21.98c-1.27-7.55-.59-14.52-.68-22.12l-.22-17.04-1.92-9.99c-1.13-5.86.13-11,1.24-16.72.89-4.58.08-9.61-.01-14.37l-.44-21.96c-.06-3.08-.42-5.31.37-8.39.95-3.73-.93-10.04.34-11.02.88-.68,5.59-2.55,6.72-1.19.27.2,1.51.1,1.49-.24l-.1-1.87-.99-20-1.82-50.68c-.24-6.6-.78-12.85-.18-19.52C15.4,26.49,28.81,9.91,46.89,3.57c21.03-7.38,43.9,1.56,53.99,21.28,6.57,12.84,6.5,26.69,2.43,40.4-.71,2.4-3.03,4.51-5.53,4.53-5.94.05-13.83-2.99-11.99-8.39,2.06-6.05,3.02-12.22,2.07-18.56-1.21-8-5.96-14.83-12.03-18.6-7.67-4.76-16.01-5.43-24.19-2.46-12.92,4.69-21.39,17.2-20.91,31.11l1.3,37.35,1.93,45.73-.66.89c-.1.14.4-.03.71-.07l2.31-.31c.64-.08,1.55,1.39,1.6,2.1l.64,9.74c.2,3.12,1.3,5.73.79,8.75l.51,2.95,3.1,8.91c3.96,11.39,14.38,21.76,14.78,20.5l.54-1.73-2.02,17.48-1.11,9.67c.15.87.38.99.76.07l2.81-23.76c.59-4.99,1.9-9.82,1.53-14.73-.16-.82-.56-2.24-.45-3.04l1.66-11.96,1.06-.26c.2-.05.28.68.27.89l-.53,9.55-4.16,31.3.41.77,1.33-10.09.61-.96c2.31,2.36,4.85,4.3,5.88,7.08l-1.16,10.93c-.17,1.59-.06,2.47-1.62,3.36l-3.79,2.16c.14.26.58.7.81.62l1.8-.62c.55-.19,1.62,0,2.22.18l.8-.56.24,1.48c.1.6,13.06,2.5,13.64,8.33l-12.38,21.85c-.84,1.13-.93,2.5-.96,3.76l-5.82,10.7-1.28,6.3-2.69,10.92c-.97,3.94-2.84,7.35-6.58,8.88-.7,3.49-.79,7.79.64,10.86,3.7,2.21,7.15,4.35,10.29,7.33l14.1,13.41,8.33,7.83c1.51,1.42,1.27,4.85,1.69,6.84,2.49,12.05,3.95,23.73,5.02,36.01,1.42,16.26-2.68,31.97-10.37,46.28-2.52,4.68-5.19,9.01-8.63,12.9.01,9.86-.4,19.23-2.06,28.98l-7.08,41.61-3.57,19.22ZM27.82,45.85l1.62-6.32c.39-1.51.64-2.6-.04-3.96l-2.27,5.88c-.6,1.56-.35,3.45.69,4.4ZM98.86,62.39c-.13.52,1.72,1.3,1.83.78l2.13-10.19c-2.08,1.08-2.2,2.53-2.66,4.31l-1.3,5.1ZM27.14,149.26l.47.12.1-10.47.94,2.82c.49-.57.63-2.75-.03-3.71-.57-.84-1.76-1.5-2.94-1.02l.23,10.63.37-9.61c.05-.06.86.95.86,1.24v10ZM21.08,138.27c-.67-.14-1.82-.33-1.77-.08l.21.94.86,6.53.7-7.39ZM24.19,147.11l.47-.27-.08-6.8-.47.27.08,6.8ZM33.94,155.24l.43-5.82c.04-.61-1.51-1.55-2.15-1.36l.16,4.95c.04,1.1.25,1.93.92,2.47l.64-.25ZM25.74,158.13l.43-.28-.14-2.79-.43.28.14,2.79ZM34.01,155.59l-.68.41c0,1.11.33,2.09,1.11,3.52.21.92.92.77,1.2-.3l-1.63-3.63ZM34.49,163.98c1.44-1.83.35-3.12-.83-3.89l.83,3.89ZM31.57,166.05c.07-1.1-1.07-2.11-1.93-1.74l1.93,1.74ZM15.82,187.41c.7.44,2.36-.93,2.38-1.75.02-.97-.33-2.39-.66-3.3l-1.37,2.01c-.44.64-1,2.63-.35,3.04ZM57.82,208.24l.44-.27-.13-3.29-.44.27.13,3.29ZM56.79,215.29c.75-1.96,1.07-3.84.72-6.5l-.72,6.5ZM44.83,495.54l-.68,10.33c-.18,2.8-.22,5.23-.06,8.08s-.3,6.13-.86,9.08l-7.43,38.87c1.79,3.63.96,8.57,3.2,7.23,1.38-.83-.11-1.79.66-5.29,1.32-6.07-2.13-7.31-1.55-10.32l2.51-13.14,4.11-17.9,1.1-4.12c3.19-21.21,8.55-41.59,12.9-62.53l3.45-16.6c-1.36,1.25-1.94,2.74-2.5,4.49l-2.33,7.26c.23,5.42-1.66,10.62-5.07,14.86l-.66,2.07c-.11.35-1.17.3-1.36-.03l-1.22-2.15c-.21-.37-1.17-.04-1.76.12l1.58-10.91-3.93,4.72c-.81.97-1.18,2.48-1.65,3.85-.8,2.33-1.84,4.57-.02,6.79l2.17.73c1.04,2.5,1.25,4.43,1.02,7l-.38,4.27v4.08s-1.23,9.16-1.23,9.16ZM39.71,466.24l1.03-.14,2.08-2.94-.44-.41-2.67,3.5ZM35.14,482.47c0,.2-.36.95-.43,1.13s.54.21,1.18.26c1.3-3.32,1.92-6.82,1.76-10.57-1.25,1-2.27,2.62-2.32,4.13l-.17,5.05ZM30.53,487.05l-2.93-2.83c.84,2.39.46,3.66-.75,5.33l-3.08,4.25c3.37-1.93,6.09-3.86,6.76-6.75ZM28.48,495.95l2.49,2.59c.33-1.62.6-2.76,1.06-3.76l2.45-5.34c-2.43.3-4.13,1.28-5.92,2.61l2.16.91-2.24,2.99ZM22.15,495.12c-.44.02.23,1.67.65,1.53l1.34-.43c.31-.1-.19-1.18-.52-1.16l-1.47.06ZM44.79,536.12c2.37-1.8,2.24-7.29.75-8.72-.72-.69-1.94,4.29-.75,8.72ZM47.42,547.2c.04-3.33-.08-6.03-1.14-9.27l-1.21,5.38c-.35,1.55.06,3.51,2.35,3.88ZM46.15,574.73c-.09,1.13.4,3.24.9,4.87l.32-11.08.27-12.15-.56-8.43c-1.28,1.63-1.63,3.19-1.74,4.61.76,2.05.72,3.75.8,5.9l.27,7.01.06,5.46-.32,3.81ZM51.95,560.96c.49-3.22,1.08-5.96.53-9.02l-1.79,14.99c.96-1.68.92-3.75,1.26-5.98ZM46.25,591.1l.47-.27-.07-7.8-.47.27.07,7.8ZM45.32,603.18l.42-.85-.14-3.25-.44.25.17,3.84ZM48.77,606.13l.45-.27-.1-4.79-.45.27.1,4.79ZM48.81,616.71l.44-.8-.02-2.54-.49-.27.06,3.61ZM48.78,622.67l.47-.27-.11-4.3-.47.27.11,4.29ZM48.8,628.18l.43-.27-.09-3.29-.47.27.13,3.29Z"/>
</svg>