<?xml version="1.0" encoding="UTF-8"?>
<svg id="Layer_1" data-name="Layer 1" xmlns="http://www.w3.org/2000/svg" viewBox="0 0 321.9 757.59">
  <defs>
    <style>
      .cls-1 {
        fill: none;
        stroke: #000;
        stroke-miterlimit: 10;
        stroke-width: 2px;
      }
    </style>
  </defs>
  <path class="cls-1" d="M176.42,753.05l-2.63.22c-3.49,1.21-7.96,1.46-11.51.44-1.42,1-3.38,1.62-5.26,1.11l-.72-2.83-.27,2.96-4.9-.56c-1.84-.21-3.16-.21-3.81-1.61l-.91,1.84-13.93-.84-3.34-.91c-.24-1.41-.96-1.59-.88.51l-12.61-1.98-5.27-1.04-11.97-3.27c-13.64-3.72-26.28-10.54-35.86-20.97-4.88-5.32-7.35-11.41-7.22-18.57l.24-13.19-2.71-1.13c-.3-3.04-.87-6.98.85-9.58.92-1.4,1.93-2.47,1.83-4.25l-.29-5.01c-4.08-.49-3.25-7.9.14-12.21l.3-59.08-.12-78.93.58-12.3c.15-3.1.77-6.2,2.66-8.92.75-1.08,3.91-1.16,5.04-1.82l7.76-4.57,4.27.48c5.75-5.64,12.28-.42,23.53-5.97l3.22-1.04.07,5.52.15,15.69,2.38,4.33c1.55-2.21,1.83-3.82,1.83-6.16l-.02-19.78-3.1-.39c4.05-1.36,8.52-1.47,13.17-1.25,5.3.25,10.2-.73,15.36-1.64l13.19-2.34.53-3.79,1.03-6.16c5.93,4.45,12.81,9.5,14.22,17.29-.1,5.77-2.25,11-3.55,16.52-.27,1.13-.67,1.78-1.69,2.56l1.2.96-1.05,9.92c-.31,2.97.65,6.82,2.48,8.82,5.56-.69,9.99,3.32,15.7,1.79l9.67-2.6c.7-.19,2.61.62,3.02,1.18.49.67.59,1.53,1,3.38,1.2-1.06,2.08-2.4,2.78-3.97,1.53-3.44,8.17,3.17,16.35-2.53,2.64-1.84,5.47-2.08,8.39-.23l.67-2.83c.32-1.34,3.98.04,5-1.73.38-.67-.61-2.21-1.41-2.56l-6.86-2.97-2.15,1.05c-.51.25-1.35-.98-1.64-1.74l-4.76-1.45c.03,2.09.16,3.87-.69,5.26-.66,1.09-2.82,1.64-4.3,1.53l-8.66-.62-2.23-10.56c-.37-1.73-.07-3.32-.04-5.09l.21-18.13-2.32-1.27c1.04-3.8,3.29-7.71,6.79-9.84l4.31-2.63,1.04.43c.19.08.89-.26.8-.45-.13-.28-.65-.92-1-1.05l-6.01-2.31c2.67-3.59,7.44-7.24,11.33-7.79-1.21,3.09-2.26,6.63-1.37,9.66.57,1.94-.23,3.1-.28,4.96l-.53,18.82c-.04,1.42-.07,2.39.42,3.55l.63-5.23.31-8.55,1.12,2.62,11.78-.42c3.52-.13,7.06.88,9.74,2.53l-1.78,1.38c-.3.23.66,1.22.82,1.14,2-1.62,4.12-1.34,6.33-.39,8.18,3.54,14.74-1.58,23.35,5.65l5.58,3.71c.6.4,2.89-.04,3.27.55.97,1.48,4.1,10.67,4.03,12.65l-1.03,28.27-.1,26.81-.48.36-.3-19.6-3.52,29.91-1.26,4.94-.35,41.42-.3,25.4-.55.33.02-58.69.29-6.9-2.13,2.88c-2.15-.43-4.54-.76-7-.13,1,2.9,4.25-.13,6.43,2.42l-4.86,5.77-.34,52.57-.38,11.36-.49.32v-63.99c-4.24,2.8-8.28,6.99-9.58,12.11l-.67,61.49-1.08-.07.27-13.05.02-46.68c-3.35,4.86-4.7,9.98-6.58,15.15l-5.66,16.32.06,23.74.12,23.09c-.93.76.19.6.49.29l.12-25.03,1.9-2.15c.53-.6-1.73-2.44-1.41-8.69l.31-6.14,1.68-.47c.3-.08.43-1.34.12-1.4l-1.9-.36.03-5.84,3.4,1.38c-.85,1.44-1.03,1.73-.91,2.16,1.31,4.81.98,9.26,1.01,14.15l.17,36.67-.11,31.03c-.66.85-1.57,2.28-1.58,3.14,0,1.07.79,2.24,1.54,3.35l.33,4.21,2.27.05c0-2.61-.04-5.27.93-7.47,1.63-3.68.73-3.84,2.64-4.79.33-.17.75,1.15.74,1.53l-.12,7.61c0,.35-.44,1.45-.73,1.35l-1.58-.54-2.05,4.27c-2.42-.7-2.31-.62-4.44.36l.29-4.85c.08-1.37-.62-3.81-.85-5.43l-.74-5.28-.35-7.82-.56-4.28-.21-13.58-.45.82.05,45.57h-1.16s-.08-35.09-.08-35.09l-.85-5.68-.55,10.01c-.1,1.74-.2,2.6-.1,4.47l.41,7.63.55,12.23-1.46,3.76c-.1.26-.72.91-.89,1.14-.23.31-.16.72-.02,1.9-2.2,1.81-4.52,2.62-6.63.95-.46-.36-.89,2.12-1.37,1.51l-.98-1.26c-.47-.61-.96-2.44-.98-3.29l-.4-14.46-.24-17.64c-.27-.22-.84-.69-.78-.67.05.02-.61.37-1.3.76l1.54.59.12,26.21.32,5.12-.24,5.39c0,.21-.36.79-.45.97-1.15,2.24-.31-9.33-1.75-14.23l.17,6.15.07,5.18c.02,1.2-.43,3.11-1.68,3.49-.99.31-2.59-.42-3.6-1l-1.54,1.8c-.38.44-1.49-.81-1.44-1.39l.11-1.39-.42-.07v1.07c0,.11.11.45.4,1.46.46-.35-.84.65-1.17.9-.58-.55-1.18-1.29-1.46-1.15l-1.22.6-.58.28-1.21.45-.48-14-.64-21.07-.45.21.31,31.36v4.16c-.63-.24-1.41-.5-1.48-.68l-.5-1.28c-.09-1.25-.09-1.33,0-.05l-.23,2.14c-.06.54-1.78.16-2.35.23l-10.21,1.2c-.51.06-1.66.4-1.82.03l-.76-1.7c-.42,1.35.08,2.91-.73,2.06l-.87-.91c-.14.2-.19.25-.27.25ZM140.47,491.59c.02-.35.4-1.33.68-1.23l1.02.39c-.22,3.31-.44,7.05.19,10.61l1.92-7.86c.68-2.8,1-5.16,1.03-8.16l-6.66,2.58c-.39.92-1.14,1.63-2.19,2.14-.53,2.87-.75,6.37-.74,9.46l4.22,3.94.55-11.87ZM113.08,494.06l-1.37-3.47c-.33-.83-.92-1.74-1.68-1.73-.62,0-1.34,1.44-1.35,2.18l-.13,13.9.71,9.16,3.55-2.32.26-17.72ZM144.62,516.37c2.61-1.71,1.59-3.48,1.6-5.22l.09-17.64-2.51,14.15c-.52,2.91-.22,5.53.82,8.71ZM66.51,571.59l1.39,2.2c.66-1.54.88-3.59.99-5.64l.7-13.18,1.16,8.44c1.58-5.02,1.41-9.56,1.64-14.47l.44-9.38,1.13,15.39c1.03-4.4.79-8.7,1.06-13.28l.5-8.53.44-6.8.41-5.08.04-19.19-.6-4.63-3.28,2.48c-1.1.83-2.34,2.19-3.04,3.02-.88-.73-2.84-.77-3.9-.23-3.9,2-3.15,14.97-2.81,21.99l.45,9.1.23,3.98c-.47,3.37.04,6.78,1.23,10.06-.32,5.18.3,9.77,1.2,14.87.51,2.87-7.37,1.35-5.51,4.63,1.53-2.53,3.86-1.81,6.23-.57l.64-5.11c1.23,5.78-.8,9.8-.72,9.93ZM80.05,541.56l.15-41.67-3.16-1.43.05,48.58c2.32-1.19,2.95-3.34,2.96-5.48ZM83.73,520.57l-.49-5.49c-.34-3.78-.36-7.31-1.28-11.15l-.19,35.36c1.34-1.86,2.19-4.16,2.16-6.07l-.2-12.64ZM128.08,516.2c.48-2.56.03-5.54-1.17-7.79-2.65,2.05-2.26,8.79-1.21,9.07.57.15,2.26-.65,2.38-1.28ZM113.63,523.56l.16-3.09-1.78-.12c-.45-.03-1,1.54-.62,1.78l2.24,1.43ZM229.49,523.97l.82.18,1.91-2.15-.82-.18-1.91,2.15ZM224.98,528.87l2.32-3.39c-1.32-.58-3.57-1.27-5.01-.51-1.04.55-1.55,3.46-1.53,4.71l.37,19.33,1.09-7.29c1.42-4.71-1.46-6.7,2.76-12.86ZM123.11,535.1l2.12-6.24-8.77-2.26c-.56-.29-1.52-.8-1.35-.71l-.08,2.15,5.01,1.12,1.14,6.17c.08.44.99,1.61,1.26,1.27.2-.26.45-.86.67-1.49ZM211.15,538.86c.09-.59-.49-1.75-1.02-2.02l-1.36-.68c-.3-.15-.12-1.44.2-1.38l1.64.33c.75.15,1.95.37,2.53.34.47-.02.92-1.04,1.28-1.47l1.15-1.37c.24-.28,1.26,1.08,1.28,1.46l.45,5.9.77-7.48c.16-1.57-.8-4.5-2.1-5.32-6.34,1.41-7.59,5.71-15.61,3.61l-4.42-.25c-1.58,1.28-2.02,3.42-2.15,5.41l-.42,6.31-.08,59.17,7.39-.02-.31-.5-6.51-.06.11-58.47.93-7.55c.08-.62.17-1.28.45-1.42s1.07-.05,1.11.26l.17,1.27c.11.82.41,2.27.89,2.79s1.98.58,3.2.67l.75,2.99.92-2.75,7.11-1.73.98,2.57.64-.64ZM114.34,528.52l-.31-.48-3.14.15.31.48,3.14-.15ZM157.37,534.21l-2.66.03c.28,1.91.35,2.61,1.39,4.7l1.28-4.73ZM153.15,539.92l.06-2.37-1.13,1.05c-.22.21.48.85,1.07,1.33ZM211.02,539.7l-.17.08-1.11,4.15c1.68-.81,2.11-2.81,1.28-4.23ZM208.58,544.75l-3.72.06c-1.1.02-2.55-.63-3.62-1.33-.39.45.81,2.43,1.54,2.3l5.81-1.02ZM157.35,550.17l.47-.96-.16-3.66-.5.29.19,4.33ZM59.15,556.95l.47-.96-.16-3.66-.5.29.19,4.33ZM157.25,566.49l.54-.31-.07-11.61-.54.31.07,11.61ZM60.81,572.69l.48-.31-.15-3.14-.48.31.15,3.14ZM74.73,583.24l-5.51-1.21-.46,1.94,5.97-.72ZM159.46,589.42l-1.52-2.66c-.45,1.27.54,2.62,1.52,2.66ZM85.2,603.62c.34.46,1.25-1.61.71-1.72l-2.35-.5,1.64,2.22ZM174.22,606.56l.51-.3-.12-4.83-.51.3.12,4.83ZM220.55,607.94c.51-1.03-1.42-2.74-2.34-2.27l.33,2.88c.05.42,1.81-.21,2.01-.61ZM214.87,616.16l.49-.31-.14-3.7-.49.31.14,3.7ZM99.99,620.27l-5.68-1.57c-.67-.19-1.65-1.7-2.21-2.25l2.34,6.62,9.29-3.28c-1.45-.03-2.43.18-3.74.47ZM95.93,627.39c3.3-.71,6.43-1.57,9.23-3.07-1.1-2.21-3.39-1.5-4.46-.42l-3.3.13c-.64.03-1.96.82-1.85,1.4l.38,1.96ZM94.37,637.49c.03-2.67-.91-4.41-2.02-5.98.47,2.6,1.12,4.34,2.02,5.98ZM96.42,643.82c.5-1.41.03-2.06-.73-2.22l.73,2.22ZM225.36,659.93l.18,29.61.49-.33.08-29.6-.1-12.78-3.06,6,2.04,2.12c-.19,1.31.36,3.28.37,4.97ZM112.57,659.58l-3.82-3.65.2-2.22c-2.59-1.6-3.96-3.42-5.35-5.96.92,4.88,4.58,10.14,8.66,12.63l.3-.8ZM134.6,655.63l1.56-1.01c.25-.16-.09-.9-.37-1.01l-1.59-.65-3.97,1.86c.22,1.44.33,2.24.01,2.8-.26.47-2.04,1.37-2.25.88l-1.04-2.37-3.31-1.65-4.08-.87-.51,2.55c.76,1.12.92,4.27-.3,4.79-2.02.86-4.16-.21-5.73-.94l-.36.56,7.89,5.06,13.55-9.66-.34-.28-.74-.4c-.26-.14-.1-1.22.17-1.34s1.28-.08,1.2.21l-.32,1.2.54.28ZM220.89,657.3l2.06-1.53c.32-.23-.57-1.48-.75-1.64l-1.31,3.17ZM216.39,662.23c.19-.2.64-1.03.37-.98-.45.08-1.39.21-1.57.43l-.94,1.08c-.13.14.64.23.81.14l1.34-.67ZM213.35,676.03l.29-12.49-1.13-.02v40.7s.55-.33.55-.33l.28-27.86ZM219.29,741.2c.26.18,1,.3,1.16.02,1.86-3.25.71-7.93.69-10.01l-.03-6.05.59-6.35v-6.74s-.02-22.54-.02-22.54l-.46-9.9-.33-15.56-.49.32.18,32.44.16,10.77-.29,3.38-.04,28.21-.77,1.7c-.04.1-.12.14-.35.29ZM210.29,667.1l-.1,36.16.62.41.02-39.03-2.19,1.46,1.65,1ZM217.97,693.17l.28,14.43.47-.32-.02-42.65-.53.32-.19,21.7v6.52ZM152.55,672.25c2.02-.66,3.19-2.1,3.21-3.95l-3.21,3.95ZM135.24,673.82l-3.91-2.59c.57,2.05,2.02,2.59,3.56,3.05l.35-.46ZM195.72,683.2l1.19-10.11c-.23-.2-1.44,1.1-1.42,1.75l.23,8.36ZM135.56,674.13l-.32.52c1.03.81,2.83,1.94,4.56,2.43-1.4-1.26-2.81-2.16-4.24-2.94ZM147.39,677.82l.77.24,1.88-2.23-.5-.46-2.15,2.45ZM204.98,719.26l.04-4.95-.15-11.53-.45-21.59-.1-4.44-.91-.82.56,6.32.12,62.65,1.1-6.27c-.79-3.32-.21-6.33-.22-9.7v-9.67ZM201.85,686.15l.53-.31-.08-8.79-.53.31.08,8.79ZM147.32,679.1l-2.26.63-3.88-1.55,4.17,3.2,1.97-2.28ZM192.79,696.32l.54-.31-.05-16.13-.54.31.05,16.13ZM184.31,727.37l.56-.32-.02-39.83-.56.32.02,39.83ZM186.58,705.91l.55-.32-.05-17.82-.55.32.05,17.82ZM177.64,691.8l.48-.31-.15-3.14-.48.31.15,3.14ZM201.82,705.35l.55-.31-.05-16.7-.55.31.05,16.7ZM195.63,700.27l.53-.31-.08-9.36-.53.31.08,9.36ZM163.43,720.03l.55-.32-.04-25.16-.55.32.04,25.16ZM192.88,703.09l.48-.31-.15-3.14-.48.31.15,3.14ZM170.25,708.17l.52-.31-.09-7.66-.52.31.09,7.66ZM195.24,709.89c.82-2.37,1.09-4.65.7-7.86-.93,2.39-1.16,4.93-.7,7.86ZM175.31,706.44h.96s-.81-2.91-.81-2.91l-.15,2.91ZM201.81,735.27l.55-.32-.03-27.41-.55.32.03,27.41ZM210.28,730.19l.55-.31-.05-18.39-.55.31.05,18.39ZM218.2,715.56c.66-.58,1.02-.86.87-1.21l-.76-1.75-.11,2.96ZM120.06,717.2l.49-.31-.14-3.7-.49.31.14,3.7ZM175.29,731.88l.55-.31-.05-18.39-.55.31.05,18.39ZM187.15,729.62l.54-.31-.05-16.13-.54.31.05,16.13ZM170.89,718.38l.47-.96-.16-3.66-.5.29.19,4.33ZM168.53,728.49l.54-.31-.07-12.18-.54.31.07,12.18ZM192.39,739.55l1.45,5.85.04-28.84-.6.31-.14,7.35.24,14.78-1,.56ZM219.29,740.6l-.34-24.33-.64,6.61.29,11.31.2,6.68.49-.27ZM177.57,731.31l.54-.31-.07-11.05-.54.31.07,11.05ZM129.13,725.72l.47-.96-.16-3.66-.5.29.19,4.33ZM170.89,727.98l.47-.96-.16-3.66-.5.29.19,4.33ZM161.3,731.37l.47-.96-.16-3.66-.5.29.19,4.33ZM184.37,735.82l.51-.31-.11-5.96-.51.31.11,5.96ZM138.13,736.39l.48-.31-.15-3.14-.48.31.15,3.14ZM187.47,738.61l.08-4.58c-.81,1.56-.85,3.12-.08,4.58ZM148,736c.52.78,1.57,1.92,1.94,1.92l9.85-.08,15.07-.27c.93-.02,1.65-2.33,1.06-3.24-1.54,1.8-3.27,2.86-5.72,2.71l-7.97-.48c-.86-.75-2.7-1.9-3.73-1.78l-10.49,1.23ZM177.07,738.65l.48-.31-.15-3.14-.48.31.15,3.14ZM174.79,741.02c-.27.18-.79.98-.52,1.15s1.24.73,1.3.42l.3-1.43c.04-.2-.9-.25-1.08-.14ZM177.8,743.6c.66-.47.96-1.89.56-2.08-.66.48-.97,1.9-.56,2.08ZM184.97,745.42l.48-.31-.15-3.14-.48.31.15,3.14ZM176.53,752.29l-.41-8.07-.24,8.52.65-.45ZM171.73,748.54l2.26-.17c.27-.02-.13-.75-.68-1.76.46-.37-.12.09-.73.59-.35.55-.93,1.46-.85,1.34ZM198.08,749.22c.57-1.41.88-1.99.66-2.13l-.98-.62.32,2.75Z"/>
  <path class="cls-1" d="M37.57,116.64l-5.7-6.28c-1.47-1.62-1.69-3.69-1.03-5.73l-8.37-12.86c1-2.28.56-3.96-.78-5.61l-7.32-9.71c-1.44-1.92-1.04-5.1-1.69-7.31-1.96-6.69-9.74-9.59-5.51-14.12l-5.56-8.31c.22-.87,1.64-2.23,2.37-2.7l-.41-3.5,4.71-3.47,2.24,4.97c-2.01-.34-2.53-.55-4.21.05l6.76,9.34,2.89-.43-5.19,1.44c.7,2.5,2.32,5.16,4.38,7.39l5.62-1.1-5.11,1.79c2.25,2.73,3.13,4.84,2.64,8.57l5.91-2.31.4.46-6.42,2.49,9.9,13.55c.74,1.01.6,2.28-.18,3.49,2.03,4.59,5.02,8.8,8.36,12.88l7.14-4.6.92.43-5.15,2.98c-1.16.67-2.72,1.47-3.11,2.42-.48,1.16-.07,3.53.77,4.45l6.32,6.83,9.33,12.18c2.92,3.82,7.64,6.27,11.02,9.76,4.22,4.36,8.81,8,14.2,10.74l9.04,4.6c8.05,4.1,15.77,8.3,24.72,10.62l18.85,4.88c9.6,2.49,16.89,4.92,24.29-2.51-2.41.18-4,.33-5.73-.15l-21.18-5.87c-2.9-.8-5.51-1.46-7.74-3.9l-3.3,6.79-.63-.12,2.95-6.83c-1.83.1-3.15-.18-4.5-1.24l-2.93,4.6,1.69-4.8-5.83-1.74c-1.05-.31-2.15-1.19-3.1-2.13l-2.31,2.89,1.08-3.26c-1.89-.37-3.13-.83-4.52-1.79l-4.29,6.21c.85-2.33,2.28-4.39,3.7-6.69l-2.51-.71c-.52-.15-.72-1.43-.99-2.3l-3.15,3.24,1.57-3.72c-.66.23-2.11.59-2.36.12-.39-.73-.94-2.65-1.68-2.66l-2.25-.03c-.6,0-1.27-1.06-1.87-1.96l-2.54,2.12,1.59-3.3-1.84.36c-1.14.23-1.7-3.39-5-3.26l-1.24-2.77-3.63,3.1,2.35-3.58-3.81-2.6c-1.51-1.03-2.71-1.98-4.1-3.44l-2.56,1.5,1.59-2.44-3.36-2.13c2.48-2.11,3.36.47,4.7,1.18l10.18,5.37,6.07-6.73c-3.17-2.42-4.54-4.51-5.17-7.72l-10.07,8.69,9.99-9.77c-.38-2.91-.7-6.46-2.14-8.78l-3.74-5.99-4.37-8.32-1.14.24c-.15.03-.71.14-.6.02l.87-1.03-1.59-3.56,3,1.16,1.7-6.95c.92-3.75,1.97-6.91,1.41-10.86-1.16-8.23-.81-15.19,5.07-20.99,3.22-3.18,5.8-6.73,6.84-11.16,2.06-8.78,10.33-13.7,18.9-14.02,1.94-2.16,4.38-4.21,6.8-6.1,3.52-2.76,6.57-6.35,11.15-7.57,6.6-1.76,16.89.84,21.63-.5l16.24-4.58c3.45-.97,12.58-.4,14.68,2.79,1.73-.79,3.92-.18,5.07.96.69.68,2.8.76,3.62,1.01,4.76,1.47,8.96,1.79,13.84.95,3.67-.63,7.74.55,11.17,1.54,8.54,2.48,12.43,10.3,17.8,12.66l6.33,2.78c6.46,2.04,11.15,6.52,13.02,13.16,2.84,10.08,12.07,14.7,11.82,22.36l-.29,8.98c-.11,3.48-.39,6.75.64,10.05,1.37,4.41,1.72,8.69,1.63,13.26,2.44-3.09,4.5-5.55,7.59-7.04,2.35-2.87,4.48-6.24,7.35-8.49,1.61-1.26,3.52-2.09,4.7-3.71l4.07-5.57c4.1-5.62,7.96-6.53,11.1-10.75l3.74-5.02c.78-1.05,2.31-1.39,3.68-1.02l5.91-7.82c.27-.35,1.23-1.28,1.54-1.04l1.51,1.13,5.18-5.03c.61.79,1.2,1.37,1.99,1.76,2.47,1.21,3.42,4.22,2.66,6.49l1.83,2.49-4.39,7.26c-.2.33-.6,1.18-.91,1.14l-2.06-.21,2.76,3.55c-1.13,4.06-4.36,6.82-4.57,6.05.66,2.36-1.97,4.44-2.86,9.57l-3.39-2.31-.62,1.14,4.66,2.45-9.55,14.69-.09,3.54c-1.93,4.52-4.5,8.85-7.26,12.71l-4.68-1.48c-.02-1.18-.54-1.4-.9-.38l-.45,1.78c-.09.36,1.08.13,1.39.07l.28,1.18c.05.19.62-.03.67-.22s.16-1.24.31-1.15l1.2.77.86-.39c.31-.14.85.64.92.97s-.65.51-1.38.59v1.81s1.87-1.18,1.87-1.18c-1.3,3.65-3.23,6.53-5.75,8.82l-1.81,2.34-7.16,8.41-3.11-2.33c.07,1.74,1,1.99,2.97,2.74-2.17,3.42-4.85,6.22-7.89,8.7l-1.52-.03c-.34,0-.59,1.39-.88,1.62l-7.9,6.56-1.11-.18c-.45-.74-.75-1.23-.12-.2-.14.68-.43,1.75-.78,1.98l-6.68,4.37c-.67.44-1.41.91-1.86.93s-1.06-.54-1.88-1.12l.59,2.04-9.73,4.4-11.39,5.36-1.39-1.82-.67,2.84c-7.28,2.65-13.93,4.47-21.41,5.8-6,2.59-12.02,5.45-18.33,6.97s-9.83,5.98-9.87,12.75l-.16,27.92c-.01,2.21-1.43,3.26-3.44,3.5-2.55.31-3.75-.74-5.11-3.14l-.21,15.54-.24,102.2c0,1.83-2.27,3.39-3.65,4.79-4.8,4.86-7.66,9.92-10.99,16.44l.08-18.26-.81-1.2c-.18-.27.28-.73.71-1.27l-.34-87.96-.24-23.64c.37-.82,1.15-1.86,1.75-2.08l1.57-.57c.41-.15-.27-1.62-.63-1.89-1.61-1.24-1.4-3.44-1.41-5.42l-.16-29.02c-.03-4.68-5.33-7.63-9.34-8.54-4.54-1.03-8.28-2.11-12.37-4.07l-11.51-5.52c-2.05-.98-3.62-1.84-5.84-2.58l-5.82-1.94-4.83-2-10.35-4.35-12.11-6-7.07-3.69c-.11-.06-.03-1.23-.03-1.23.02,0-.7.09-.97.13l-6.56-4.84-6.81-6.11-3.29-2.43c-3.01-2.23-6.21-4.34-8.19-7.6-2.34-3.86-5.32-6.99-8.3-10.28ZM164.72,34.82l-1.36-1.05-1.17,1.17c-.22.22.37.83.64.71l1.9-.83ZM167.43,40.97l.52-.31-.1-6.53-.52.31.1,6.53ZM317.4,46l.11-.86-2.14-1.9-.19.83,2.22,1.93ZM168.85,47.48c.63-.04,1.08-2.14.63-2.58s-1.49-.86-2.01-.88c-.47,1.49.23,3.53,1.39,3.46ZM310.08,66.49l-3.93-.59,3.2,2.97.73-2.38ZM308.06,74.27c-.88-3.18-4.2-2.7-4.53-5.73-.48,1.08-.05,2.98,1.17,3.71l3.36,2.01ZM298.02,92.6l-2.69-2.86c-.79,1.99,0,3.17,2.59,4.04-.03,1.42.02.37.1-1.17ZM87.72,131.01l3.58-4.93-7.79-5.75-5.57,6.49,9.79,4.2ZM98.83,133.35l-2.14-1.82c-.34-.29.02-1.07.69-1.82l-5.08-3.17-3.77,4.65,5.55,1.92c1.51.52,3.12.59,4.75.24ZM227.73,135.41l1.13-1.86-2.21-1.01.74,3.23.34-.37ZM217.86,140.82l4.59-.57-1.65-4.55-3.55,1.79.61,3.33ZM228.18,135.65l-.33.47.77,2.01.35-1.51c.08-.35-.48-.78-.78-.97ZM216.37,140.65c-.11-.94-.78-2.41-1.25-2.15l-1.56.88,2.81,1.27ZM246.62,144.47c.26,1.6.68,2.38.95,2.2l7.33-4.29-2.17-2.49-1.09.63c.18.65.51,2.07.16,2.39l-1.24,1.13-.49-2.5c-.06-.32-1.38.04-1.18.09.56.99.71,2.28-.05,3-.46.43-1.04.23-2.23-.16ZM247.43,142.5l-.73-2.34-.43,1.58c-.09.34.88.83,1.16.76ZM244.06,147.36c.48-.5.78-.99,1.06-.89l1.38.47-.98-4.51-.55,1.73-1.13-1.18.23,4.38ZM228.68,150.09l-1.18.44.55,4-3.32-6.48-.52,4.23c-1.76,1.23-2.64,4.35-.53,5.88l4.64-2.08,6.63-3.01,9.56-4.41-2.55-3.36-.52,1.62c-.08.24-2.63-.59-2.66.22l-.04,1.34-.03,1.22c0,.23-.61.66-.44.48l-1.49-3.49-.36,3.19-3.81-1.72.59,1.88-4.12,2.05-.43-1.99ZM218.18,160.1l4.37-1.15-3.01-8.83.07,2.96c-1.01.45-2.43,1.64-2.44,3-.01,1.18.47,2.68,1.02,4.02ZM216.49,158.54c-.17-.56-1.36-1.5-1.67-1.15l-1.3,1.5-1.43-1.75c.02-1.31.49-3.65-1.17-4.45-.81,4.67,2.27,10.99,3.34,8.88l.72-1.42,1.2,1.08c.23.21.9-.72.81-1.01l-.51-1.69ZM213.38,156.26l.29-2.14c.05-.33-1.2-.13-1.27.01l.98,2.13ZM181.43,166.03l-1.52-.44c-.23-.07-1.14.55-1.4.55l-6.21.1c2.83,3.31,7.14,3.38,11.09,2.61l6.83-1.33.42-1.54c.04-.16.13-.11.24.04l.79,1.14,12.02-3.35-.34-1.66c-.04-.21-.64.61-.84.7l-1.02.42c-.46-.42.6-1.79,1.31-1.61l2.56.66-1.6-7.03-1.03,1.73c-.18.3-2.1-1.09-3.24.84-2.79.41-5.38,1.78-6.58,4.4l.03-1.99c0-.29-.91,0-.89.08-.37,1.37-.41,1.5-.27.99.06-2.34-3.25.15-3.31.39l-.44,1.76c-.87-1.11-1.67-1.36-3.37-.66-.85.35-1,1.57-.63,3.07l.29,1.2c.05.21-.78.43-.85.23l-.35-1c-.1-.27-.54-1.46-.74-1.25l-.96.98ZM207.47,160.17l-2.28-4.24,1.2,6.18c2.12-.51,1.48-1.07,1.07-1.94ZM209.73,162.29c1.24-.51,1.91-2,.2-3.12l-.2,3.12ZM158.69,228.02c1.3-2.64.53-5-.64-5.43-.43-.16-2.39.63-2.15,1.02l.8,1.28,2,3.14ZM158.28,239.94l.07,46.25.55.34-.02-57.7c-1.12,1.68-.69,3.64-.66,5.71l.06,5.4ZM160.74,242.49c.53-1.42.05-2.06-.73-2.23l.73,2.23ZM162.3,241.56c-.34.07.44,1.08.76.96l.9-.34c.22-.08-.1-.95-.32-.9l-1.34.28ZM159.07,296.23c.62-1.86.7-4.03-.35-5.96-.6,1.88-.68,3.99.35,5.96ZM158.47,311.91l.34-.31.3-12.41c-1.74,1.16-1.02,2.85-.97,4.3l.32,8.41ZM158.41,342.96l.51-.3-.12-5.4-.51.3.12,5.4Z"/>
  <path class="cls-1" d="M228.31,253.97l-4.02-.43,3.26-3.76c4.92-5.67,19.04-7.2,24.52-4.72,12.87,5.83,21.64,24.54,25.31,38.31l3.06,11.49,2.3,11.58c-.7.03-1.17.03-1.18.08l-.15.79c-.05.27.6.37,1.5.51l-.6,2.74,1.15.48-.4,5.3c-1.73-1.29.05-4.48-3.08-6.14,0,.64.19,1.46-.16,1.63l-1.91.94,1.21,1.64-2.07,2.53c-.53.65.42,3.11.78,3.04l3.02-.34,6.34-.71c.78-.09,1.48-1.27,1.45-.52-.01.29-.3,1.24-.2,1.51l1.58,4.19,4.83-.87,6.76.06c.57,0,1.58,1.03,1.65,1.58.08.68-.21,2.24-.91,2.44-2.21.61-4.52-.24-6.04-2.82.33,1.04.56,1.34,1.38,2.8l-2.79-.39c-.94,1.01-2.1,1.53-4.19,2.21l4.91,1.35,1.03,4.15,6.85-1.14c2.7-.45,5.36,1.37,4.95,4.42l-6.39-.14-7.74,1.45c-.52,2.16-.11,4.91,1.77,6.55.87-.66.88-2.26.34-3.17l-.44-2.99,3.01.06-2.13.82c1.61.55,3.72.11,5.01-1.18l4.23,1.64.95-.83c.18-.16.69-.35.89-.21s-.72-.52-1.25-.9c.68-.02,1.79.3,2.41.78.72.55.96,2.36.37,3.2l-8.77-.44-1.57.28c-.31.05-.14,1.01.17.98l1.51-.11c2.23.5,4.82,1.23,7.85.29l3.59,4.75-3.99,1.24c-1.09,5.66,2.16,7.7,2.45,9.57.1.65-1.25,1.75-1.93,1.91l-4.39,1.02c1.9,7.7-1.78,14.74-8.38,17.05-1.44.5-2.04.77-3.18,1.44-5.08,3.01-15.86-.49-20.29-6.01l3.49-.8-5.04-.6-1.25-4.51-4.75-.61-1.94-9.63c-1.83-.49-3.88-1.6-3.74-4l1.56-1.4-.97-5.69c-1.3-.78-1.99-2.07-1.57-3.29.33-.96,1.77-1.5,3.32-1.69l-1.6-5.87c-.27-.98-1.76-2.4-1.19-3.6.61-1.29,1.77-2.1,3.12-2.34l2.39-.44-.89-5.87c2.25-4.35,4.8-7.94,8.84-10.64.39-1.91.15-4.31-.41-6.35l-1.69-6.14-4.94-17.58c-2.09-7.44-5.46-14.25-9.96-20.39-2.5-3.41-5.99-6.12-10.21-6.61-5.93-.69-11.01,3.91-11.92,9.56l-1.75-.06c-1.31-.04-.58,3.16-2.93,5.86l.59,2.65c.15.65-.93,1.64-1.45,2.2l-.57,6.53-3.01,14.22-1.03,6.98c-.09.6-.6,1.65-.91,2.15l-1.23,5.26-.29,4.81c-.48.42-1.11,1.38-1.18,2.02l-.62,6.38-.39,3.23-1.58,10.35.84,3.28-1.46-1.97-1.8,10.71c-.31,1.81-.98,3.5-.45,5.55l2.1-11.47.49.34-.64,5.33,6.19-4.55-.86,1.83c-.18.39-.03,1.16.28,1.45s1.59.04,1.94-.24l4.29-3.41c-.34,2.44-2.2,2.95-3.47,4.26l-4.15,4.3-5.72,5.76c-.8,1.19-.91,3.99-.75,6.09l8.54-5.46c-2.95,3.17-6.01,5.23-9.43,7.86l-1.55,14.64c5.19,1.29,8.03-5.38,12.85-5.98l-6.31,5.29c-1.16.98-1.84,1.25-3.54,1.59l-3.83.76-.39-5.49-.38,5.31-5.07,1.96c-2.56.99-4.69,2.11-6.4,4.46l-3.55,4.88-3.14,5.31c-2.02-3.91.91-7.27,4.47-8.74l3.12-25.7-9.03,21.13-2.9,6.24c-.22.47-.5,1.94-.2,2.18l1.83,1.46c1.24,2.54,1.16,8.04-.35,9.16-.18.13-.85.07-.82-.15l.21-1.55c.28-2.13,2.32-5.7-.78-7.67l-8.07,13.59-2.03-5.81-2.53,1.6c.37-2.61.15-5.51.04-8.51l-.2-5.15,3.07-2.3-2.68-3.8,4.89-3.57,5.63-4.51,1.22-.97c.92-.73-2.64-.96-3.53-3-.78-1.79,4.12-2.32,4.13-4.18s.48-3.75,2.48-4.47c-.05,1.85-.51,3.09-1.49,4.86-.92,1.65.13,4.61.04,6.39l-.58,11.4c5.49-6.41,12.15-26.13,13.34-33.11l2.16-12.66,2.6-13.74,5.95-30.45,3.82.36-3.65-1.24,2.45-14.28.91-4.25,1.59-7.29c1.46-6.71,3.13-12.92,7.21-18.53l3.85.17.7-.34ZM252.52,250.18c-2.32-2.98-5.31-4.21-8.53-4.28l8.53,4.28ZM234.44,248.66l-1.35-1.17c-.16-.14-1.16.78-.95.81l2.3.35ZM252.55,253.64c-1.99-2.64-5.37-3.07-8.11-2.72l8.11,2.72ZM245.27,253.65l-.3-.51-4.83.12.3.51,4.83-.12ZM228.62,254.19l-.3.57,4.05-.11-3.75-.46ZM232.51,262.23c.31-.16,1.12-1.4.73-1.68l-1.58-1.15.85,2.82ZM223.64,262.18c.36-.27-.3-2.16-.79-2.02l-1.96.56,2.75,1.46ZM227.35,270.46c-1.53-1.4-3.36-1.09-4.72-.56l4.72.56ZM222.56,272l-2.79-.08c.4.31,1.33.98,1.71.75.42-.26,1.32-.82,1.08-.67ZM224.39,276.79l-.3-.51-4.83.12.3.51,4.83-.12ZM225.24,284.86l.03-.6-5.26-.99c-.67-.98-.85-.39-.51.63l5.74.96ZM217.04,303.95c-1.12-1.76-3.37-1.99-5.14-1.43l5.14,1.43ZM279.84,308.28c.18.06,1.04.16.92,0l-.74-.91c-.19-.2-.76-.52-.95-.32-.23.24-.55.75-.29.84l1.06.38ZM215.7,318.09c-1.41-1.38-2.3-1.89-3.26-.82l3.26.82ZM284.25,330.27l-3.79-4.14-2.56-.28.88,5.49,5.48-1.07ZM286.46,333.01c-.34.07.44,1.08.76.96l.91-.34c.21-.08-.11-.95-.32-.9l-1.34.28ZM295.96,333.98c-1.31-.93-3.42-1.38-4.4-.57l1.24,1.32c.16.17.68-.35.84-.46l1.53.71c.25.12.72-.72.79-1ZM283.51,340.85l-3.97-4.27c-.4,2.54-.05,4.09.52,5.82l3.45-1.55ZM285.89,353.5l-4.51-5.39,1,6.12,3.51-.74ZM306.22,350.72l-.31-.49-3.7.14.31.49,3.7-.14ZM302.21,357.05c1.58-2.91,7.23-1.26,4.81-4.35-.84-1.07-2.38-.21-6.06-1.52-.31-.11-1.29-.49-1.3-.22l-.04,1.34-8.3,2.65c2.78,3.42,7.67-.42,10.88,2.09ZM297.99,369.22c.21.07,1.43.23,1.37.05l-.35-1.09,3.47-1.53c.59-.48.41-3.03.12-3.32l-5.24,1.47c1.72-2.33,4.09-.92,5.2-3.37l-14.61,3.75c-.9-2.31-1.44-2.96-3.67-4.5-.1.9.06,2.78.35,3.85.21.78,1.97,1.58,2.83,1.42l9.19-1.69.06,1.03-4.12.85.77,1.18c.99-.43,1.53-.73,1.72-.5l.67.86,1.17-2.38,1.07,3.9ZM290.88,373.12l-2.48-.25c.61,3.03,1.56,5.66,3.95,8.23l-1.47-7.98ZM210.37,377.39l.48-.31-.15-3.14-.48.31.15,3.14Z"/>
  <path class="cls-1" d="M136.03,444l9.1,10.49c-1.76,1.46-1.76-.55-2.25-1.13l-4.17-4.91-9.3-9.46,1.26,8.21c-3.71-5.33-7.23-9.41-13.21-12.73-1.08,2.09-1.49,4.19-1.65,6.85l-10.58-6.15c-3.99-2.32-8.84-2.3-13.25-1.73-.36-.75-1.15-1.75-2.1-2.26-6.2-3.37-11.38-7.71-16.26-13.01,1.95-2.08,4.02-1.79,6.24-1.85,8.05-.25,15.03,1.81,22.43,4.63l8.61,3.29.69-4.02,8.29,2.19-2.66,4.58,13.54,1.78-1.15,4.1,3.77.86c-.75,2.29-.72,2.84,0,4.72l-1.59.78,4.24,4.76Z"/>
  <path class="cls-1" d="M179.69,455.29l-2.97,3.1-6.15,6.73-2.11-8.14-1.19-7.61.55-.38,1.54,9.39c.98-.49,2.03-1.47,2.55-2.06.57-.65,2.23-.45,3.77-.05l.24-15.52-1.73-2.24,7.1-3.72c2.2-1.15,3.79-2.28,5.71-4.69l-8.71-2.15,6.53-2.05c3.09-.97,6.1-1.77,8.82-3.81l-5.7-1.44c-.47-.12-.91-2.11-.67-1.8l2.54,1.54c.55.34,1.26-1.68,1.31-2.61,3.11-1.55,6.86-2.53,11.03-3.45l-4.79-3.89,9.55-3.31-.88,9.16-1.03,11.85-.48,6.85c-.32,1.15-.83,2.21-.68,3.52,2.16-2.51,1.64-5.29,2.22-8.28l.71,6.46-10.36,9.25.55-8.8c-2.16-.03-2.75,3.6-4.82,3.17-3.9-.8-1.7-4.59-4.09-7.34l-5.66,11.95c-1.33,2.82-1.63,6.28-2.58,9.97l6.07-4.02-.33,1.94c-.07.42-.78.39-1.73.43l-2.51,2.52c-.67.67,1.36,2.55,2.16,2.09l-.08,1.2c-.02.34-1.35-.06-1.54-.36l-2.15-3.43Z"/>
  <path class="cls-1" d="M188.62,350l1.09,5.8c.35,1.87-.65,2.53-2.08,3.56-3.54,2.55-7.04,5.2-11.23,6.79-1.92-1.4-.98-6.82-.07-10.54.06-.96-1.63-2.29-3.06-2.91l-.27-16.82.48-.31-.03,3.52,5.08,5.84c.05-1.59-.22-2.28-.76-3.33l1.77-4.91-5.59-14.44c-.35-.9-.94-1.39-.62-2.62,1.91,3.16,2.97,6.47,4.52,9.95l2.29,5.12.44-4.25.16-4.68c.03-.88.93-2.44,1.56-2.56l3.85,4.95c1.31,1.68,1.74,3.4,2.01,5.5l.53,4.1c.39,2.96.69,5.7.31,8.48-3,.79.91,1.97,2.25,5.73-1.28-.36-1.77-.9-2.65-1.96Z"/>
  <path class="cls-1" d="M126.52,357.71c.43,1.63.79,2.77.62,4.46l-1.77-5.37-9.83-35.94-7.04-27.36-3.26-12.8c-.58.25-1.65,1.22-1.47,1.69l.82,2.19-5.31,3.22-2.61-5.29c-1.01-2.04-1.7-3.94-2.36-6.13l-1.27-4.28c2.7-1.39,3.47,1.95,6.18,1.94-.63-5.34-.39-10.37.89-15.7.82-3.39,1.07-6.49,4.27-9.16,1.23,1.27,2.48,3.29,2.81,5.09l3.06,16.57,3.48-1.97c1.85,2.38,1.6,6.06-1.1,7.44-.7.36-1.86.98-2.26,1.45s-.11,1.72,0,2.67c.08.77-1.47,2.19-2.09,2.47l-1.65-3.08,1.72,8.94,2.21-5.61c.62-1.58,1.35-3.42,2.68-4.46l-3.38,9.19-1.37,1.28c-.34.32.35,1.61.5,2.17l17.54,66.4Z"/>
  <path class="cls-1" d="M147.26,395.78l-.43,7.69c-.47-1.17-.88-2.83-.77-3.81l.69-6.01.56,1.78c.1.33.78.48,1.41.61l.08-9.71c.02-2.83,3.07-5.9,4.9-8.52l10.57-15.14.24,6.58c.01.4,1.02,1.29.88,1.64l-.64,1.63c-1.06,2.71-1.8,8.4-6.84,11.22-4.33,2.42-7.8,9.61-9.45,14.39l-1.21-2.33Z"/>
  <path class="cls-1" d="M159.85,467.02c-5.67-5.09-10.31-11.04-13.08-17.83.74-1.5,1.09-3.59.88-4.76l-3,3.16-3.79-10.76c4.93,2.61,8.84,6.24,11.11,11.26l5.94,13.16,1.94,5.76Z"/>
  <path class="cls-1" d="M170.82,413.47l-6.64,10.9-4.79,7.65c-.51-9.56-1.54-18.35,4.89-25.41l.33,11.44c.7-1.29,1.05-2.51,1.41-3.61,2.1-.59,3.66-1.51,5.72-2.98-.13.39-.6,1.49-.92,2.01Z"/>
  <path class="cls-1" d="M130.62,411.25c-.29,1.46-.17,2.1.01,3.78l-12.52-8.12c1.33-.02,2.58.06,3.11-.45s.27-2.36-.12-3.08c9.11,1.65,16.15,8.22,17.99,17.51l-3.28-3.37-5.21-6.27Z"/>
  <path class="cls-1" d="M207.74,404.02l.91-5.21c3.14-2.64,5.48-6.17,7.49-9.71l1.65,3.31-1.05,6.95-.36,5.82-3.31-.37c-.84.33-2.86,1.62-3.61.99l-1.94-1.62-.55-.1-3.22-2.04,4-2.65-.39,4.23.38.41Z"/>
  <path class="cls-1" d="M125.21,390.72c2.05,1.57,4.25,2.77,6.36,5.09-3.07-1.4-5.91-3.06-8.47-5.28l-12.15-10.58,3.01-2.21,5.43,3.61c3.58,2.38,6.01,6.02,8.75,9.28l-2.92.09Z"/>
  <path class="cls-1" d="M158.24,442.79c-1.85-1.74-2.39-4.25-3.37-6.7l-1.79-4.44-8.52-17.96c-4.06-8.57-7.58-16.83-10.21-25.93l-5.02-17.37.48-.93,6.99,23.74c2.45,8.31,6.59,15.4,10.07,23.18l8.56,19.13,2.81,7.28Z"/>
  <path class="cls-1" d="M166.97,487.46l-3.95-6.47c-8.47-10.06-18.74-17.83-29.69-24.97l-16.79-9.49c-1.58.68-1.25-1.03-.13-1,12.82,6.04,24.1,13.65,34.73,22.53,6.68,5.66,12.46,11.76,17,19.19l-.49,1.31c-.03.08-.37-.6-.68-1.1Z"/>
  <path class="cls-1" d="M209.7,425.78c-1.18,1.33-1.27,3.55-3.28,3.92l-.05-6.75.8,2.44c4.4-4.84,8.71-9.42,14.53-12.79-.47,3.17-3.93,4.05-5.71,6.07l-6.3,7.11Z"/>
  <path class="cls-1" d="M137.04,405.49c-2.03-.38-3.26-2.04-4.84-3.21-7.77-5.8-15.99-10.61-24.5-15.48-3.64-2.08-7.79-2.93-11.19-5.54,8.29,2.26,15.06,6.76,22.08,11,6.59,3.98,12.82,7.94,18.44,13.23Z"/>
  <path class="cls-1" d="M178.66,481.48c-.39,1.43.86,3.36-1.38,3.68,1.13-11.88,9.79-23.7,18.91-30.96,7.75-6.17,16.13-11.62,25.62-14-8.02,3.82-15.46,6.92-22.16,12.36-9.89,7.2-17.61,16.65-20.99,28.92Z"/>
  <path class="cls-1" d="M172.44,489.21l-6.9-22.98c-.88-2.94-2.26-5.69-2.33-9.08l5.79,17.34,4.37,14.65-.93.09Z"/>
  <path class="cls-1" d="M120.86,370.64l-4.23-6.38-5.73-9.39,3.68,2.57c2.22,2.5,3.45,6.5,5.01,9.5.67,1.3,1.15,1.76,1.27,3.7Z"/>
  <path class="cls-1" d="M114.47,371.26l-21.3-16.76c8.21,3.93,14.99,10.39,21.78,16.26l.34.25,9.58,8.26c-2.22-.32-3.55-1.99-5.11-3.36l-4.82-4.25-.46-.39Z"/>
  <path class="cls-1" d="M132.08,357.27l9.15-28c-1.77,9.75-4.77,18.98-9.15,28Z"/>
  <path class="cls-1" d="M212.39,433.96c-1.84.99-3.17,1.6-4.9,1.34l6.47-3.39c3.6-1.88,6.89-4.27,11.16-4.78l-12.73,6.83Z"/>
  <path class="cls-1" d="M235.23,414.8l-10.78,7.21c-.21-.34-.62-1.22-.4-1.39l1.33-1.05,9.81-5.69c1.11.32,1.04.71.04.92Z"/>
  <path class="cls-1" d="M237.69,630.62c-1.12.29-2.98-.47-3.52-1.5-.43-.83.46-2.82,1.3-3.4l2.09-1.44.13,6.34Z"/>
  <path class="cls-1" d="M122.63,334.58l1.49-6.24c.74-3.09-1.84-10.84,3.24-14.13-1.6,3.11-2.65,5.36-2.37,8.38.06,4.06.36,8.36-2.36,11.99Z"/>
  <path class="cls-1" d="M135.42,426.59l-2.05-1.04,2.2.08c.46.75.5.83.49.8,6.13,2.64,12.21,6.51,15.24,12.76-4.86-5.35-9.15-9.57-15.53-12.08l-.35-.52Z"/>
  <path class="cls-1" d="M171.19,442.93l-.73,2.54c-.31.08-1.56.18-1.67.52l-.61,1.93c-.21-.58-.62-3.09-.04-3.78l3.3-3.89c.11-.13.8-.11.93,0l.59.56s-.52.4-1.24.91l3.62.94-4.14.25Z"/>
  <path class="cls-1" d="M117.98,303.25l-2.37,9.31c.55-6.35,1.6-12.42,5.16-18.03-.18,3.02-2.02,5.66-2.8,8.72Z"/>
  <path class="cls-1" d="M294.05,316.95l-4.18.62,1.12-2.79c-2.66-.52-4.67-1.09-6.38-2.67,1.98-.55,3.97.08,5.29,1.23l4.15,3.61Z"/>
  <path class="cls-1" d="M234.2,366.84c-3.21-.24-4.89-.16-8.11-1.82l6.84-.95,1.27,2.77Z"/>
  <path class="cls-1" d="M145.31,379.21c-.77,1.32-1.7,2.8-2.35,3.57,5.13-12.53,11.03-24.15,19.89-33.68-6.72,9.65-13.2,18.85-17.54,30.1Z"/>
  <path class="cls-1" d="M113.6,319.88l-10.9-7.21c4.26.81,7.9,3.65,10.9,7.21Z"/>
  <path class="cls-1" d="M268.84,612.29c1.05,1.84-.19,3.66-1.78,4.83l-.24-8.39,2.02,3.56Z"/>
  <path class="cls-1" d="M112.77,334.1c-3.72-1.98-7.7-4.39-10.34-8.52,3.47,3.04,6.68,5.94,10.75,7.96l.31.34c1.31.47,2.85.86,3.74,2.78l-4.05-2.32c-.09-.05-.15-.15-.42-.24Z"/>
  <path class="cls-1" d="M227.84,379.46c-.23.12-.88.88-.97.67l-.35-.89c-.48-1.24,2.45-.67,3.16-2.25.46-1.04,1.64-2.95,3.02-3.11l-1.59,3.82-3.28,1.75Z"/>
  <path class="cls-1" d="M110.59,346.36l-3.81-3.84c-1.43-1.44-3.38-2.23-4.34-4.56,3.24,2.24,6.2,4.94,8.63,7.91l.19.42,5.9,6.96c-.11.13-.67.54-.81.37l-.92-1.11-4.74-5.73-.1-.43Z"/>
  <polygon class="cls-1" points="98.36 290.93 94.09 293.65 92.31 289.88 98.36 290.93"/>
  <path class="cls-1" d="M116.16,298.19c-1.34-3.04-1.06-5.9.25-8.42.22,2.87.26,5.27-.25,8.42Z"/>
  <path class="cls-1" d="M158.97,396.69c1.03-3.48,2.81-6.49,5.56-9.14l-5.56,9.14Z"/>
  <path class="cls-1" d="M181.95,417.25l-6.51,4.09c1.03-1.78,3.64-3.81,5.76-4.61l1.21-.46c.23-.09-.21.82-.46.98Z"/>
  <path class="cls-1" d="M239.52,674.55c-.78.82.82,2.12-.19,3.01-.15.13-.57.49-.57.5-.16-1.55-1.51-3.19-.54-4.17.63-.64,2.04-1.17,2.86-.98l-1.55,1.64Z"/>
  <path class="cls-1" d="M124.5,310.42c0,.19-.94,1.12-.97.93s-.28-1.19-.25-1.38l.99-5.97.22,6.42Z"/>
  <path class="cls-1" d="M154.52,406.79c.06-2.69,1.16-4.9,2.72-6.69l-2.72,6.69Z"/>
  <path class="cls-1" d="M211.25,458.08l-5.45-.89c2.27-1.88,4.07-.31,5.45.89Z"/>
  <path class="cls-1" d="M209.99,440.26c-.82.36-1.52,1.25-2.33.11l7.92-3.22.85.26-6.44,2.85Z"/>
  <path class="cls-1" d="M168.62,429.32c.19-2.12,1.53-3.69,3.46-4.34l-3.46,4.34Z"/>
  <polygon class="cls-1" points="162.6 440.18 165.86 432.65 166.43 433.06 163.12 440.56 162.6 440.18"/>
  <path class="cls-1" d="M231.08,432.13c-1.65,1.26-3.24,1.81-5.1,1.43l5.1-1.43Z"/>
  <path class="cls-1" d="M222.62,434.96c-1.65,1.26-3.24,1.81-5.1,1.43l5.1-1.43Z"/>
  <path class="cls-1" d="M168.46,399.06c-1.47.45-3.17.84-4.86-.6l4.86.6Z"/>
  <polygon class="cls-1" points="172.21 377.5 174.94 374.51 175.45 374.99 172.98 377.76 172.21 377.5"/>
  <path class="cls-1" d="M247.22,328.35l-2.35-1.77,1.75-.56c.34-.11.43,1.08.6,2.33Z"/>
  <path class="cls-1" d="M132.39,424.61c-1.56,0-2.68-.76-3.36-2.24l3.36,2.24Z"/>
  <path class="cls-1" d="M236.89,659.09l.58-2.7.85,1.77c.17.35-.98.91-1.43.93Z"/>
  <path class="cls-1" d="M152.84,412.42c-.04-1.59.24-2.82.8-4.08.08,1.57-.21,2.84-.8,4.08Z"/>
  <path class="cls-1" d="M209.75,395.95c-.84,0-1.79-.16-1.83-.59l-.2-2.13,2.03,2.71Z"/>
  <path class="cls-1" d="M219.9,400.39l-1.01-.51c-.36-.18.06-1.54.41-1.74.21-.12.4.79.6,2.25Z"/>
  <path class="cls-1" d="M141.64,345.17c-.35-1.08-.06-2.3.87-3.41l-.87,3.41Z"/>
  <path class="cls-1" d="M235.06,371.92c.21-.23,1.49.36,1.25.53l-1.21.82c-.39.27-.48-.85-.04-1.35Z"/>
  <path class="cls-1" d="M236.92,344.63c-.83.87-1.88.45-.88-.7.8-.78,1.68-.49.88.7Z"/>
  <path class="cls-1" d="M232.51,640.21c-.52-.55-1.11-1.48-.86-1.7l1.21-1.07-.36,2.78Z"/>
  <path class="cls-1" d="M220.67,448.54l-2.28-1.2c.94-1.01,2.13-.29,2.28,1.2Z"/>
  <path class="cls-1" d="M112.19,406.44c-.07-.24,1.52-.29,1.43,0l-.42,1.26c-.12.37-.82-.63-1.01-1.25Z"/>
  <path class="cls-1" d="M262.84,601.36l.17-2.26c1.25.17,1.16,1.97-.17,2.26Z"/>
  <path class="cls-1" d="M171.46,399.31l-2.43-.7c.64-.58,1.95-.78,2.43.7Z"/>
  <path class="cls-1" d="M259.5,303.51l-1.55.49c-.24.07-.52-.78-.29-.89l1.4-.63.44,1.03Z"/>
  <path class="cls-1" d="M195.72,683.2l-.23-8.36c-.02-.65,1.2-1.95,1.42-1.75l-1.19,10.11Z"/>
  <path class="cls-1" d="M220.55,607.94c-.2.39-1.96,1.03-2.01.61l-.33-2.88c.93-.46,2.86,1.25,2.34,2.27Z"/>
  <polygon class="cls-1" points="201.85 686.15 201.76 677.36 202.29 677.06 202.37 685.85 201.85 686.15"/>
  <path class="cls-1" d="M220.89,657.3l1.31-3.17c.18.16,1.06,1.41.75,1.64l-2.06,1.53Z"/>
  <polygon class="cls-1" points="174.22 606.56 174.1 601.73 174.61 601.42 174.73 606.26 174.22 606.56"/>
  <path class="cls-1" d="M216.39,662.23l-1.34.67c-.17.09-.94,0-.81-.14l.94-1.08c.19-.22,1.13-.35,1.57-.43.27-.05-.17.77-.37.98Z"/>
  <polygon class="cls-1" points="214.87 616.16 214.73 612.45 215.22 612.15 215.36 615.85 214.87 616.16"/>
  <path class="cls-1" d="M279.84,308.28l-1.06-.38c-.26-.09.05-.6.29-.84.19-.2.76.13.95.32l.74.91c.12.15-.74.06-.92,0Z"/>
  <polygon class="cls-1" points="210.37 377.39 210.22 374.25 210.7 373.94 210.85 377.08 210.37 377.39"/>
</svg>