<?xml version="1.0" encoding="UTF-8"?>
<svg id="Layer_1" data-name="Layer 1" xmlns="http://www.w3.org/2000/svg" viewBox="0 0 483.05 488.59">
  <defs>
    <style>
      .cls-1 {
        fill: none;
        stroke: #0095ff;
        stroke-miterlimit: 10;
        stroke-width: 2px;
      }
    </style>
  </defs>
  <path class="cls-1" d="M409.77,409.96l.55,1.9c.04.14-.46.37-.59.44-.52.31.94,1.55.45,1.82l-1.11.61c-.11.06.16,1.08-.07.92l-.69-.48c-.39-.28-1.05-.7-1.43-.81-.43-.13-1.38.73-1.3,1.27.05.32.91.07,1.32-.31l.77,1.62-1.73,1.28c-.77-.08-1.58.03-2.34.28-.35,0-1.19-.07-1.42.17s-.28.92-.29,1.43l.77-.03c.19,0,.35.21.84.72-.11.17-.82.74-1.22.92s-.9-.11-1.7-.42c-1.07.57-.16,1.89-1.65,2.91-.29.2-.82-.14-1.09-.37-.02.71-.12,1.25-.39,1.68-.31.49-1.05.24-1.51-.14-1.09.34-1.82,1.78-1.46,2.83-.94.51-1.4.88-1.78,1.75-.37.46-1.37,1.54-1.96,1.76l-3.31,1.24c-.19.08-.34,1-.55.96l-.97-.2c.05.38.22,1.17-.05,1.3l-1.02.48c-.64,1.15-1.98,2.74-3.32,3.09l-1.7.1c-.05,1.15-1.12,1.6-1.75,2.16l-1.45,1.31-3.86,2.59c-1.81,1.21-3.72,2.04-5.26,3.62l-1.77.35c-1.03-.24-1.81.11-2.26,1.11l-.33.75c-.09.19-.62.14-.76.15-1.94,2.23-5.26,4.15-8.31,4.75-.4.37-1.13.77-1.65.85-.62,1.01-1.74,2.03-3.07,1.77-.38.45-.81.94-1.12,1.16s-1.18-.17-1.67-.33l-1.71,1.3-1.93,1.16-1.3-.21c-.35.68-.81,1.44-1.26,1.64l-3.2,1.42c-.5.22-1.28-.29-1.67-.91-.26.36-.54,1.06-.76,1.83l-1.27.2c-.93.9-2.44,1.8-3.78,1.57-1.13,1.3-3.34,2.39-5.19,1.62-.38-.16-1,.93-1.4,1.09l-4.39,1.81-4.29,1.37-5.42,1.66c-1.41.43-3.05,1.6-4.43.45v.53c.01.2-.7.43-.92.5l-2.26.71h-2.49s-.15.73-.15.73c-.04.19-.59.05-.62-.15l-.16-1.02c-.13-.83-1.26,1.72-2.36,1.93l-3.67.7c-.85-.29-1.85-.59-2.72-.64l-1.19-.06c-.25-.01-.36.72-.56.94-1.35,1.53-3.85,1.32-5.77,1.63-1.03.17-2.21.92-3.38.44-.63-.26-1.25-.36-1.95-.42l.11-.58c.03-.13-.25-.56-.32-.45l-.48.81-.75-.1c-.21-.03-.66.55-.48.66l.69.42.57-.05c.12-.01-.3.38-.41.4l-1.52.31-5.95.77c-.51.07-1.07-.75-1.15-1.46l-1.6-.31c.23-.59.42-1.42-.05-1.97-.69,2.12-1.76,3.51-4.03,3.3-.87,1.3-2.57,1.34-3.73.62-1.53.72-3.83.63-3.86.55l-.43-1.05-1.91.54c-1.37.38-2.29.77-3.68.6l-2.26.03-4.28.27c-1.49.09-2.89-.31-3.74-1.55l-2.44-.18-.84,1.61-.16-1c-.02-.13-.16.06-.27.3-.39.81-1.2.74-2.13.62l-3.09-.4-.95-.81c-.24-.2-.87.49-1.14.74l-4.06-.08.73-1.37-1.42,1.36c-.54-.61-1.08-1.12-1.52-1.04-.72.13-1.77.21-2.25.09-.17-.04-.46-.73-.33-.86l.94-.89-3.03.5c-1.63-.35-2.8.11-4.24,1.03l-4.25-.4-4.13-.54-11.98-2.09-.93-.12c-.27-.04-.49-.73-.53-.89-.35.21-1.13.46-1.55.36l-4.69-1.1-2.71-.64c-.97-.23-2.33-1.18-3.29-1.69-2.08.62-3.92.24-5.54-1.04l-2.16-.45c-1.66-.34-3.08-.83-4.47-1.63l-1.89-.42c-1.62-.36-2.89-1.27-4.28-1.84l-7.67-3.1c-1.19-.48-2.87-.1-3.87-1.48l1.14-.57c-.9-.52-1.62-.33-2.93.14-.25-.03-.57-.56-.34-.63.26-.52.45-.91.14-.31-3.04-.09-3.92-1.45-3.21-1.58-1.19.21-1.41.04-2.22-.93l-.75.43c-.17.1-.55-.31-.73-.45l-1.39-1.1c-.82-.01-1.32-.27-2.11-.69l-3.67-1.93c-.91-.48-1.97-.68-2.82-1.52-1.26-.09-2.3-.51-2.4-2.06l-.33.61c-.06.11-.41.27-.45.15l-.32-.95-1.48-.78-.06-1.48c-.01-.35-.98-.13-1.34.01l-1.4-.56c-.23-.09-.52-.71-.75-.68l-1.11.15-2.24-1.89c-.72-.61-1.38-.78-2.36-.59l-.43-.93-.62.09c-.45.06-.5-1.08-.61-1.04l-.53.16c-.11.03-.57,0-.61-.12l-.15-.42c.03-.18.1-.48.07-.5.03.03-2.31-.9-4.91-2.62-.28-.19-1.27-.31-1.27-.65l.02-1.72c-1.4.5-2.22.25-3.27-.55-.7-.54-1.25-.79-1.53-1.8l-2.92-1.1-.91-2.29c-1.23-.03-2.12-.27-2.84-.95l-2.53-2.42c-1.51-1.44-1-2.54-1.69-1.42l-1.94-1.49-3.38-3.21-2.65-2.07c-.57-.45-1.52-1.13-1.97-1.66l-1.32-1.55c-.12-.15-.19-.68-.18-.95h-1.68c.37-3.52-2.63-2.53-3.54-5.17l-.19-.55c-.03-.09.32-.14.39-.07l.53.52.46-.28c.15-.09.27-.78.09-.81-1.46-.29-2.66.98-3.07.14-.13-.26-.33-.75-.42-.68l-.48.36-1.78-1.64c-.8-.74-1.31-1.8-1.59-2.82l-1.38-.99-2.28-2.12c-1.12-1.04-2.43-1.96-2.64-3.62l-.79-.11c-.27-.04-.3-1.01-.34-1.28l-.24-1.33c-.05-.3-1.15-.16-1.4-.34-1.54-1.12-3.65-3.27-3.78-4.68l-1.37-1.9c.22-.23.09-.1-.36.38.23.22.02.02-.36-.35.04-.23.19-1.18-.06-1.33l-1.34-.82.82-1.46-1.74-.43-1.49-2.79c-.27-.5-.49-1.14-1.04-1.35-.94-.37-1.1-.93-.96-1.73l-1.49-2.11c-.07-.1-.4-.47-.29-.51l.94-.33-.94-1.97c-.21.03-1.14.28-1.25.17l-.63-1.06c-.18-.31-1.03-.36-1.66-.43-.41-.04-.32-1.25-.22-1.7l-1.35-.48c-.35-.12-.53-1.04-.52-1.39.14-.4.24-.61.1-.66-.19-.07-.97-.31-1.09-.51l-2.88-5.03-2.46-3.84c-1.24-1.94-.41-3.5-.64-3.42l-.95.35-.31-2.78-.96-.31c-.23-.07-.31-.93-.47-1.13-1.02-1.2-2.08-2.81-2.47-4.35l-.56-2.23c-1.33-1.2-2.27-2.94-2.05-4.78l-.92-1.29c-1.53-2.16-2.62-4.44-3.25-7.05l-.57-2.34c-.09-.38-.3-1.14-.44-1.48-.77-1.07-1.34-2.62-1.79-3.93l-1.07-3.14c-.05-.14.41-.8.28-.86s-.64-.32-.69-.46l-.97-2.93-1.24-3.76-.88-3.42-.87-2.7c-.25-.77-.34-1.61-.45-2.44l-.25-1.98c-.27-.52-.9-1.53-1.04-2.17l-1.73-7.51.34-2.3c-1.73-1.73-1.65-4.64-1.93-6.64l-.52-3.66-.48-2.82-.55-4.42-.64-5.93-.96-8.96-.24-2.85-.34-4.7-.62-12.15-.14-5.2.16-4.47.21-10.78.79-8.54.86-5.46.51-3.46,2.84-14.27,2.3-9.19,2.51-8.71,2.79-8.42,2.5-7.13,2.69-7c1.55-4.04,3.27-7.96,5.31-11.77l4.37-8.15,1.4-1.96,2.45-3.26c1.14-1.51-.11-2.16,1.19-4.29l2.5-4.1,2.26-3.58,3.33-5.13,3.01-4.41,2.23-3.07,3.07-4.14,7.29-9.18,11.47-12.81c3.38-3.78,7.04-6.95,10.77-10.38l2.28-2.09,2.42-1.91,4.07-3.44,2.03-1.59c2.77-1.67,4.85-3.56,7.42-5.49,11.72-8.77,24.19-16.43,37.55-22.38l7.81-3.48,3.03-1.37,8.24-3.23,10.34-3.75,7.86-2.37,5.36-1.54,5.68-1.42,6.92-1.45,11.81-2.16,4.27-.53,13.49-1.71,5.92-.31,10.86-.38.45.54c.04.05.06.6,0-.27l2.02-.08,8.41.15.87.61c.21.15.84-.55,1.13-.54l5.93.24,4.82.62,1.86.44,6.23.41,2.68.28,6.71,1.63c1.48.36,3,.19,4.38.85l1.61.47,5.24.6,8.42,1.98,3.38,1.26c.66.25.93.22,1.63.36l5.28,1.04,9.03,2.85.23.56c.05.12.69-.21.84-.16l5.79,2.06,5.7,2.33,3.34,1.25c1.04.39,2.54.53,2.99,1.63.13.32.74.44,1.16.44l.43.48s1.61.07,4.11,1.35l6.04,3.08,3.62,1.93,4.6,2.29,4.7,2.76,4.08,2.42c2.34,1.38,3.06,3.02,4.86,2.83l9.84,6.74,5.78,4.22,5.57,4.38,6.9,5.86,5.6,4.99,9.93,9.68,5.12,5.86,2.15,2.12,8.53,10.13,3.95,5.06,3.21,4.29,3,4.51,4.67,7.12,2.31,3.57,4.19,7.05,3.9,7.3,4.86,9.81,2.29,5.61,2.47,5.75,1.02,2.48,2.2,5.87,2.73,8.15,2.22,8.34c.26.99.39,1.45.75,2.39l.86,2.27.21,1.85,1.55,5.77.52,2.66,2.15,11.52.65,5.31,1.41,9.94.59,7.79.15,13.38-.25,13.62-.52,6.3-.28,4.05-.33,3.72-.38,2.88c-.12.93-.25,1.79-.78,2.49.77,1.63.18,3.38-.35,5.17l-.3,2.46-1.21,6.64-1.08,4.25c-.29,1.14-.18,3.87-1.88,5.78l-.19,3.48c-.2,3.66-2.17,5.83-2.27,7.97s-1.18,3.96-2.07,5.83l-1.98,4.2c-.31.67,1.26,1.91-1.48,5.39l.08.72-.05.6-.11.56c-1.2.99-2.09,1.73-1.5,3.24l-.55.35c-.36.23-.6.7-.48,1.11l.17.56c-.87.7-1.44,1.43-1.78,2.45l-.63-.13c-.19-.04-.75.3-.61.45l.6.61s.55.05.63.07c.14.03.54.34.42.42l-.65.44s-.08.28-.08.33v.4s-.08.34-.11.38l-.26.36-.96,1.35c-.35.48-1.41,1.1-1.99,1.34-.13.11-.25.5-.11.58l.76.44c.28.16.35.78,0,1.12l-.36.35-.3.3s-.14.3-.15.36l-.1.53-.65,1.57-.24.59c-.05.13-.23.25-.29.12l-.27-.63-.07.53c.1.15.42.58.44.65.23.67-.76,1.81-1.55,1.97l-.09.62-.24,1.64-.48-.34-.39-.34c-.16-.14-1.08-.14-1.04.05l.2,1.07-.71-.13-.27.13.16.72.09.27.46-.23.39-.19.42-.21.35-.46c.05.43.11.79.08.87l-.55,1.51-.27.37-.42-.62-.59.24c-.12.14-.36.42-.35.48l.29,1.16c.23.92-.78,2.68-1.98,2.57l.41.57c.1.15-.36.39-.82.42-.02-.02-.29.27-.65.65l.46.56c.13.16-.28.45-.55.51-2.03.78-3.3,3.05-2.72,5.1.1.2.18.7,0,.71-1.48.1-2.26-.86-2.36-.49l-.36,1.28c-.12.41.35.86.31,1.02l-.68,3.53-.72-.27-.54-.27c-.34-.17-.99.18-.98.38l.14,1.99c.03.44-.58,1.41-.79,1.4l-.36-.66-.23-.42-1.58-.25.3.55c.19.35.23.27-.08.62l-.39.43c.06.06.35.34.36.34l.7-.21.83-.25c.14-.04-.02.48-.11.6l-.32.41-1.59,1.83-.3.3-.22.22c.31,1.6-.26,2.68-1.6,3.56l-.25.4-.33.36-1.56.77c-.15-.52-.19-.94-.27-.88l-.6.39-.49.17-.47.15-.41.21-.38.25-.38.26-.17.21.37.38s.22.38.22.44l.04.91c-.19.07.31.12.39-.03l.36-.66c.05-.09-.24-.6-.03-.91l.28-.42c.24-.1.38-.16.33-.14l.36.37c.08.08.35.31.34.35l-.06,1.7c-.02.46-1.14.71-1.54.59l-.12.7-.13.53c-.01.06-.34.27-.4.27h-.41s-.82-.14-.82-.14c-.19-.03.11.63.14.8l-.81,1.75c-.41.89-1.33.25-1.57,2.14-.12.97-1.13,1.48-1.99,2.11-1.52,1.13-.77,1.95-1.5,2.08l-1.04.19-.14,1.05-1.81,1.13c.14,1.6-.46,2.6-1.54,3.54l-2.56,2.23-.71.82c-.23.26-1.49-.66-1.65-.36l-.51.96c-.82,1.55-.13,2.29-.77,2.43l-.79.18.54-1.59-.98.87c-.19.17-.65-.29-.88-.54s-.98-.12-1.33,0l-.22.36ZM242.62,10.12c.41-1.14.32-1.56-.02-1.98-.32-.39-1.53-.36-1.47.02.13.86.85,1.58,1.49,1.95ZM152.33,29.08c.54.22,1.45-.44,1.61-1.18s-.11-1.42-1.13-1.61l-.09,1.69-.79.17c-.19.04.22.87.39.94ZM309.08,77.84l2.57-6.29.81-3.17,2.13-5.55c-1.95.23-2.67,4.43-3.3,6.37l-1.58,4.82c-.41,1.25-1.18,2.23-.62,3.82ZM328.15,94.95c-.13.2-.05.97.11.93l.69-.16,9.75-14.51,2.39-4.48c2.09-3.17,4.09-6.26,5.27-9.76l-.68-.43c-.09-.06.17-.27.27-.32l.76-.39c.08.03-.56-.23-.82-.33-.22-.09-.44.73-.43.97l-6.48,10.64c-.77,1.88-1.63,3.73-2.7,5.38l-3.08,4.76-5.06,7.71ZM77.31,73.45c.27-.17.81-1.08.53-1.2l-1.17-.49-1,1.78c.15.17.73.49.94.36l.7-.44ZM138.54,81.04c-.45-.78-1.04-1.71-1.5-1.96l-3.5-1.9c-.34-.18-1.3.01-1.34.36-.16,1.33,3.67,2.78,6.33,3.5ZM344.58,368.11c.38.41.62,1.54,1.04,1.73,1.28.59,2.8,2.73,3.46,4.27l-7.01,4.27-1.52.93-1.65-5.75-4.12-14.28c-.19,0-.58.65-.5.93l2.5,9.21.82,2.92.86,2.86,1.23,4.72-5.74,2.85c-.16.12.14,1.18.46,1.19l1.08.04,4.13-2.24,2.56-1.52,7.03-4.09.59,1.21c.06.13.44-.39.56-.57.07-.11.04-.15-.65-.34l2.06-2.04.93,1.26.71-.89-.14-.69c-.02-.09.09-.07.16-.02l.49.32c.14-.32.89-1.05,1.37-1.12l2.36-.37,1.38.76c2.16,3.11,4.88,2.32,5.81,4.82.28.74.9,1.07,1.59.85.74-.23.99-.6.9-1.42l3.59-2.7,1.71-1.8,3.16-3.05,9.43-9.5,3.29-3.64,3.21-3.6c.21-.23.98-.49.94-.78l-.12-1.09c-.23-1.98-.51-3.94-1.85-5.3l-1.79,1.45c-.7-1.04-1.12-1.9-1.58-3.04-.46-.04-2.25-.27-2.62-.89-.86-1.42-1.17-3.04-1.63-4.7l-2.56-2.63-3.42-5.04c-1.21-1.79-1.08-3.92-1-5.8-1.22-1.84-2.4-3.73-3.37-5.71l-1.83-3.73c-.5-1.03-.78-2.37-1.5-3.1-2.47-.24-3.61,3.85-3.55,4.01l.38,1.11c.04.11-1.04-.35-.74.08l.4.57-.95,1.55-.4-1.51-1.83,2.96c-.53.2-1.34.75-1.08.82l2.23.77-1.58,1.09.21-1.2-2.7.07c1.27,1.84,2.57,3.11,4.36,4.67-.48,1.01-1.5,1.98-2.73,2.3-1.08,1.71-2.56,3.15-4.56,4.15.16-.55.62-1.65,1.02-1.94l2.41-1.74-1.77-2.14.79-.75c-.48-1.19-.36-2.07-.29-3.52-.3.59-.86,1.83-.89,2.44l-.26,4.78-1.53-.42c-.83.06-2.04,1.54-1.73,2.41l.55-.49c.07-.07.07-.1.13-.03l.63.73-.72.67c-.15.14-.73-.09-.95-.15l-.9-.21c-.18-.04-.17.8-.12.72l.94.62c.2.13-.25.94-.48.88l-.88-.23c-.45,1.53-1.61,2.72-3.54,3.03l.52,1.83-1.9-.2c.08.14.35.69.15.77l-.89.38-4.24,2.75-2.97,1.83-2.61,1.73c-.37.29-.17,1.38-.07,2.09-.57-.71-.94-1.21-1.5-1.55l.97,2.2.57,1.68c.55,1.4,1.86,3.08,1.75,4.54l-.08,1.14.93-.06.04,1.08.86.25.65,2.57c-.13.33-.25.78-.1.98.24.34.47.38,1.13-.02.54.72.72,1.81.56,3.07-.07.52,1.04,1.1,1.52,1.63ZM252.4,317.65c1.55.11,1.58-.56,1.81-1.26.12-.37-.07-1.03-.44-1.46l-1.37,2.71ZM89.6,354.23l2.24-.96c0,.63-.48.95-1.13,1-.28,1.02-.25,2.75.59,3.52,1.9,1.75.84,1.87,1.31,3.24.08.24.86.04,1.13-.11l5.38-3.06,18.6-12.06-3.53-3.65-3.15-3.4-2.26-2.41-3.11-3.37-4.23-4.69-10.92,3.02,1.29-1.09c1.18-.21,2.52-.53,3.48-.93.31-1.3.85-1.41,2.28-1.98-4.31-1.36-6.58.62-10,2.84l-3.4,2.21,1.87.1-2.72,1.2c.22,1.24.56,1.87,1.14,2.76l.64,2.15c.88.83,1.3,1.99,1.6,3.09l1.11,1.22c.23.25.78.75.58.88l-.85.58.41.62c.1.15-.29.56-.49.78-.04,0,.34.54.45.44l.61-.58.47.51c.12.13-.41.51-.58.65-.13.11,0,.51.15.6l.42.27c-.39.22-.76.39-.76.58v.92s-.12,1.19-.12,1.19c-.02.24.75.01.99.04l1.03.13c.23.03-.02.8-.25.8l-.75.03-.85.03c-.65.02,2.17,1.45,1.31,2.88ZM444.87,348.5c1.08-.84,1.73-1.97,1.69-3.27-1.02.76-1.97,1.7-1.69,3.27ZM158.13,370.15c.96-.61,1.77-.73,3.03-.39l2.35-3.42c-.29-.5-.67-1.33-.41-1.48l.98-.53c.43-.23,1.19-.78,1.18-1.21,0-.39-.32-1.17-.51-1.44l-5.32,5.12c-.6.58-2.56.6-2.78,1.55l-.76,3.21,2.25-1.43ZM333.76,384.26l-.46-1.55-.38-2.18-4.69-18.26c-.61,1.99.06,3.83.55,5.78l2.44,9.69.55,1.92c.45,1.58.03,3.48,1.99,4.59ZM358.85,434.67c1.21-.3,1.93-.34,3.05.13.02-.06.18-.52.16-.47l-.43-.5c-.06-.08.22-.38.32-.46l1.72-1.22c.37.65.49,1.62.48,2.43l1.12.91c.4.32-.88,1.78-.16,2.6.26.29,1.2.04,1.07-.26-.25-.58-.55-1.3-.39-1.66.38-.82,1.91-1.23,1.84-1.36l.3.57c.1.18.45.78.62.67l.82-.52,1.85,1.34.5-1.53c1.34-.19,2.17-1.22,1.94-2.68l.16-.45,1.14,2.01c1.17-1.08.81-2.65,1.38-2.68.17-.01.79.16.87,0l.58-1.05c.12-.22.64-.24.88-.31l.51-.59c.07-.08.41.07.39.17l-.19.86c-.32,0,.36,0,.45,0l1.3-1.57,1.82,2.22,1.08-1.72c-.66-.39-.93-.71-.98-1.31-.03-.35.64-.87,1.04-1.03l1.7-.67-.24,1.27c-.05.25,1.13.29,1.27.07l2.02-3.08c.19-.3.34-.85.56-.82l.97.13c.44-.4,1.08-.93,1.53-1.2l2.07-1.21.43-1.82c2-.73,2.13-2.73,2.79-2.53l.63.19c.2.06.49.15.41.12s-.18-.46-.11-.5l.89-.55,1.26-2.1c.12-.2.66-.62.81-.44.11.13.18.45.12.61l-.56,1.42.83-.19c1.07-.82.28-3.37,1.48-3.29,1.37.1,1.54-1.37,2.25-1.89.87-.63,1.72-1.15,2.35-1.94-.22-.9-.7-.88-.88-.34l-.46.52c-.08.09-.57.06-.54-.06s.14-.73.23-.81l2.69-2.43c.77-.7,1.2-1.16,1.8-2.06l2.21-.41c.22-.31.56-.75.57-.57,0,.13.39.83.52.81.55-.12,1.61-.67,2.04-1.01l-.92-1.16,1.49-1.41,1.07-.5c-.49-1.51-.06-2.74,1-4.1l-.84-.18c-.16-.03-.11-.62.05-.65l2.05-.37c-.03-2.31,2-1.57,1.72-3.91l1.03.02,1.93-1.96.5.47c.44.41.12-1.06,1.47-2.44l.22-2.09-.7-.06c-.63,1.71-1.23,2.59-2.42,3.67-.26.25-.57.76-.82.65l-1.14-.47.12-.55,2.12-1.34-.17-1.48c.74-.1.95-.13.94-.34l-.08-1.28c-.02-.22-.07-.25-.27,0l-.21.96-.44.33-.82-2.66-.25-1.47-.07-.52c-.02-.12.41-.03.54,0l1.06.18c.24.04.77-.66.64-.87l-.34-.52c-.39.06-1.34,0-1.28-.31l.33-1.68c-.29.1-1.26.49-1.59.76-.77.62,1.03,3.81-.97,3.09l-1.08-.39c-.18-.06-.05-.96-.07-1.15l-2.06-.52-.03-.86c0-.15-.48-.35-.77-.5l.51-1.82c-.94-.51-1.79-1.17-2.41-1.89-.74-.06-1.64-.46-1.8-.95l-.25-.75c-.62.67-1.26,1.08-2,.84-.44-.14-1.02-.74-1.51-1.38l-3.16.17c1-.94,1.96-1.75,1.13-2.85l-1.34,1.36c-1.3.82-2.35,1.87-3.49,3.05l-1.98,2.05-2.04,1.99-2.52,2.48c-.96.95-1.82,1.71-3.02,2.43-.59-.55-.57-.54-.49-.53.4-.63.51-.93.31-.93l-.82-.03-8.64,6.63-11.81,9.36c-2.22,1.76-3.19-.19-5.74.42l.53-.66c.08-.1-.59-.55-.71-.48l-1.64.94-3.95,2.57c.04.31-.15,1.13-.35,1.02l-.71-.4-2,.72-2.75.99-7.41,2.83c4.63-3.03,9.44-5.47,14.54-7.61l6.78-2.85-.14-.85c-2.32.7-5.7,1.43-7.3.58l6.47-1.41,1.56-.62,2.46-.32c-.73-1.11-1.41-1.3-2.53-1.27l.54-2.27,1.73-.18-1-1.14c-.48.08-1.86.15-2.19-.34-.44-.67-.96-1.42-1.72-1.66s-4.71,1.26-6.9,2.48c-.51.29-1.42-.24-1.83-.78l-.02.87c-.59.21-1.75.47-2.02.88l-2.44,3.76-2.64,3.2c1.58,2.01-1.84,1.62-4.65,4.17l-3.4,3.1-2.91,2.5c-.86.74-2.62,1.47-3.74,2l-2.51,1.18-2.16-14.8-2.45-12.38-1.69-5.41c-1.18-3.78-1.92-7.49-3.73-10.99l1.55,6.6,1.63,5.87,2.56,12.13,1.11,6.35,1.55,10.16.18,2.81c-1.13,1.14-3.65,2.34-5.25,2.48l-.27-6.19-.62-4.01-.58-3.77-.72-4.78c-.32-2.09-.84-3.79-1.26-5.88l-.51-2.53-1.25-6.14c-.24-1.17-.14-2.17-1.84-2.74.05.85.18,1.83.49,2.78l.65,1.99-.25,5.57.94,5c.31,1.66.6,3.14.72,4.87l.21,3.15.24,6.39.66,3.67c.12.69.76,1.24,0,2.04-.41.43-.42,1.18-.4,1.99-.09.73-1.59,1.37-2.37,1.67l-4.54,1.76-5.49,1.89c-1.1.38-2.11.92-3.04,1.48-.56.03-1.08,0-1.67.73l3.06-.09,3.02.56c.71-.77,1.81-1.24,2.76-.94.45.14.6,1.19.57,1.81.51.06,1.78-.8,1.91-1.42.04-.19-.31-.66-.5-.71l-1.14-.27,2.52-1.26c1.94-.97,2.72.81,4.4-1.09l2.56.02,1.99.53c-.2,1.04-1.47.98-2.3,1.42l-7.33,3.87-1.96,1.17-2.3,1.73c1.52-.09,2.9-.28,4.33-.9l3.33-1.44,4.44-.88c1.69-.65,3-.99,4.78-1.11l1.8-.12,2.69-.37,3.38-1.4,4.15-1.94,1.42-.72c2.28-1.16,4.53-2.3,7.22-2.86-2.83,1.97-5.85,3.14-8.93,4.59l-13.54,6.36c-13.94,6.55-32.39,11.07-47.67,12.34l-4.97.41-7.45.37-5.97.04-5.18.18-2.77.42c-2.18.33-4.22-.94-4.49.77l2.06-.16c0-.06,0,.5-.01,1.01.09.15,1.2.64,1.54.4l1.51-1.06c.66-.46,2.15.83,2.3,1.78l1.65-1.28,1.68.86-1.01.85c-.17.14-.63-.07-1.08-.2,0,.13.03.68-.17.65l-.95-.14c-.56-.46-.88-.17-.51.41v.98c0,.16.67.3.61.24l.36-.89c.04-.1.33.16.37.25l.27.7,1.3-.52c.35,1.13,1.9,1.69,2.02,1.64l.89-.38c.29.12,1.31.31,1.22,0l-.26-.93c-.04-.16.37-.44.42-.47l.25,1.93c2.14-.79,4.03,1.43,4.74.42l1.12-1.59c1.15.02,2.33-.2,3.21-.73.08.16.5,1.02.43.84-.05-.13.47-.43.6-.38l.85.32c.18.07.48-.52.61-.7l3.47-.18c1.3,1.02,2.27.72,3.73.19l4.12-.25,6.11-1.38,6.75-1.64,5.58-1.58,5.17-1.65,9.15-3.35,3.34-1.33c1.16-.46,2.78-1.5,3.94-1.48,1.54.02,1.99-.15,2.69-1.32l4.22-2.08c.13-.06.69-.05.82-.02s.36.41.24.49l-.79.51,3.5.41c1.03.12,1.79.16,2.52-.73,1.32-1.61,2.2.42,4.22-.94l.72-.48c.1-.07-.12-.62-.12-.55l-1.98-.61.38,1.44-3.24-.59c-.93-3.06,3.33-1.66,4.86-4.51l.48.72c.08.12.58.16.55,0l-.21-.86,1.85-.41,1.86-.55c1.51.39,2.87-.23,3.84-1.71.2,0,.74.3.76.57l.08,1.02.77-.53s2.61,1.58,1.72,2.63c-1,1.17-1.44,2.57-.1,3.53l.52-1.37c.74.89,2.45.37,2.2.92l-.4.9.88.98-1.5.87c-.24.14.37.92.6.75l1.1-.81c.37,2.07.08,5.3-.44,5.63l-1.73,1.11c-.23.14.26,1.04.53.97l1.15-.28ZM393.19,373.06c-.99-.4-1.53-.58-2.97-.83l.91,2.03,2.06-1.19ZM129.4,400.55c.08-.13,1-.23.92-.38-.06-.11-.13-.35-.25-.35h-.93c.04.06-.17-.33-.39-.71l1.52-.62c.15,1.01.72,1.69,1.66,1.98.54.17,1.5-.44,1.95-.86.57.25,1.35.38,2.17.24l1.9.19c.1-.26.32-.87.32-.86.11.43,1.61.8,1.57.46l-.11-.9c1.2.54,2.16.54,3.02-.25l2.48-2.29-1.3-.25c-.13-.02-.26-.42-.15-.49l1.01-.7c.22-.15-.07-.86-.22-1.45,1.62.16,2.5-.94,2.96-2.29l.55-1.62,1.67-1.41c1.83-2.88.05-9.97-2.51-8.95-.33.13-.76.95-.9,1.29-.82,0-1.65.11-2.53.52l-1.1.52c-.23.11-.04.78,0,1.18-1.42-.27-2.6.1-2.82,1.55l-2.16,1.72-.93-.84s-1.28,1.93-1.8,1.37l-.85-.93c-.04.3-.06,1-.25,1.15l-.84.68.08,1.23c-.22-.08-.77-.32-.92-.16l-.74.84-.46-.99c-.95.45-2.3,1.77-2.11,2.67l.56,2.61.35.83c.07.18-.52.22-.63.06l-.39-.58-.82,3.62c-1,.4-1.97,1.43-1.67,2.74l2.02,2.18,1.09-1.72ZM204.11,394.01c-.03-.38-1.15-.63-1.68-.57l-.69,3.46c1.61-.16,2.47-1.67,2.37-2.89ZM417.72,401.88c.68-2.43,3.61-2.97,2.04-4.51-.65,2.62-3.7,2.27-2.04,4.51ZM409.87,409.55l2.52-2.87-2.06,1.24-1.45.55c-.27.1-1.25-.27-1.2-.13l2.06,1.3.13-.09ZM398.99,419.46c.12-.14.59-.63.67-.47l.45.9c.14.27.9-.38.81-.69s-.46-.98-.63-1.09l-1.76,1c-.48.06-.78.08-.81.36-.03.22.29,1.11.44.94l.83-.94ZM353.81,422.36l-1.05-1.04-1.01-1.53.33,3.27,1.73-.69ZM363.37,436.3l-2.03-.8-.49,2.29c1.19.51,2.46-.27,2.52-1.48ZM345.67,449.59c.44-.27.48-.67-.37-.83l-1.35,2.05c0,.29,1.6.49,1.63.13l.09-1.35ZM307.46,471.74l2.34-1.08-1.31-.55c-.21-.09-.38-.66-.53-.93l-.84,1.85c-.08.17.3.8.34.71ZM174.09,473.46l.77.69c.14-.92-.34-1.6-1.04-1.9-.42-.17-1.42-.16-1.66.25.11.77,1.22,1.14,1.94.96ZM283,476.9l-1.72-1.76c-.18-.18-.32-.89-.43-1.12s-.63-.24-1.39-.17l2.64,3.15.61.64c.13.14.44-.59.28-.75Z"/>
</svg>