<?xml version="1.0" encoding="UTF-8"?>
<svg id="Layer_1" data-name="Layer 1" xmlns="http://www.w3.org/2000/svg" viewBox="0 0 709.92 543.93">
  <defs>
    <style>
      .cls-1 {
        fill: none;
        stroke: #0095ff;
        stroke-miterlimit: 10;
        stroke-width: 2px;
      }
    </style>
  </defs>
  <path class="cls-1" d="M570.71,38.73c.19,7.72.39,15.48.6,23.27l-1.31.94c.68,1.56.52,4.05.07,5.64-.5,2.61-.34,5.68-.17,8.38.01.17.34.32.76.46l-.03,21.32-1.31.76c.66,1.23.6,2.78-.16,3.96l1.3.47c-.42,21.98-.84,43.96-1.27,65.94l-1.32.77.28,2c-.21,9.36-.44,18.72-.71,28.08l-.34,21.16-.24,20.04-1.23,71.01-1.22,1.75c-.2.29,1.02,1.13,1.6,1.54l-.52,46.36c-.07,6.43-1.05,12.25-3.51,18.16-5.89,14.14-18.97,23.67-33.68,26.15.25,1.82-.74,1.79-1.38.14-3.06.36-6.22.52-9.47.49-.96,1.05-4.96.94-6.68.7-1.42.13-2.79-.31-4.11-1.34-.07.51-.24,1.27-.6,1.3-3.9.3-16.41.37-19.9-.3l-.93-1.32c-2.5-.54-5.02-.79-7.56-.77-.08-.31-.17-.61-.29-.91-.72-1.75,7.65-16.21,9.45-18.85,3.05-7.14-.66-9.15-7.22-10.81-2.03-1.64-1.67-3.86,1.06-6.65l10.71-10.86c6.34-9.76-1.46-22.77-7.41-31.05,3.15-9.22,5.17-18.66,6.06-28.32.86-1.37,2.51-1.92,4.96-1.63,5.1-16.42,10.19-34.3,2.75-50.81-.3-5.49-1.16-10.73-2.57-15.73l-.69-.42c-3.57.93-5.52-.47-6.57-3.92,2.83-12.04,1.22-22.69-1.42-34.29.41-2.27,1.09-4.44,2.06-6.53l-.89-33.95c-1.23-16.48-1.78-32.94-1.64-49.38,1.62-11.37,2.07-22.61.91-34.36-.6-6.1-2.85-10.69-7.45-14.4-.26.48-.78.33-1.56-.45-.18,1.3-1.15.61-1.58-.36-.4.79-.6.48-.93-.3-.16.54-.29.53-.4-.02-1.28-.06-1.71-.48-1.27-1.25l-5.85-3.57c-3.17-2.77-6.52-5.85-.89-8.1,12.17-.86,24.39-1.61,36.66-2.26,7.77-1.59,15.71-2.1,23.81-1.52-2.16-2.51,1.82-3.46,4.09-3.4,2.7.5,4.86.18,6.5-.95l20.92-.35c3.59-.06,7.21-.53,11.12-1.45,1.15,3.43.5,6.62.6,9.77Z"/>
  <path class="cls-1" d="M10.19,82.61l1.32.55c-.13,5.3.26,10.53,1.19,15.7-.43,10.73-.5,21.47-.19,32.23l-.44.44-.47,5.58c.33,33.18.33,66.3.01,99.36.84,10.27.07,20.79-1.01,31.1.42,10.39.68,20.79.76,31.21-1.91,31.4-2.32,62.93-1.24,94.59l.16,16.36.87.22c-.69,63.72-1.04,95.58-1.04,95.58l-1.81,18.05c-2.2,5.11-4.62,8.05-6.37,1.08.1-28.15-.05-56.25-.43-84.31v-.6c.48-.62.49-1.37.02-1.99v-1.94c.57-12.39.55-25.49,0-37.89v-3.23c.58-6.84.54-14.08.01-20.93l.02-9.08c.22-3.26.39-6.55.51-9.88l.16-33.24.32-30.83.55-68.39.18-42.46c.01-3.06-.21-6.25.47-8.85l.31-8.29,1.59.26c-.21-11.87.29-23.62,1.5-35.23-.7-15.33-.81-30.68-.34-46.05,1.4-3.16,3.31-2.14,3.38.92Z"/>
  <path class="cls-1" d="M239.03,22.7c4.58-1.45,9.2-2.03,13.88-1.76l.21.82c27.54.83,55.05,1.88,82.53,3.15.41,1.34,1.11,1.25,2.11.5,3.49,1.06,6.81,1.11,9.97.15,1.64.27,3.34.79,5.09,1.55l.32-.75c29.73-.69,59.86,1.4,89.5,3.78l.85,1.37,3.82.26c2.07,1.22,3.73,1.31,5.99.62,8.95,1.98,18.35,3.92,27.46,1.66,1.73,1.15,2.57.82,4.1-.4,7.99-1.28,15.29-1.82,23.46-.71.66-.28,1.29-.05,1.9.68,1.52-1.15,5.23-1.12,7.01.03l.24-.68c-1.34-1.07-1.51-1.69-.52-1.83,3.87.25,7.67.17,11.4-.25l9.72-.15c.14,4.51-5.11-.34-10.57,3.12,1.68.63,2.71.74,3.82,1.53-1.81-.5-2.94,1.04-3.92,1.04h-11.11c-3.33-.02-5.39-.24-8.55.64-3.63,1.01-8.06,1.49-11.97,1.6l-17.71.51-7.5.6c-1.75.14-5.28-.02-5.4,2.69l5,4.89c1.27,1.24,3.42,1.41,3.59,3.18-.19.94-1.14.72-2.86-.68-.89.9-1.26.55-.63-.57l-4.01-1.37-1.02,1.11-14.51-4.66c-2.12.18-4.27.3-6.37-.07-23.37-5.41-47.18-7.41-71-9.28-1.03-.08-2.06-.34-3.09-.62s-2.05-.64-3.06-1.04c-1.83-.02-3.6-.19-5.31-.51.12,1.29-2.34,1.13-2.54-.09-2.25-.14-4.45-.32-6.59-.54.24,1.64-2.98,1.52-3.19-.09-2.91-.16-5.77-.35-8.57-.58-.11,1.87-2.86,1.63-3.16-.09-3.19-.33-6.41-.34-9.65-.04l-.89-.59c0,1.91-2.13,1.82-2.54,0-14.38-.07-28.83-.13-43.34-.17-1.38-1.51-3.77-1.51-7.18,0l-19.94.04-.78-1.3c-.39,2.06-6.47,2.07-7.1.12-11.55-.23-23.14-.3-34.79-.19-.1.53-.25.99-.57,1.22-.72.52-16.26.57-17.72.2-.21-.05-.35-.41-.47-.85-3.42.59-9.07-.06-5.49-4.38l5.85-2.79c-1.28-2.24-.52-2.99,2.26-2.24-.13-1.32,1.4-.93,1.71.16,2.42.23,4.84.54,7.26.91l.63-.81c10.46-.16,15.69-.24,15.69-.24,3.22-1.35,7.83-1.04,11.28-.42.74.13,1.16.3,1.12,1.06,2.94-.42,4.9.09,5.88,1.54Z"/>
  <path class="cls-1" d="M208.46,17.93c-2.05.92-4.96.14-7.16-.7.12,1.37-1.78,1.43-2.01.02l-4.52-.62c-.15.58-.37.58-.65.04l-1.07.81c-9.93-1.22-20.5-3.3-28.18-10.52-1.65-1.22-3.16-1.57-4.52-1.04-1.87,2.83-4.26,5.25-7.16,7.27,1.74.91,1.09,1.66-.78,1.58.57,1.12-.09,2.19-1.42,1.82.44,1.05-.9,3.09-1.85,4.01.35,1.52-1.01,2.19-2.06.95l.64-1.85c-3.05,1.24-5.63.66-8.63.46-4.86-.32-9.61-.33-14.67.27-7.91-1.7-15.93-1.81-24.11-.86-4.27-1.8-8.98-1.37-13.15-1.22-1.46.05-4.79-.9-5.52.61-2.7,5.61-2.73-1.48-8.44-1.61s-11.58.32-17.32,1.27c-2.4-1.56-4.85-1.69-7.43-.81-.86-.49-1.85-1.17-2.68-1.15l.34-1.73c3.7-.55,5.88-2.32,6.55-5.32,4.48-2.56,12.61-3.06,6.48,3.05-.18.22-.56.8-.49.96.98,2.19,15.07-1.15,16.56-3.38,2.65-1.01,5.28-1.63,7.89-1.84,1.08,1.6,2.38,2.4,3.88,2.4,5.28-.94,10.53-2.06,15.75-3.38,10.48-.11,20.89-1.15,31.24-3.12l1.42.59c4.61-.67,9.13-1.38,13.58-2.14,4.28-.09,9.02-.51,13.51.57s7.62,4.97,11.61,7.15l6.32,2.15c8.57,2.92,19.85,2.89,28.04,5.29Z"/>
  <path class="cls-1" d="M126.86,2.26c6.3.22,12.62.41,18.96.57l3.17-.07c-.11.96-.72,2.63-1.76,2.63-.33,0-.79-1.33-.85-1.64-.08-.44-1.09.32-1.41.94-5.41-.61-8.18,3.02-11.22.85l-19.96,3.04c-4.85.74-9.41-1.05-14.17,1.05l-11.87,2.37c-2.45.49-3.88-.57-4.95-2.23-.75-1.17-2.09.58-2.67.6-2.86.12-6.09,1.71-8.41,3.17-3.43,2.16-14.58,2.82-14.36.14.15-1.93,2.13-2.94,3.38-4.46-2.68-.89-4.72.88-7.27,1.22-.52,5.42-4.33,3.83-7.67,6.22-6.8.15-13.63-.07-20.74-.87-3.24-.36-6.23.37-9.03.3.25-.85,1.05-.86,1.96-1.24,7.35-3.05,14.71-5.79,21.49-9.87,3.95-2.38,7.64-3.51,12.37-3.48l28.69.17,20.88.39,25.47.2Z"/>
  <path class="cls-1" d="M12.63,150.45c.68.48,1.06,1.06.3,1.54-.24,2.48.18,3.97,1.27,4.48l-.11,14.61c1.48,21.82,1.64,43.68.48,65.57l-.25,11.29-.22,26.55-.44,7.13.12,11.29-.03,10.91-.21,5.48-.43,43.48-.31,5.64-.04,18.76-.26,16.75-.1,7.82-.04,6,.04,7.22c.03,4.86-.76,9.34.13,14.3l-.47,8.39.22,6.6.11,7.86-.22,7.23-.43,25.43-.09,13.03-.42,7.19-2.04,21.95c-.06.67-.57,2-1.13,2.05-1.38.13-2.36.15-3.15.77-2.06-.65-2.79-2.47-3.34-4.94l-.06-84.51c.25-.01.66.21.66.78l.04,82.02c0,2.15.6,3.93,2.38,5.42-.1-2.33,2.62-4.15,2.84-6.46l1.64-16.63.47-31.51.22-19.28-.06-9.84.6-35.11c-.61-21.13-.68-42.32-.31-63.39-.43-15.96.03-31.84,1.39-47.63-.83-17.33-.6-34.62.69-51.87-.31-35.89-.34-71.49-.09-106.82.53-.28.76-.2.79.33.17,2.91.34,5.86.4,8.8,1.3.35.74.81-.53,1.32Z"/>
  <path class="cls-1" d="M6.05,25.06l.9-.55c1.07,4.8,2.74,9.22,5.02,13.27-.58,12.04-.88,24.12-.9,36.25.57,2.85,1.14,6.3-.88,8.58l-.32-.95c-.05-.56-1.76-.78-1.76-.3l-.28,38.41c-.02,2.91.23,5.17.62,7.98l-.94,5.75-.82,44.18c-3.53-1.25-.53-9.25-2.33-14.5-.48,3.08.03,5.43-.6,7.82l.08-37.34c.07-4.75,1.14-9.05,1.15-13.91l.05-23.49.15-19.01c-.89-16.59-1.52-32.84-1.12-49.48.04-1.62,1.04-2.3,2-2.71Z"/>
  <path class="cls-1" d="M14.56,236.65l.25-35.07c.03-4.05,1.14-8.36-.16-12.23-.91-2.69.16-4.9-.25-7.59l-1.62-10.6.14-19.17c1.11.77,1.01.26-.3-1.54l.02-9.19c0-.7-.25-1.19-.69-1.26-.52-2.77-.48-5.59.1-8.48l-.35-11.54-.32-21.08c-.03-2.15-.88-3.53-.93-5.43l-.28-10.86c-.11-4.29.2-8.47.25-13.11l.38-31.24c-2.87-3.36-3.68-7.6-3.55-11.77-.07-.85-.63-1.26-1.22-1.42l1.42-1.41c.57,3.01,2.53,5.24,3.32,9.17.91-.18,1.54-.35,1.94-.12.6.34.67,1.44.6,2.18l-1.22,13.73-.3,26.01c2.94,3.24,3.34,7.16,2.48,11.19l.46,11.85.22,5.11c-2.79,10.36-2.88,20.66-1.71,31.39.19,1.78-.45,3.48-.31,5.39l.75,9.87c.87-.86,1.05-2.04,2.4-2.29l-.31,14.55-.25,42-.33,32.24c0,.48-.45.73-.65.73Z"/>
  <path class="cls-1" d="M446.8,28.52c-.64,1.56,2.68.44,3.83-.26l28.79.83c1.04.03,2.21-.43,2.63.73-.55.83-1.92,1.11-4.09.83,1.51-.08,8.57-.3,9.08.8.35.74.28,1.29-.27,1.87-.52.55-12.89,2.11-14.08.89-3.41,1-7.1.96-11.05-.11-3.85-1.21-7.68-1.62-11.48-1.23-2.22-.73-4.31-1.37-6.68-1.37l-17-1.24-22.36-1.7-10.08-.42c-3.44-.14-6.5-.08-9.76-.16l-17.75-.46-13.72-.41c-2.62-.22-3.61-.88-2.99-2,1.45-.13,2.16-.61,2.13-1.44l11.15.42,80.95,3.77c1.22.06,2.33-.69,2.73.66Z"/>
  <path class="cls-1" d="M482.05,29.82l19.87.2,15.31.47,11.11.41c-.07.51-.54.76-1.27.77l-10.09.16,1.22,1.07c.15.13.5.38.01.72-.34.24-.75.04-.99.04-1.79-1-5.87-1.3-7.01-.03-.5.28-1.15.67-2.07.61l-12.44-.78c-3.53-.22-6.77,2.23-10.5,1.18-1.22,1.7-2.96,1.92-4.61.64-5.03,1.68-9.95,1.03-15.04.4-4.15-.52-8.23-.39-12.26-2.58-2.29,1.62-4.52,1.35-6.15-.75-1.57.69-2.81-.77-3.66-.83,2.29-1.09,4.68.04,7.1.15,3.26.15,6.11-.26,9.19.7s6.41,1.54,9.79,1.59c1.19.02,2.4-1.73,4.25-.69,2.22,1.24,4.91-.4,7.03-.46l5.79-.18c-4.65-2.8-10.38-.03-16.76-1.82.03-.31.39-.63.68-.63l11.49-.34Z"/>
  <path class="cls-1" d="M1.52,435.78v-37.89c.23.03.53.21.66.74v36.42c-.13.53-.44.7-.66.73Z"/>
  <path class="cls-1" d="M1.53,394.66v-20.93c.41.14.67.59.67,1.29v18.36c0,.71-.26,1.16-.67,1.28Z"/>
  <path class="cls-1" d="M145.82,2.83l-17.7.11c-.71,0-1.17-.29-1.26-.68l17.66-.04c.68,0,1.13.27,1.3.62Z"/>
  <path class="cls-1" d="M1.56,364.64l-.06-8.58c0-.65.27-1.09.57-1.3l.12,8.59c0,.67-.25,1.09-.63,1.29Z"/>
  <path class="cls-1" d="M1.51,439.71v-1.99c.59.04.71.51.71.99,0,.5-.14.98-.71,1.01Z"/>
  <path class="cls-1" d="M128.62,408.9c-1.25,2.33-3.66,2.37-7.22.12-1.69-.36-3.42.06-5.22,1.27-2.1-.47-3.16.71-3.19,3.54l-3.6,5.47c4.65,1.46,10.59,4.26,3.21,7.35,2.58,6.9.79,19.4-8.28,12.13-1.58-.55-3.06-1.2-4.44-1.95.47-.95-.15-1.5-1.87-1.65-2.27,4.48-8.42,3.76-6.34-2.14l-1.99-.34c-.77-1.86-1.9-2.63-3.39-2.33,2.06.92,1.64,2.26.06,3.69,4.07-2.58,5.11-.74,3.13,5.52,2.84.42,3.6,1.11,4.15,4.12.77-6.44,7.2-3.79,5.26,1.31,1,.12,6.42,3.2,6.23,4.01-.19.85-2.08,4.92-3.12,3.95-1.61.93-3.31,1.55-5.1,1.88l.66,1.31c-3.43,3.8-4.67,7.33-3.97,12.44,3.8,2.1,6.39.63,7.79-4.41,6.59-8.75,5.75,1.1,4.64,6.14,3.3.57,4.67,1.81,4.12,3.72,1.49,1.49,1.97,6.61-.88,6.1.64,1.22,1.86,1.83,3.68,1.83,3.52,2.28,2.17,4.98-4.04,8.1-.18,2.39-1,4.17-2.44,5.33,1.74,2.66,1.24,3.79-1.01,5.66-1.36,1.14-6.41,3.17-6.83.45.09-.28.2-8.47-.42-7.55-2.35,3.5-3.18,4.67-7.55,5.46,4.24,3.49.2,4.89-3.64,4.77-2.19,2.03-4.5,3.48-6.92,4.36l-1.87-.98c-1.02-2.5-1.99-4.92-2.91-7.26l-4.74.89c.99,4.69-2.71,5.81-6.15,3.34l-1.07.26c-1.42,2.43-3.38,3.83-5.9,4.18-.6.96-.08,1.56,1.56,1.81l.35-.61s9.53.52,28.6,1.56l.41.81c-1.82,1.64-4.36.51-6.7.45l-13.52-.33-5.19-.74-4.61-.02c-3.25-.01-6.43-1.19-9.82-.51-1.87-1.62-3.95-2.16-6.54-1.82-2.17-.17-4.62-2.58-3.21-4.37.6-.75,1.94-1.2,1.99-1.8.08-.92-.88-1.27-1.29-1.81l-5.87-8.31,1.19-.51c-2.6-6.48-6.31-25.99,6.29-19.17,3.76-.37,5.43-3.42,5.02-9.12.86-2.83,3.21-3.48,7.05-1.96,2.01-2.91,3.81-6.1,5.38-9.56,5.93-2.04,7.6-5.34.18-4.45-3.39-4.03-5.47-4.56-10.65-4.35-7.09,1.69-14.3,2.01-7.33-6.67.8-1.87.52-2.96-.84-3.25l-.95-1.69c.95,11.67-6.1,10.47-6.17-.77.1,1.9-.47,3.11-1.7,3.64l-1.3-3.62c.33-3.9,3.56-6.74,4.49-10.28l1.36-5.19c.93-3.54,1.31-7.09,3.67-10.22,6.52-1.98,13.37-1.98,20.29-1.02l6.6-1.04c3.17.5,5.8.37,9.08-.01l8.24,1.43c2.82-.75,5.08-1.54,8.12-1.27l14.05,1.25c2.08.19,3.54,1.37,5.85.57,2.97-1.03,14.71-.26,17.08,2.87Z"/>
  <path class="cls-1" d="M149.46,34.39l3.85.49c11.84-2.81,27.02,4.74,28.79,17.48-.69,10.3-.84,20.62-.45,30.95-.36,2.95-.63,5.97-.81,9.06l-1.27,3.21c-2.11,2.14-1.98,2.75-1.02,5.45.35,11.22-.53,22.32-2.64,33.3l-1.09,1.32c3.13,2.32,3.15,5.57.27,8.12.65,4.27.7,8.53.16,12.8,1.45,5.31-.61,9.94-6.18,13.9-3.28,2.03-6.01,4.22-8.69,7.07-3.41.75-5.53,2.37-6.35,4.86,7,1.22,10.06,5.54,12.57,11.73,3.54,8.71,2.1,20.3-1.19,28.83l1.86,2.28c1.4,11.01.79,22.56-.1,33.85l3.33,16.4c2.09,5.57,2.19,10.72-1.1,15.83-1.5,2.33-3.79,5.73-6.42,3.27-2.09-3.77-14.01-18.03-15.98-9.45-.93,4.05-2.23,20.82-1.77,24.63.37,3.06,1.49,2.95,4.61,1.74,2.08-.81,7.71-4.81,9.17-6.4,8.05-13.01,8.83.05,9.09,7.75-.28,4.18.09,7.83,1.24,11.83.49,10.77,1.23,21.48,2.2,32.11,2.16,16.77,11.22,31.31,23.84,41.99,4.49,2,6,3.03-.12,3.29-2.1.09-4.3.05-6.38-.28-3.21.03-6.01-.54-8.42-1.72-5.53-7.06-11.07-14.14-16.62-21.23-6.05-12.57-9.19-26.95-9.29-40.9,1.63-7.76,1.44-14.75-8.18-16.23-.99-.15-4.76-.35-5.25.29-1.09,1.43-1.12,24.54-1.12,28.19,0,5.39.02,10.81.54,16.15l-1.23.96c-.65-.78-1.37-2.07-1.36-3.44l.3-37.51.85-25.09c.08-2.26.26-3.96,2.75-4.77.42-.14-.2-1.65-.8-1.47-.28.09-.95.2-1.37-.05l.1-12.06.27-21.51.46-24.21c.02-.86.23-1.57.62-2.01.52-.25,1.42-.31,1.48.05.33,2.02.4,4.12.47,6.19-.64,12.43-.73,24.76-.26,36.98,3.6-3.05,6.95-1.92,10.82-.5,2.84,1.75,5.8,3.14,8.89,4.19,4.34.24-.96-15.1-1.79-16.92-2.24-4.18-3.64-8.79-4.2-13.81.69-11.09,1.24-22.16,1.65-33.2-.99-6.82-1.5-13.7-1.54-20.63-.29-2.74-1-8.81-5.2-8.12-1.35.22-6.06,1.42-6.35,2.82-.11,3.02-.97,4.53-2.56,4.53-.63-.85-.43-2.81-.04-3.96v-9.1c.67-5.99.98-12.39.38-18.39l2.03-83.23.51-8.01c.02-4.2.14-8.39.35-12.58l.66.13,1.3.76-.19,20.22c2.08,5.27,2.33,10.29.75,15.06,2.29,1.18,2.61,3.41.97,6.68-.7,2.38.21,4.47,2.75,6.27.83,2.33.36,4.75-1.4,7.26,1.45,8.9-.24,17.04-2.51,25.57-1.2,7.59-1.42,15.09-.66,22.5-.51,2.9-.62,3.84,2.32,5.1,7.61,3.27,16.17-12.88,11.47-18.72-.05-1.45.5-3.06,1.65-4.83.67-14,1.25-27.99,1.76-41.98-1.33-2.36-1.13-4.36.58-6.01,2.04-4.83,3.01-9.67,2.92-14.53,1.49-2.74,1.72-3.82,1.18-7.02.22-2.83.41-5.7.55-8.54.7-14.58,1.35-30.49-18.21-29.94-1.85.05-2.76.24-4.43.8-1.03-.61-.81-5.48.5-6.13.1-1.87,1.59-1.58,1.78.22Z"/>
  <path class="cls-1" d="M128.62,408.9c1.16,1.43,1.09,3.9,1.6,6.17,4.29-1.74,12.22-3.13,14.66-2.16.68,1.28,1.67,1.67,2.98,1.19l3.77.72c1.68,1.05,3.36,2.13,5.05,3.26,5.52.24,8.03,5.34,9.91,9.9,1.11,1.27,1.7,3.63,2.35,5.25l1.06,1.87c1.84.82,2.25,1.87,1.23,3.15v2.72s.56,2.65.56,2.65l.05,2.57-.08,5.83c-.02,1.05-.75,2.19-.52,3.32l-.55,2.05c-1.76,4.66-3.06,9.78-6.12,13.76.89,1.81-1.31,5.04-3.25,4.23-5.52,7.19-14.61,10.63-23.92,9.95l-1.49,1.99c-.59-.19-.63-.87-.1-2.03-1.14-1.99-1.39-3.75-.74-5.28.07-1.21.56-7.85,1.02-8.13.27-.17.59-.26.93-.32,17.57-3.69,23.42-28.42,11.59-41.33-3.17-3.47-12.04-4.55-14.32-.22l1.85,19.73c1.38.82,1.89,1.97.47,2.98-.42,1.27-.99,1.95-1.72,2.05l-.51,1.24c.05,5.26-3.14,2.84-4.02-.85l-4.29-.94c-.12-1.43-.51-1.89-1.19-1.38.33,1.1-.71,2.4-1.85,2.63.2,1.59-.86,1.85-3.17.79-1.33.95-1.9,1.08-3.44.38l-.48.47c-3.03-3.08-5.99-6.06-8.89-8.93-3.23-2.2-6.26-4.84-9.09-7.92-.15-1.62-.12-3.31.08-5.08,1.26-.74,2.46.95,3.35,1.15,3.03.69,4.73,1.84,6.73,3.62,1.44.71,2.86-1.49,3.48-2.39,1.37-1.97,1.09-3.11.68-5.41l-1.1-6.13c1.11-.97,2.23-1.27,3.9-1.7-.85-3.13-4.25-2.24-7.15-4.26.47-4.57,5.91-5.58,3.91-11.03,1.54-.06,3.58.5,4.89-.35,5.66-3.66,6.62,2.38,11.89.22Z"/>
  <path class="cls-1" d="M141.1,235.23l.74-28.61c.46-3.32.68-6.59.66-9.81,1.3-1.86.55-6.75,3.32-7,2.21-.2,3.26-.93,5.33-1.62,1.37-.46,4.44,1.44,5.33,2.84,1.16,1.82,1.42,5.67,1.53,8.33l.33,7.94.22,5.28c.08,1.99,1.1,4.79.86,6.3-.45,2.89-.81,4.68-.41,7.68s.09,6.88-.19,10.01l-.79,8.55c-.33,3.57-.67,6.43.64,10.06.69,1.91.5,5.52,1.84,7.13,1.75,2.1,1.68,3.82,2.48,6.18,1.23,3.62,3.06,6.4,2.35,10.74-.2,1.26-.24,3.01-1.61,3.85-4.56,2.79-14.88-12.09-22.13-1.33l-.59-12.39c-.44-9.26,1.57-18.27.53-31.16-.09-1.07.15-2.26-.44-2.97Z"/>
  <path class="cls-1" d="M188.86,401.81c-2.97.29-6.03.39-9.19.31-4.92-.06-9.67-1.67-14.35-2.98l-6.96-3.97c-1.87-.61-3.92-1.51-4.7-3.45-7.35-6.22-13.6-14.59-14.38-24.4l-.48-6.07-.13-11.05.4-23.79.9-5.61c6.12-1.57,13.13.23,16.09,6.33,1.68,3.45-.47,7.64-.22,11.15.23,3.14-.3,6.36.66,9.2.86,2.53-.12,4.96.58,7.31l3,10.01,2.43,8.86c.5,1.83,2.64,5.16,4.06,6.5,2.59,2.43,3.2,4.99,5.26,7.29l6.16,6.88c1.67,3.14,3.58,6.39,7.64,6.74,1.09.1,2.63-.28,3.2.73Z"/>
  <path class="cls-1" d="M135.9,487.32l-2.81,5.63-3.82,6.91c7-.32,15.4-.19,16.31,4.48.46,2.39-2.09,3.69-3.42,4.68-2.18,1.62-3.33,1.58-5.82.7s-5.69,1.58-7.82,1.41c-4.46-.36-8.14,1.53-12.29,1.44l-9.71-.34c.24-.72.2-1.02-.34-1.01-13.77.5-27.54.89-41.28-.49-.68-.07-1.33-.41-1.98-.83.41-1.46-.5-1.61-1.32-.37.04,1.41-3.1.61-4.26,0l-.33.34c.65-.29,2.2-.1,2,.9l-12.4-1.91c-2.4-.4-3.11-2.14-3.84-4.11-.73-1.97-2.7-3.53-3.91-5.34-.66-.98.33-2.21.99-2.77,2.45-2.07,4.99,2.58,10.61-1.52,3.21,2.25,3.79,7.64,5.54,10.71l1.47,2.58,3.57-2.2c.09-1.95,2.71-3.93,4.45-2.56,1.1.86,3.48,1.4,3.89-.01.26-.91-.75-3.3.89-3.63l6.17-1.28,2.48,7.63c2.55,3.84,5.62-5.52,10.91-3.48.7.27,1.55-.98,1.26-1.48-1.18-2-4.52.46-6.27-1.6l8.65-2.58c2.19-.66,3.32-2.62,3.75-4.58,1.02-.22,1.94.25,2.34.8.32.45.42,1.03.41,1.82l-.07,6.83,4.54-1.97c.85-.37,1.75-1.31,1.78-2.03.03-.86-.71-1.69-2.04-2.44l2.98-2.57c-.97-6.74,7-5.52,6.62-8.66-.23-1.92-6.16-1.46-4.52-4.26.84-.66,2.08-.86,3.71-.62,2.04-1.34,5.57-1.41,3.36,1.26.64,1.29,1.35,2.65,2.12,4.08l1.26-.93c3.41,1.55,4.87-1.8,4.64-4.84-3.01-3.75-3.21-6.08-.59-7l.8-.09c2.76,4.2,6.27,7.85,10.54,10.97,1.11,1.78.92,4.66-1.43,4.47-.7-.06,1.34-1.18,2.24-.13Z"/>
  <path class="cls-1" d="M33.62,493.29c-.69-.75-1.14-2.33-1.36-3.37-2.15-6.18-3.01-12.7-2.61-19.56-.54-8.23.78-16.25,1.08-24.63l.37-10.29c.08-2.2.55-5.47,1.05-5.89.36-.31,1-.41,1.46-.02,1.26,1.05-.85,7.19,3.32,10.63,1.53-5.06-.52-10.31,2.69-12.33.41,2.65.15,4.49,1.43,6.03,1.1-1.38,2.46-2.37,4.01-1.5-.48,1.71-1.92,2.1-2.7,3.09.3,4.57-4.1,5.24-3.05,7.75,1.14,2.73,6.49-2.13,15.69.35,1.94.52,2.73,2.81,4.12,3.82,1.43-.09,3.01-1.21,4.22.1.76.82,2.6,2.2,1.25,3.86l-5.11,2.52-3.04,6.08c-.97,1.95-1.15,3.4-3.2,3.88l-4.46-.86c-3.11.49.41,8.88-4.98,11.46-2.86,1.37-4.75-.17-7.16-1.35-2.75.14-3.36,4.75-3.08,7l.98,7.76c.32,2.56,2.27,4.81,1.99,7.65-1.71-.56-2.23-1.47-2.89-2.19Z"/>
  <path class="cls-1" d="M166.58,427.97c-2.67-2.2-3.81-5.8-7.87-8.69-1.92.14-2.91-.93-4.06-2.15-.72-.77-3.44-.48-3.03-2.32,1.83.35,3.12,1.23,4.96,2.46,1.41.94,5.25.01,5.55-1.49.61-3.12-3.19-4.64-4.28-6.13.06-2.41,3.82-3.15,5.78-2.53-.15-2.11.46-2.96,1.46-3.35,1.38-.55,3.11.5,2.52,1.77-.27.58-1.72,1.19-1.73,1.66s1.94,1.12,1.77,1.58c-.67,1.85.96,6.75-.69,13.06-.58,2.22-1.39,3.6-.39,6.12Z"/>
  <path class="cls-1" d="M106.51,512.23c-2.56-.42-5.55.35-8.43.35l-9.71-.02-16.38-.49-7.22-.66-5.75-.61c-.54-.21-1.31-.92-2-.9-.12,0-.31-.16-.33-.36-1.07.01-2.19.28-3.66-.28,1.28-.69,2.73-.42,3.98-.02.14.04.27.16.33.32h4.26c.46-1.48,1.81-1.19,1.32.36,14.85,1.1,30.04,1.6,45.26.17,5.37-.51,10.07-1.73,14.28-4.94,1.44.63,2.94-.05,4.08.07,1.14.27,1.66,1.3,1.47,1.84-.73,2.07-3.32.26-4.43,2.5-6.3,2.42-13.19.65-17.05,2.68Z"/>
  <path class="cls-1" d="M160.22,32.38l-.47,1.42c-3.58,1.14-7.01,1.34-10.29.6l-1.78-.22c-1.3.18-.96-1.56,0-1.98l.05-1.76c-1.56-1.51-1.77-9.81,1.98-7.76,1.84-1.5,5.53,1.95,4.82,4.14,1.67,2.09,3.57,3.95,5.7,5.57Z"/>
  <path class="cls-1" d="M147.67,32.19v1.98s-.5,6.13-.5,6.13c.5.15,1.26.37,1.29.76.36,4.23.05,15.3-.72,19.05l-1.35,1.55c-.22-.05-.59.23-.6.67l-.41,11.78.06-19.38.63-20.95c.03-1.14.68-1.73,1.6-1.59Z"/>
  <path class="cls-1" d="M32.26,489.92c-4.9-6.19-2.27-14.34-2.61-19.56.94.68.57,1.99.55,3.26-.13,5.75.94,11.06,2.06,16.31Z"/>
  <path class="cls-1" d="M152.95,17.32c1.72,1.17-1.37,5.94-3.25,5.35-.45.75-2.83,1.01-2.65,2.48l.67,5.28-1.17.54c-.33-3.47-.5-6.48.53-9.43.67-.27,1.3-.92,2.06-.95.95-.98,2.16-2.64,1.85-4.01.41-.75.67-1.4,1.42-1.82,2.85-2.59,3.91,2.39.54,2.56Z"/>
  <path class="cls-1" d="M161.31,475.38l3.25-4.23c.96,1.13,1.52,2.35.95,3.66-.45,1.04-1.23,2.44-2.59,2.38-.75-.03-1.35-1.14-1.62-1.81Z"/>
  <path class="cls-1" d="M142.46,183.75l.39-18.39c1.1.91.79,1.88.75,3.12l-.38,12.73c-.03,1.06.09,2.19-.76,2.55Z"/>
  <path class="cls-1" d="M142.51,196.81c.04,4.23,1.7,7.14-.66,9.81v-12.47c-.01-.67.29-1.12.62-1.3l.04,3.96Z"/>
  <path class="cls-1" d="M171.23,438.25c-1.12-1.54-1.59-3.3-2.29-5.02.94,1.29,1.53,2.89,4.03,1.89.1,1.24-.38,2.85-1.73,3.13Z"/>
  <path class="cls-1" d="M158.37,395.17c-2.2-.04-4.83-.86-4.7-3.45l4.7,3.45Z"/>
  <path class="cls-1" d="M147.86,414.1c-.27.94-1.11,1.15-1.67,1.07-1.2-.16-1.41-1.41-1.31-2.26l2.98,1.19Z"/>
  <path class="cls-1" d="M198.24,531.82c-1.8.9-4.4.94-6.17-.05l6.17.05Z"/>
  <path class="cls-1" d="M201.25,531.94c-.82-.26-1.78-.17-2.61-.15.4-.56.95-.74,1.62-.78.58-.04,1.09.19.99.93Z"/>
  <path class="cls-1" d="M171.79,443.62c-.69-.72-.55-1.72-.55-2.65.88.57.53,1.75.55,2.65Z"/>
  <path class="cls-1" d="M170.68,457.39c-.22-.77-.1-1.59.55-2.05.17.86-.3,1.38-.55,2.05Z"/>
  <path class="cls-1" d="M567.87,170.65l1.29-67.18c.72-1.29.77-2.61.16-3.96l.04-29.39c0-.66.41-1.28.71-1.53.48-1.33.62-4.05-.07-5.64l.05-20.9c0-1.3-.05-2.54.66-3.32l.24,7.22c1.67,5.24,3.63,10.33,7.23,10.34,1.68,0,5.05-4.65,3.62-8.35l6.37-3.41c1.18-2.96-4.04-4.74-3.48-8.2.16-.99,2.04-1.21,2.57-.7l2.03,1.91c.67.63,2-.92,2.54-1.34,1.46.12,2.43,2.34,2.01,3.9-1.22,4.55.76,10.26-.99,10.74l-3.03.84c1.96,4.01,4.1,7.11,4.24,11.38.03.87-1.28,2.43-.44,3.61.99,1.38,1.56,3.05,1.78,5.22.75-.14,1.7-.7,3.21-.6-.91-2.02-.8-4.4.54-6.36l4.45-6.51c.18-1.11-.69-2.96.3-4.26-2.43-.88-4.2-3.95-3.53-6.59,1.09-4.29-1.88-5.55-.85-8.24.25-.64,1.37-.89,2.04-1.65l3.19-3.63,3.28,1.75c1.78-1.28,4.78-1.11,5.81.93l.67,5.94c.37,3.25,1.13,6.17.12,9.32-.75,2.33-.03,4.18.21,6.48.18,1.7-.84,4,.27,5.74,1.68,2.63.01,5.43.33,7.89.53,4.11,2.12,8.63-.1,12.68-.74,1.34-.6,2.22-.53,3.65l.26,5.23c.16,3.29-.3,6.46.88,9.71-2.04,2.08-1.56,4.78.28,6.31,2.13-.81,1.26-2.91,1.92-3.96l2.75-4.41c.55-.88,3.65-.96,2.94-3.15l-2.58-3.05c2.72-3.06.1-6.6,2.25-11.27,1.64-.21,2.74-.95,2.82-2.53-3.25.13-5.1-5.65-4.27-7.15.59-1.06,1.82-1.58,3.39-1.54l.13-5.64-2.89-1.01c-.75-1.66,1.15-2.69,1.5-3.76,1.09-3.33,2.67-5.24,6.31-7.03l-9.1-7.54c2.56-2.58,6.08-.78,7.25-2.21.62-.76.67-6.23-1.9-8.25.26-.78,1.15-1.42,1.45-1.27,1.03,1.4,2.7,2.21,4.2,2.38,1.31.15,2.72-1.46,3.79-1.86,4.31,2.02-.67,5.17-.48,10.84,2.1,2.4,2.25,5.31.18,7.9.96,4.18-.49,8.29-.32,12.25.12,2.85.08,5.01-1.26,7.66-.27,6.84,4.36,9.04,1.69,13.42-2.34,3.83,0,6.7-.53,11.05l-1.25,10.38c-.25,2.07,1.42,4.83.27,6.9-.91,1.64-.51,2.69-.62,4.54l-.53,8.72c-.11,1.9.85,3.7-.05,5.66-1.47,3.2-.11,6.35.17,9.54.17,1.91-1,3.67-.1,5.95.69,1.74.21,4.42-1.12,5.77-.65.65-2.63.57-3.14,0-2.45-2.75,1.37-5.9.63-10.39-1.17.02-2.37-.37-3.66-.93l-2.71.52c-1.79-1.72-.88-4.61,1.31-5.9,1.17-.72,1.34-2.93,1.9-3.96l-3.76-5.48c1.11-2.59.26-5.21.45-7.58.38-4.74-2.26-4.97-3.28-9.1.5-1.15.82-2.15.05-2.86-.86-.8-4.3-.81-5.37.48-.56.67.17,1.54.16,2.15l-.2,10.77-1.05,11.89c-.44,4.93-.39,9.64-2.03,14.41.46.86,1,1.81.98,2.77l-.15,7.02c-1.3,5.26-.51,9.7.38,14.77-.09,2.13-1.83,4.9-.79,7.55.68,1.72-.64,3.71-.45,5.29l1.2,9.64c-.75,1.4-2.35,2.82-1.05,4.96,1.11,1.81-.42,4.42-.23,6.25.51,4.9.25,9.22-2.34,13.43.74,1.51,1.88,3.78,1.28,5.14-1,2.29-.44,4.29-.85,6.35-.49,2.41-1.5,4.16,1.15,6.68-1.67,1.09-2.57,3.49-3.56,4.66-1.92-.14-3.81-.66-5.24,1.42-.73,1.07-3.47,1.37-3.7-.62-.14-1.17,1.78-2.75,2.38-3.44-1.48-3.33-3.36.3-4.41-1.3-1.95-2.99,3.62-1.01,6.52-4.49.72-.86,2.16-.45,3.87-1.46l-8.69-1.73c-1.02-.2-1.87-.97-1.69-2.02.1-.57.81-1.23,1.64-1.52.45-.16,1.28.54,1.93.98,1.81-1.27,3.72-2.56,6.62-1.96-1.94-6.95-7.31-2.16-10.83-5.22,1.15-2.01,3.09-2.98,4.71-4.39,2.88-2.51,3.84-.29,5.62-1.33.49-.28.38-1.15-.13-1.81l-3.39-4.44c-1.81-2.37-5.67-2.58-8.73-2.3-.74-1.83-1.06-3.66-1.18-5.19,2.33-1.43,3.75-2.76,5.65-4.59-2.73-2.13-4.85-6.13-4.5-6.95.01-.03,3.26-1.89,6.03-2.81-.27-1.19-1.37-3.07-.53-4.04.65-.75,1.83-1.28,2.88-1.52-.6-2.27-2.37-.98-3.04-1.18-5.25-1.53-2.18-8.78-5.7-10-.92-.32-1.65.97-1.55,2.07-1.85,1.71-1.86,3.9,0,5.6-1.33,2.64-.73,5.03,1.71,6.95-3.84,5.16-3.47,11.3-2.31,16.88l-.99,10.68,3.14,4.33c-1.27.59-2.31.95-2.67,1.51-.74,1.13-.46,10.15-1.09,12.97l-1.28,5.71c-.55,2.46.41,3.37.79,5.53.51,2.92-1.52,6.53-.4,9.36,1.11,2.79.74,4.73.09,7.46-.28,1.17.97,3.9.31,5.01-2.05,3.44-1.09,5.99-.45,9.51l-1.26,7.6c1.07,3.88.18,8.82-.86,13.12.59.79,2.1,2.1,1.46,3.22-.6,1.06-1.58,1.61-2.65,2.49,1.11,1.92.4,3.82.76,5.87.2,1.11.9,2.07.18,3.02-2.34,3.04-1.78-2.6-6.3-2.53l-2.05-6c1.99-.64,3.41-.68,5.05-1.92-.75-1.94-2.46-2.21-3.85-1.45-1.21.67-1.28,1.76-1.53,3.18-.2,1.16-1.65.67-2.32.65-.88-.03-1.96-1.37-1.13-2.45,3.45-4.47-2.69-5.91,2.06-8.78l-3.22-2.66.73-2.88c-2.28-1.14-4.49-1.89-4.63-5.32,1.99,1.23,3.2,1.46,5.06,1.39,1.36-.05,2.04,1.81,2.75,2.47.87.81,1.86-.14,2.2-.61s1.02-1.97.1-2.5c-.75-.23-2.64.45-3.51-.25-2.99-2.4-3.23-5.92-3.8-9.53-.19-1.21-1.6-2.02-.76-3.44.63-1.07.92-2.1,2.78-2.45-2.2-2.44-3.75-4.2-6.95-5.22l2.87-1.54.39-3.16,3.85-1.56c1.24-.5-.54-5.79,2.78-7.16-.28-1.4-.73-2.25-1.65-3.95-1.22.68-1.58,2.03-1.59,3.53-2.14-.52-4.78-2.37-4.44-4.41.26-1.57,2.38-3.71.99-5.49-1.04-1.34-1.86-2.68-1.85-4.67l.06-16.11c.23-.82,1.86-1.97,1.52-3.12-.22-.7-1.43-2.52-.81-3.19,2.03-1.5,3.17-2.81,3.17-5.15,0-2.07-1.05-3.34-3.3-4.53,3.7-3.84.06-6.75.05-12.71l-.02-15.77c0-1.14-.03-2.05-.98-2.57Z"/>
  <path class="cls-1" d="M686.13,109.19c-.5-3.58,2.86-4.48,3.92-6.45l.17-6.04-2.38-2.8c.04-1.41.45-3.19,2.11-4.2l-1.77-5.27c2.5-4.48-2.37-6.87-1.82-9.35.51-2.3,2.95-.72,4.98-2.89,1.38-1.47-.46-2.12-.85-2.97-1.09-2.37,1.67-3.71,3.16-4.89,1.33-1.05.08-5.08-1.34-5.08l-2.45,1.07c-.71.31-1.76-.74-1.83-1.59-.08-.91,1.42-1.54,1.77-2.05,1.42-2.02-1.03-3.57-2.19-5.16-.51-1.31,2.97-3.15,4.55-1.96,1.27-1.26,1.59-2.1,2.43-3.75-1.79-.98-3.03-3.08-4.5-4.42-.99-.14-3.08,1.07-4.16-.92,5.65-2.85,6.78-9.24,8.5-8.76,2.55.7-.1,7.3,2.37,10.18,3.05,3.54,3.13,7.09,3.07,11.26l-.22,13.77-.58,34.38-1.37,22.59-.51,30.99-.95,24.91c-.02.44-.7.89-.83,1.07-.14.2-.52.32-.66-.07l-.44-1.24.1-24.8-.21-10.84-.89-5.06c-.88-4.97-2.74-9.75-1.49-14.85l2.3-3.03c-.73-6.47-1.94-11.91-8-11.76Z"/>
  <path class="cls-1" d="M567.44,200.73l.07-27.38c0-.47.37-.73.63-.7v27.38c0,.48-.41.75-.71.7Z"/>
  <path class="cls-1" d="M485.22,406.56c-2.81-.04-6.68-.69-9.49.17-3.07.94-4.55-.19-7.51-.29l-19.52-.65c-1.35-.25-2.64-.51-3.86-.77l-.6-1.53c2.27-3.78,3.81-7.97,4.18-12.39l2.03-2.46c.53-2.59,1.6-4.8,3.2-6.63.82-2.72,2.24-4.66,4.27-5.83,1.56-4.02,5.47-5.9,11.74-5.65,12.29-5.37,11.62-17.93,8.55-28.79-2.19-2.24-5.18-3.61-8.97-4.11-.95-.88-.97-1.13-.95-2.37.02-1.79,7.41-16.73,8.48-18.78,3.81-5.01,5.9-8.7,3.01-14.62-5.13-5.91-4.88-10-.66-16.43-2.33-4.99-3.46-10.03-3.4-15.14l5.79-5.28c-1.3-4.85-2.61-9.74-3.92-14.65.71-3.92.36-7.45-1.04-10.59-5.16-6.45-5.95-11.34-1.18-18.22,1.2-5.06,1.49-10.24.87-15.52-1.56-2.09-2.6-4.33-3.14-6.71-2.74-.04-2.97-1.79-2.87-4.05-2.66-1.96-3.93-4.38-2.23-7.47,1.01-3.68,1.21-7.33.6-10.93,1.46-5.03,1.38-10.21-.24-15.54.95-2.33.99-4.55.15-6.91l.47-3.09c-.98-7.97-1.4-17.02-.62-25.09,1.25-12.97,5.09-21.79,11.85-32.8,4.58-9.85,4.87-21.89,3.8-32.49-.81-.71-1.4-1.83-1.75-3.34l-1.68-2.48c-.82.69-1.56-.19-1.24-1.15-.44-.56-.62-.79.13-1.01,4.33,2.03,7.47,6.31,8.3,11.33,1.68,10.14,1.8,19.91.1,30.02l-.06,5.72c-1.04,2.7-.6,4.65-.58,7.39l.14,16.86c.02,2.42,1.06,4.7.57,7.26-.6,3.14.29,6.11.45,9.09l.54,10.41.33,9.84.33,10.77.16,11.41c.04,2.57.47,3.49-1.32,5.38-2.42,2.55,2.33,12.39,2.37,21.72.02,5.15-.71,9.8-1.65,14.65-.27,1.41,1.04,2.73,1.55,3.46.85,1.23,2.63.03,3.63.17,2.81.39,3.14,3.83,3.39,6.13l.66,6.05c.26,2.41.4,4.96,1.18,7.23l3,8.72c.71,6.34.44,13.14-.92,19.34l-2.36,10.77c-.89,4.04-1.68,8.25-3.75,11.79l-3.98-.5c-1.93,4.66-.13,8.85-2.38,15.77l-4.1,12.6c3.48,3.39,4.95,7.78,7.12,11.79,1.54,2.85,2.1,4.92,2.44,8.15.72,6.9.65,9.72-4.6,14.82l-5.22,5.08c-2.28,2.22-4.7,4.4-5.62,7.52l7.84,2.93c3.16,2.86,2.09,8.64,0,11.74l-2.47,3.65-4.61,8.94-1.48,4.72c2.71-.18,5.02-.41,6.72.9Z"/>
  <path class="cls-1" d="M570.07,68.59l-.07-5.64c.25-.1.78.19.77.68l-.32,13.76-.39-8.8Z"/>
  <path class="cls-1" d="M473.73,50.56c.34.49.79.9,1.27,1.25l-2.23.12c-1.6,1.08-2.94-.46-1.91-2.05l2.86.68Z"/>
  <path class="cls-1" d="M569.16,103.47l.16-3.96c1.25.76,1.34,3.12-.16,3.96Z"/>
  <path class="cls-1" d="M479.49,52.94l-.13,1.01c-.52-.45-1.13-.77-1.43-1.46l1.56.45Z"/>
  <path class="cls-1" d="M11.96,140l.19,32.44,1.09,9.34-.91,33.67c-.2,7.44-.14,14.46-.2,21.88-.03,4.07.87,7.67.1,11.85l-.47,15.31-.27,19.75c-.03,2.4.02,4.19.13,6.64l.38,7.81-.88,18.86-.8,6.36c-.6,4.81-.08,9.14.18,13.97l.44,8.41-.05,16.38-.32,10.45-.3,36.58-.46-16.33-1.16-8.57.47-56.2.66-20.08c.05-1.67.35-2.88.51-4.87l.68-8.48-.67-19.99c-.11-3.34-1.38-6.31-.62-9.91,1.42-6.71,2.18-13.35,1.83-20.13l-.45-8.67v-6.67s-.03-16.37-.03-16.37l.06-41.42.25-39.79c0-.48.33-.72.71-.7.02.55.71,1.02.27,2.25-.7,1.98-.38,4.32-.37,6.23Z"/>
  <path class="cls-1" d="M517.22,33.66l-7.01-.03c-.68.2-.99-.62-.42-.87,3.55-.95,6.9-1.11,7.43.91Z"/>
  <path class="cls-1" d="M525.05,33.58c-.05.97-1.12.97-1.3-.01-1.52-.01-3.07.23-4.58-.22v-.88s6.45-.18,6.45-.18c-.04.67-.35.98-.58,1.28Z"/>
  <path class="cls-1" d="M525.05,33.58c.37-.01.83.9.57,1.14-1.56.29-3.16.4-4.51-.19,1.15-.32,2.1-.28,2.65-.96h1.3Z"/>
  <path class="cls-1" d="M470.24,49.31c-1.42-.1-2.9-.4-4.01-1.37,1.22.28,2.91.37,4.01,1.37Z"/>
  <path class="cls-1" d="M177.16,16.95l-8.04,2.78c-3.16,1.09-7.4,1.32-10.48-.22-1.96-.98-3.42-2.42-5.68-2.19.43-.71.7-1.64.92-2.59-.91-.23-1.2.03-1.46.03l.78-1.58c2.86.59,2.93-4.12,7.49-2.72-.68-1.64-1.42-2.86.25-4.19,2.23,5.16,6.27,2.82,11.54,7.85l4.69,2.84Z"/>
  <path class="cls-1" d="M87.68,17.09c-1.09-.23-1.93-.7-2.43-1.03-.94-.62.28-2.11.9-1.81.74.49,1.21,1.27,1.53,2.84Z"/>
  <path class="cls-1" d="M149.14,20.59l1.85-4.01c.58,0,.88.51.47,1.15-.61.94-1.07,2.82-2.32,2.86Z"/>
  <path class="cls-1" d="M706.52,34.18c-.94-.83-1.46-3.07-3.32-3.11l-20.54-.39-27.71-.63-30.61-.67-23.54-.35-14.35-.5h-15.1c-4.33,0-9.63-.13-12.37,1.86l1.87,1.24,8.36-.97c.31,2.37.37,4.75.18,7.15l1.32.91c-.95,5.17-.14,16.81,5.93,18.6,4.65,1.38,7.12-5.13,6.91-8.85,4.51-1.48,6.4-3.66,5.67-6.56-4.52-5.69-4.4-6.7.35-3.03,2.23-1.31,3.25-1.22,3.08.27-.55,3.44-.67,6.93-.35,10.46-2.28.26-3.42,1.22-3.42,2.9,2.03,3.32,3.34,6.8,3.91,10.43-1.51,1.03.89,8.28,1.47,8.91,1.71,1.82,5.43,1.09,5.35-1.69-.05-3.81,1.69-7.62,5.23-11.43l-.03-5.09c-3.39-2.37-3.55-4.63-2.9-8.44-1.66-3.44-1.57-5.55.25-6.32,1.67-2.92,3.55-3.59,5.64-1.99,2-.89,3.62-.82,4.85.22l1.19,10.93c-.6,4.79-.78,9.64-.52,14.53,1.47,3.29,1.3,5.79.82,9.3,1.49,4.84,1.35,9.31-.42,13.43-.32,5.95-.05,11.87.82,17.76-1.67,2.11-1.55,4.77.13,6.84-.92.74-1.42,1.61-1.5,2.62.62,12.75-.64,25.88-2.88,38.55l.9,2.42c-.83,7.41-.75,14.78.26,22.11-1.09,2.92-1.29,5.77-.6,8.54-.71,4.44-.54,8.98.52,13.62-1.81,2.21-1.8,4.18-.61,6.69-.18,4.91-.64,9.78-1.37,14.6-1.48,2.39-1.53,5.02-.15,7.89-.75,3.6-1.71,8.34-1.4,11.97,1.95,2.89-1.44,5.8-4.71,5.41-1.4,1.45-2.62,2.11-3.66,1.98,2.45-2.59,2.66-4.55.65-5.89,1.32-.62,2.48-1.46,3.5-2.51,2.51-.36,5.11-1.78,2.29-3.75-.64.63-11.31-2.68-7.98-2.57,1.32,1.13,3.07.87,5.26-.77,6.38.05,4.73-5.34-.35-6.71-6.32.69-6.56-.67-.72-4.08,8.18.62,5.06-4.8,1.28-8.6-2.67-2.68-5.25-3.05-8.91-2.94l-.68-3.09c2.31-1.35,4.07-3.1,5.28-5.24-1.45-2.03-2.82-4.13-4.1-6.3,4.89-1.43,6.56-3.65,5.03-6.65,4.32-1.94,3.72-5.58-.91-4.86-1.95-1.62-3.04-4.25-3.26-7.89-.55-1.19-1.78-2.32-3.16-2.12-1.35.2-3.43,4.07-3.65,5.4-.23,1.4.2,2.72,1.08,3.8-1.01,2.56-.27,4.96,1.47,6.98-3.16,4.99-3.08,11.11-1.83,16.68-.67,3.93-.86,7.8-.57,11.6,1.96,1.92,2.12,3.21.47,3.87-.92,4.16-1.38,8.44-1.36,12.84-1.57,4.49-1.76,8.84-.57,13.06-.93,4.02-.86,7.94.22,11.76-.56,2.88-.59,5.69-.1,8.44-1.91,3.37-1.62,6.83-.64,10.44l-1.21,7.21c.61,4.55.34,9.14-.8,13.75l1.54,2.43c-2.29,1.44-3.02,3.21-2.2,5.34,1.09,6.05.55,7.26-1.61,3.61-1.95-.53-3.1-2.07-3.43-4.63,7.42-1.43,4.04-8.18-1.69-5.06-2.44,4.31-3.74,5.25-1.38-.55l-.93-3.89c1.31-1.07,1.73-2.13,1.25-3.2-1.87-1.19-2.64-2.92-2.29-5.2-3.69-2.07-3.79-2.73-.29-1.98,4.68,7.46,10.95-3.92,2.27-3.18-2.22-2.28-3.36-5.23-3.43-8.87-1.48-1.97-.94-3.73,1.61-5.28-.67-2.36-2.26-4.25-4.76-5.67,1-.8,1.48-2.01,1.42-3.63,4.28-1.07,4.58-3.02,4.79-7.05,3.96-3.89-.67-11.02-3.84-4.9-2.18-1.05-2.42-2.74-.73-5.07.2-2.2-.47-4.54-1.99-7.03l-.04-16.37c1.89-1.87,1.9-3.63.66-5.9,3.83-2.68,4.67-7.72.72-10.71.95-3.57.73-7.47-.65-11.69l-.13-17.91c-.24-1.47-.81-2.04-2.2-1.17-1.7.7-1.58,2.21.28,2-.2,9.36-.44,18.71-.71,28.08l-1.32.94-1.79,110.79c-1.38,1.71-1.52,3.1.36,4.53l-.53,46.52c0,20.48-14.38,37.68-34.35,41.77l-1.53,1.62-1.38.14-20.26-.15-21.43-.32-2.59-.55c-2.14.27-3.59-.06-4.35-1l-5.08.79c-7.93-.81-15.89-1.24-23.86-1.3l-.64,1.29c-2.01-.59-4.73-.68-6.55-.05-3.81-.44-7.72-.53-11.73-.28-.07-.47-.18-.9-.45-1.14-.3-.28-7.87-.61-7.33,1.26-1.06-.07-1.83-.5-2.3-1.28,0,0-5.28.28-15.84.83l-.94-1.47c-6.9,1.05-13.66,1.05-20.27-.01-.54-.05-.93.61-1.09,1.2-15.27.22-30.61,0-46.03-.68-6.55-.64-14.12-1.24-20.7-.88-.37.02-.56.78-.63,1.3-1.04-.69-7.93-1.28-8.18-.95-.18.23-.25.54-.3.87-14.59-1.54-29.25-2.23-43.99-2.08l-.46,1h-19.61c-.57-1.98-6.06-2.04-6.84-.59-1.85-.19-3.46-.09-4.84.31-2.09-.22-4.28-.42-6.57-.58l-.9-1.31c-.88-.15-7.94-.21-8.3,0-.42.24-.52.81-.56,1.31-4.29-1.88-10.26-1.73-15-1.5-.21.01-.4.38-.58.86-6.37.13-12.72.2-19.05.2l-1.45-1.37c-3.76-.44-7.45-1.25-11.06-2.44l-1.84.84c.32-2.11-5.42-5.49-6.96-3.97-1.96-.69-3.77-1.48-4.7-3.45l-.31-2c-6.19-5.53-11.38-12.62-12.6-21l-1.47-1.4c-.73-2.05-1.03-4.18-.91-6.39-.6-13.15.07-26.95.81-40.05,0-.14.24-.28.55-.4.05-7.35.43-14.62,1.12-21.82,2.66-1.67,3.38-3.78.12-5-.46-19.39-.42-38.87.13-58.44,1.32-.49,1.79-1.91,1.42-4.24.22-2.57,1.35-23.88.2-24.3-.26-.1-.56-.1-.87-.07.43-4.56.64-9.15.62-13.77.28-.11.52-.23.61-.42.76-1.64,1.69-8.42-.61-8.67.66-6.01.97-12.37.39-18.39l1.32-.76,1.6-65.72-.43-1.46c.75-7.5.62-15.37.48-22.96,0-.11-.19-.22-.44-.33.43-13.4.93-26.82,1.49-40.25.26-.55.53-1.11.8-1.67,1.77-.36,1.93-1.83.05-1.76-.89-1.38-1.23-3.17-1.01-5.37,1.14-1.74,1.27-2.91.37-3.52,3.18-3.07-.37-2.99-3.13-2.39-6.43-.63-12.92-.63-19.47-.03-7.89-1.69-16.05-1.87-24.04-.84-5.89-1.46-11.98-1.88-18.28-1.28-1.11.49-1.91,1.37-2.41,2.65-1.49-1.66-3.45-3.46-5.82-3.57-5.88-.27-12.07.43-17.89,1.29l-1.64-.93c-2.86-.45-5.74-.38-8.62.22-3.86-1.32-8.05-1.82-12.57-1.5-6.08-1.29-11.81-.98-17.19.93-2.13-.05-3.05.81-4.31,3.04l-4.22,4.51-.48.95c.85,3.12,1.92,6.16,3.2,9.1l1.84.47c-.6,13.58-.93,27.18-1,40.81,1.13,1.98,1.89,4.05,2.29,6.2-.3,7.15-.18,14.29.36,21.42-2.17,9.88-1.76,20.31-.89,30.36-.23,2.68-.31,15.45.36,16.62.35.61.88.78,1.57.55.35,3.79.27,7.63-.25,11.54.91,25.09.94,50.08.08,74.99l-1.22.9c-.21,27.61-.62,55.21-1.23,82.8-.33,61.9-1.01,123.73-2.03,185.48-.55,7.31-1.37,14.57-2.44,21.77-1.99.04-2.9.76-2.74,2.16.63,3.41,6.42,2.02,10.96,1.98l9.24-.24,45.31.53,31.53.54,60.72.74,36.49.63,18.33.44,3.42-.1,7.68.15c.26.32.7.57,1.36.61h9.88c.65-.04,1.09-.29,1.33-.58l3.81-.07c.15.37.6.66,1.31.65l27.48-.11,8.34.04h9.99s7.69.1,7.69.1c.22.32.68.61,1.32.61l11.81-.04h1.91s3.99-.05,3.99-.05l2.55.04,9.2-.02,20.14.08,6.59-.04h3.23s3.31.02,3.31.02l5.12-.07c.04.23.23.58.76.72h19.62s7.07,0,7.07,0l3.94.02h.57c.2.36.66.64,1.36.64h7.94c.69,0,1.13-.28,1.28-.66h1.26c1.45.98,3.83.98,5.29,0l4.47.03c.2.35.65.63,1.31.63l11.12-.03,11.05.06c.23.33.68.62,1.36.62l29.4-.02,6.5.02,3.96.02h1.91c.18.37.61.65,1.28.64l5.96-.04,18.9.25,9.15-.22,12.78.29,20.68.06,29.4.49,14.83.29,49.37.36c13.92.1,27.33.26,40.74,2.64.38.07,1.15-.16,1.51-.28.6-.2,1.02-.96,1.08-1.91l.39-5.34.56-62.21.45-16.03.13-23.21.69-20.23.15-13.23-.06-9.96.54-10.27.64-21.33.62-27.54.69-36.52.61-24.95.72-20.65.64-15.07.17-18.44c.02-1.78.17-2.71.42-4.41.98-6.49.46-13.17.2-19.77l.54-3.56.58-13.42c.08-1.87-.74-2.33-.11-4.36,1.26-4.09.47-9.01.64-13.39l.42-11.13.45-15.77.68-27.6.45-18.66.49-13.31,1.01-15.25.83-13.26c.18-2.93.29-5.36-1.8-7.2ZM29.65,470.35l1.2-2.38c.53-10.68,1.04-21.26,1.52-31.76l-1.28-.78c-.89-2.91-.5-5.24,1.15-7,3.01-5.33,5.03-11.14,6.08-17.42.2-.65,1.48-3.76,1.67-3.84,1.97-.82,6.17-1.19,8.46-1.31,3.73-.2,7.44.05,11.14.54,5.16-.72,10.38-1.07,15.66-1.05,5.54,1.71,9.9,1.14,15.38.12,6.36.33,12.67,1.04,18.92,2.13,6.78-1.39,12.59-.95,19.07,1.31-1.04,5.2.32,8.85,6.33,6.07,6.01-.64,9.02-.96,9.02-.96l.92-1.09c.32,1.24,1.97,2.11,2.98,1.19-.02,1.89,3.64,2.68,3.77.72,4.43,4.3,15.14,6.59,10.42-3.12-3.94-2.2-3.15-3.54,2.35-4.02.46-3.18,3.14-4.3.42-.4,2.12,3.12,1.79,8.31,1.34,12.14-1.46,3.35-1.31,6.2.43,8.55-.76,1.58.31,5.68,2.35,5.25,1.47,1.78,2.23,3.46,2.29,5.02-1.83.45-1.89,2.45.01,2.72l.55,2.65c-1.82.45-1.86,2.61.05,2.57-1.94.44-2.1,5.5-.08,5.83-1.92.13-2.69,3.07-.52,3.32l-.55,2.05-1.7.84c-1.14,3.89-2.71,7.59-4.71,11.09l.3,1.83c-.44.82-.48,1.75-.13,2.8-.41,1.85-1.45,2.33-3.12,1.44l-1.94.3c-5.69,6.54-13.99,8.74-22.42,8.53l-1.05,3.1c-2.87,3.44-5.35,7.2-7.42,11.27-.24,1.13-.04,2.03,1.04,2.46,2.27-.35,17.03-.13,14.65,4.51-1.73,3.38-6.32,3.89-9.53,2.71-5.17,1.15-10.34,2.22-15.51,3.23-4.23.13-8.44.37-12.63.73l-.35-.93c-5.85.29-11.71.44-17.6.45l-.19.8c-13.2.19-26.39-.55-39.57-2.22-2.37-1.15-4.78-1.87-7.22-2.15-2.46-.89-2.41-2.25.13-4.07-.91-1.62-1.99-3.15-3.22-4.59-.13-2.48-1.04-3.8-2.72-3.94l-2.15-2.29c1.1-1.27.43-3.64-1.36-3.37-2.18-6.18-3.05-12.7-2.61-19.56Z"/>
  <path class="cls-1" d="M12.92,151.99c-.16-.47-.3-1.03-.3-1.54,1.37.18,1.74,1.43,1.83,2.4.14,1.42.04,2.55-1.08,3.58-.12-1.9,0-3.1-.45-4.44Z"/>
  <polygon class="cls-1" points="5.52 154.02 4.26 161.62 4.19 132.81 5.32 132.81 5.52 154.02"/>
  <path class="cls-1" d="M468.3,29.71c-1.5,1.67-3.4.6-4.81.9-.83-1.63,1.21-1.59,4.81-.9Z"/>
  <path class="cls-1" d="M444.73,278.4c.67.32,1.39.7,1.74,1.39.72,1.41,2.71,18.16,2.27,20.75-.33,1.97-4.86,10.88-6.24,12.49-3.45,2.14-4.69,4-4.7,8.1.94,8.58,1.73,17.67-1.11,25.99.17,2.71-.15,5.22-.93,7.52,1.62,17.28-3.96,35.03-13.67,48.98l.55,1.97c-5.99-.03-12.4.96-18.14-.44,4.3-.39,7.67-2.92,10.21-6.65l2.36-3.46c3.63-5.32,6.21-10.73,7.98-16.88.6-2.1,1.64-3.81,1.63-6.22,0-2.59,1.53-4.94,1.68-7.44l.36-6.1c1.67-3.84,1.51-6.92.5-11,.56-4.64,2.29-7.63,0-12.79,1.75-3.73-1.02-5.2,4.76-9.15-2.72-1.62-4.46,3.52-5.61,1.36-1.3-1.52-.31-2.42,1.36-1.3.26-.57,0-.99-.79-1.25-.29,1.9-1.5,1.76-1.81-.16-.98-.66-1.55-1.76-1.71-3.31-5.36-5.93-2.92-10.18,4.58-11.26,3.5-3.09,6.78-6.22,9.84-9.4,2.93-2.32,1.36-11.59-1.71-12.61-2.13-.25-1.3-2.79-.74-4.34,1.08-2.97,4.29-6.57,7.32-4.77Z"/>
  <path class="cls-1" d="M448.54,322.35c.51,0,1.3.08,1.36.43.7,3.89,2.17,14.13,1.89,17.7-.26,3.23-2.24,6.16-4.55,8.31-2.23,2.75-3.96,5.68-5.18,8.79-.39,2.22-.29,4.46.3,6.7-.29,4.78-1.76,13.86-2.86,18.53-1.61,6.78-4.22,14.88-7.44,20.95,2.46-.39,4.06.03,4.81,1.25,1.44-1.1,3.09-2.29,3.86.08.21-1.13.47-1.15.78-.02h.65c.57.19.56.41,0,.65l-10.42-.1-9.09-.05-2.1-1.11c.1-1.95,1.64-2.78,2.41-4.21l3.67-6.88c6.05-11.34,9.12-26.5,7.92-39.01.24-.4.83-1.05.79-1.35-.06-.46-.1-1.04-1.08-1.74,2.06-.95.78-3.63,1.27-4.77,1.96-4.5,2.25-15.71,1.37-21.17-2.08-13,4.72-11.12,5.91-15.01,1.03-3.38,2.95-5.96,4.75-8.89,1.53-2.5-.35-6.2-.54-8.86-.38-5.09-.9-9.61-2.28-14.2.96-.43,1.19-.88.69-1.33l.87-.22c.82-1.47,1.86-1.66,3.08-.46,1.24-.49,1.75-.03,1.75,1.24-.83,7.78-1.16,15.62-.99,23.53-.64,4.8-1.91,9.45-3.81,13.95-.77,2.19,0,3.93,2.33,5.22l-.1,2.03Z"/>
  <path class="cls-1" d="M230.65,402.47v.66c-2.21-.05-4.6.41-6.58-.58l6.58-.09Z"/>
  <path class="cls-1" d="M444.84,405.01c1.29-.03,2.96-.27,3.86.77l-6.55-.05v-.65c.42-1.82,2.15-1.91,2.69-.07Z"/>
  <path class="cls-1" d="M116.23,458.77c.48-.22.95-.22,1.12.2,1.8,4.34,4.03,8.38,6.75,12.31l-.35.83c-1.27,2.28-.23,3.52,1.27,5.39,1.39,1.74.42,5.44-.93,6.94-1.77,1.97-3.88,1.09-5.65.44-1.15-1.03-1.85-2.61-2.12-4.08-.09-.38-.15-.79-.74-1.3-1.8,1.78-4.37,1.82-6.32.66,1.06-1.82.96-4.13-.34-5.97,1.51-3.44-4.42-.51-4.25-4.49.11-2.72,1.55-4.94.71-8.1-4.33,3.12-4.09,8.69-7.35,9.23-1.81.3-3.83-.58-5.41-1.47-.7-3.54-.85-7.46,1.31-10.42l2.97-4.07c3.77-.52,6.26-2.16,7.5-4.93-.77-.8-.32-1.45.57-1.96,1.86-1.06,4.26,1.69,4.78,3.44,1.18.31,7.03,5.87,6.94,6.34-.07.35-.24.69-.44,1.02Z"/>
  <path class="cls-1" d="M98.02,435.18c.45.17.89.86,2.04.86l-1.43,3.13,12.44,11.72c3.39,3.19,3.89,5.16,5.34,5.75,2.17-.81,3.72.29,1.97,2.09-.31.75-1.02.76-2.14.04-1.7-3.36-5.54-7.1-9.35-6.04-.47-.36-.12-1.26.13-1.25.27,0,1.03-.05,1.52-.39.31-.7-1.6-2.68-2.41-2.3-3.02,1.4-1.16,6.64-2.44,10.02l-1.33-5.18c-2.12,1.24-3.93,2.11-5.46,1.24,1.54-2.11,6.88-1.96,7.14-5.43l-2.98-2.01c-1.41-.95-3.13-.99-4.27-2.22,1.44-.89,1.59-1.84,1.1-2.89-.36-.76-2.11-1.75-2.31-.89-.33,1.41-.35,2.32-.83,3.09-.34.53-2.01.79-2.19.16l-1.02-3.53-3.11.32c-.78-2.63.53-4.72,1.16-7.79-2.64,1.29-4.15,3.4-6.73,2.4,1.08-2.02,2.59-2.68,3.95-4.25-1.46-.7-2.24-.46-3.79-.69l1.88-2.62c1.45,1.32,3.04.41,4.31.41.36.73.5,2.79,1.51,2.87.78.06,1.62-.27,2.86-.61-.08,1.45-.73,2.25-1.11,3.51-.35,1.15,1.08,2.85,2.16,2.1,1.06-.74,2.11-2.1,3.42-1.6Z"/>
  <path class="cls-1" d="M146.4,61.67c.03-3.24.49-6.32.56-9.81l.22-11.55.83-2.09c10.5-.3,19.43,1.32,21.97,11.78.43,1.77,1.34,2.88,1.31,5.18l-.16,13.71c-.05,4.4-1.13,8.97-.14,13.27-.64.99-1.82,2.46-1.63,3.61.71,4.3-.87,7.56-2.24,11.28-.55,1.51-.31,3.7-2.27,4.71-.23,1.07,1.1,2.68,1.03,3.76l-.91,14.37c-.23,3.7.31,7.16.17,10.97l-.34,9.19-.55,6.56c-.16,1.95-.62,3.2-2.23,4.46l2.09,4.72c-.56,9.1-7.51,19.42-14.6,16.64-1.54-.61-2.83-1.6-3.38-2.46-.78-1.22.01-2.73-.05-3.95-.17-3.35-1.39-7.15-.39-10.39.74-2.38-.17-10.28,2.5-18.48,2.01-6.14,1.71-12.54,1.06-18.9-.19-1.88,3.45-4.78,1.29-7.32-1.15-1.35-2.82-1.99-2.88-4.06-.14-4.35,2.56-6.67.72-7.6l-2.81-1.42c2.45-1.5,2.91-3.21,2.55-5.92l-.6-4.55c-1.75-3.06-1.31-5.45-1.28-8.74l.14-16.94Z"/>
  <path class="cls-1" d="M176.54,49.08c.4-.72.86-.02.98.15.21.33.1.58-.1.7-.49.29-1.23-.21-.87-.85Z"/>
  <path class="cls-1" d="M137,471.56c-1.06-1.81-1.34-4.01-.86-6.59-.16-3.43-.25-6.85-.33-10.28-.02-.79.08-1.44.77-1.97-.08-.85-.73-1.71-1.58-2.41l-2-19.73c-.25-2.42.85-2.97,2.85-3.73,5.09-1.91,11.01-1.08,14.72,3.63,6.34,8.06,7.15,19.27,2.92,28.57-3.2,7.05-8.67,12.24-16.24,14.28-.54-.57-.17-1.61-.25-1.77Z"/>
  <path class="cls-1" d="M136.59,452.71c.61,6.26,1.36,12.58.42,18.84-.49,3.26-1.68,6.84-.99,10.53.34,1.83.54,3.64-.11,5.23-1.23.29-2.52,1.12-3.33,2.63-1.95,3.65-5.61,7.54-10.24,7.25-2.79-.17-4.57-3.07-6.55-4.83,2.35-3.2,9.76-8.07,12.73-8.64,4.48-.86,4.81,3.58,6.45,2.47.23-.16.39-.62.31-1.03-.05-.28-.31-.52-.75-.93l-8.49-7.77c-1.16-1.06-1.69-3.2-2.28-4.35-.88-1.72-1.28-3.27-3.12-4.78l-2.73-4.8c-1.51-1.27-1.13-2.67-1.68-3.76.09-.75.63-.95,1.04-.7l1.1.66,1.87,1.32c2.76,6.75,6.94,13.67,13.04,17.6-.15-6.49-.18-12.91-.09-19.27l1.08-.43c-.13-1.2.07-2.26.6-3.18l.61-2.59,1.11.54Z"/>
  <path class="cls-1" d="M134.87,454.76l-.79,7.76c.53,6.13,1.13,11.92.16,17.93-7.75-5.56-13.01-13.33-15.87-21.73-.38-1.11-.73-1.59-1.97-2.09l3.15-1.68c1.32-.07,2.52,1.11,3.47.51.94-.5,1.56-1.38,1.85-2.63.06-.36.45-.9.79-.6l.91.81,4.41.93c1.23.89.78,3.72,3.02,4.09-.12-1.21-.28-2.96.87-3.3Z"/>
  <path class="cls-1" d="M123.02,455.47c-.11-1.34.8-2.24,1.85-2.63,1.41-.07-.23,1.48.78,4.57l-2.63-1.94Z"/>
  <path class="cls-1" d="M149.99,419.49c-.49-.51-.84-.83-.89-1.04s.33-.62.53-.75c.41-.27.81.07,1.24.57s.33,1.04.07,1.34c-.18.21-.47.37-.95-.12Z"/>
  <path class="cls-1" d="M118.44,484.88c-1.32-.48-2.54-1.06-3.23-2.52.62-.6.87-1.08,1.11-1.56,1.94.21,2.42,2.29,2.12,4.08Z"/>
  <path class="cls-1" d="M62.91,509.9c-.28-.57-.95-.37-1.32-.37-.19-.38-.48-.74-.78-.99.94-.59,1.71-.92,2.27-.82.45.08,1.09.61,1.81,1.46-.57.44-1.31.44-1.98.71Z"/>
  <path class="cls-1" d="M596.03,173.11l-3.26-3.53c-.33-.36-1.22-.87-1.35-1.23-.17-.48.65-1.07.86-1.37.39-.57,6.1.74,7.15,2.71.62,1.15-1.62,4.35-3.4,3.42Z"/>
  <path class="cls-1" d="M597.31,94.94c-1.36.84-4.49-1.25-3.92-3.34,1.56-.65,3.25-.36,4.41-.2.39.81.79,2.75-.49,3.54Z"/>
  <path class="cls-1" d="M600.76,193.87c.38.79-1.1,3.02-2.51,2.74-.92-.18-1.72-1.62-1.38-2.14.5-.77,2.22-1.56,3.89-.59Z"/>
  <path class="cls-1" d="M580.03,290.73c-1.06-.43-1.1-2.99-.3-3.11,1.16-.18,2.2.92,2.23,1.57.03.83-.98,1.93-1.93,1.54Z"/>
  <path class="cls-1" d="M594.79,159.98c-.62,1.14-1.41.74-1.89.62-.91-.23-1.83-1.46-1.44-1.96.95-1.22,1.58-.89,2.09-.7.79.29,1.64,1.33,1.25,2.05Z"/>
  <path class="cls-1" d="M623.73,109.85c.28-.83,1.58-.62,1.83-.27.21.3.18,1.45-.21,1.53-.49.1-1.81-.7-1.62-1.26Z"/>
  <path class="cls-1" d="M569.7,116.49c-.43-.93-.47-1.66-.04-2.69.6.62.84,1.67.04,2.69Z"/>
  <path class="cls-1" d="M570.33,105.72c.01,1.23-1,.86-1,.61v-1.28c-.01-.24.99-.5,1,.67Z"/>
  <circle class="cls-1" cx="471.62" cy="405.75" r=".68"/>
  <path class="cls-1" d="M512.3,418.93c.49-.13.6,1.57.09,1.74-.21.07-.61-.41-.76-.56-.21-.23-.21-.93.67-1.18Z"/>
  <path class="cls-1" d="M416.09,366.94c-.42.88-2.53,1.83-3.84,1.36-.62-.23-.51-2.55.1-2.81.86-.35,2.34.13,3.74,1.45Z"/>
  <path class="cls-1" d="M422.03,322.08l5.12,2.01c.55.21,1.23.16,1.81.16.8-.04,1.31.54.79,1.25-.69.11-.97.95-1.36,1.3-1.12.98-2.25,2.14-3.75,2.01-.62-1.1-2.3-1.18-3.45-2.09-.96-.77-.76-3.22-.32-4.29.2-.48.96-.39,1.17-.34Z"/>
  <path class="cls-1" d="M426.53,331.93c.42,2.11.39,3.9.27,6.24l-.51,10.11h-.9c-.93-5.59,1.67-10.44-.2-17.1.49.08.99.59,1.35.76Z"/>
  <path class="cls-1" d="M279.48,330.96c.84,1.24-.03,2.57-.73,2.35-.5-.16-1.51-.57-1.76-1.08-.35-.72.95-1.82,1.78-1.68.11-.83,1.33-.48.71.4Z"/>
  <path class="cls-1" d="M271.8,369.73c.46-.78.88-.12,1,.07.3.47.09.76-.37,1.09s-1.13-.31-.63-1.16Z"/>
  <circle class="cls-1" cx="293.32" cy="314.98" r=".73"/>
  <path class="cls-1" d="M168.02,31.6c-.36.84-1.34.57-2.09.58.53-.71,1.43-.5,2.09-.58Z"/>
  <path class="cls-1" d="M149,307.56c-4.12-5.1-.4-10.86-1.32-16.31-.34-2.04,1.72-7.24,4.38-6.15,4.59,1.88,5.47,8.31,4.35,12.38-.8,4.49-2.71,7.78-7.42,10.08Z"/>
  <path class="cls-1" d="M178.77,326.91c.44-.08.57,1.5-.03,1.8-.43.21-.88-.08-.97-.35-.13-.43.17-1.29,1-1.44Z"/>
  <path class="cls-1" d="M210.29,325.87c-2.27-.17-3.47-1.23-3.94-3.69-.33-1.75-1.62-3.05-.98-5.66.41.27,2.07.63,2.55.07,1.16-1.34.1-3.51-.08-4.82,1.64-2.99,2.31-6.11,1.84-9.68l-.64-4.9c2.42,3.09,2.28,6.22,1.53,9.94l-.99,4.9-1.02,10.6c.68.99,1.77,2,1.73,3.23Z"/>
  <path class="cls-1" d="M184.2,274.79c-1-.33-1.72-.63-1.95-1.96-.16-.91.48-1.55.61-2.21.12,1.46.82,2.76,1.35,4.17Z"/>
  <path class="cls-1" d="M209.15,283.73c-.33-1.27-.14-2.87,1.25-3.32.17,1.26.06,2.78-1.25,3.32Z"/>
  <path class="cls-1" d="M208.4,293.46c-.23-.28-.5-.68-.56-1.04-.1-.52.05-1.06.64-1.1l-.07,2.14Z"/>
  <path class="cls-1" d="M440.19,277.14c1.83-.55,7.62-.88,4.54,1.26-4.09.52-7.1,4.92-6.58,9.11.19,1.53-.32,3.28.4,5.05.94,2.3,1.44,4.79.74,6.88-1,.11-1.67.1-1.98-.04-.29-.13-.32-.78-.45-1.36l-3.08-13.12c-1.19-5.05,2.1-6.43,5.22-7.82.07-1.81.85-1.73,1.21.05Z"/>
  <path class="cls-1" d="M429.75,325.5l-.79-1.25c.18-.1.8-.19,1.08-.14.25.04.53.51.37.93-.09.25-.3.4-.67.46Z"/>
  <path class="cls-1" d="M446.29,276.84c.03.42-.2,1.38-.61,1.44l-.95.12c.23-.3.52-.6.7-1.24l-5.24-.02c1.72-1.11,4.18-.85,6.1-.3Z"/>
  <path class="cls-1" d="M114.74,465.46c-.99.4-.98,1.94-1.01,3.04-1.98-.37-1.3-2.3-1.05-3.52.27-1.32,2.09-2,3.52-1.59.25.07.25,1.14.13,1.38-.19.37-1.03.47-1.59.69Z"/>
  <path class="cls-1" d="M458.47,315.14c-.26,3.13,2.98,3.95,2.66,6.49-2.03-1.04-2.89-2.57-3.47-4.18-.65-1.79-.81-3.92-.15-5.78.38,1.32.24,2.46.96,3.47Z"/>
  <path class="cls-1" d="M418.59,320.92c-.09.68.17,1.97-.54,2.86-.5.5-2.04-.98-2.26-1.65-.3-.93.84-2.17,1.72-2.58.31.34,1.18.55,1.07,1.38Z"/>
  <g>
    <path class="cls-1" d="M450.63,28.26l-3.83.26c-1.36.09-2.56.28-3.97.01,3.12,1.95,6.59,2.18,7.8-.27Z"/>
    <path class="cls-1" d="M462.13,30.57c-1.35-1.3-2.94-1.25-4.28-1.14l-6.63.54c3.71,1.46,7.14.97,10.91.61Z"/>
    <path class="cls-1" d="M365.29,26.1c-3.04-2.05-5.85-1.1-8.08.08,2.95.38,5.52.61,8.08-.08Z"/>
    <path class="cls-1" d="M442.11,29.04l-8.5.35c5.84.15,9.24,2.07,8.5-.35Z"/>
    <path class="cls-1" d="M421.96,28.69c-1.45-.45-2.8-.95-4.72-.94.93,1.62,2.91,1.81,4.72.94Z"/>
    <path class="cls-1" d="M483.03,265.44l-1.8-5.83c-.39-3.39-1.21-6.22-2.35-9.49l.34-6.86c-.5-3.41-2.66-5.79-4.43-8.58-1.23-1.95-2.01-5.85-.8-7.96,1.21-2.09,2.55-3.52,3.01-6.27l.91-5.39-.41-9.38-2.84-5.05c-.38-.68-.08-1.88-.56-2.26-.53-.41-1.37-.52-2.46-.44l-.1-3.52c-1.56-.67-2.17-1.88-2.72-2.66-.9-1.25.34-2.85.48-3.65l1.23-7.39c-.51-2.85-1.06-3.7.04-6.53,1.48-3.8-.29-8.7-.91-12.75.95-2.27,1.16-4.54.14-7.06,1.25-2.97-.09-5.7-.18-8.44l-.25-8.09.32-11.53.87-6.34c.25-6.3,2.92-11.44,5.88-16.82l3.76-6.83c3.28-5.96,5.2-11.95,5.14-19.03l-.06-8.43c-.02-2.98-.27-5.49-1.24-7.93-.84-2.11-1.03-4.86-3.43-5.82-.54-.22-.84-.81-1.24-1.15-.15-.63-.63-1.11-1.43-1.46l-1.58-.36-.93-.3c-.12-.04-.27-.02-.4-.02-1.46-.9-2.2-.86-2.23.12l-1.91-2.05-.63-.57-4.01-1.37-15.54-3.55c-27.41-6.27-55.5-9.57-83.52-11-1.55-.93-3.57-.45-5.31-.51l-2.54-.09c-2.02-.97-4.4-.48-6.59-.54l-3.19-.09c-.24-.27-.7-.55-1.33-.56l-7.24-.03-3.16-.09c-.45-.4-1.11-.55-1.98-.56l-8.56-.07h-2.54c-.07-.08-.24-.23-.43-.54l-43.67-.96-27.15.05-7.1.12c-.21-.21-.72-.6-1.37-.59l-35.7.33-16.48.64-4-.26c-.95-.02-1.87-2.51-1.11-2.88l7.21-3.42-1.2-2.8c1.04-.35,1.39.02,1.73-.06.47.06,1.27-.03,1.71.16,4.42,1.91,17.07,1.9,24.23,1.1l2.06-1.45c3.1-.54,6.08-.53,8.81.48-1.7,1.31-3.1.35-4.18.57l.03.91,10.89.43c1.39.06,2.72.88,4.8-.11,2.6-1.25,5.29-1.87,8.3-1.23-.6,1.28-1.83,1.01-3.4,1.55l31.06,1.12,41.62,1.37,22.01,1.26,9.41.46-2.75-1.12c2.1-.42,4.12-.15,5.99-1.4-1.72-.16-3.28.23-4.1-.92l-4.44-.07-10.45-.56-10.54-.62-76.81-2.06c-.27-.21-.77-.5-1.41-.51l-17.92-.29-17.91-1.06c-1.16-.76-2.71-.44-4-.56l-7.16-.7-2.01.02c-1.18-1.03-3.01-.7-4.52-.62l-.65.04c-1.49-1.45-4.66.09-8.59-1.99-7.7-.68-14.19-3.7-19.91-8.78-1.18-.56-3.95-2.39-4.95-1.28-2.84,3.18-6.14,5.9-7.47,8.57.88,1.74,2.56,1.24,5.04-1.5,1.87.04,3.11-.57,3.72-1.84,2.18,1.19,4.43,2.22,6.75,3.09,2.31,2.23,4.75,3.53,7.33,3.91-2.62-.13-5.33.5-8.15,1.9-4.52,1.11-8.9.25-13.15-2.6-.57-.37-1.16.02-1.77,1.17l-3.25,5.35,3.79,2.77c-.93,2.3.68,3.03,1.89,4.36,1.5,1.65,2.57,2.94,4.84,2.57l-10.76,2.01c1.84,2.14,5.38,2.06,8.18,1.25,2.9-.84,11.12,1.65,13.02,3.08,14.16,10.7,9.32,12.55,9.47,25.63l.23,18.86c.01,1.22-1.3,2.47-.27,4.14.14.22.13,8.18-4.23,10,2.69,4.84,1.51,9.98,1.37,15.18-.11,3.9-.13,6.87-1.26,10.67l-.67,7.14c-.15,1.64.46,3.71-2.26,4.5.29,1.71,1.73,2.32,2.54,3.46,1.27,1.77-.84,3.95-1.7,5.28.79,2.72.53,6.02.12,8.72-.16,1.03,1.24,2.98-.39,4.17,2.45,3.85.38,7.4-2.52,10.18-2.06,1.97-3.83,4.26-6.66,5.13l-4.18,4.16c-1.51,1.5-2.83,1.33-4.69,2.09-1.44.59-2.28,3.74-4.9,4.6l8.34,2.85c1.81.62,2.8,2.03,3.52,3.76,1.15,2.79,3.36,5.28,3.89,8.37l.97,5.75-.06,4.52-1.32,9.13c-.39,2.72-.68,4.71-2.83,6.32,1.37.74,2.7,1.67,3.17,2.88-1.38,1.88.48,4.22.47,5.72l-.17,17.13-.78,7.79c-.31,3.14.66,5.56,1.29,8.69l2.07,10.31c1.81,4.87,2.31,10.22-.91,14.73-.78,1.09-2.32,2.6-2.75,3.75-2.13.04-2.68-2.36-3.48-3.43-2.96-3.95-6.53-7.02-10.7-9.57-1.2-.73-2.84-.23-3.85.43-.78.51-1.72,1.79-1.84,3.2l-1.43,16.75c-.29,3.4-1.05,8.03.44,11.14,2.46,1.54,6.69-.27,8.74-1.84l6.32-4.84c1.4-1.07,2.37-5.06,4.35-5.18,2.69-.15,1.78,3.39,1.91,4.75.46,4.6,1.2,8.11.53,12.6l1.46,6.46c-.37,6.92.82,13.32,1.32,20.2l.82,11.21c.37,5.11,2.39,10.92,4.02,15.79,2.7,8.08,7.19,14.3,13.1,20.3,1.55,1.57,4.82,7.98,11.58,9.14-3.55.73-6.62.31-9.99.36l-9.19.31,34.63.44h9.76c2.12.31,4.71.64,6.58-.08-.57.24-.58.46-.01.66l11.68.27,21,.34,43.06.76,8.48.09,36.66.6,18.12.1c2.41.01,4.05.42,6.59.1,1.77-.23,4.54,1.3,5.97-.54,1.76.04,3.47,1.03,5.84.95l11.41-.38c2.24-.07,2.9-.81,5.06-.28,3.69-.27,5.54-.4,5.54-.4,15.72-12.91,19.62-35.33,21.09-54.37l-.63-3.06c1.48-4.5,1.47-8.74-.04-12.71.55-1.65.95-3.36,1.2-5.14,3.74-3.43,3.95-5.29.64-5.57,0,0-1.31.97-3.94,2.92-1.4-.78-2.93.21-3.57,1.53.25-1.06-.71-1.97-2.88-2.73l.08-3.18c.21,1.82,4.65,3.52,5.13,1.67.81-4.76-3.63-6.8-3.45-8.78.42-4.54,6.1-3.82,7.03-4.72l5.37-5.25c2.62-.9,2.58-1.72,3.89-3.87.82-1.35,3.41-2.33,2.85-5.1l-1.57-7.75c-.16-.78-.87-1.53-1.46-1.72-.46-.15-1.2.19-1.67.61-1.36.82-1.74,2.27-1.16,4.37.81.4,1.34,6.6,1.26,6.29-1.3-5.07-2.53-10.21-3.42-15.36.44-2,1.86-3.6,4.27-4.81l-.1-.91c.34-.15.88.05,1.21.05,2.33-.73,4.09-.6,5.29.36l.81-.66c1.05.3,2.14.07,3.08-.46.76.95.36,2.26.24,3.47l-.83,8.37c.16,5.39,1.46,10.76.22,16.09l-3.42,8.92c-.8,2.07-1.62,4.78.34,6.6.82.76,2.5,1.03,2.63,2.52l2,17.52c.12,1.02-1.36,2.87-.79,4.2-1.5,1.92-4,3.74-4.83,6.23-3.75,3.67-5.47,8.53-3.8,13.63l-2.61,16.61c-.18,3.12-1.59,5.71-2.4,8.59l-2.61,9.23c-.7,2.48-2.82,3.96-3.25,6.94l6.62-.28,3.86.08.78-.02h.65s2.69-.07,2.69-.07c2.28-3.66,4.71-8.94,4.7-13.39,2.17-1.61,2.97-3.85,3.14-6.58,2.2-1.61,3.1-4.26,3.94-6.54.68-.5,2.41-1.12,2.56-2.01.92-5.48,7.59-3.27,11.41-4.92,5.2-2.24,9.26-7.52,10.55-12.73,1-4.04-.12-7.41-.46-11.22-.28-3.11-.25-6.6-3.18-8.53-2.25-1.48-5.23-1.82-8.21-2.8l5.4-12.81c1.89-4.47,3.96-7.72,6.79-11.8,1.65-2.37.92-8.49-.89-10.99-1.81-2.52-4.16-5.16-3.32-8.91.45-1.99,3.94-4.62,2.99-7.36-1.55-4.45-3.67-8.62-3.46-13.56,2.24-1.62,4.29-3.36,6.23-5.42ZM208.4,293.46c-.16-.34-.24-.65-.26-.96.04.32.15.65.26.96ZM208.71,311.92v.1s0-.09,0-.09c.08-.22.16-.43.24-.65-.08.22-.15.43-.23.65ZM207.79,318.01c-.46,1.38-.58,2.88-.25,4.25-.57-1.23-.92-2.59-1.05-4.09.51.07.94.02,1.29-.17ZM458.44,317.72l-.78-.28c.04-.45.12-.86.24-1.22,0,.42.18.92.54,1.5ZM417.64,321.03c.23.04.54,0,.95-.11-1.64,1.08-1.95,1.12-.95.11ZM426.53,331.93c-.06.47-.24.58-.52.36.2.07.37-.05.52-.36Z"/>
  </g>
</svg>