<?xml version="1.0" encoding="UTF-8"?>
<svg id="Layer_1" data-name="Layer 1" xmlns="http://www.w3.org/2000/svg" viewBox="0 0 461.09 705.16">
  <defs>
    <style>
      .cls-1 {
        fill: #ded3cf;
      }

      .cls-1, .cls-2 {
        stroke: #000;
        stroke-miterlimit: 10;
        stroke-width: 2px;
      }

      .cls-2 {
        fill: none;
      }
    </style>
  </defs>
  <path class="cls-1" d="M268.95,522.84l.84-3.79c-1.13.91-1,2.41-.84,3.79Z"/>
  <g>
    <path class="cls-2" d="M100.55,487.77c.01.65.2,1.13.57,1.45-.07-.56-.26-1.04-.57-1.45Z"/>
    <path class="cls-2" d="M105.42,627.24l-.08-1.39c0,.42.02.89.08,1.39Z"/>
    <path class="cls-2" d="M105.34,625.54s-.01.1-.02.14v.16c.01-.11.01-.21.02-.31Z"/>
    <path class="cls-2" d="M105.06,554.8c.01.35.04.69.07,1.01-.02-.34-.04-.67-.07-1.01Z"/>
    <path class="cls-2" d="M104.23,519.47c-.2.63-.43.63-.71,0,.1,1.83.21,3.7.32,5.58.03-1.92.16-3.82.39-5.59Z"/>
    <path class="cls-2" d="M104.3,532.47c-.17-2.51-.32-4.98-.47-7.41-.04,2.51.11,5.05.47,7.41Z"/>
    <path class="cls-2" d="M105.77,533.06c0-.07-.05-.13-.11-.19-.01,1.98.11,3.92.54,5.79-.1-2.04-.25-3.98-.43-5.6Z"/>
    <path class="cls-2" d="M229.05,396.14l.68,2.95c-.46.02-1.37.14-1.8.31l-1.56.62c-.21.08-.07-.46.08-.63l1.11-1.25c-.37-.22-1.73-.99-2.3-.73l-2.1.99c0-.41.25-1.8.69-1.81l2.13-.08,3.06-.38Z"/>
    <path class="cls-2" d="M214.55,295.96l-.1,4.47c-.94.09-2.61-1.39-2.46-2.32.14-.82,1.81-2.13,2.56-2.15Z"/>
    <path class="cls-2" d="M224.52,366.02c-.35-.07-1.07.39-1.2.71-.15.37-.56,1.46-.51,1.4s-.55-.06-.91-.08l.1-2.33c.03-.66,1.62-1.03,2.46-1.18l.12-.78,1.6-.47-1.66,2.72Z"/>
    <path class="cls-2" d="M217.39,319.18l-.06,2.52c-.02.72-2.8.26-2.71.11l1.24-1.46c.21-.25-.45-.92-.73-1.1l2.26-.07Z"/>
    <path class="cls-2" d="M217.39,319.18l-2.26.07.47-1.55c.12-.38,1.57.02,1.64.4l.15,1.07Z"/>
    <path class="cls-2" d="M214.55,295.96c-.75.02-2.42,1.34-2.56,2.15-.15.93,1.52,2.41,2.46,2.32l-.26,1.76c-.03.45,1.29,1.51,1.51,1.12l1.32-2.35c.21.28,1.27,2.9.6,3.42l-2.08,1.6-1.39-2.9c-.17-.36-1.17.95-1.73,1.72l-1.08-3.74c-.18.15-.87.79-.86,1.14l.03,1.66.03,1.64c0,.37,1.34.44,2.05.49,1.21.45,1.65,1.03-.67.91-.45-.21.35,1.19.76,1.03l2.18-.83.64,3.41.78-1.57c.09-.17.91.82.79.97l-.46.56c-1.04,1.17-1.61,2.08-1.84,3.28-.7-.14-2-.41-2.18-1l-.78-2.46-.59,4.33,3.27,1.98-.39,1.92c-.07.33.75.54,1.04.72s.94.85.73,1.1l-1.24,1.46c-.09.15,2.69.61,2.71-.11l.06-2.52,1.41.51c.32.13.97.81.7,1.01l-1.51,1.1,3.28.51-3.06,1.49c1.01,2.51,1.17,4,.43,5.73l-2.54-6.42c-.22-.2-.59.35-.78,1.09-.13,1.21-.45,2.3.08,2.7l2.25,1.65-3.81-.06,1.88,2.72c.32-1.14.84-2.62,1.12-2.27l.98,1.24c-1.05,1.32-2.06,2.85-2.7,4.56,1.26.38,3.45.2,3.73-.64l1.03-3.1c.12-.36,1.08-1.14,1.4-1.37s1.3.91,1.03,1.2l-1.2,1.29c-1.6,1.72-2.36,3.35-1.62,5.31l.59.36,1.71,4.15c-.33.09-2.71-.34-2.69-1.1l.04-2.46-.02-.43-2.81-1.13c-.37-.15-1.3-.02-1.41.34l-.32,1.07,2.13.04c1.58.03.46,3.99,4.3,6.08l-2.1.43c-.35.07-.4.47-.67,1.24l2.17.26c1.18.14-1.26,3.15,1.1,5.09l-1.8,1.24,1.96,1.62c.34.28-.13,1.63-.22,1.83l-.38.27c1.66,1.43,2.18,3.73,1.03,5.56-.4-2.59-.73-3.65-2.28-4.84l-.93,3.45-1.71.57c-.26.09.04,1.28.28,1.33l7.11,1.34-.12.78c-.84.15-2.44.53-2.46,1.18l-.1,2.33-1.29-2.09c-.31.36-1.54,2.85-.82,3.3l2.6,1.48.42.21c.53-.5,2.07-1.2,2.72-.87.53.27-.24,2.52-.8,2.31l-2.33-.85c-.11-.04-.19-.13-.41-.54l-2.18.77c-.58.2-.2,2.26-.02,2.3l1.53-2.27c.9,1.66,1.63,2.71,2.75,2.85s1.87-1.48,2.36-2.96c.75.72.95,3.29-.35,4.05-1.05.61-1.89.66-4.38,1.46h4.99c-1.97,1.18-4.19,2.53-6.11,4.67-1.14,1.27,1.22,4.91,3.29,5.14.64.07,1.87-1.14,1.59-1.62-.25-.41-.75-1.24-.59-.98l-1.98,1.06c-.24.13-.65-.84-.48-1.05l.84-.99,5.5-2.22-2.33,2.58c-.84.93,1.64,3.65,1.3,5.74-.12.7-2.11,1.96-2.05,1.54l1.17-2.86c-2.14.51-3.23,2.69-3.4,4.1,2.91.08,5.5.97,7.31,2.93l-2.86-.34-.52.38,1.68.84-3.06.38-2.13.08c-.44.02-.69,1.4-.69,1.81l2.1-.99c.56-.27,1.93.51,2.3.73l-1.11,1.25c-.15.17-.29.71-.08.63l1.56-.62c.44-.18,1.34-.29,1.8-.31.07.78,1.14,1.45,1.91,1.9l-1.62,4-1.43-2.57-.88-1.57c-.2-.35-1.89.21-1.81.29.69.8,1.46,1.45,1.25,1.81l-.99,1.7c-.16.27.83,1.61,1.12,1.48s-1.49.58-1.66.65l.88,1.83c.53,1.1-3.2,2.64-.8,3.37-.02,0,.3-.49.54-.89l1-1.62c.05-.08,4.23.73,3.05-.28l-1.04-.9c-.25-.21-.91-1.09-1.15-1.42-.19-.26.86.09,1.14.26l1.17.74,1.85-2.99-.06-2.08c-.01-.45,2.08-.54,1.51-.37-.37,2.76.07,4.16,1.41,5.81l-1.21,1.35c-.13.15.62.09,1.43.14l-.6,3.34c-2.53-1.96-1.55-2.72-1.29-6.55-.95.2-2.42,1.83-2.78,3.05s.2,2.78.96,3.97l-2-.14c-.47-.03-.91.98-1.74,2.3-.55.24.41.93,1.26,1.02l.64-.55c.11-.16.65-.94.84-.72l.92,1.04.78-1.84c.14-.33,1.4.79,1.14.63l-.69,2.26c-1.2-.48-2.24.42-1.43,1.12,1.2.28,2.36.54,2.24.91s-.49,1.17-.87,1.12l-1.36-.17.05,3.72,2.87.27c.43.04.47-1.16.18-1.48l-1.38-1.5,5.06,1.15-3,4.71-.8-1.64c-.13-.26-1.21.28-1.11.56l.55,1.51-1.24,2.88-1.61-2.7-.59.54c0,.41.14,1.75.56,2.1l2.15,1.81-4.04,3.76,2.67,3.23-1.07-3.99,2.52-.7.55,3.82c1.09-.8,2.06-1.57,1.71-1.94l-1.51-1.61,2.69-2.81-.68,2.63,1.04,1.98v6.13c-.36-.06-.55-.11-.64-.07l-2.63,1.18c1.53.4,1.7.47,1.72.44.01-.02-.05,1.51-.05,1.54l-2.24-.81-.06,5.57v.53s4.23-1.21,4.23-1.21l-4.42,3.72-.47-2.36-.08-.24-2.75,2.05,3.38,3.02c0,1.65.2,2.57,1.19,2.55,1.53-.03,2.05-.46,2.07-1.47s.04-2.13.33-1.99l1.11.54c.29.14-.15.96-.54,1.63l1.6,3.2c-1.15,2.19-1.64,3.44-2.35,5.66l-2.23-.38,2.08,3.18-3.5-.81.69,1.51c-.1-.21.22,1.46-.19,2.98-.1.38-1.64.77-1.73.39s-.33-1.28-.51-1.62l-1.18-2.17c-.24-.45.98-1.23,1.46-1.68l-2.5.39-2.36-3.58-9.86-14.67-9.31-13.09-18-23.05c-6.69-8.57-13.41-17.35-16.87-27.73l-12.68-38.05c-2.19-6.58-3.61-13.09-7.27-18.94l10.84,35.06,4.57,14.16c3.4,10.53,7.98,19.86,14.34,28.77l8.47,11.87,28.89,38.81,12.08,19.76,16.15,30.7,8.12,20.73c3.75,9.56,5.67,19.06,6.86,29.31l7.13,61.39c1.3,17.05-.79,33.21-6.11,49.48-4.72,14.44-14.86,29.88-30.4,31.6l10.15-5.5-10.63,2.16-9.58,2.78,2.24,2.3-5.39-1.58-11.11,1.59c-6.84.98-13.39,1.57-20.38,1.28l-5.81-47.8-4.14-31.14-3.94-35-3.57-30.19-4.96-40.49-3.77-31.21c-.77.66-.98,1.38-.83,2.67l13.53,116.17,4.27,37.16,4.82,36.98,2.3,22.65-5.48-2.27-15.64-8.24-9.83-6.19-9.34-6.51c-10.08-7.03-18.76-19.8-24.64-30.83l-2.57-4.83c-4.49-8.42-12.27-41.4-12.27-51.56v-29.36s3.77-33.26,3.77-33.26l4.36-35.3.57-13.75,1.95-46.09c1.16-27.28,2.95-54.03,7.7-80.91,1.73-9.81,4.44-18.73,4.38-28.71,1.15-6.09,2.59-11.9,4.85-17.62l.65-21.51c.5-7.4,2.65-14.98,1.39-22.21l-1.94-11.1-1.87-6.35-.41,15.97-1.07-10.51-3.23-1.34c-1.77-.73,1.24-4.72-.89-12.23-.54-1.9,1.43-4.78-2.43-6.01l.69,9.1.86,8.75-4.18-1.33-2.29-.48-1.51,2.06.28-3.42c.04-.52-1.26-1.14-1.7-1.39-.06,2.44.28,4.01-1.37,6.11l.06-9.18,1.79-.09c.3-.02.03-1.38-.27-1.39l-1.1-.04-.49-5.58c-.83.77-1.26,2.18-1.67,3.71l-1.67,6.2c-.57,2.14-1.81,4.06-3.13,5.83-.24-3.89-1.1-5.85-3.59-7.88l-3.07-2.5-1.66,2.3.54.44.89-.4c.17-.08.73-.13.63.01l-1.1,1.51c-.36,0,.92,1.07,1.13.97.75-.86,1.17-1.44,1.36-1.26l1.22,1.21c.73.72-3.92,1.51-3.98,1.21l-.57-2.76-.4-.47-2.96,2.86,1.23-6.21-3.02,3.65-.06-6.08-3.09-1.13c-1.28-.47-1.71,4.25-4.71,6.66l-.83-2.65-1.82,2.44c-.18-1.56-.08-3.08-.67-3.45l-1.88-1.18c-1.65,1.77-2.07,2.22-4.2,3.21l1.85-3.22c-.16-.31-1.09-1.28-1-1.89l.45-3.12c-1.34,2.7-2.21,4.9-5.28,6.6l-.43-4.09-1.71.54,1.66-7.91c-2.43,3.16-2.03,5.24-5.74,6.58l1.68-7.76-2.02,2.38c.96-3.04,1.2-4.57.11-6.91l-3.24,4.83-.89-3.54-5.1,10.76-1.22-.17,3.68-8.47-1.83.56c-.23.07-.07-.44,0-.66l.52-1.92-4.24.28c.21-1.3.14-3.17-.59-4.51-.59-1.09-2.6-1.99-4.16-2.64-.94-.39-.96-2.41-1.24-4.76l-2.79,2.83.71-3.21-3.77,3.46,1.35-4.47c.51-1.69,4.25-2.64,3.03-5.87l-7.55,9.8c-.86,1.12-2.31,1.82-3.7,1.19l10.95-13.38-.7-.67-2.71,2.79c-.54-.44-1.47-1.02-1.69-.78l-6.09,6.55-1-.9,17.46-19-6.31,4.3-1.08-3.6c-2.71,2.62-5.04,4.42-8.59,6.29l1.67-3.77-6.04,3.35-.51-.61,13.02-9.72-1.32-2.48,6.47-3.01-16.16,2.73c2.2-3.03,5.11-1.53,7.57-2.84l-6.1.4,1.68-1.76-5.58.55c5.85-5.48,13.24-2.64,19.45-8.91l-9.43,2.15-7.68,2.7-.83-1.01,12.89-7.8,9.23-6.56c-3.13.44-6.41,1.37-9.28,3.25l-10.53,6.91-.59-.6,15.05-11.31c-2.65-.91-5.19,0-7.57,1.73l-10.8,7.84-.17-1.07,11.39-8.67-2.38-.68,5.58-1.21c-2.21-4.08-8.06,1.34-12.81-.85l12.22-3.06-5.39-1.42c.06-.16,1.76-1.13,2.35-1.06l5.89.62c2.45.26,4.6,1.17,7.45,0l-6.36-5.61c5.57.59,7.31,6.5,11.33,2.03-1.81-1.16-3.47-1.23-5.11-.72v-1.48c0-.36-1.5-.94-1.89-.9l-4.37.42c-5.61.53-10.39,1.46-15.92,3.73l6.34,2.13.38.69-8.68-2.06-8.24,1.33c1.85-1.14,2.85-1.46,4.61-2.09l-2.16-.61c-.27-.08.47-.84.74-.89l1.39-.26,7.67-1.44c3.23-.61,6.68-.9,9.42-3.32l-25.26,2.45c2.03-1.44,4.09-2.31,5.97-2.71l8.41-1.8.36-.85-8.23,1.26c1.83-3.21,7.03-1.83,9.61-4.24l-10.05,1.79,2.96-2.44c-2.57.05-4.55.12-7.19-.95l8.9-1.08-13.69-6.12,4.95-1.64c3.01,1.01,6.7,1.5,9.92.66-4.13-1.35-8.38-2.67-11.57-3.01-6.09.81-11.44.47-17.61.32,2.32-2.46,5.32-.68,8.42-.79l5.76-.19,2.7-3.47-2.21-2.62c3.59,1.4,5.41,1.92,7.96-.36l-8.14-1.57h6.93c1.07,0,2.93-.44,4.49-.9l-7.25-3.84,1.04-.76c.16-.12.15-.13.02-.32l-.83-1.26,9.08,2.56c-.05-.8-.19-1.4.04-1.65l1.07-1.21-5.15-2.04c1.07-.7,2.02-.77,3.03-.48l21,6.2-4.12-3.6-.14-2.11c-.02-.38-1.48-.97-1.95-.94l-9.24.56,1.86-1.24-7.16-.49,7.14-1.23-12.59-4.31.46-.59,17.26,4.77c.33-1.08-.7-2.72-1.69-3.18l-10.14-4.71,8.49,1.62-.84-1.66.64-.56,2.05,2.86,9.92-.39-2.77-2.05,10.56,2.63-.31-.89-7.8-2.57,1.21-3.33,4.56,2.51-6.23-8.64-7.38-6.92c.8-.53,1.89-1.14,1.88-1.67l-.02-2.95,4.53,3.36v-2.44c3.16,4.04,5.17,6.85,8.91,9.94l-7.29-10.95c3.63.18,5.24.63,7.83,1.37l-.67-2.18,2.72,2.15-.54-3.9c-.1-.69,1.63-1.36,2.21-1.58-.99-2.07-1.63-3.09-2.07-5.57l8.52,10.79-4-9.13c-.25-.89.19-2.94.77-4.84l4.03,8.75,6.39,4.89c-.13-1.86-1.41-3.02-2.53-3.55l-2.22-6.86c-.15-.46-.48-1.58-.1-1.57l1.26.02-1.54-4.17-.35-.3-3.89-8.42c-.29-.2-.38-.25-.44-.38l-1.52-3.18c1.61,1.15,1.9,1.75,2.2,2.63l.3.46c1.71,2.6,3.2,5.36,4.14,8.21l.14.53,1.35,2.25.46-.6-.33-4.33-.39-5.12,2.47,3.53c.45.64,2.76.54,3.42.22-2.51-3.02-3.38-5.14-2.16-7.88l2.44,1.24-1.45-5.19,1.41,1.08,2.65,7.66c.04.12,1.07.4,1.5.51l-3.54-7.93,2.28-2.95,1.02,2.6c.2.5,2.27.03,1.85-.03l.88-3.67,3.76,10.44c.13.61.15,1.78.6,2.04l1.58.93-1.44-6.41,1.64,1.79c.14.15.24.1.42-.05-1.79-2.96-2.51-5.79-1.9-9.05l.75-4.06c.13-.67,2.05,1.22,2.37,1.88.2-.1.67-.9.59-1.38l-.34-2.27,3.09,4.41.17-3.59c-.05-.89-.15-2.49-.05-.91l1.47.7,1.21-1.28,2.62,8.66c3.64-1.63-.97-8.03.56-8.4l2.76-.67c.51-.12.95,1.59,1.24,2.04.38.58,2.44.59,2.51-.11l.41-4.15,1.63,4.11,3-1.62,1.41,6.32,1.38-4.39.31-1.37c.13-.59,2.36.71,2.83.04l1.38-2,1.41,6.66,1.09,5.04c.06.27,1.55.78,1.54.51l-.3-8.02,3.58-.14c.8-.03,1.23-1.62,1.82-3.39,1.9,1.8,2.78,3.35,3.79,5.94l-.16-3.73,3.26-4.06-.51,12.54c2.69-3.82-.18-8.96,2.66-11.95.53-.56,2.54,1.55,2.36,2.33.35.2,1.33.76.77.44l.91-2.9,3.02,4.96-2.24,12.09,1.33,1.19,2.07-10.5c.24-1.23,1.79-3.5,2.23-4.17l1.39.18c.22.03.54-.63.67-.9l.85-1.84c.15-.33.88,1.19,1.15,1.83l6.23-.99c-.03-1.92.78-1.96,1.21-.68l.25,2.49c1.25-.69,2.83-1.28,3.45-.51.86,1.06,1.03,2.52.73,4.06-.29,1.4.06.97.45.02l3.27-6.22c.56-.83,1.09-.83.67.58.42,1.39,1,2.95,1.71,3.39.6.37,2.1-.27,3.1-.65l-.68,5.05,2.84-2.78c.73-.71,5.81.33,8.73,3.53l-3.41,3.4c-.23.23-.43,1.47-.18,1.35,4.84-2.33,3.1-5.44,4.88-7.03.26,3.07-.47,6.39-1.19,8.94.42.67,1.12,2.49.81,3.31l-2.61,6.97-1.23,2.65,2.4-2.87,5.04,3.88,8.14-10.68c.21-.28,1.56-.32,1.56.04l.02,1.99c.02,1.44.38,3.2.82,4.38,3.05-2.22,4.64-1.05,6.99,1.16l-1.91,3.59,3.95-1.18c.32-.1,1.76.59,1.63.89l-.69,1.5c-.14.2-.74,1.03-.42.96l1.59-.34c.8-.17,2.25-1.81,3.15-1.77,1.2.06,2.33,1.45,2.18,2.52.16.98.46,1.53.17,1.87l-1.41,1.66c.05.72.1,1.49.05.68l2.2-.64c.32-.09.49.98.37,1.29l-.72,1.78,2.5-1.81,4.19,4.98,1.64-1.51c.2-.18,1.37.6,1.03.48l-2.21,3.51,3.06-1-1.28,2.45c-.14.27,3.19,1.86,3.09,2.29l-.32,1.37,3.87-.56-3.34,2.86-1.87,5.11c-1.68.57-2.18.74-1.45.49,1.24.31,2,.38,2.09.67s.29.99.29.96l3.8-.58-1.49,1.94c-1.8,2.34,5.05-1.51,8.21.34l-3.95,2.84,3.9-.57c.66-.1,1.26,1.31,1.96,2.45l-4.17,1.95c.79.64,1.51,1.33,1.34,1.83l-.74,2.11,5.84-2c-.75,1.67-1.32,2.02-3.12,3.36-1.18-.2-.05,0,.95.16l3.54,2.04c.37.01,2.13.01,1.98.35l-.75,1.7c-.3.67-.32,2.67-.99,2.98l-3.16,1.43,4.58-.17c.5.47,1.46,1.49,1.1,1.82l-1.4,1.33c3.9-.04,7.02.13,10.47,1.28l-9.32,2.75,8.42,3.08-4.87-.32-5.59,1.55,6.03,2.93c-3.13,4.4-8.93-.22-11.65,2.96l4.99-.14,6.86.66-2.96,4.99-2.27.87,1.31,1.53c.24.27-.85.59-1.19.73l-1.83.78,6.84.4c.21,3.27-2.54,3.2-5.13,3.5l-19.79,2.31,11.19,1.13c2.06.21,4.11.9,5.87,1.76l9.92.88c-5.15,6.19-13.3-2.73-17.7,3.13l-10.49.8c2.86.5,4.48.72,6.08,2.88l9.98,1.09c1.29,2.54,2.73,4.7,4.11,6.42-1.49,1.11-2.26,2.27-2.94,4.58l-13.89-2.66-.75,1.22,14.12,2.64-.07,1.13-8.8-.7c.41.31,2.17,1.83,2.89,2l11.33,2.63c.36.08,1.2.59,1.09.83l-.36.78c-1.08-.09-1.88-.22-2.15.15l-.98,1.34-18.1-3.93c-.39,1.54-.32,1.98-.81,2.03l-2.27.26,14.32,6.76-.83,1.06-6.03-2.49-.05,1.15,8.64,4.42-1.91,2.28-6.05-2.88,2.98,2.93-2.23,1.33,9.32,4.75-.51,1.03-11.89-4.97c.95,1.6,1.54,2.18,2.76,3.42l-1.2,2.37,5.33,4.58-.85.99-8.59-7.94-.08,4.13-10.83-5.28,5.67,5.54-4.34-.71,6.33,4.27c.57.38,1.32,1.61.98,2.19-.25.43-1.69.51-2.26.21l-8.02-4.25c2.13,2.63,3.92,4.17,6.35,6.26.01-.02-.25.37-.84,1.22l-5.6-4.86-.28-.02,1.16,4.96,6.47,5.89-3.74.14,27.16,27.19,22.18,21.26,11.18,10.43,34.53,32.42,19.51,18.18,45.02,42.13,32.16,30.57,32,30.02,13.92,14.04c3.99,4.02,5.5,28.39,3.85,38.75l-3.21,18.65-1.18,1.55c-.22.29-1.11-.88-.96-1.21l.61-1.33,1-4.95c.35-1.72-.14-3.91-1.38-4.93-1.03-.85-3.12-1.19-5.14-1.39-.65.81-1.39,1.85-2.11,1.61-1.02-.34-2.44-1.21-2.59-1.53l7.34-2.13-3.71-.28c-.62-.05-1.08-1.11-1.28-2.19l-5.87-1.14,2.51-3.46-2.48.17c-.4-2.72-2.13-7.25-5.2-8.08l-5.09-1.37c-.32-.09-.25-1.67.04-1.52l.61.31,1.7.99c-.26-1.51-1.38-3.92-2.4-5.36l-.95,3.06c-.19.61-2.28.17-2.36-.46-.07-.47-.11-1.65-.05-2.18l.34-3.07c.08-.69-1.66-2.03-2.16-1.54l-1.51,1.47c-.23.22-.81-.66-.69-.96l.58-1.44,2.67-6.55-6.6,1.04-4.55-6.39,2.43.88c.39.14,1.51-.91,1.21-1.2l-1.2-1.16-2.32-2.31c.47,5.55-3.32,5.59-2.71,11.07-.59-1-.74-3.39-.46-4.82l-1.9-.71,3.09-1.89-2.54-3.5,3.23,1.49c-.18-.81-.66-2.1-.22-2.26l2.58-.91-1.81-1.74c-.87,1.16-2.3,2.28-3.54,2.3-.88.02-1.56-.86-2.5-1.91-.54-.49-1.55-1.21-1.41-1.71l.64-2.29s-2.52.41-3.14.51l-2.52-4.61-2.08.11c-.73.04-1.07-3.73-1.49-3.67l-1.7.21c.14-.44.91-1.94.46-2.15l-1.81-.85,2.81-5.3c-3.66,1.87-4.88,2.58-8.04,3.56l-.58-3.69c1.2,1.14,1.92,1.94,2.45,1.5s2.11-1.79,1.56-1.32l-4.19-2.62c-1.73-1.08-2.46-2.89-2.68-4.99l-.27-2.58s-3.99,1.13-5.24-.32c-.54-.62-.81-2.59-.75-2.85l-4.03-1.06c2.44-1.03,3.08-1.14,5.55-1.4l.14-4.32-3.98,2.75c-.96-.57-.77-3.88.21-4.87l-.86-1.44c-.21-.35-.98.9-1.11,1.28l-.67,1.88-2.02-1.94c-.64-.61,2.36-1.52,4.08-2.71-1.52-.09-3.09.04-3.42-.48l-1.44-2.24-2.06,1.39c-.44.3-1.58-.37-2.19-.82,2.07-1.18,2.92-4.22,1.6-5.61l-2.84,1.22c-.49.21-.82-1.67-.66-2.18s.42-.65,1.73-1.74c-1.02-.67-3.48-.9-5.03-.6l.52.73,1.34-.41c.31-.09.95,1.05.71,1.26l-1.15.99c-.19.17-1.39.52-1.56.32l-1.04-1.19c-.26-.29.91-.68,1.25-.77l-.6-.34-1.92-3.24-2.81,3.09-1.85-4.81,1.8.41c.33.08.65-.7.92-1.45l-7.39-.79,3.46-1.98c-1.84-.33-2.45-.24-2.7-.81-.37-.85-.58-2.28,0-2.54l2.54-1.12-5,.92,1.38,3.09c.25.56-.23,2.28-.83,2.34l-1.77.19c-.44.05-.44-1.24-.49-1.87l-.2-2.38c-.03-.42-1.32.73-2,1.4l-3.16-3.08c3.6.27,6.14-.09,8.31-2.61-3.32.8-5.88,1.42-7.4-.1l2.76-.47c.48-.08.66-1.51.41-1.92-.88-1.49-3.38.83-4.37.23l-1.31-.8-.9-.18c-.25-.05.69-.99.95-1.01l5.42-.54-4.58-1.93-3.94-1.91,2.3-2.11c.36-.33,1.58-1.38,1.19-1.67l-1.57-1.17-1.78,3.83c.13-3.07.48-3.93-1.62-5.78-1.01-.9-2.88-.17-4.57.62l-1.35-5.33c1.4-.22,3.39-1.49,3.13-2.67-1.68,1.5-5.52,1.91-6.49.4-.22-.34-.15-2.52.24-2.43l1.38.32c.42.1,1.41-.07,1.82-.18.28-.08.06-1.39-.22-1.32l-1.76.39-1.8.4c-.35.08-1.13-.59-.91-.89l1.31-1.79c-1.28-.35-2.66-.13-4.69.75l-2.27-4.6.1-5.64-3.16.23c.38-.03,1.2,3.02,1.12,2.97l1.6.83-2.54,2.83-.51-5.09c-.08-.77-1.01-2.75-1.7-2.52l-2.94.98c.1-.84.39-2.27,1.1-2.34l3.03-.29c.42-.04,1.85.2,1.72-.18s-.55-1.69-.45-1.31c.07.25-1.5.94-1.74.84l-6.98-2.93,4.41-.3c-.38-1.92-1.38-3.13-2.97-4.21-.7-4.21-5.33,1.73-8.34-2.87,2.95-.54,4.16-.53,7.32-.13l-3.76-3.8c-1.82-1.84-3.55-2.8-6.01-3.21l1.77-1.38c.21-.17-1.24-.86-1.51-.91l-3.44-.67,1.17-1.55c.21-.27-.72-1.08-1-1.32l-3.93-3.42-5.22-4.97c-2.65-2.53-5.35-6.8-9.66-8.61-1.03-.43-1.7-.88-2.6-1.36l-2.27-1.22c.09-.33-.65-2.45-1.43-2.53-.67-.07-1.32.18-3,.7l-.84-5.5-4.58.61,3.72-3.68-5.51-1.1c1.83-.9,2.24-1.11.64-.37l-4.42-1.5c2.32-.86,3.34-1.11,3.88-1.85.45-.62.26-2.86-.06-2.91-1.4.12-3.11.28-2.94.92l.84,3.01c-3.04-.02-5.13-5.03-5.26-4.47l.49-2.05,2.68.58c.73.16,2.45-1.6,2.43-1.96l-1.74-.15-.83-1.25c-1.11-.34-2.83,1.35-3.81,3.07-.4.4-1.74-1.75-1.34-2.37l1.51-2.36-3.7-1.51,2.68-1.5c-4.43-2.09-7.9-4.86-10.86-8.34l-11.57-13.58-4.47-5.65-2.99-4.04c-2.3-3.1-4.08-4.23-7.01-6.13-4.61-2.99-8.29-7.57-12.21-10.63l-1.36.72,9.79,11.52-.99.98c-1.3-1.36-1.81-2.56-4.03-3.28l7.68,9.14c-1.21-.11-2.24-1.17-3.61-2.61-.37.18-1.57,1.7-1.61,2.48-.15,2.98,8.17,7.51,6.62,11.25l-10.03-11.23c-.57-.64-1.43-1.79-2.07-1.73l-2.37.25-4.58-5.12-2.17,1.92,2.96,6.08,1.16-.13c.27-.03.63,1.01.37,1.07l-2.06.46c-.08-.09,1.02,1.2,1.34,1.59l1.1,3.27c.62,1.84,1.96,3.06,4.06,4.41l-2.51.9c1.04.38,3.06,1.29,2.79,2l-.99,2.59,1.63.93c.3.17-.12.54-.61,1.12l-1.36,1.64,3.17-2.22.06,6.18c.7,0,2.96,1.27,2.68,2.08l-1.38,3.98,2.05-2.45-.48,4.72,3.21,4.48-4.23-.66c2.02.8,3.33,1.61,3.98,2.91l.78,1.56c.08.16-.2.13-.45.09l-1.41-.24c.94,2.45.99,5.43-1.07,6.72l-.63-2.74c-.09-.4-.7-.23-1.66-.02.21.71,1.01,2.78,1.78,2.78h2.91c.04-2.27.25-4.22,1.1-5.8l.74,5.07c-1.12.83-3.11,2.55-3.41,3.85-.4,1.71.65,3.02,1.27,4.53l1.86,4.51c-.2-.01-1.15,0-1.15.34l.02,1.88-3.17-2.4c.82-.74,1.77-1.58,1.45-1.76l-1.14-.64c-.33-.18-.75.57-.71.94l.17,1.44c-.29-.12-1.22-.62-1.45-.92l-1.22-1.55.89,5.21c.65-.71,1.93-1.91,2.19-1.44l.82,1.49.21,1.3c.05.32,1.26,1.11,1.37.8l.66-1.88c.09-.26.59-.99.74-.76l.74,1.09-1.57,3.32c1.67.51,2.46.66,2.34,1.07l-.41,1.44ZM111.33,41.12l-2.03-6.28.46,6.46c.18,1,1.93.64,1.56-.18ZM100.27,41.46l-2.31-5.17c-.71,2.29.33,4.7,2.31,5.17ZM119.54,43.61c.87-1.96,1.12-4.58-.94-5.93l.94,5.93ZM102.42,47.2l.43-5.2-1.59,1.03,1.17,4.17ZM127.74,49.36l.85-6.62c-2,1.76-1.68,4.31-.85,6.62ZM138.38,46.3c.62-1.84.98-2.8.93-2.71-.03.04-.92-.53-1.31-.77l.39,3.48ZM172.35,43.49l-6.19,13.77c3.44-2.46,6.1-10.37,6.19-13.77ZM120.3,51.23c2.22-2.79.75-4.95-.19-7l.19,7ZM178.82,59.37c2.5-1.13,3.54-3.28,2.96-5.83l-2.96,5.83ZM100.37,62.39c.14-1.8-.22-3.14-1.05-4.48-.14,1.81.23,3.13,1.05,4.48ZM168.07,57.61c-.22.22-.89.98-.9,1.3l-.05,10.7c2.72-3.13,1.57-12.63.94-12ZM72.94,59.44l-.63.45c1.09,2.76,2.51,5.61,5.16,7.86-.87-3.57-2.59-6.19-4.52-8.3ZM155.05,68.22l1.67-8.83c-1.51,1.98-2.53,4.56-3.03,7.07l-.34,1.7c-.07.34,1.64.4,1.7.07ZM161.31,59.62c-.4.05-.2,2.02.15,1.85l1.54-.74c.36-.17.34-1.39-.07-1.34l-1.62.22ZM175.14,63.81l3.45-4.01c-2.1.08-3.67,1.55-3.45,4.01ZM208.77,67.31c2.71.15,4.3-1.5,3.39-4.01l-3.39,4.01ZM100.93,68.21l.46-2.02c.1-.44-.58-.77-1.66-1.11l1.2,3.13ZM184.06,68.39c1.69-.27,2.39-1.26,2.14-2.59l-2.14,2.59ZM201.73,72.56c2.35-1.45,3.9-3.57,5.45-6.37-2.24,1.56-4.14,3.55-5.45,6.37ZM175.83,72.66c1.19-1.33,2.12-2.78,2.85-4.61-2.23.52-3.14,2.4-2.85,4.61ZM117.17,74.89c-1.94-3.03-3.4-4.76-5.73-6.43-.33,3.69,2.96,6.34,5.73,6.43ZM65.67,80.14c1.47,1.18,3.56,3.23,5.62,3.65l-4.71-5.8c-1.59.22-1.8-.28-.1-1.07l-5.28-6.53c-.49,3.15.17,4.91,1.65,6.34-3.72-1.08-6.22-1.82-9.56-2.07l7.95,9.1c0-2.36-.57-3.71-1.47-5.31,2.33-2.33,2.04,1.59,5.89,1.7ZM180.45,73.44c1.69-.27,2.39-1.26,2.14-2.59l-2.14,2.59ZM175.68,77.26c0-.53-.17-2.26-.38-2.07l-1.14.99c-.3.27-.93,1.33-.58,1.54l.95.59c.23.14,1.15-.77,1.15-1.06ZM168.42,81.86c1.16-.94,1.83-2.13,2.02-3.74-1.15.95-1.82,2.14-2.02,3.74ZM124.06,83.13c.26-.33.26-2.39-.31-2.45l-1.61-.15,1.92,2.59ZM63.86,86.83c.73-.34,1.81-1.86,1.35-2.34l-2.05-2.08c-.06,1.34.15,2.95.7,4.42ZM146.31,89.48l.46-3.54-1.56,1.38c-.31.27.45,1.48,1.1,2.16ZM153.34,94.42l-2.02-.46c-.44-.1-.77.58-1.11,1.66l3.13-1.2ZM141.72,104.88c1.55-2.81,2.25-4.44,3.05-7.08l-5.47,1.77c1.06,1.04,1.89,1.59,1.97,2.16l.44,3.14ZM51.86,102.04l-1.7-3.77-8.87.29c1.04,1.18,2.13,1.74,3.48,2.02l7.08,1.46ZM63.4,101.65c-4.06-2.46-6.95-2.33-11.03-3.01-.67.51.79,3.24,2.01,3.21l9.02-.21ZM187.78,102.07c-3.62-2.07-5.59.73-6.15,3.35l6.15-3.35ZM52.92,103.19c-2.31-1.12-3.99-.39-4.08,1l4.08-1ZM148.87,108.41l-4.13-5.19c.02,2.51,1.28,4.5,4.13,5.19ZM237.37,106.03c-.74-2.54-6.88.28-7.02,3.48l7.02-3.48ZM53.71,107.1c-.68-1.69-2.43-1.9-3.67-1.04l3.67,1.04ZM44.6,112.45l-11.92-3.87c1.01,1.85,2.3,3.59,4.1,4.66s5.2.36,7.82-.78ZM142.48,112.77c1.05-.66-.59-3.99-1.86-3.17-.93.6.53,3.47,1.86,3.17ZM54.7,113.14c.6-1.09.21-3.5-.58-3.43l-3.48.31c.82,1.53,2.3,2.8,4.06,3.11ZM30.72,113.2l-5.19-1.99c1.03,2.04,2.99,2.67,5.19,1.99ZM94.8,111.64l-5.14-.1c1.72,1.05,3.49,1.02,5.14.1ZM82.44,115.58l-2.51-2.78c-.54,1.22.93,2.88,2.51,2.78ZM101.84,114.72l-.42-1.65-4.75.03,5.17,1.62ZM165.14,115.32c2.5.76,2.88-1.29,2.08-2.53l-2.08,2.53ZM35.98,117.4c-2.16-1.67-3.45-2.2-5.27-2.49,1.22,2,3.41,2.93,5.27,2.49ZM51.48,115.83l-5.16-.02c.77.82,1.85,1.54,2.47,1.26l2.69-1.24ZM34.24,119.4l-.71-1.27-6.89-1.03-.52,1.1,8.12,1.2ZM57.35,118.43l-.4-.61-4.01.2.4.61,4.01-.2ZM38.63,121.94c-3.2-.91-6.51-1.27-9.67-1.15-.19,2.8,1.42,2.31,2.06,1.06l7.61.1ZM145.39,121.04c-.34.11-.94.99-.66,1.21s1.22.8,1.36.47l.65-1.53c.09-.21-1.12-.23-1.35-.15ZM243.38,121.32l-.4-.61-4.01.2.4.61,4.01-.2ZM113.51,126.65l-5.11-2.25-.3,3.34,5.41-1.08ZM180.62,126.62c.42.08.86-1.6.43-1.55l-1.64.21-1.03.94s1.75.31,2.23.4ZM134.43,131.06c-.58-2.84-4.56-5-6.13-2.86-.6.82,1.27,3.08,2.23,3.44,1.07.41,3.05.19,3.9-.57ZM123.9,130.32c-.5-.31-2.31.38-2,.75,1.52,1.87,5.07,3.3,7.92,2.88l-5.92-3.63ZM138,133.43c-.47-.95-2.85-2.08-3.18-1.18-.26.7.26,1.72.69,1.64l2.49-.46ZM40.58,133.95l-4.96-1.69c.46,1.26,1.16,2.44,1.88,2.3l3.08-.61ZM248.42,134l-5.81-.26.05,1.47,5.76-1.21ZM76.11,136.11l-4.39-1c.79,1.79,2.47,2.01,4.39,1ZM215.03,138.4l8.83-2.04-10.34.34,1.51,1.7ZM53.65,137.37l-5.46.04c.94,1.23,1.73,1.77,2.96,2.05s2.06.74,2.51-2.09ZM34.45,141.52l6.08-.33c-1.34-.75-2.24-1-3.23-1.12l-1.99-.24c-.35-.04-.63.79-.74,1.09l-.11.6ZM222.49,143.14c-1.45-1.37-3.11-1.79-5.2-1.03l5.2,1.03ZM75.46,145.13c-.28.29.41,1.88.78,1.73l1.29-.51c.88-.35-1.46-1.87-2.07-1.22ZM181.97,151.13l5.03-4.65c-3.61.75-5.17,2.31-7.55,4.2l-3.21,1.58c1.58.84,4.25.25,5.73-1.13ZM229.61,147.79l-7.14-.61-5.74-.08.08,1.74c1.97.08,5.16.56,6.74.23l6.07-1.28ZM191.57,154.89l1.1-2.09-2.45,1.18c-.33.16.26.46,1.36.92ZM53.18,157.24c-2.1-1.17-3.65-.15-5.16,1.6,1.57.18,3.38-.24,5.16-1.6ZM228.84,162.85c-2.47-1.32-4.25-2.09-6.43-2.61,1.36,2.63,3.97,3.05,6.43,2.61ZM207.89,166.56c-.59-.84-2.43-1.24-2.64-.71.59.84,2.43,1.23,2.64.71ZM50.04,178.25c.83.33,3.11.37,3.93-.31.74-.61,1.37-2.05,1.73-3.31l-5.07,2.84-.58.78ZM49.81,177.26c-1.59-.23-3.56.66-5.95,2.31,1.74.49,4.63-.54,5.81-1.64l.14-.67ZM221.01,184.42c-1.34-2.12-3.41-3.08-5.91-2.83l5.91,2.83ZM55.25,187.36c-2.84.14-5.5,1.08-5.79,4.55l5.79-4.55ZM213.67,191.29l-3.25-2.23c0,1.56,1.69,2.74,3.25,2.23ZM175.77,213.14c.65-1.81.04-2.64-.94-2.84l.94,2.84ZM55.94,218.21c1.16-.94,1.83-2.13,2.02-3.74-1.15.95-1.82,2.14-2.02,3.74ZM115.96,219.17l-2.09-2.65c-1.05,1.72.12,3.7,2.09,2.65ZM192.21,228.26l-1-4.41c-1,1.93-.8,3.58,1,4.41ZM125.87,231.78l-1.53-4.14c-.6,1.21-.74,2.7-.2,3.04l1.73,1.09ZM118.08,241.08l1.86-8.46c-1.37,1-2.32,1.87-3.04,2.77l1.18,5.7ZM103.01,235l.47-1.34c.1-.3-.97-.64-1.12-.36l-.62,1.18-.46,1.34c-.1.3.97.64,1.12.36l.62-1.18ZM110.76,244.39l-.33-6.8-1.62,6.71c-.1.4-.02,1.58.35,1.62l.8.1c.24.03.81-1.34.79-1.64ZM153.89,245.45c1.08-1.4.62-4.2-.45-4.9-1.04.69-1.44,1.83-1.42,2.9,0,.8,1.2,2.25,1.87,2ZM167.09,243.61c.16-.76-.14-2.43-.4-3.21l-1.42,1.93c-.27.36,1.72,1.72,1.81,1.28ZM174.09,254.6c.76-4.97,2.25-8.06,6.17-11.57-1.07-.17-2.74.18-3.71.8-.09-.92-.28-2.34-1.66-4.21l-6.68,45.57c-1.37,9.33-3.67,18.06-3.28,27.54l3.4-20.32,5.76-37.81ZM138.41,258.88l-2.33-8.53.68,9.08c-.39.24.18.03,1.65-.55ZM139.16,253.65c1.92-1.11.99-2.76-.34-2.99l.34,2.99ZM204.11,254.04c.69-2.13.91-3.03.42-3.09-.46-.05-1.51-.17-1.43-.16l1,3.25ZM207.93,274.64l-1.99-.76-.78,2.42c-.13.39,1.02.15,1.31-.15l1.46-1.51ZM209.04,292.88l-2.28-2.56-.24,2.44c-.04.39,1.3.52,1.69.39s1.64-.54.83-.27ZM162.29,344.29c.41-4.33.23-7.78-.33-11.42l-2.7-17.37c-.34,3-.11,5.78.32,8.71l1.59,10.81,1.12,9.27ZM133.96,322.1c.95-1.55,1.31-3.12.99-5.19-.93,1.56-1.28,3.1-.99,5.19ZM213.7,321.36l-1.17-3.87-1.42,2.2c-.34.53.8,1.06,2.59,1.68ZM212.51,330.97c1.31-3.07-1.33-3.49-2.6-3.49l2.6,3.49ZM323.46,335.18c-.61.04-.29,2.9.29,2.73l2.17-.66c.58-.18.57-2.25-.03-2.21l-2.43.15ZM338.66,348.77c-1.64-2.32-4.52-1.6-5.17.71l5.17-.71ZM214.79,351.59l1.1-3.63c-1.43.84-1.67,2.4-1.1,3.63ZM341.31,351.34c-.27-1.67-.04-1.93-.36-1.88-.35.05-1.38.21-1.36.15.02-.07-.09,1.05-.09,1.31,0,.41.59,1.18.88,1.47s1.2-1.22.94-1.05ZM220.92,355.17c-.29-.16-1.76-.39-2.51-.38-.59,0-.75,2.19-.44,2.57l2.65-1.44.3-.76ZM360.4,372.67c.28-1.11.42-1.83.13-1.78-.33.06-1.44.23-1.62.48l-1.08,1.52c-.16.23,1,.33,1.26.24l1.31-.46ZM220.19,390.31l1.92.24c.45.06.28-1.49.13-2.19l-2.05,1.95ZM227.56,394.42c-.38-.57-1.72-1.18-2.34-.89l-2.43,1.16,4.28.13.49-.41ZM391.51,412.37l-2.55-3.55c-.21-.29-1.4.84-1.1,1.05.23.16.67.83.69,1.13l.13,2.35c.03.51,1.74-.04,2.14-.35l.7-.63ZM227.73,411.02c.09.59.45,2.1.77,1.94l1.07-.55c.31-.16-.31-1.02-.6-1.23-.19-.14-1.28-.4-1.24-.16ZM391.56,413.08l-.8.51c0,1.9,3.92,2.81,5.34,2.07l-4.55-2.58ZM224.99,419.27c-.15.15.46-.79.79-.77l1.48.08-2.37-4.76-1.37.72,1.47,4.73ZM230.11,416.63l-.56.27c-.58.51-1.29,2.01-1.26,2.8s1.11,2.25,2.01,2.96l-.18-6.03ZM401.39,421.71l.12,2.07c.02.28,1.17-.13,1.18-.41l.04-1.41c0-.28-1.36-.54-1.34-.25ZM230.41,427.75l1.5-1.59-3.56-1.85,1.59,3.53.47-.09ZM411.42,431.96l-2.92-2.21c-.39.57-.36,2.18.26,2.6.66.44,2.6.37,2.66-.38ZM414.41,435.93l-1.69-4.01c-.52.84-.68,2.65-.14,2.96l1.83,1.05ZM235.96,442.14l-.26-1.78c-.06-.4-.88-.45-1.77-.48l1.79,2.51.24-.24ZM419.47,441.37c-.29.14-.88.92-.65,1.15.25.26,1.02.82,1.16.53l.76-1.57c.1-.2-1.08-.2-1.27-.11ZM424.37,448.74c-.8-.99-2.03-1.3-3.67-.9.8.99,2.03,1.3,3.67.9ZM429.29,452.49l-.52-2.29c-2.13.64-2.07,3.82-1.06,4.55.29.21,2.19-.25,2.08-.6l-.51-1.66ZM229.13,458.54c.36-.28,1.6-1.52,1.26-1.93l-1.88-2.23.62,4.15ZM231.48,462.14l-.16-2.83c-.03-.46-.39-.71-2.01-.21-.81.9.79,3.71,2.01,3.73l.16-.68ZM429.51,458.5l.12,2.07c.02.28,1.17-.13,1.18-.41l.04-1.41c0-.28-1.36-.53-1.35-.25ZM235.33,460.3c-.27-.34-2.67-.41-2.66-.24.36,1.58,2.81,1.49,2.66.24ZM231.69,463.33l-1.8.83,1.06,3.29.97-2.26c.08-.18-.12-.27.9.92l1.89-3.9-2.52.89-.52.24ZM439.31,465.44l.89-1.52c.12-.21-.82-.45-1.04-.34l-1.27.69c-.45.25-1.05,1.03-1.17,1.53s1.35,1.76,1.61,1.31l.98-1.68ZM448.14,474.51c.39-.73.87-2.41.48-2.27l-2.4.86c-.81.99.47,1.92,1.93,1.41ZM161.26,487.28l.65-.39-.16-6.18-.65.39.16,6.18ZM215.43,483.63c.67-.56,1.59-1.46,1.29-1.72l-1.37-1.18.08,2.9ZM224.39,492.37l2.32-1.9c.2-.16-.8-.28-1.03-.2l-1.69.64.4,1.45ZM227.13,493.85c2.23-.67.57-2.1-.49-1.06-1.62.59-1.09,1.12.49,1.06ZM235.86,499.51l.1-5.14c-1.05,1.72-1.02,3.49-.1,5.14ZM233.06,502.92c.16.26-.4-.66-.61-.99s-1.19-.22-1.33.13l-.65,1.64c-.18.02.66.1.91-.01l1.69-.76ZM228.85,508.6c.9-1,.59-1.31-.56-.74l-1.53.63c-.29.12.15,1.37.41,1.2l1.68-1.09ZM234.11,514.78l2.22-2.18,1.45,2.4-1.08-5.17-1.88,3.39c.17.16-.97-.92-1.66-1.57-.33.59-.49,1.1-.88,1.32l-1.82,1.04,3.04,1.35.6-.59ZM230.42,515.82l-2.04-2.7c-.16,1.47,1.1,2.84,2.04,2.7ZM234.21,515.81l.3,2.77-1.9-1.67c-.06,2.02-.02,4.49-2.89,4.74l2.5,3.44.14-2.37c.02-.35.97-.92,1.23-1.15l2.6-3.59,1.16,5.72.48-.09-.73-7.29c-1.56.71-2.25,1.03-1.66.76l.5-2.12c.05-.21-.51-.18-.71-.07l-.88.48-.14.46ZM241.64,519.63l-1.64-2.91c-.41.67-.7,1.51-.51,2.14.15.5,1.91.94,2.15.77ZM221.14,519.87c-.31-.22-1.05,1.88-.66,1.83l1.29-.16c.29-.04.95-.53.72-.7l-1.34-.96ZM237.67,608.46c-.62.35-1.15,1.47-2.09,3.18l-.35-3.81-2.78,1.79,2.75.79-2.15,1.69c-.37.29-.12,1.24-.07,2.6l-3.31-1.01,1.97,4.81-4.24-.16,5.28,3.22-1.53-3.47,4.17,3.62c-.41-2.56-1.96-4.2-3.76-5.04l2.85-2.43c-.04-.38-.18-1.4.14-1.47l2.34-.64c-.39,1.8.59,3.64,2.19,4.4.71-2.41,1.9-1.8,2.16.3l-5.26.7c-.15.7-.33,1.88,0,2.2l1.32,1.33c-.39.38-1.1,1.01-.86,1.23l1.06.97-2.24,1.32,4.93,4.51c4.24,3.88,6.63,9.45,3.86,14.19-1.05.42-1.49.5-1.72.89-.19.31-.24,1.29.08,1.46l1.76.93-3.7-.48c-.66-.09-1.98,1.66-2.12,2.32l-1.3,6.2c.62.12,2.38-.73,2.35-1.38l-.17-2.96c.61.02,2.09.98,1.93,1.62l-.6,2.38c1.68-.35,2.6-.48,4.27-.48l-.94,1.84c-.3.58-.29,1.71-.71,2.03l-1.99,1.48,6-1.26,1.62-.25c.29-.04.22.22,0,.41-.2.18-1.06,1.01-1.32,1.1l-6.3,2.01-1.71-2.4c-.17-.24-.46-1.19-.18-1.29l1.4-.51,1.25-.46s-.85-.73-1.02-.86l-3.97-.11c.32.46,1.52,1.75,1.1,2.12l-1.68,1.5c-1.68,1.5-3.5,2.51-2.32,5.28l2.7-4.89,2.33,1.75c.44.33.26,1.67-.28,1.74l-2.31.21c-.33.03.11,1.34.43,1.26l1.75-.44c.88-.68,1.44-.69.64,1.01-.04.11,1.08.43,1.2.09l.48-1.31c.11-.3.31-1.53.62-1.45l1.9.51-5.61,6.71c.15,1.1,2.02,2.13,4.05,2.68l-.16,3.87-1.08-2.65c-.11-.27-1.54-.15-1.25-.12l-1.16,3.93,3.75.14,2.11-3.21c.42-.63,1.65-2.16,2.37-2.12s1.68.46,2.2.96.24,3.11-.22,2.61l-.62.22.25,2.52c.63.22,1.28.43,1.36.47.05.03.63-.34.8-.48.22-.18-.64-.77-.83-.9l1.87-5.22,1.3,1.52c.32.38,1.4-.57,1.38-1.08s-.59-.92-1.3-1.44l-1.11-.8c-.27-.2.17-1.27.49-1.17l1.44.48,2.39.64c.55.15,1.13-1.41,1.32-2.18l-3.98.15,1.37-1.38c.3-.3-.39-.94-1-1.64l2.54-2.63,2.66-.65-1.59-3.32-1.43-.2c-.5-.07-.45-2.32-.27-2.37l3.32.69.22-.29-3.09-2.26c-.77-.57-.02-3.02.65-3.74.2-.21,1.38.34,1.41.05l.16-1.42c.03-.28-1.17.26-1.48.3l-1.43.19c-.33.04-.81-.99-.56-1.21l1.34-1.2c.79-.71,3.69.36,3.79,1.72.15,2.05-.34,3.67-.68,6.37,1.49-1.66,2.02-4.33,1.66-6.22l1.83.48c.42.11.42-2,.28-2.43-.07-.23-.53-.34-.69-.2l-1.29,1.1,1.48-5.15-1.63-2.54c-.36-.56.65-1.95,1.16-2.81-1.27-1.88-3.58-2.37-6.48-2.53-.04-.16.76-1.18,1.13-1.11l1.91.37-1.13-1.3c-.32-.37.02-1.47.19-2.63l-1.47.29c-.33.07-.82-.84-.54-1.06.61-.46,2.06-2.02,2.39-1.55.4.58.96,2.02.93,2.71l-.06,1.59c-.01.3.66.78.77.5l.85-2.13c-.04-.3.19,1.51.27,2.12l.2,1.6c.04.29,1.14-.06,1.06-.34l-.34-1.12c-.21-2.19.1-3.69,1.31-5.94-2.34.66-4.39.97-6.22-.54l5.2-.77c-.97-1.36-2.4-1.69-4.06-1.76l1.01-1.08c.24-.26-.08-.98-.41-1.86,2.03-1.44.72,3.06,1.79,2.78l1.95-.51c-.41-2.56-.56-5.22-.2-7.89l-1.33-2.37-2.73-3.94,2.05-.47c.45-.1.36-.79.22-1.33l-.78-.59-2.14-3.98c.28-.06,1.8.43,1.94,1.05l.59,2.6.33.48c.4-1.29.92-2.55,2.24-4.05l-2.79-.23-.14-3.4c-.03-.83-2.07-1.62-3.06-1.97l1.46-1.49c1.26.72,2.64,1.31,3.35,1.42-1.01-2.75-1.21-5-1.8-6.94l-.78-2.58c-.19-.62,1.31-1.15,1.84-1.28-.37-.4-1.14-1.16-1.02-1.5l.67-1.96c-.19-.43-.59-1-.44-1.38l.77-1.94-1.18.24c-.21.04-1.08.08-.93-.07l1.44-1.43-1.04-1.06c-.37-.38-1.97-.99-2.07-.47l-.7,3.36-.93-7.67c-.09-.17,1.25.5,1.35.93l.62,2.8c.24.02,1.14-1.96,1.37-2.98.17-.79-1.04-1.83-1.81-2.08.34-.27,1.36-1.06,1.21-1.4l-.83-1.96.11-7.39-1.1,2.02c-.12.23-.08.3-.27.13l-1.59-1.44,2.45-4.1-2.55-1.67c-1.87-.65-2.91-1.38-4.2-3.33l2.94-1.61-2.08-2.12.98-1.46c.26-.39-.35-2.02-.79-1.82l-1.96.87-.93-.09c-.26-.03-.7.92-.45.98l2.09.56c.2.12.22.28-.06.31l-2.53.23,1.18-7.56-2.44-.04c-1.65-.03,2.07-2.11,2.4-3.82.13-.65-1.65-1.81-1.99-1.25l-2.96,4.78c-.42-1.09-.61-2-.96-1.96l-2.22.22c.68-1.69,1.22-3.9.75-5.17-.04-.11-.19-.19-.69-.44-.29.28-1.02.92-.96,1.32l.43,2.83c-.4.24-2.36-1.23-2.27-2.18.12-1.22,2.25-3.03,3.04-2.51l.57.51,1-1.04-.39-.34-1.71-.1,1.06-4.05,1.2,3.7.32.3.92-2.36.67-.97c.11-.16.05-.49-.15-.5l-1.13-.08.46-3.97-1.82,3.84-.25-3.21-1.01,1.7c-.29.49-1.48.72-2.59,1.05.25.43,1.36,3.01.86,3.78l-1.79,2.74c-1.11-.94-1.82-1.39-1.97-1.02l-.75,1.84-.51,1.25c-.1.26.23.83.41,1.14.21.37.89-.46,1.85-1.63.89.95,1.58,2.85,1.76,4.53l.92,1.33c.3.43-.63,1.81-.85,1.61l-.71.35,4.58.31.39,2.38-5.26-.77-.68,2.95,6.65,1.6-1.43,2.08.52,1.38-1.09,3.92,1.94-1.05c.33-.18,1.13.68,1.04,1.03-.55,2.04-3.91,1.67-3.94,1.57l-.88-3.18c-2.34.61-4.72,2.58-6.68,4.9l-2.1-2.21,1.41,4.17,2.92-3.26c.56.5,1.52,1.71,1.17,2.09l-1.85,1.98c-.45.48,1.82.87,2.42,1.11l1.12.46c.22.09.93.24.8.05l-.97-1.35-.25-.51c-.62-1.26-1.56-3.81,1.79-4.44l-1.22,4.17.22.25,2.81,1.53c.76.41,2.74.31,3.27-.37l.99-1.27c.16-.21.94.24.88.5l-.34,1.41c-.71.16-2.5.7-2.91,1.37-.34.56-.3,1.67-.2,2.9l3.52-2.36.56,3.76-3.39-1.32c.6,2.78,5.52,2.25,4.24,6.28-6.34-2.38-4.49-8.06-9.47-8.64-.74-.57-1.88-1.59-2.33-1.03l-1.73,2.14c-.37.46,1.51,1.69,1.84,1.57l-.43-3.51c2.87,2.04,4.6,4.6,5.5,7.08-.95,1.14-1.47,2.2-1.72,3.03l-3.04,4.5,4.89.35-.12,2.66-.08,1.74c-.01.29-1.41.31-2.03.3l.29-4.61c-1.75,1.33-2.79,2-3.66,1.97l-4.55-.16.44,3.54c.48-.51.95-1.16,1.4-1.08l2.27.43-2.06.82c.4,2.02.14,3.92-.86,5.62-.36.35,1.99.96,2.06.37l.21-1.92c.18-1.66.85-3.33,1.97-3.88l.66-.73,3.61,1.01,2.14,5.29-4.48-3.04.55,3.72-2.03-3.04c-.19-.29-.98-1.44-.96-1.09l.13,1.53c.03.41.53,1.46.22,1.7l-1.36,1.07,2,1.29c.38.24-1.18,1.42-1.25,1.55.3.1,2.08.13,2.18-.29l.42-1.74,4.48,2.52-3.85.09,2.13,2.12-.55,1.3c-.13.31-.61,1.03-.79.76l-1.53-2.24-.51,3.56,1.42.88c.24,1.14.58,2.56,1.35,2.67l3.38.48-3.09.97-.83,1.05c-.13.17-.3.15-.47-.01l-1.4-1.31.6,2.49ZM253.14,529.15c.01-2.05-.31-2.8-1.03-3.71.15,1.44.5,2.56,1.03,3.71ZM243.15,536.13c2.79-1.04,2.81-3.09.94-4.83l-.94,4.83ZM255.95,535.69l-1.41-4.52c-.32.6-1.01,1.75-.73,2.3l1.3,2.57c-.37.16.29-.13.84-.36ZM230.43,535.55c2.37-.19,3.28-2.38,1.79-3.69l-1.79,3.69ZM221.62,535.23l-2.64-1.01-.96,2.72,3.6-1.7ZM236.82,541.74l-1.63-4.12-1.41,4.28,2.68.07.37-.23ZM258.13,543.69c-.35-2.15-1.72-2.79-3.4-1.96l3.4,1.96ZM222.94,543.95l-1.37-1.58c-.17-.19-.45-.05-.48.19-.08.53-.14,1.81.23,1.72.25-.06,1.72-.34,1.62-.33ZM235.19,545.52l-2.19-2.1c-.21-.2-.72.6-1.36,1.5.94.29,2.87.64,3.55.6ZM239.57,553.08l-2.89-4.38.22,5.37,2.68-.99ZM231.03,553.74l-2.13.13c-.56.03-.65,2.24-.26,1.95l2.39-2.08ZM224.5,562.59l-.47-2.25c-.07-.32-1.42.32-1.35.65l.37,1.77c.08.36,1.42-.01,1.45-.17ZM232.51,567.05c-.35-.27-1.58-1.79-2.16-1.44l-2.05,1.25,2.07,2.09.61-1.25c.13-.26.87-.42,1.54-.64ZM236.54,570.25l-1.07,2.93c.59-.07,2.55-1.04,2.5-1.69l-.17-2.43c-1.42,0-3.09.2-3.86.74-.66.46-1.27,2.27-1.44,3.39l4.05-2.94ZM218.75,575.22l-.94-3-.54,2.03c-.12.43,1.1,1.05,1.49.97ZM232.28,572.79l-3.53-.46,1.36,1.55c.28.32,1.51-.44,2.17-1.09ZM213.22,576.37c.32-.44.84-2.33.32-2.54l-1.77-.71,1.45,3.25ZM235.47,575.09c-.98-.94-1.73-1.64-1.87-1.38l-.66,1.27-1.3,2.48,3.83-2.36ZM232.35,581.11l2.44-3.37-5.36.86,2.91,2.51ZM229.33,583.97l-.53-4.94c.25-.14-.67.38-.97.54-.18.1-.18.64-.21,1.05l1.7,3.35ZM229.7,584.98c-1-.79-2.5-1.15-2.83-.75.8,1,2.19,1.24,2.83.75ZM236.55,586.09l-.42.41,1.04,1.31c.33.42,1.42.3,2.45-.11l-3.06-1.61ZM229.4,588.94c.31-.32,1.06-1.18.75-1.4-.2-.15-.87-.72-.89-.72-.02,0-.6.94-.72,1.17-.15.29.23,1.06.48,1.3.16.16.29-.06.38-.35ZM224.96,596.79c.85-.59,1.24-2.42.71-2.65-.83.59-1.23,2.43-.71,2.65ZM265.29,601.82l1.15-2.32c.17-.35-.91-.88-1.51-1.17l.36,3.49ZM233.66,605.64c0-1.52.34-2.79,1.01-4.98l-4.22-.03,1.68,1.79.46,3.62v1.3c0,.29,1.06.82,1.06.53v-2.22ZM221.29,602.69c-.52.63-1.09,1.26-.79,1.36l1.52.5c.53.17.2-.84-.73-1.86ZM267.31,606.79l-1.51-4.31c-.57,1.71-.49,1.76-.2,4.74-.12.11.83-.15,1.71-.43ZM229.55,607.98l.42-5.02c-2.88.9-1.06,3.9-.71,5.46l.29-.44ZM230.11,608.45l-.44.85-1.42.14-.9.79c-.27.23-.57,1.05-.22,1.04l1.86-.06c.49-.02,1.98-.61,1.8-1.06l-.68-1.7ZM266.9,614.09l.1-4.38c-.72.74-1.34,1.72-1.1,2.25.28.6,1.13,2.43.99,2.13ZM224.43,611.25c-.76-.93-1.18-.66-.67.6l1.06,2.36c.14.32,1.32-.79,1.1-1.06l-1.5-1.89ZM266.52,623.9l1.14,5.76c.39-4.69.38-9.4-.94-14.35-.76,2.13-.99,4.8-.69,6.25l.49,2.35ZM224.97,626.3c1.07-1.49,1.83-2.26,1.44-2.73s-1.4-1.71-1.24-1.5l-1.13,4.94c-.06,1.25.68.24.93-.71ZM240.54,636.24l-2.36,1.82-.94-2.52c-.16-.44.93-1.42,1.08-1.63l-4.45-.13c1.07-.82,2.34-1.33,2.11-1.92l-.86-2.22c-1.02-2.65-2.2-3.69-4.66-4.83-.74-.71-2.1-1.93-2.68-2.32l.99,3.7c-2.84-.25-2.16,1.42-.29,1.27l-.33,4.55-1.5-2.5c-.25.9-.26,1.68-.57,1.99l-1.7,1.69c.75.14,2.18.41,1.85.9l-1.47,2.17,2.1.61c-2.72,1.52-4.91,4.17-3.81,7.56l-1.55-.23c-.32-.05-.07.41.02.7l.59,1.97c2.44-1.03,5.05-2.66,7.99-.94-1.7,1.44-3.92,2.91-5.44,3.27l-8.95,2.1c-2.77.65-5.29,1.69-6.99,3.48.29.44.36.55.41.53l5.12-1.49,8.05-2.35c1.08-.32,3.63-.25,4.85.08l-7.13,1.89-6.44,1.88-2.68.85-1.11.36c-.29.09-.56-.38-.79-.65l-.85-.82c-.55-.53-2.14-.32-2.86.05s-.79,2.62-.02,2.81c2.37.58,6.52.21,8.57-.59,3.74,1.61,6.07-3.11,12.75-2.32,2.46-3.23,6.3-2.44,7.73-5.57.49-1.09-.37-3.19-.97-4.68.37.06,1.82.43,1.97.01l.61-1.72,4.62-3-1.5-.95c-.18-.12.07-.93.27-.85l1.66.66-.08-2.96-.34.3ZM220.2,627.33c2.58-.57,2.73-2.72,1.1-3.76l-1.1,3.76ZM209.23,627.94l-2.86.3,1.64,1.6c.35.34.68-.39,1.22-1.9ZM267.51,633.05c.6-.76,1.27-2.01.79-2.21l-1.88-.79,1.09,3ZM240.75,635.41l-.93-2.97-1,2.31c-.17.39.83.93,1.14,1l.8-.35ZM204.32,637.26l-.95-3-.54,2.03c-.11.43,1.11,1.04,1.49.97ZM207.78,637.04c.46-.97.97-1.67.67-1.92l-.87-.71c-.2-.16-1.08.33-1.21.58l-1.12,2.09c.8-.48,1.52-1.06,1.77-.81l.77.76ZM219.02,637.36c.7-1.81.07-2.64-.93-2.84l.93,2.84ZM197.8,642.15l-.86-.53-1.82,1.04c-.32.18.75,1.25,1.01,1.01l1.66-1.52ZM198.99,646.82l.46-2.03c.1-.43-.58-.76-1.66-1.1l1.2,3.13ZM219.18,647.01c-2.24-1.1-5.85-1.41-7.66,0l4.59,1.1c.61.15,1.86-.34,3.07-1.1ZM197.97,651.43c-.03.49,1.72,2.26,1.68,1.78l-.12-1.34c-.03-.36-1.53-.8-1.56-.44ZM234.75,658.57l.63-3.24c-1.07.87-1.62,2.29-.63,3.24ZM226.4,656.74l-2.75.27,1.45,3.55,1.31-3.82ZM259.75,656.78l-.34.45-1.3.44c-.26.09-.21.38-.03.55l.95.9c.29.28.74-.66,1.34-1.77l-.61-.57ZM211.75,679.09c.62.93,1.81,1,3.34-.46l.11-3.4,1.42.31c.32.07.7-.73.5-1l-1.32-1.77-3.04,3.25-.5-3.66,5.49-1.3c-1.86-1.17-3.06-.89-4.73-.52l-5.01-4.05c2.08-3.26,4.07-.61,5.9-2.72l-3.4-3-.28,1.79c-.05.31-.93.56-1.52.78-.4.15-1.31.6-1.31.26s-.13-1.77.18-1.66l1.73.65-.25-3.89c-1.64.83-4.15,3.53-4.1,5.3.07,2.07,1.9,4.86,3.18,5.9.27,1.37.89,3.91,1.17,4.47l1.17-2.35c.11-.22.71.51.73.73l.07.8-.73,2.4c1.28.15,2.67.44,2.37.84l-1.05,1.38-.12.91ZM215.4,665.3l3.19-3.07c-.04-1.55-.55-2.79-1.33-2.97-1.17-.28-2.28.31-3.5,1.63l3.03-.27-1.38,4.69ZM220.85,669.54c-.65-.66-1.63-1.98-2.14-3.13-.76-1.72,3.81-2.97,4.27-5.4.11-.59-.82-2.04-1.08-1.78-2.11,3.23-3.47,5.26-5.77,7.47l4.16,3.48.55-.64ZM227.93,663.9l2.36,3.58c.62-.92.03-2.01-1.28-3.4l2.5-3.4c-.09-.17-.59-.71-.97-.74l-2.01-.18.6,2.35c.13.51-.7,1.06-1.15,1.31l-.06.48ZM227.42,662.71c-.1-.23-.68-.79-.92-.58l-1.12.93c-.26.21.64,1.06.91.85l.9-.7.24-.5ZM257.29,666.81c.4-.19,1.61-1.62,1.22-1.74l-1.1-.34c-.26-.08-1.06.29-1.2.51l-.89,1.36c-.19.3,1.65.36,1.97.21ZM215.59,666.97l-5.3-1.21c.21,1.04,1.34,2.37,2.07,2.37s1.92-.51,3.23-1.16ZM236.65,668.61c-.89.27-2.24.58-2.16.16l.54-2.7c-.82.24-2.17,1.71-3.32,3.34-1,1.16-.07,1.25.87.62l2.31-.3c.39-.05.34,1.05.17,1.4l-.81,1.69c1.68-.45,2.78-2.78,2.39-4.21ZM220.89,670.12l.45,1.31,1.44-2.19c.33-.5-.55-1.95-1.19-2.67l-.24,3.25-.47.3ZM225.53,671.46l.25,2.3c1.94-1.71,1.61-3.94.54-5.57-.49.99-.39,1.82-.81,1.94l-2.27.63c0,.09.66,1.03.99.96l1.3-.26ZM230.02,674.59l1.78-2.23c-1.21-.07-2.22.16-2.13.59.13.63.48,2.29.35,1.64ZM217.21,683.43l-2.42-1.55c-.29-.19.97-.85,1.33-.89l1.65-.18c-.27-2.96,2.05-6.15,5.2-5.38l-1.41-2.67-4.72,5.73c-1.08,1.31-1.68,1.8-3.72,2.89.74.6,3.17,1.9,4.11,2.05ZM247.41,675.06c-.02.16.14-1.09.17-1.34.05-.33-.83.02-1.09.23-1.76,1.36-.36,3.43-3.64,5.87l1.11,4.2,1-2.43c.24-.59,1.43-.05,2.75.88l.58-3.75-2.71,1.63c-.43.26-1.59-.65-1.32-.65,1.62-1.67,2.03-2.37,2.9-4.24l.26-.4ZM253.55,676.95c.17-.32-1.6-.45-1.73-.09l-.42,4.63,2.15-4.54ZM211.55,677.61c.25-.45-1.77-.16-1.82.47l-.22,2.66,1.69-2.29.34-.84ZM230.41,679.46c-.45.09.55,1.38.96,1.23l1.15-.43c.27-.1-.13-1.21-.41-1.15l-1.69.35ZM241.62,679.6l-2.24-.08,1.4,1.77c.15.19.75-.47.76-.7l.07-.99ZM236.93,683.65l.18-3.53-3.14.1,1.98,1.33c-.27.39-.7.86-.58,1.2l.53,1.55c-.13.39-.44,1.34-.09,1.28.43-.07,1.88-.03,1.75-.37l-.62-1.57ZM218.41,687.89c1.41-1.73,1.8-2.8,1.42-4.75.25-.52,1.17-1.55.64-1.77-.55-.23-1.88-.88-1.95-.45-.08.52-.1,1.59.08,1.99l1.1,2.45-3.23,2.4c.17,2.25,1.71,1.67,1.94.13ZM227.03,686.08c-.92-1-1.29-1.24-1.62-1.06l-1.62.87.76-5.35c-2.73,1.11-2.78,2.88-1.93,6.25l4.41-.72ZM242.64,683.49l-3.51-1.32c-.35.96.64,2.94,1.3,2.56l2.21-1.24ZM210.83,685.22l3.27.18-3.78-1.96-.74,5.34c1.31-.65,1.88-.92,1.8-1.27l-.55-2.29ZM249.58,686.15c-.18-1.36-1.94-2.73-2.67-2.45l-2.04.79,4.71,1.66ZM245.32,689.58c.8-2.53-.47-3.22-2.33-4.44-.04-.25-1.12.36-1.01.74l.46,1.57c.11.38,1.28-.25,1.64-.43l1.25,2.56ZM214.94,688.27l.85-2.23c.13-.35-1.51-.37-1.58,0l-.43,2.04c-.05.24.54.21,1.16.19ZM238.93,688.57l2.16-.27c-.44.05-.61-2.48-1.28-1.65l-1.55.79c-.28.14.37,1.16.67,1.12ZM224.57,688.23c.71.6,2.03,1.28,2.21.79l.65-1.76-2.86.97ZM231.78,695.72l-2.3-3.3c2.45-1.36,2.43-3.25,1.45-5.35l-1.99,1.47c.46.53,1.41,1.58,1.06,2.05l-1.91,2.56,3.69,2.57ZM236.18,690.59c.41-2.19.45-2.52-.06-2.91-.4-.31-1.92-.44-1.89.06l.13,2.69,1.82.15ZM222.96,690.7l.18-2.53c.03-.48-1.62-.34-2.11-.23l1.93,2.76ZM244.06,689.6c-.45-.16-2.92-.1-2.95.08.22,1.48,2.94,1.48,2.95-.08ZM213.06,692.61c-.07.25.22-.84.35-1.3s-.86-1.38-1.2-1.06c-.38.36-1.6,1.51-1.39,1.3l2.24,1.06ZM238.3,690.53l1.84,1.51c.32.26.29-1.44.32-1.85s-2.47.08-2.16.34ZM223.62,697.98l1.79-.44c.23-.06-.23-.84-.41-.99l-.74-.62.87-2.93c.17-.58-1.56-1.63-1.58-1.18.91,3.93-3.61,3.34-1.94,5.55.39.52,1.42.76,2.02.62ZM214.13,695.15c.18.77.47,2.24.75,1.97l.78-.76c.28-.27.35-1.37-.03-1.34-.29.03-1.54.13-1.49.13ZM218.42,697.65c-.38.03-.45,1.74-.07,1.62l1.64-.52c.37-.12.11-1.24-.28-1.21l-1.29.1Z"/>
    <polygon class="cls-2" points="214.45 300.44 214.55 295.96 216.12 300.27 214.45 300.44"/>
    <path class="cls-2" d="M236.87,612.14l.8-3.67c.68.03,2.38,1.93,1.91,2.56s-1.92,1.03-2.71,1.12Z"/>
    <path class="cls-2" d="M224.52,366.02l1.66-2.72-1.6.47-1.41-2.55,1.24-2.77c.25-.56-1.21-1.49-1.98-2.06l1.13-.46c.53-.22,1.14-.51.87-.73l-1.75-1.45c-.44-.37.83-1.38,1.53-1.42s1.6.72,1.73,1.4l.51,2.57c.1.48-.73,1.18-1.2,1.66l3.04,2.04-3.51.33c1.67,2.24,2.14,3.92,1.9,6.15l-2.14-.44Z"/>
    <path class="cls-2" d="M224.52,366.02l1.47,2.92-4.09-.88c.36.02.97.03.91.08s.36-1.03.51-1.4c.13-.33.85-.79,1.2-.71Z"/>
    <path class="cls-2" d="M229.72,399.09l-.68-2.95,1.84,1.55c.44.37-.67,1.3-1.16,1.4Z"/>
    <path class="cls-2" d="M240.79,480.03c-1.6,1.05-2.45,1.61-1.42.91l.23-1.97c.04-.33-.66-.83-.96-1.02s-.8,1.02-1.25,1.97c-.81-.22-3.37-2.21-3.46-3.49-.15-2.33,1.58-4.99,3.09-7.64l1.31,1.78c.45.61,2.43.59,4.32.92l-2.73,1.35.86,7.18ZM239.57,476.47l-2.13-2.51c-.41-.49-1.94.42-1.83,1.04l.47,2.62c.61-.35,1.07-.65,1.39-.72l2.1-.43Z"/>
    <path class="cls-2" d="M170.79,33.01c-.03-1.79-.05-3.99.19-5.1l4.04-11.47c1.4,2.6.35,5.21-.65,7.71l-3.57,8.87Z"/>
    <path class="cls-2" d="M364.92,391.93l-1.54.89c-.33.19-1.56-.34-1.49-.71l.4-2.1c-.04-1.93.45-4.02,1.7-4.69l.93,6.61Z"/>
    <path class="cls-2" d="M186.7,37.17c-.68-4.48.29-8.48,1.75-12.45l-1.75,12.45Z"/>
    <path class="cls-2" d="M242.94,485.13l-4.06-.45c-.62-.07-2.34-.94-2.14-1.5l.98-2.73,1.34,2.91c1.62-.41,3.59.31,3.88,1.77Z"/>
    <path class="cls-2" d="M422.79,454.92c.25.08-2.47,1.32-2.88,1.03l-1.39-3.97,4.27,2.94Z"/>
    <path class="cls-2" d="M264.9,684.09l-4.91,3.09,1.09-3.11c.28-.8,2.7-.53,3.82.02Z"/>
    <path class="cls-2" d="M438.69,473.14c-.13.15-1.81,1.28-2.6,1.63s-2.78-.88-3.24-2.15l5.84.52Z"/>
    <path class="cls-2" d="M238.38,448.35c-.11-2.6.09-4.76,1.01-7.73,1.59,2.12.45,5.34-1.01,7.73Z"/>
    <path class="cls-2" d="M241.82,466.3l-.82-1.59c-.12-.23-.57-.73-.74-.54l-1.38,1.58c-.21.25-.9-1.66-.56-1.89l2.57-1.73c.45.75.97,3.1.93,4.16Z"/>
    <path class="cls-2" d="M443.05,483.99c-.44.12-2-1.03-1.66-1.33s1.22-1,1.67-1.04l1.81-.17c.49-.04.83,1.79.36,1.92l-2.18.61Z"/>
    <path class="cls-2" d="M269.82,679.54l-1.09-3.06c-.19-.54-1.32-.78-2.61-1.29l3-1.24c.83,1.55,1.09,3.76.7,5.58Z"/>
    <path class="cls-2" d="M280.64,679.65c-2.15-.93-3.57-1.51-5.44-1.75-.05-.5-.12-1.6.13-1.52l1.32.43c1.78.57,3.36,1.2,3.99,2.84Z"/>
    <polygon class="cls-2" points="109.59 4.55 87.34 10.67 86.84 9.93 109.84 3.66 109.59 4.55"/>
    <path class="cls-2" d="M326.13,349.16l-2.4.69c-.49.14-.99-1.1-1.29-2.17l2.63-.38c.57-.08,1,1.52,1.06,1.86Z"/>
    <polygon class="cls-2" points="377.21 401.21 373.06 401.88 374.06 399.26 377.21 401.21"/>
    <path class="cls-2" d="M267.55,686.95l-3.6.66,2.52-3.42,2.14-2.96c.3,3.41-3.06,4.13-1.06,5.73Z"/>
    <polygon class="cls-2" points="337.63 357.35 333.93 357.2 336.94 354.3 337.63 357.35"/>
    <path class="cls-2" d="M426.63,470.62c.24.71.53,1.46.22,1.45l-2.15-.03c-.47,0,.18-1.5.39-2.34l1.74-.53c.34-.1-.03.97-.2,1.45Z"/>
    <path class="cls-2" d="M232.6,372.24l-.72,1.43c-.1.19-.24,1.12-.39.97l-1.26-1.24-.97-.97c-.24-.24.12-.65.58-1.2l1.26.69c.28.15.92.2,1.51.31Z"/>
    <path class="cls-2" d="M243.93,457.04l-1.62,3.03c-.22.41-1.31-.64-2.34-1.54l1.92-1.45,2.04-.04Z"/>
    <path class="cls-2" d="M244.26,453.15l-.49,2.81-4.05-2.91,1.92-5.48,1.19,2.64-1.25,1.84c-.3.44,1.12.96,2.68,1.1Z"/>
    <path class="cls-2" d="M229,378.73c.96,1.18.73,1.96-1.21,1.04l.6-4.38c.3.2,1.17.77,1.09,1.12l-.47,2.22Z"/>
    <path class="cls-2" d="M286.38,660.18c.21.59-.89-1.07-.78-1.52l.58-2.31c-.07-.12,1.32-.29,1.22.09l-1.02,3.74Z"/>
    <path class="cls-2" d="M424.99,462.14c-.6,1.39-2.45,2.38-3.91.16l3.91-.16Z"/>
    <path class="cls-2" d="M238.66,417.18l-1.98.56c-.43.12-.98.79-1.89,1.65l.48-2.17c.15-.69,2.01-.8,3.39-.04Z"/>
    <path class="cls-2" d="M445.77,490.29l-1.18-1.28,2.86-1.54c.47.93.57,1.06.4,1.2l-2.07,1.62Z"/>
    <path class="cls-2" d="M303.61,311.69l-.28,1.42c-.04.21-.44,1.26-.56,1.07l-.95-1.54c-.16-.27-.04-1.6.26-1.49l1.53.54Z"/>
    <path class="cls-2" d="M232.7,388.36l.84-5.08c.75,1.52.88,3.84-.84,5.08Z"/>
    <path class="cls-2" d="M276.9,649.56c-.48.35-1.98.83-1.86.44l.74-2.47c.96-.03,1.19-.37,1.12,2.03Z"/>
    <path class="cls-2" d="M388.88,417.23l-2.09-.3c-.71-.1-.68-2.23-.43-2.55l2.52,2.85Z"/>
    <path class="cls-2" d="M413.68,453.63c-.36-.08,0-1.55.37-1.47l1.85.43c.34.11.63,1.7.2,1.6l-2.42-.56Z"/>
    <path class="cls-2" d="M221.76,349.96c-.1-.86,1.26-2.33,2.58-2.9l-.35,1.48c-.09.37-.83.72-2.23,1.42Z"/>
    <path class="cls-2" d="M120.58,253.57c-1.87-.2-2.07-2.64-.06-3.29l.06,3.29Z"/>
    <path class="cls-2" d="M216.66,290.16l-1.94-.5c-.65-.17.47-2.11.9-2.2l1.04,2.7Z"/>
    <path class="cls-2" d="M278.66,671.12l-3.53-.23c-.12.26.53-1.17.82-1.81l2.71,2.04Z"/>
    <path class="cls-2" d="M219.65,314.59c-1.63.39-2.61-.17-3.78-1.84,1.08-.02,2.65.78,3.78,1.84Z"/>
    <path class="cls-2" d="M235.3,456.81l-2.07-2.57,1.87-.2c.3-.03.25.89.19,2.77Z"/>
    <path class="cls-2" d="M116.39,1.84c-1.19.99-2.55,1.41-4.38.94l4.38-.94Z"/>
    <polygon class="cls-2" points="274.27 673.28 272.34 670.72 274.33 669.77 274.27 673.28"/>
    <path class="cls-2" d="M280.83,669.04c.4.15-1.42,1.02-1.54.49l-.59-2.55,2.13,2.07Z"/>
    <path class="cls-2" d="M219.12,310.48l-.86-1.8c-.15-.32.84-.98,1-1.07l.86,1.8c.15.32-.84.98-.99,1.07Z"/>
    <path class="cls-2" d="M229.8,387.2c.26.04.81.24,1.05.36.36.17.36,1.75-.02,1.63l-1.73-.52c-.37-.11.32-1.53.71-1.47Z"/>
    <path class="cls-2" d="M282.39,662.08c-.04.36-.8,1.59-1.2,1.39l-2.12-1.08,3.32-.31Z"/>
    <path class="cls-2" d="M283.19,664.88c.2-.11.88.22.97.44.14.32.19,1.4-.14,1.33l-1.66-.33c-.34-.07.53-1.28.83-1.45Z"/>
    <path class="cls-2" d="M271.59,646.08l.04-3.64.94,1.45c.3.47-.57,1.66-.99,2.19Z"/>
    <path class="cls-2" d="M248.32,444.65c-.43.05-1.61-.55-1.5-.98l.54-2.05.96,3.02Z"/>
    <path class="cls-2" d="M434.57,480.18l1.71-.13c.35-.03-.12.8-.38,1.03l-1.17,1.02c-.26.23-.51-1.89-.16-1.92Z"/>
    <path class="cls-2" d="M148.19,30.05l1.11.43c.34.13.33,1.68-.01,1.55l-1.63-.62c-.34-.13.18-1.5.53-1.37Z"/>
    <path class="cls-2" d="M147.74,26.3l-.71-3.8c1.33.23,1.48,2.67.71,3.8Z"/>
    <path class="cls-2" d="M238.94,469.67l2.05-1.95c.15.7.32,2.25-.13,2.19l-1.92-.24Z"/>
    <path class="cls-2" d="M237.67,608.46l-.8,3.67-2.34.64c-.32.07-.18,1.09-.14,1.47l-2.85,2.43c1.8.84,3.35,2.48,3.76,5.04l-4.17-3.62,1.53,3.47-5.28-3.22,4.24.16-1.97-4.81,3.31,1.01c-.04-1.37-.3-2.31.07-2.6l2.15-1.69-2.75-.79,2.78-1.79.35,3.81c.94-1.71,1.48-2.83,2.09-3.18Z"/>
    <path class="cls-2" d="M208.71,654.78c1.7-1.79,4.22-2.83,6.99-3.48l8.95-2.1c1.52-.36,3.74-1.83,5.44-3.27-2.94-1.73-5.55-.09-7.99.94l-.59-1.97c-.09-.3-.34-.75-.02-.7l1.55.23c-1.09-3.39,1.1-6.04,3.81-7.56l-2.1-.61,1.47-2.17c.33-.48-1.11-.75-1.85-.9l1.7-1.69c.31-.31.32-1.09.57-1.99l1.5,2.5.33-4.55c-1.87.15-2.55-1.53.29-1.27l-.99-3.7c.58.39,1.94,1.61,2.68,2.32,2.46,1.14,3.64,2.18,4.66,4.83l.86,2.22c.23.59-1.04,1.1-2.11,1.92l4.45.13c-.15.21-1.24,1.2-1.08,1.63l.94,2.52,2.36-1.82-.59-.48c-.3-.07-1.3-.62-1.14-1l1-2.31.93,2.97.13.53.08,2.96-1.66-.66c-.2-.08-.46.73-.27.85l1.5.95-4.62,3-.61,1.72c-.15.42-1.6.05-1.97-.01.59,1.49,1.46,3.59.97,4.68-1.42,3.13-5.27,2.34-7.73,5.57-6.68-.8-9.02,3.93-12.75,2.32-2.05.8-6.2,1.17-8.57.59-.77-.19-.66-2.46.02-2.81.72-.37,2.31-.59,2.86-.05l.57-.26ZM233.43,638.85c-.12.34-.27,2.08.06,1.94l1.6-.7c.34-.15-.13-.77-.4-1.01-.18-.16-1.19-.45-1.27-.22ZM231.89,646.8l.88-1.91c.13-.27-.72-.03-1.38.21-1.77.46-1.59,1.81.5,1.7ZM208.99,655.87c.22.27.5.74.79.65l1.11-.36,2.68-.85,6.44-1.88,7.13-1.89c-1.21-.32-3.77-.39-4.85-.08l-8.05,2.35-5.12,1.49-.13.55Z"/>
    <path class="cls-2" d="M174.09,254.6l-5.76,37.81-3.4,20.32c-.39-9.49,1.91-18.21,3.28-27.54l6.68-45.57c1.38,1.87,1.57,3.29,1.66,4.21.97-.62,2.64-.97,3.71-.8-3.92,3.51-5.41,6.6-6.17,11.57Z"/>
    <path class="cls-2" d="M211.88,678.19l1.05-1.38c.31-.4-1.09-.69-2.37-.84l.73-2.4-.07-.8c-.02-.23-.63-.95-.73-.73l-1.17,2.35c-.28-.55-.91-3.1-1.17-4.47-1.28-1.04-3.12-3.83-3.18-5.9-.06-1.77,2.46-4.48,4.1-5.3l.25,3.89-1.73-.65c-.31-.12-.18,1.32-.18,1.66s.9-.11,1.31-.26c.59-.22,1.47-.47,1.52-.78l.28-1.79,3.4,3c-1.83,2.11-3.82-.53-5.9,2.72l5.01,4.05c1.67-.37,2.87-.64,4.73.52l-5.49,1.3.5,3.66,3.04-3.25,1.32,1.77c.2.27-.18,1.07-.5,1l-1.42-.31-.11,3.4c-1.52,1.47-2.72,1.39-3.34.46l-.55-.65-1.69,2.29.22-2.66c.05-.63,2.07-.92,1.82-.47l.33.58Z"/>
    <path class="cls-2" d="M162.29,344.29l-1.12-9.27-1.59-10.81c-.43-2.93-.66-5.71-.32-8.71l2.7,17.37c.57,3.64.75,7.09.33,11.42Z"/>
    <path class="cls-2" d="M233.51,515.36l-3.04-1.35,1.82-1.04c.39-.22.55-.73.88-1.32.69.65,1.83,1.73,1.66,1.57l1.88-3.39,1.08,5.17-1.45-2.4-2.22,2.18.24.58.88-.48c.2-.11.76-.14.71.07l-.5,2.12c-.59.27.1-.05,1.66-.76l.73,7.29-.48.09-1.16-5.72-2.6,3.59c-.26.23-1.21.81-1.23,1.15l-.14,2.37-2.5-3.44c2.87-.26,2.83-2.72,2.89-4.74l1.9,1.67-.3-2.77-.7-.45Z"/>
    <path class="cls-2" d="M134.43,131.06c-.85.76-2.83.98-3.9.57-.96-.36-2.83-2.62-2.23-3.44,1.57-2.14,5.55.02,6.13,2.86Z"/>
    <path class="cls-2" d="M168.07,57.61c.62-.62,1.78,8.87-.94,12l.05-10.7c0-.32.67-1.08.9-1.3Z"/>
    <path class="cls-2" d="M229.61,147.79l-6.07,1.28c-1.59.33-4.78-.15-6.74-.23l-.08-1.74,5.74.08,7.14.61Z"/>
    <path class="cls-2" d="M172.35,43.49c-.1,3.4-2.76,11.31-6.19,13.77l6.19-13.77Z"/>
    <path class="cls-2" d="M141.72,104.88l-.44-3.14c-.08-.58-.92-1.13-1.97-2.16l5.47-1.77c-.8,2.63-1.51,4.27-3.05,7.08Z"/>
    <path class="cls-2" d="M217.21,683.43c-.94-.15-3.37-1.45-4.11-2.05,2.04-1.09,2.65-1.58,3.72-2.89l4.72-5.73,1.41,2.67c-3.15-.77-5.47,2.42-5.2,5.38l-1.65.18c-.35.04-1.62.71-1.33.89l2.42,1.55Z"/>
    <path class="cls-2" d="M266.52,623.9l-.49-2.35c-.3-1.45-.07-4.12.69-6.25,1.32,4.96,1.33,9.66.94,14.35l-1.14-5.76Z"/>
    <path class="cls-2" d="M236.65,668.61c.39,1.43-.71,3.76-2.39,4.21l.81-1.69c.16-.35.22-1.45-.17-1.4l-2.31.3c-.94.64-1.87.54-.87-.62,1.15-1.63,2.5-3.1,3.32-3.34l-.54,2.7c-.08.42,1.27.11,2.16-.16Z"/>
    <path class="cls-2" d="M223.62,697.98c-.6.15-1.63-.1-2.02-.62-1.67-2.22,2.86-1.62,1.94-5.55.02-.46,1.76.6,1.58,1.18l-.87,2.93.74.62c.18.15.63.94.41.99l-1.79.44Z"/>
    <path class="cls-2" d="M227.03,686.08l-4.41.72c-.85-3.38-.8-5.14,1.93-6.25l-.76,5.35,1.62-.87c.33-.18.7.06,1.62,1.06Z"/>
    <path class="cls-2" d="M233.66,605.64v2.22c0,.29-1.07-.23-1.07-.53v-1.3s-.46-3.62-.46-3.62l-1.68-1.79,4.22.03c-.68,2.19-1.01,3.47-1.01,4.98Z"/>
    <path class="cls-2" d="M181.97,151.13c-1.48,1.37-4.15,1.97-5.73,1.13l3.21-1.58c2.38-1.89,3.94-3.45,7.55-4.2l-5.03,4.65Z"/>
    <path class="cls-2" d="M215.4,665.3l1.38-4.69-3.03.27c1.23-1.32,2.34-1.91,3.5-1.63.79.19,1.29,1.43,1.33,2.97l-3.19,3.07Z"/>
    <path class="cls-2" d="M117.17,74.89c-2.77-.1-6.06-2.74-5.73-6.43,2.33,1.67,3.8,3.4,5.73,6.43Z"/>
    <path class="cls-2" d="M237.37,106.03l-7.02,3.48c.15-3.2,6.28-6.02,7.02-3.48Z"/>
    <path class="cls-2" d="M123.9,130.32l5.92,3.63c-2.84.42-6.4-1.01-7.92-2.88-.31-.38,1.5-1.06,2-.75Z"/>
    <path class="cls-2" d="M118.08,241.08l-1.18-5.7c.72-.9,1.67-1.77,3.04-2.77l-1.86,8.46Z"/>
    <path class="cls-2" d="M236.54,570.25l-4.05,2.94c.17-1.12.78-2.93,1.44-3.39.77-.54,2.45-.74,3.86-.74l.17,2.43c.05.65-1.91,1.62-2.5,1.69l1.07-2.93Z"/>
    <path class="cls-2" d="M155.05,68.22c-.06.34-1.77.27-1.7-.07l.34-1.7c.5-2.51,1.52-5.08,3.03-7.07l-1.67,8.83Z"/>
    <polygon class="cls-2" points="215.03 138.4 213.52 136.7 223.86 136.36 215.03 138.4"/>
    <path class="cls-2" d="M138.41,258.88c-1.47.57-2.04.78-1.65.55l-.68-9.08,2.33,8.53Z"/>
    <path class="cls-2" d="M220.3,670.18l-4.16-3.48c2.3-2.21,3.66-4.24,5.77-7.47.26-.25,1.19,1.19,1.08,1.78-.46,2.42-5.03,3.68-4.27,5.4.51,1.15,1.48,2.47,2.14,3.13l.51.28.24-3.25c.64.71,1.52,2.16,1.19,2.67l-1.44,2.19-.45-1.31-.59.06Z"/>
    <path class="cls-2" d="M231.32,462.82c-1.22-.02-2.82-2.83-2.01-3.73,1.62-.5,1.98-.24,2.01.21l.16,2.83.73.95,2.52-.89-1.89,3.9c-1.02-1.19-.83-1.09-.9-.92l-.97,2.26-1.06-3.29,1.8-.83-.38-.5Z"/>
    <path class="cls-2" d="M187.78,102.07l-6.15,3.35c.56-2.62,2.53-5.42,6.15-3.35Z"/>
    <path class="cls-2" d="M236.93,683.65l.62,1.57c.13.33-1.32.3-1.75.37-.36.06-.04-.89.09-1.28l-.53-1.55c-.12-.34.32-.82.58-1.2l-1.98-1.33,3.14-.1-.18,3.53Z"/>
    <polygon class="cls-2" points="113.51 126.65 108.1 127.73 108.41 124.4 113.51 126.65"/>
    <path class="cls-2" d="M110.76,244.39c.01.3-.55,1.67-.79,1.64l-.8-.1c-.37-.05-.45-1.22-.35-1.62l1.62-6.71.33,6.8Z"/>
    <path class="cls-2" d="M153.89,245.45c-.67.25-1.86-1.19-1.87-2-.01-1.07.39-2.22,1.42-2.9,1.07.7,1.53,3.5.45,4.9Z"/>
    <path class="cls-2" d="M219.18,647.01c-1.21.76-2.46,1.24-3.07,1.1l-4.59-1.1c1.8-1.4,5.41-1.1,7.66,0Z"/>
    <path class="cls-2" d="M225.53,671.46l-1.3.26c-.34.07-.99-.87-.99-.96l2.27-.63c.42-.12.32-.95.81-1.94,1.07,1.63,1.39,3.85-.54,5.57l-.25-2.3Z"/>
    <polygon class="cls-2" points="232.35 581.11 229.44 578.6 234.8 577.74 232.35 581.11"/>
    <polygon class="cls-2" points="239.57 553.08 236.89 554.07 236.68 548.7 239.57 553.08"/>
    <path class="cls-2" d="M201.73,72.56c1.31-2.82,3.21-4.81,5.45-6.37-1.56,2.8-3.1,4.92-5.45,6.37Z"/>
    <path class="cls-2" d="M390.81,413c-.4.31-2.11.85-2.14.35l-.13-2.35c-.02-.3-.46-.98-.69-1.13-.3-.21.89-1.33,1.1-1.05l2.55,3.55c0,.29-.03.66.06.71l4.55,2.58c-1.43.74-5.33-.17-5.34-2.07l.05-.59Z"/>
    <path class="cls-2" d="M218.41,687.89c-.23,1.54-1.78,2.12-1.94-.13l3.23-2.4-1.1-2.45c-.18-.4-.16-1.47-.08-1.99.07-.43,1.39.22,1.95.45s-.39,1.25-.64,1.77c.38,1.95,0,3.03-1.42,4.75Z"/>
    <path class="cls-2" d="M210.83,685.22l.55,2.29c.08.35-.49.61-1.8,1.27l.74-5.34,3.78,1.96-3.27-.18Z"/>
    <path class="cls-2" d="M224.99,419.27l-1.47-4.73,1.37-.72,2.37,4.76-1.48-.08c-.32-.02-.93.92-.79.77Z"/>
    <path class="cls-2" d="M228.84,162.85c-2.46.44-5.07.02-6.43-2.61,2.18.52,3.96,1.29,6.43,2.61Z"/>
    <path class="cls-2" d="M429.29,452.49l.51,1.66c.11.35-1.79.81-2.08.6-1.01-.73-1.07-3.92,1.06-4.55l.52,2.29Z"/>
    <path class="cls-2" d="M231.78,695.72l-3.69-2.57,1.91-2.56c.35-.47-.6-1.52-1.06-2.05l1.99-1.47c.98,2.1.99,4-1.45,5.35l2.3,3.3Z"/>
    <path class="cls-2" d="M439.31,465.44l-.98,1.68c-.26.44-1.74-.81-1.61-1.31s.72-1.29,1.17-1.53l1.27-.69c.22-.12,1.17.13,1.04.34l-.89,1.52Z"/>
    <path class="cls-2" d="M338.66,348.77l-5.17.71c.65-2.31,3.53-3.02,5.17-.71Z"/>
    <path class="cls-2" d="M323.46,335.18l2.43-.15c.6-.04.61,2.03.03,2.21l-2.17.66c-.58.18-.9-2.69-.29-2.73Z"/>
    <path class="cls-2" d="M243.15,536.13l.94-4.83c1.87,1.74,1.85,3.79-.94,4.83Z"/>
    <path class="cls-2" d="M111.33,41.12c.37.81-1.38,1.18-1.56.18l-.46-6.46,2.03,6.28Z"/>
    <path class="cls-2" d="M142.48,112.77c-1.33.3-2.79-2.57-1.86-3.17,1.27-.82,2.91,2.51,1.86,3.17Z"/>
    <path class="cls-2" d="M120.3,51.23l-.19-7c.95,2.06,2.41,4.22.19,7Z"/>
    <path class="cls-2" d="M411.42,431.96c-.05.75-1.99.83-2.66.38-.62-.42-.65-2.02-.26-2.6l2.92,2.21Z"/>
    <path class="cls-2" d="M242.64,683.49l-2.21,1.24c-.66.37-1.65-1.6-1.3-2.56l3.51,1.32Z"/>
    <path class="cls-2" d="M229.26,608.43c-.35-1.56-2.17-4.56.71-5.46l-.42,5.02.56.46.68,1.7c.18.45-1.31,1.04-1.8,1.06l-1.86.06c-.35.01-.04-.81.22-1.04l.9-.79,1.42-.14-.41-.88Z"/>
    <path class="cls-2" d="M215.59,666.97c-1.3.65-2.47,1.17-3.23,1.16s-1.86-1.33-2.07-2.37l5.3,1.21Z"/>
    <path class="cls-2" d="M213.7,321.36c-1.8-.62-2.94-1.15-2.59-1.68l1.42-2.2,1.17,3.87Z"/>
    <path class="cls-2" d="M236.18,690.59l-1.82-.15-.13-2.69c-.02-.5,1.49-.37,1.89-.06.51.38.46.72.06,2.91Z"/>
    <path class="cls-2" d="M245.32,689.58l-1.25-2.56c-.37.18-1.53.81-1.64.43l-.46-1.57c-.11-.38.98-.99,1.01-.74,1.86,1.22,3.13,1.91,2.33,4.44Z"/>
    <path class="cls-2" d="M227.99,663.42c.45-.25,1.28-.8,1.15-1.31l-.6-2.35,2.01.18c.38.03.88.57.97.74l-2.5,3.4c1.31,1.4,1.9,2.49,1.28,3.4l-2.36-3.58-.75-.69-.9.7c-.27.21-1.16-.63-.91-.85l1.12-.93c.25-.2.83.36.92.58l.57.71Z"/>
    <path class="cls-2" d="M148.87,108.41c-2.85-.69-4.11-2.69-4.13-5.19l4.13,5.19Z"/>
    <path class="cls-2" d="M178.82,59.37l2.96-5.83c.58,2.55-.46,4.7-2.96,5.83Z"/>
    <path class="cls-2" d="M232.51,567.05c-.67.22-1.41.38-1.54.64l-.61,1.25-2.07-2.09,2.05-1.25c.58-.35,1.81,1.17,2.16,1.44Z"/>
    <path class="cls-2" d="M175.83,72.66c-.29-2.21.62-4.09,2.85-4.61-.73,1.83-1.67,3.28-2.85,4.61Z"/>
    <path class="cls-2" d="M175.14,63.81c-.22-2.47,1.35-3.93,3.45-4.01l-3.45,4.01Z"/>
    <path class="cls-2" d="M249.58,686.15l-4.71-1.66,2.04-.79c.73-.28,2.49,1.09,2.67,2.45Z"/>
    <path class="cls-2" d="M127.74,49.36c-.83-2.3-1.15-4.86.85-6.62l-.85,6.62Z"/>
    <polygon class="cls-2" points="101.84 114.72 96.67 113.1 101.42 113.07 101.84 114.72"/>
    <path class="cls-2" d="M267.31,606.79c-.88.28-1.83.53-1.71.43-.29-2.98-.37-3.02.2-4.74l1.51,4.31Z"/>
    <path class="cls-2" d="M119.54,43.61l-.94-5.93c2.06,1.36,1.81,3.97.94,5.93Z"/>
    <path class="cls-2" d="M100.27,41.46c-1.98-.47-3.02-2.88-2.31-5.17l2.31,5.17Z"/>
    <path class="cls-2" d="M253.55,676.95l-2.15,4.54.42-4.63c.14-.36,1.9-.23,1.73.09Z"/>
    <polygon class="cls-2" points="248.42 134 242.66 135.22 242.61 133.74 248.42 134"/>
    <path class="cls-2" d="M207.78,637.04l-.77-.76c-.25-.25-.97.33-1.77.81l1.12-2.09c.14-.25,1.01-.75,1.21-.58l.87.71c.31.25-.21.95-.67,1.92Z"/>
    <path class="cls-2" d="M221.01,184.42l-5.91-2.83c2.51-.25,4.57.71,5.91,2.83Z"/>
    <path class="cls-2" d="M208.77,67.31l3.39-4.01c.91,2.51-.68,4.16-3.39,4.01Z"/>
    <path class="cls-2" d="M133.96,322.1c-.29-2.09.06-3.63.99-5.19.32,2.07-.04,3.65-.99,5.19Z"/>
    <path class="cls-2" d="M212.51,330.97l-2.6-3.49c1.26,0,3.9.43,2.6,3.49Z"/>
    <path class="cls-2" d="M341.31,351.34c.26-.17-.65,1.34-.94,1.05s-.89-1.06-.88-1.47c0-.26.11-1.38.09-1.31-.02.06,1.01-.09,1.36-.15.33-.05.1.21.36,1.88Z"/>
    <path class="cls-2" d="M235.47,575.09l-3.83,2.36,1.3-2.48.66-1.27c.14-.26.88.44,1.87,1.38Z"/>
    <polygon class="cls-2" points="226.4 656.74 225.09 660.57 223.64 657.02 226.4 656.74"/>
    <path class="cls-2" d="M138,133.43l-2.49.46c-.44.08-.95-.94-.69-1.64.33-.9,2.71.24,3.18,1.18Z"/>
    <path class="cls-2" d="M257.29,666.81c-.32.15-2.16.09-1.97-.21l.89-1.36c.14-.22.94-.59,1.2-.51l1.1.34c.39.12-.83,1.55-1.22,1.74Z"/>
    <path class="cls-2" d="M255.95,535.69c-.54.23-1.2.52-.84.36l-1.3-2.57c-.28-.55.41-1.71.73-2.3l1.41,4.52Z"/>
    <path class="cls-2" d="M175.68,77.26c0,.28-.92,1.2-1.15,1.06l-.95-.59c-.35-.22.28-1.28.58-1.54l1.14-.99c.21-.19.39,1.54.38,2.07Z"/>
    <path class="cls-2" d="M209.04,292.88c.81-.27-.45.15-.83.27s-1.73,0-1.69-.39l.24-2.44,2.28,2.56Z"/>
    <path class="cls-2" d="M224.43,611.25l1.5,1.89c.22.28-.96,1.39-1.1,1.06l-1.06-2.36c-.51-1.25-.09-1.52.67-.6Z"/>
    <path class="cls-2" d="M220.2,627.33l1.1-3.76c1.63,1.04,1.49,3.19-1.1,3.76Z"/>
    <path class="cls-2" d="M414.41,435.93l-1.83-1.05c-.54-.31-.38-2.13.14-2.96l1.69,4.01Z"/>
    <path class="cls-2" d="M230.43,535.55l1.79-3.69c1.48,1.31.58,3.5-1.79,3.69Z"/>
    <path class="cls-2" d="M167.09,243.61c-.09.44-2.08-.91-1.81-1.28l1.42-1.93c.26.77.55,2.44.4,3.21Z"/>
    <polygon class="cls-2" points="102.42 47.2 101.25 43.03 102.84 42 102.42 47.2"/>
    <path class="cls-2" d="M125.87,231.78l-1.73-1.09c-.54-.34-.4-1.83.2-3.04l1.53,4.14Z"/>
    <path class="cls-2" d="M235.19,545.52c-.68.04-2.62-.31-3.55-.6.64-.91,1.15-1.7,1.36-1.5l2.19,2.1Z"/>
    <polygon class="cls-2" points="161.26 487.28 161.1 481.11 161.75 480.72 161.9 486.89 161.26 487.28"/>
    <path class="cls-2" d="M192.21,228.26c-1.8-.84-2-2.48-1-4.41l1,4.41Z"/>
    <path class="cls-2" d="M222.49,143.14l-5.2-1.03c2.1-.76,3.75-.34,5.2,1.03Z"/>
    <path class="cls-2" d="M360.4,372.67l-1.31.46c-.26.09-1.42-.01-1.26-.24l1.08-1.52c.18-.25,1.29-.42,1.62-.48.29-.05.15.67-.13,1.78Z"/>
    <path class="cls-2" d="M224.5,562.59c-.03.16-1.38.53-1.45.17l-.37-1.77c-.07-.34,1.29-.97,1.35-.65l.47,2.25Z"/>
    <path class="cls-2" d="M424.37,448.74c-1.65.4-2.87.09-3.67-.9,1.65-.4,2.87-.09,3.67.9Z"/>
    <path class="cls-2" d="M238.93,688.57c-.31.04-.95-.98-.67-1.12l1.55-.79c.67-.84.85,1.7,1.28,1.65l-2.16.27Z"/>
    <path class="cls-2" d="M214.94,688.27c-.62.01-1.21.05-1.16-.19l.43-2.04c.08-.36,1.72-.34,1.58,0l-.85,2.23Z"/>
    <path class="cls-2" d="M258.13,543.69l-3.4-1.96c1.68-.83,3.05-.19,3.4,1.96Z"/>
    <path class="cls-2" d="M448.14,474.51c-1.45.51-2.73-.42-1.93-1.41l2.4-.86c.39-.14-.09,1.54-.48,2.27Z"/>
    <polygon class="cls-2" points="221.62 535.23 218.03 536.94 218.99 534.22 221.62 535.23"/>
    <path class="cls-2" d="M103.01,235l-.62,1.18c-.15.28-1.22-.06-1.12-.36l.46-1.34.62-1.18c.15-.28,1.22.07,1.12.36l-.47,1.34Z"/>
    <path class="cls-2" d="M229.33,583.97l-1.7-3.35c.03-.41.03-.95.21-1.05.3-.17,1.21-.68.97-.54l.53,4.94Z"/>
    <path class="cls-2" d="M244.06,689.6c0,1.55-2.73,1.55-2.95.08.03-.18,2.5-.24,2.95-.08Z"/>
    <path class="cls-2" d="M165.14,115.32l2.08-2.53c.8,1.23.42,3.28-2.08,2.53Z"/>
    <path class="cls-2" d="M267.51,633.05l-1.09-3,1.88.79c.48.2-.19,1.46-.79,2.21Z"/>
    <path class="cls-2" d="M209.23,627.94c-.54,1.51-.87,2.24-1.22,1.9l-1.64-1.6,2.86-.3Z"/>
    <path class="cls-2" d="M94.8,111.64c-1.65.92-3.41.95-5.14-.1l5.14.1Z"/>
    <path class="cls-2" d="M213.06,692.61l-2.24-1.06c-.21.2,1-.94,1.39-1.3.34-.32,1.33.6,1.2,1.06s-.42,1.55-.35,1.3Z"/>
    <path class="cls-2" d="M241.64,519.63c-.24.17-2-.26-2.15-.77-.19-.63.1-1.47.51-2.14l1.64,2.91Z"/>
    <path class="cls-2" d="M229.13,458.54l-.62-4.15,1.88,2.23c.34.4-.9,1.65-1.26,1.93Z"/>
    <path class="cls-2" d="M100.37,62.39c-.83-1.35-1.19-2.67-1.05-4.48.83,1.34,1.2,2.67,1.05,4.48Z"/>
    <path class="cls-2" d="M266.9,614.09c.14.3-.71-1.53-.99-2.13-.24-.52.37-1.5,1.1-2.25l-.1,4.38Z"/>
    <path class="cls-2" d="M207.93,274.64l-1.46,1.51c-.29.3-1.44.54-1.31.15l.78-2.42,1.99.76Z"/>
    <path class="cls-2" d="M235.86,499.51c-.92-1.65-.95-3.41.1-5.14l-.1,5.14Z"/>
    <path class="cls-2" d="M115.96,219.17c-1.97,1.06-3.14-.93-2.09-2.65l2.09,2.65Z"/>
    <path class="cls-2" d="M235.33,460.3c.15,1.25-2.3,1.34-2.66-.24-.01-.17,2.39-.1,2.66.24Z"/>
    <path class="cls-2" d="M75.46,145.13c.61-.65,2.95.88,2.07,1.22l-1.29.51c-.37.15-1.06-1.44-.78-1.73Z"/>
    <path class="cls-2" d="M204.11,254.04l-1-3.25c-.08,0,.96.11,1.43.16.49.05.27.96-.42,3.09Z"/>
    <path class="cls-2" d="M238.3,690.53c-.31-.26,2.19-.74,2.16-.34s0,2.11-.32,1.85l-1.84-1.51Z"/>
    <path class="cls-2" d="M265.29,601.82l-.36-3.49c.6.29,1.68.82,1.51,1.17l-1.15,2.32Z"/>
    <path class="cls-2" d="M222.96,690.7l-1.93-2.76c.49-.11,2.14-.24,2.11.23l-.18,2.53Z"/>
    <path class="cls-2" d="M224.57,688.23l2.86-.97-.65,1.76c-.18.49-1.5-.19-2.21-.79Z"/>
    <path class="cls-2" d="M224.97,626.3c-.25.95-.99,1.95-.93.71l1.13-4.94c-.17-.2.83,1.01,1.24,1.5s-.37,1.25-1.44,2.73Z"/>
    <path class="cls-2" d="M161.31,59.62l1.62-.22c.4-.05.43,1.17.07,1.34l-1.54.74c-.35.17-.55-1.8-.15-1.85Z"/>
    <path class="cls-2" d="M139.16,253.65l-.34-2.99c1.33.23,2.27,1.88.34,2.99Z"/>
    <path class="cls-2" d="M229.4,588.94c-.09.29-.22.51-.38.35-.25-.24-.63-1.02-.48-1.3.13-.23.7-1.17.72-1.17.01,0,.68.57.89.72.31.22-.43,1.09-.75,1.4Z"/>
    <path class="cls-2" d="M241.62,679.6l-.07.99c-.02.23-.61.89-.76.7l-1.4-1.77,2.24.08Z"/>
    <path class="cls-2" d="M233.06,502.92l-1.69.76c-.25.11-1.09.03-.91.01l.65-1.64c.14-.35,1.13-.45,1.33-.13s.77,1.26.61.99Z"/>
    <path class="cls-2" d="M168.42,81.86c.2-1.6.87-2.8,2.02-3.74-.19,1.61-.86,2.8-2.02,3.74Z"/>
    <path class="cls-2" d="M124.06,83.13l-1.92-2.59,1.61.15c.57.05.57,2.12.31,2.45Z"/>
    <path class="cls-2" d="M228.85,508.6l-1.68,1.09c-.26.17-.7-1.08-.41-1.2l1.53-.63c1.15-.57,1.46-.26.56.74Z"/>
    <path class="cls-2" d="M146.31,89.48c-.66-.67-1.41-1.88-1.1-2.16l1.56-1.38-.46,3.54Z"/>
    <path class="cls-2" d="M213.22,576.37l-1.45-3.25,1.77.71c.52.21,0,2.1-.32,2.54Z"/>
    <path class="cls-2" d="M232.28,572.79c-.66.65-1.89,1.41-2.17,1.09l-1.36-1.55,3.53.46Z"/>
    <path class="cls-2" d="M82.44,115.58c-1.58.1-3.05-1.56-2.51-2.78l2.51,2.78Z"/>
    <path class="cls-2" d="M213.67,191.29c-1.56.51-3.24-.68-3.25-2.23l3.25,2.23Z"/>
    <path class="cls-2" d="M180.62,126.62c-.48-.09-2.24-.39-2.23-.4l1.03-.94,1.64-.21c.42-.06-.02,1.63-.43,1.55Z"/>
    <path class="cls-2" d="M218.42,697.65l1.29-.1c.39-.03.64,1.09.28,1.21l-1.64.52c-.37.12-.31-1.59.07-1.62Z"/>
    <path class="cls-2" d="M231.03,553.74l-2.39,2.08c-.39.28-.3-1.92.26-1.95l2.13-.13Z"/>
    <path class="cls-2" d="M220.19,390.31l2.05-1.95c.15.7.32,2.25-.13,2.19l-1.92-.24Z"/>
    <path class="cls-2" d="M207.89,166.56c-.21.52-2.05.12-2.64-.71.22-.53,2.05-.13,2.64.71Z"/>
    <path class="cls-2" d="M234.75,658.57c-.99-.94-.44-2.37.63-3.24l-.63,3.24Z"/>
    <path class="cls-2" d="M197.97,651.43c.02-.36,1.53.07,1.56.44l.12,1.34c.04.48-1.71-1.29-1.68-1.78Z"/>
    <path class="cls-2" d="M175.77,213.14l-.94-2.84c.98.2,1.59,1.04.94,2.84Z"/>
    <path class="cls-2" d="M227.73,411.02c-.04-.25,1.05.02,1.24.16.29.21.91,1.07.6,1.23l-1.07.55c-.31.16-.67-1.35-.77-1.94Z"/>
    <path class="cls-2" d="M198.99,646.82l-1.2-3.13c1.08.34,1.76.66,1.66,1.1l-.46,2.03Z"/>
    <polygon class="cls-2" points="243.38 121.32 239.37 121.52 238.98 120.9 242.99 120.71 243.38 121.32"/>
    <path class="cls-2" d="M145.39,121.04c.24-.08,1.45-.06,1.35.15l-.65,1.53c-.14.33-1.08-.26-1.36-.47s.32-1.1.66-1.21Z"/>
    <path class="cls-2" d="M222.94,543.95c.1-.01-1.37.27-1.62.33-.37.09-.31-1.19-.23-1.72.03-.24.32-.38.48-.19l1.37,1.58Z"/>
    <path class="cls-2" d="M401.39,421.71c-.02-.29,1.35-.03,1.34.25l-.04,1.41c0,.28-1.16.69-1.18.41l-.12-2.07Z"/>
    <path class="cls-2" d="M253.14,529.15c-.53-1.15-.88-2.27-1.03-3.71.72.91,1.04,1.66,1.03,3.71Z"/>
    <path class="cls-2" d="M221.14,519.87l1.34.96c.24.17-.43.67-.72.7l-1.29.16c-.39.05.35-2.05.66-1.83Z"/>
    <path class="cls-2" d="M230.42,515.82c-.93.14-2.2-1.23-2.04-2.7l2.04,2.7Z"/>
    <path class="cls-2" d="M218.75,575.22c-.39.07-1.6-.54-1.49-.97l.54-2.03.94,3Z"/>
    <path class="cls-2" d="M197.8,642.15l-1.66,1.52c-.26.24-1.33-.83-1.01-1.01l1.82-1.04.86.53Z"/>
    <path class="cls-2" d="M230.02,674.59c.14.65-.22-1.02-.35-1.64-.09-.43.92-.65,2.13-.59l-1.78,2.23Z"/>
    <path class="cls-2" d="M419.47,441.37c.19-.09,1.37-.09,1.27.11l-.76,1.57c-.14.29-.9-.27-1.16-.53-.23-.23.36-1.01.65-1.15Z"/>
    <path class="cls-2" d="M153.34,94.42l-3.13,1.2c.34-1.08.67-1.76,1.11-1.66l2.02.46Z"/>
    <path class="cls-2" d="M219.02,637.36l-.93-2.84c1.01.19,1.63,1.03.93,2.84Z"/>
    <path class="cls-2" d="M214.79,351.59c-.56-1.24-.33-2.79,1.1-3.63l-1.1,3.63Z"/>
    <path class="cls-2" d="M204.32,637.26c-.38.08-1.6-.54-1.49-.97l.54-2.03.95,3Z"/>
    <path class="cls-2" d="M230.41,679.46l1.69-.35c.28-.06.69,1.05.41,1.15l-1.15.43c-.41.15-1.4-1.14-.96-1.23Z"/>
    <path class="cls-2" d="M229.7,584.98c-.65.49-2.03.26-2.83-.75.33-.4,1.84-.05,2.83.75Z"/>
    <path class="cls-2" d="M227.13,493.85c-1.59.06-2.12-.47-.49-1.06,1.06-1.04,2.72.4.49,1.06Z"/>
    <path class="cls-2" d="M180.45,73.44l2.14-2.59c.25,1.33-.45,2.31-2.14,2.59Z"/>
    <path class="cls-2" d="M184.06,68.39l2.14-2.59c.25,1.33-.45,2.31-2.14,2.59Z"/>
    <path class="cls-2" d="M100.93,68.21l-1.2-3.13c1.07.34,1.76.67,1.66,1.11l-.46,2.02Z"/>
    <path class="cls-2" d="M224.39,492.37l-.4-1.45,1.69-.64c.22-.09,1.22.04,1.03.2l-2.32,1.9Z"/>
    <path class="cls-2" d="M224.96,596.79c-.52-.21-.12-2.06.71-2.65.53.22.13,2.05-.71,2.65Z"/>
    <path class="cls-2" d="M429.51,458.5c-.02-.28,1.35-.03,1.35.25l-.04,1.41c0,.28-1.16.69-1.18.41l-.12-2.07Z"/>
    <path class="cls-2" d="M138.38,46.3l-.39-3.48c.39.24,1.29.81,1.31.77.05-.09-.3.87-.93,2.71Z"/>
    <path class="cls-2" d="M215.43,483.63l-.08-2.9,1.37,1.18c.3.26-.62,1.16-1.29,1.72Z"/>
    <path class="cls-2" d="M221.29,602.69c.93,1.02,1.26,2.03.73,1.86l-1.52-.5c-.3-.1.27-.73.79-1.36Z"/>
    <path class="cls-2" d="M214.13,695.15s1.2-.1,1.49-.13c.39-.03.31,1.07.03,1.34l-.78.76c-.27.27-.57-1.21-.75-1.97Z"/>
    <path class="cls-2" d="M191.57,154.89c-1.1-.46-1.69-.76-1.36-.92l2.45-1.18-1.1,2.09Z"/>
    <path class="cls-2" d="M239.57,476.47l-2.1.43c-.32.07-.78.37-1.39.72l-.47-2.62c-.11-.62,1.41-1.53,1.83-1.04l2.13,2.51Z"/>
    <path class="cls-2" d="M241.26,578.55c.31.44,1.23-2.12,1-2.69-1.24-1-1.48-3.2-.82-4.37.31,1.02.48,2.57.99,2.83l2.76,1.41-1.16,4.5,1.45.57-.67,1.64c-.14.33-2.1.48-2.02.13l.5-2.39-2.93-1.48c-.11-.06-.18-.17-.37-.42l-2.54-.29c.25-.3,1-1.17,1.3-1.01l1.52.81.97.77Z"/>
    <path class="cls-2" d="M245.82,668.44c.37.15,1.27.59,1.41.39l1.26-1.85-4.35-2.05c.25-.08,2.86-.63,2.67-1.36l-.94-3.5c1.04.75,1.55,2.79,2.13,4.44.82,2.34,1.51,3.21.21,5.41-.79,1.34-3.95,1.07-4.47-.3-.22-.59,1.47-1.42,2.08-1.17Z"/>
    <path class="cls-2" d="M252.42,650.16c-.39-.34-1.06-.76-1.55-.84-1.6-.27.14,3.98-1.27,4.02-.99.02-2.85.07-1.9.05,2.33-2.82-.93-5.08,3.23-8.36l2.27,4.67.23.28c1.95,1.08,1.38,5.29,1.15,5.4l-2.32,1.16.17.11,2.23,1.47c.62.41-.92,1.85-1.97,3.16l4.31-1.32c-2.43,2.58-4.71,3.42-8.01,3.89l2.96-2.85c.69-.66.3-2.9.05-3.78l-.62-.22-.72-1.01,3.65-1.06-3.07-.51c.77-.56,2.08-1.31,1.88-1.77l-.8-1.79.1-.7Z"/>
    <path class="cls-2" d="M256.79,565.81c-1.86.9-3.9,1.36-6.22,1.86.03,2.25-.58,5.42-3.23,5.17,1.92-2.68,2.77-4.49,1.86-7.27,2.09,1.1,4.16.37,7.59.24Z"/>
    <path class="cls-2" d="M246.52,559.35l-2.57-.27,3.7-1.18-.61,1.09.27.61,3.85.53-.38-1.77c-.07-.33.61-.02,1.97-.06l-1.25,2.53c-.32.65-1.58.18-3.78-.34l-.02,5.6c-1.66-1.32-1.28-4.39-.77-6.32l-.38-.43Z"/>
    <path class="cls-2" d="M242.22,600.51l.18-3.78c.14-.25.58-.79.45-1.02l-.9-1.67c-.24-.11,1.25.55,2.1.93.58.26.09,1.22-.29,1.92l1.14,1.96c.29.5-.96,1.04-2.69,1.66Z"/>
    <path class="cls-2" d="M253.46,595.67c1.19-.03,1.98-.24,1.55.29l-1.77,2.17-2.29-4.31c.3-.14,1.42-.27,1.56,0l.95,1.84Z"/>
    <path class="cls-2" d="M240.46,611.53l2.19-4.13c0-1.57.61-1.37.87-.03.13,1.42.4,2.72-.16,3.03-.64.35-2.11.89-2.9,1.13Z"/>
    <path class="cls-2" d="M259.77,639.08l-1.91,2.38c-.29.36-.98-.73-1.14-1.26-.13-.43.4-.78,1.03-1.38l1.22-.79c.28-.18.74.58.81,1.04Z"/>
    <path class="cls-2" d="M249.55,633.07c-1.21-.35-2.33-.61-2.33-1.08l.02-2.54c.26-.05,1.64.51,1.77,1.09l.54,2.53Z"/>
    <path class="cls-2" d="M247.35,607.58c.2.12.54,1.67.3,1.77l-1.03.44c-.37.16-1-.95-1.22-1.36l-1.69-3.06,3.64,2.21Z"/>
    <path class="cls-2" d="M244.74,651.34c.34-.08-1.76,1.12-1.83.67l-.28-2.07c-.08-.6,1.07-.93,2.62-1.27l-.52,2.67Z"/>
    <path class="cls-2" d="M245.62,554.2l2.49-3.05c.48.08.64,1.72.35,2.41s-2.49.89-2.84.64Z"/>
    <path class="cls-2" d="M245.93,621.87c-.11.25-1.01,1.52-1.37,1.35l-1.71-.77c-.45-.2.55-1.95.71-2.25l2.37,1.67Z"/>
    <path class="cls-2" d="M243.62,553.3l-.27-2.53c.75.21,1.4.51,1.56.16l1.06-2.38c.19.34.49,2.4-.06,2.85l-2.29,1.9Z"/>
    <path class="cls-2" d="M246.37,600.89c-1.3-1.69-1.08-3.79,1.09-5.08l-1.09,5.08Z"/>
    <polygon class="cls-2" points="251.48 584.08 250.51 584.38 248.45 585.02 249.68 581.1 251.48 584.08"/>
    <path class="cls-2" d="M249.11,577.96l1.81-1.06c.31-.18.09-1,.07-1.74-.09-.1.94.96,1.46,1.49.44.45-.61,1.35-1.36,1.75-.54.29-1.69-.13-1.99-.43Z"/>
    <path class="cls-2" d="M243.24,618.89l-.6-2.88,1.18.03c.5.01,1.4.49,1.13.81l-1.72,2.05Z"/>
    <path class="cls-2" d="M252.63,621.09l-2.74-.31c-.53-.06-.68-1.06-.57-2.6l3.31,2.91Z"/>
    <path class="cls-2" d="M254.56,633.47l-2.97.73c-.02.12-.56-.64-.3-.8l1.2-.74,1.45-.9c.41-.26,1.07,1.61.62,1.72Z"/>
    <path class="cls-2" d="M255.99,646.19c-1.24-.81-1.52-1.02-1.41-1.39l.66-2.2c-.03-.15,1.18.49,1.11,1l-.36,2.59Z"/>
    <path class="cls-2" d="M249.92,607.42c.19-.32,1.49.14,1.58.52.1.45.22,1.02-.05,1.3-.51.55-1.98-1.07-1.53-1.82Z"/>
    <path class="cls-2" d="M258.93,615.03c-1.41-.13-1.57-2.56-.68-3.75l.68,3.75Z"/>
    <path class="cls-2" d="M248.14,613.91c-.67.65-1.89,1.41-2.17,1.09l-1.36-1.55,3.53.46Z"/>
    <path class="cls-2" d="M246.7,626.62l-1.17-2.63c-.21-.47,1.69.07,1.7.56,0,.61-.2,1.27-.53,2.07Z"/>
    <path class="cls-2" d="M255.23,584.75s1.56-.08,2.18-.11c.35-.02-.03.74-.29.99l-1.15,1.09c-.24.23-.54-1.17-.73-1.97Z"/>
    <path class="cls-2" d="M242.35,586.56c-.46-.26-1.37-1.08-1.08-1.29l1.51-1.11c.81-.6.35,2.85-.43,2.41Z"/>
    <path class="cls-2" d="M250.68,639.33c.62-.65,2.96.88,2.06,1.23l-1.28.5c-.37.15-1.06-1.44-.78-1.73Z"/>
    <path class="cls-2" d="M243.25,674.86l-1-3.51,1.7.66c.38.15.1,1.18-.7,2.85Z"/>
    <path class="cls-2" d="M259.1,646.2l-1.38-1.47c-.38-.41.85-2.04,1.05-1.78l.12,1.2.21,2.05Z"/>
    <path class="cls-2" d="M248.85,616.96c.19.26-1.45.7-1.63.31l-.88-1.92,2.5,1.61Z"/>
    <path class="cls-2" d="M255.74,598.44c-.02-.29,1.35,0,1.34.28l-.04,1.41c0,.28-1.17.68-1.18.4l-.12-2.09Z"/>
    <path class="cls-2" d="M250.69,603.48c-.02-.28,1.35,0,1.34.29l-.04,1.41c0,.28-1.17.69-1.19.4l-.12-2.1Z"/>
    <path class="cls-2" d="M231.89,646.8c-2.09.11-2.27-1.24-.5-1.7.66-.24,1.5-.48,1.38-.21l-.88,1.91Z"/>
    <path class="cls-2" d="M233.43,638.85c.08-.23,1.09.06,1.27.22.27.24.74.87.4,1.01l-1.6.7c-.33.15-.18-1.59-.06-1.94Z"/>
    <path class="cls-2" d="M241.08,562.16l-2.89-1.74,1.93-.82c.59-.25,1.07,2.36.97,2.56Z"/>
  </g>
</svg>