<?xml version="1.0" encoding="UTF-8"?>
<svg id="Layer_1" data-name="Layer 1" xmlns="http://www.w3.org/2000/svg" viewBox="0 0 193.95 556.63">
  <defs>
    <style>
      .cls-1 {
        fill: none;
        stroke: #000;
        stroke-miterlimit: 10;
        stroke-width: 2px;
      }
    </style>
  </defs>
  <path class="cls-1" d="M160.02,351.94c-.23,2.01-2.11.71-2.26-1.07l-1.75.51c1.31,2.67-1.17,2.87-3.15,1.82.63.74.55,1.6-.23,2.58-.7,3.24-.94,4.29-4.88,3.52-.82,1.02-.18,1.3,1.92.82-.06,1.08.16.94.66-.41,3.12.47,6.26,1.06,9.42,1.76l.42.48c.91,12.9,1.78,25.73,4.1,38.75l2.93,16.44c.08.42.55.64.93.57-.39,2.92.41,5.59,1.16,8.53l8.39,32.85,7.05,29.17c2.08,10.94,3.09,21.82.35,32.75l-2.5,7.64-3.45,6.75c-2.62,5.13-10.07,11.73-15.19,13.89l-7.07,2.98c-18.76,6.1-30.09,2-45.95-7.96-4.56-2.86-2.37-4.35-3.82-5.55-.23-.19-.41-1.1-.67-1.22-.19-.09-.67.52-.67.85-.06.39-.49.5-.56-.02-.38-.11-.78-.58-.48-.82.94-.75-.88-4.21-3.61-4.92-.75-2.47-2.76-3.56-.91-3.94l-1.54-3.7-1.83-1.53c-.76-.19-.37-1.14.22-.73.1.39.3.63.68.74-.15-1.35-.11-2.85-.61-4.3-.11-.32-1.31-.08-1.51.16l.28-2.26-.22-3.81-1.58-12.31c-.1-.77-1.07-1.08-1.33-1.46-.96-1.4.32-3.29.33-4.69l.06-8.36c.26-.29,1-.92.87-1.14l-.71-1.26.16-13.11.45-8.34.5-12,.05-26.08-.97-16-.9-7.88-1.06-8.26-.79-5.23-1.15-8.25-4.28-22.99c-2.73-11.89-5.72-23.3-9.55-34.82l-1.42-4.25-1.6-4.78-1.09-3.54-2.93-6.8-2.54-6.31c-2.58-6.42-5.28-12.55-8.8-18.45l-5.46-9.13c-.81-1.36-.93-3.81-2.54-4.75-.9-.53-2.39-.72-2.49-2.28-.19-3.02-1.66-5.55-3.36-8.03l-4.76-6.95c-.93-1.36-1.11-2.07-2.04-3.6l-3.45-5.67-6.94-11.09-2.57-3.9c-1.91-2.89-3.49-5.68-5.37-8.57-.53-.81-.44-2.37-1.16-3.35-2.22-3.02-3.27-6.5-4.62-9.89l-1.59-3.99-1.31-4.74c-.6-2.17-1.64-4.29-.82-6.52-.62-1.15-.92-2.78-1.5-4.05l-.58-1.29.81-1.2-1.28-3.88-1.99-18.33c-.16-1.5,0-2.59-1.5-3.34.73-3.47.36-7.35.08-10.98l-.33-4.27c-.79-10.29-1.89-21.6-.26-31.54.06-.37.93-1.15.73-1.44l-.71-1.08c-.37-5.99,1.18-11.55,2.98-17.2l1.22-3.83c.94-2.95,1.72-5.61,3.59-8.19.12-.17-.14-1.06-.21-1.25s-.34-.4-.6-.12c-.73.76.01,2.5-1.77,2.97l1.94-4.27c.61-2.69.9-5.18,2.47-7.35l2.47-3.4c1.28-2.82,2.44-5.03,4.35-7.35,1.15-1.41,1.44-3.62,3.01-4.88l2.36-3.38c.92.52.15,1.54-.07,2.04.71.86,1.97-.16,2.43-.82l.5.3c.53-1.37,1.59-2.4,3.18-3.1,1.06-3.06,3.9-3.52,5.41-.57l1.26-.78c2.93,1.21,3.49,1.12,1.66-.24l-.5-1.37c.64-1.24.55-2.42-.29-3.51,1.2-1.67.21-2.44-2.95-2.33l-.53-.96c1.02-.65,2.19-1.82,3.42-2.17,2.77-.78,4.9-1.9,7.14-3.62l3.4-2.61c1.27-.98,5.14,0,5.92-3.42-.93-.1-.85-.9-.04-.84,2.01-2.13,3.95,0,5.88-1.59.04-.25-.02-.69.1-.84.15-.18.59-.36,1.05-.43.74-.62,1.41.07.56.93,1.53.35,2.57-1.23,3.92-1.87l4.07-1.93,2.77-.99c.41-.15.58-.49.55-.75l-.08-.79c1.76.78,3.27.32,5.08-.24l7.77-2.39c.02-1.12.42-1.58.94-1.77.88-.31,2.11,1.47,6.17-.21,0-.6-.1-1.19.26-1.3.45-.14,1.43-.48,2.02-.4.17.34.27.8.58.87.47.09,1.15-.1,1.28-.43.09-.23-.16-.79.19-1.03,2.07.67,4.2.98,5.87-.26l.02-.95c0-.09.76-.17,1.51-.11-.37.44.42,1.9.9,1.65,3.36-2.64,7.75-.84,8.88-3.38,6.04-1.11,13.02-1.39,19.56-.78,2.23.21,4.15.51,5.99,1.77,1.9-.45,3.56.07,4.77,1.64,3.66-.27,6.85.88,10.05,2.31,7.57,3.38,13.23,8.6,18.06,15.35,4.76,6.66,7.82,14.21,10.04,22.21l1.23,4.43c2.96,10.65,3.78,21.48,4.86,32.53l1.88,19.13.74,11.52.53,7.24.32,10.34-.03,6.94c-.11,23.16-3.34,37.38-9.1,59.06l-13.04,49.07-2.09,10.4-4.51,26.36-1.33,9.45-.58,8.32c-1.16,9.42-1.08,18.67-1.47,28.15l-.37,8.82.1,15.07Z"/>
</svg>