<?xml version="1.0" encoding="UTF-8"?>
<svg id="Layer_1" data-name="Layer 1" xmlns="http://www.w3.org/2000/svg" viewBox="0 0 448.06 825.62">
  <defs>
    <style>
      .cls-1 {
        fill: none;
        stroke: #000;
        stroke-miterlimit: 10;
        stroke-width: 2px;
      }
    </style>
  </defs>
  <path class="cls-1" d="M429.96,213.3l-1.49.2,2.55,6.13,2.3,8.12,5.24,18.1c3.39,14.93,5.46,29.65,5.6,44.85l.15,15.57-1.44,32.13c-.09,2.05.06,3.88.75,6.21l1.1-10.01.45-14.12,1.14-32.61c1.21,7.81.66,15.84.36,23.96l-1.06,28.79-12.55,213.02-6.1,105.52-6.86,108.08c-1.41,22.2-14.29,44.88-35.26,52.21l-8.87,3.1c-4.92,1.72-9.99,2.28-15.11,1.99l-5.69-.32c-2.65-.15-4.86-1.42-7.32-2.26-11.53-3.91-21.69-10.64-28.43-20.97-9.81-15.03-9.64-34.15-.2-49.28,3.56-5.7,7.99-9.78,13.68-13.44,9.64-6.2,21.88-7.52,32.81-3.95,4.07,1.33,7.08,3.41,10.08,6.46,6.1,6.19,6.59,15.84,1.8,23.31l-8.56,11.52-3.69,4.53c-4.71-2.48-9.29-7.35-7.11-10.2l10.25-13.36c1.1-1.43,1.69-4.09,1.02-5.66-1.55-3.64-4.86-5.68-8.76-6.48-13.42-2.77-27.16,4.12-33.55,16.23-5.18,9.83-5.79,21.1-.6,31.01s15.05,16.6,25.88,19.14c.15.44.53,1.53.7,1.35s1.13-.9,1.38-.9l9.52.03c4.13.01,7.37-.85,11.15-1.95l4.94-1.43c6.47-1.88,11.65-6.16,16.14-11.22,5.73-6.46,9.31-14.43,11.09-23.01s2.53-16.56,1.62-24.79c-.46-4.18-2.03-8.16-3.65-12.04l-23.08-55.3c-7.9.11-16.23-.3-24.23,1.2-4.95,4.6-10.25,8.88-16.77,11.09l-3.47,11.93c-2.72,9.36-10.56,15.85-19.46,19.82-19.22,8.56-43.67-2.83-48.28-24.49l-1.47-6.91c-.79-3.69-2.29-7.41-5.71-9.52s-7.72-3.62-12.01-3.7l-32.54-.62-20.21.18-15.92.87c-3.89.21-8.46,3.39-9.01,7.57-.97,7.45-2.15,14.66-5.89,21.26-7.94,14-26.93,18.88-42.26,13.59-11.25-3.88-19.28-12.9-22.15-24.41-.52-2.08-1.51-3.62-3.71-4.24-9.78-2.75-18.95-7.46-24.81-16.31l-19.72.21-22.6,60.77c-1.01,2.72-.13,5.86-1.47,8.72-.94,2-.64,4.83-.57,6.96.23,6.97.79,13.53,2.74,20.11,4.33,14.58,14.73,25.35,29.22,29.81,3.63,1.12,7.1,1.54,11.06,1.83,13.54.97,26.59-4.24,34.97-14.9s8.92-23.2,2.71-34.78c-6.71-12.51-21.95-18.82-35.57-14.55-2.71.85-5.76,3.03-5.68,5.98s2.09,5.81,3.68,8.14l6.16,9.01c1.99,2.91,1.14,5.79-1.28,8.01-1.43,1.31-3.44,2.71-5.61,2.33l-8.58-12.31c-2.06-2.95-3.86-6.3-4.8-9.75-2.27-8.3,1.58-16.12,8.88-20.24,6.1-3.45,13.05-4.79,20.05-3.79,13.95,2,25.56,8.67,32.27,21.19,7.33,13.68,7.4,29.49-.45,42.98-6.85,11.78-18.13,19.86-31.39,23.09-7.13,1.73-14.24,3.6-21.52,1.55l-8.51-2.4c-15.66-4.42-27.77-15.54-33.96-30.53-3.41-8.24-5-16.65-5.36-25.62l-.81-20-1.07-43.59-.53-18.64-.58-19.76c-2.15-73.52-4.86-146.69-8.53-220.16l-.64-12.89-5.34-97.5c-.64-11.71-.78-22.56-.14-34.03,3.73-67.24,36.73-129.48,90.3-170.19,36.13-27.46,79.86-42.97,125.36-45.15l.78-15.52.43-8.46c-.51-2.52.7-4.89,2.25-6.7l.19-9.71.95-10.66,1.29-10.03c.3-.44,1-1.46.62-.92l.78,4.03.76-14.84c.07-1.36,2.04-3.74,3-4.65l3.17-.33c3.33,3.24,5.57,7.42,5.55,12.34l-.1,24.57-1.3,32.61c-.1,2.47.07,4.47,1.6,6.19,1.36,1.53,3.15,2.37,5.65,2.54,52.27,3.67,101.67,25.56,139.47,61.96,21.03,20.25,37.77,44.55,48.55,71.38,0,0,.05.11.11.25l3.71,9.69.25.46.78,3.35c-1.18-1.01-1.24-1.68-1.47-2.79l-.1-.43c-1.87-2.94-3.24-6.18-3.96-9.61l-.08-.24ZM232.11,66.29l1.18,4.36c.88-9.24,1.39-18.32,1.14-27.99-2.31,1.84-1.54,4.38-1.66,6.61l-.57,10.06-.09,6.96ZM221.32,66.53l.84-11.71c-.07-.02-1.01,1.59-1.07,2.02l.24,9.68ZM383.24,357.57l6.77-.33,32.96-1.81c3.11-.17,6.05-2.37,9.43-2.34l1.15-26.69c.66-15.19,1.35-29.89.31-45.06-3.44-50.49-25.85-97.93-62.94-132.19-32.98-30.47-74.11-49.7-118.74-55.09l-17.9-1.53-1.46,21.79-.41,6.1c-.28,4.11-2.14,6.29-5.08,8.67-.15,2.33,3.06,5.23,5.59,5.46,59.57,5.44,111.38,41.92,136.64,96.46,10.82,23.37,16.19,49.18,15.48,75.16l-.47,17.48-.58,13.98-.76,19.94ZM53.68,356.06l-1.28-56.51c.14-44.95,18.31-88.1,51.1-118.8,29.66-27.77,67.92-44.45,108.51-46.55,1.7-2.01,3.74-4.48,3.8-6.99l.77-34.36c-54.19,2.7-105.63,26.05-142.95,65.25-38.37,40.31-59.6,93.56-59.81,149.26l1.82,45.96,5.96,3.25,25.04-.05,7.03-.46ZM217.86,96.99l.48-.31-.15-3.12-.48.31.15,3.12ZM219.62,123.84c.62-1.72,1.09-3.36,1.04-4.28l-.36-7.02c-1.33,4.02-.97,7.64-.69,11.3ZM227.55,135.91c1.64-1.14.73-2.19-.25-2.46l.25,2.46ZM203.27,325.67c2.96-6.71,9.44-11.14,16.74-10.47s13.78,6.54,15.08,14.11c1.82,10.63,5.28,20.8,12.48,28.87,15.32.31,30.18,2.87,36.25,17.93,7.64.78,15.03-.65,22.12-3.47,19.37-7.7,32.03-24.56,35.48-44.97,1.29-7.65,8.66-13.4,15.65-14.98l14.5-3.28c1.12-.25,2.97-1.52,4.18-2.21,1.33-46.42-17.66-91.02-51.88-122.29-26.55-24.26-60.69-38.42-96.52-40.5l-1.18-2.2c.51,4.07-.33,7.53-4.16,9.37-1.24.59-3.9-.7-4.59-1.86-.78-1.31-.88-2.98-.95-5.44-42.72,1-83.57,19.42-112.99,50.49-22.49,23.75-36.68,54.2-40.57,86.68l-1.32,25.41c-.13,2.44,1.95,4.28,4.28,4.7l15.8,2.87c7.89,1.43,15.56,7.71,16.87,16.17,2.44,15.76,10,29.91,23.54,38.77,11.79,7.71,25.99,10.39,39.64,7.26,3.9-13.55,14.58-17.22,27.99-17.67,5.73-7.11,9.02-15.47,10.82-24.43.59-2.97,1.45-5.88,2.75-8.85ZM422.34,199.24c-.33-2.84-1.67-5.42-3.86-6.73l3.86,6.73ZM24.08,229.53l15.07-32.81c.38-.83.61-1.49.39-2.07-7.32,11.67-12.74,23.88-17.16,36.8,1.38.21,1.17-.78,1.7-1.93ZM427.91,211.5c.33-2.58-.42-5.22-2.72-6.09.75,2.54,1.65,4.26,2.72,6.09ZM71.66,237.33l12.49-23.82c-5.52,7.15-10.02,15.45-12.49,23.82ZM365.32,226.26c-1.24-2.61-2.16-5.54-4.58-7.62l4.09,8,.5-.38ZM365.65,226.53l-.55.41c.83,2.17,1.89,4.42,3.5,6.54-.32-2.79-1.7-4.97-2.95-6.95ZM370.9,238.29l-1.42-3.95c-.54,1.76-.02,3.21,1.42,3.95ZM371.66,242.32c.68-1.16.61-2.74-.77-3.45l.77,3.45ZM383.36,312.22c.94-9.27.37-17.72-.35-26.53-.84-11.51-3.09-22.51-7.04-33.36-.58-1.59.07-3.64-1.93-4.54l2.97,11.41,4.74,24.97.74,10.99c.39,5.76-.62,11.28.87,17.05ZM15.45,257.97c.58-1.82.76-2.69.81-3.96-.92,1.3-1.18,2.66-.81,3.96ZM10.07,290.52l.65-.26,1.82-14.85-.77.24-1.7,14.87ZM59.05,305.15l.52-.3-.09-7.61-.52.3.09,7.61ZM381.75,347.15l.74-7.31.49-11.4.04-13.26-.76,7.85-.33,12.01-.21,3.87.03,8.23ZM10.24,317.63c-.3.11-.75.93-.47,1.08l1.27.67c.28.15.28-1.26.19-1.57-.06-.2-.79-.25-.99-.18ZM325.03,407.07c7.09-4.29,10.89-10.93,13.09-18.68l2.2-7.75c2.79-9.84,10.27-17.01,20.08-19.9l13.72-2.58,1.54-40.43-14.89,3.17c-9.24,1.97-11.57,8.32-12.97,17.17-4.88,18.27-17.61,32.52-34.45,40.89-8.61,4.28-17.7,6.21-26.95,6.1-.01,13.31,8.71,23.53,21.37,25.78,6.05,1.07,11.78-.44,17.26-3.76ZM158.85,386.18c-19.8,2.42-38.89-4.29-52.19-18.75-7.84-8.52-13.09-18.35-15.16-29.81-1.45-8-4.41-13.27-12.63-14.7l-14.95-2.61c-.84-.15-2.24,1.23-2.21,2.17l1.07,34.03c18.07.18,32.25,3.35,40.92,19.56,1.97,4.27,3.29,8.48,4.29,13.16,2.44,11.44,12.1,20.15,23.82,20.77,15.42.81,25.61-8.9,27.02-23.83ZM350.11,323.5c1.61-.03,2.34-1.04,2.18-2.19l-2.18,2.19ZM200.92,358.56l35.41-.5c-5.16-7.95-7.88-16.58-9.2-25.79-.7-4.91-4.49-8.34-9.1-8.05-4.16.26-7.98,3.8-7.94,8.44l-2.86,11.29c-1.28,5.03-3.46,9.49-6.32,14.61ZM11.65,328.86l-.56-3.69-.97,2.17c-.17.39.69,1.08,1.54,1.52ZM237.12,345.05l-4.19-17.16c-.29,6.01,1.37,11.63,4.19,17.16ZM100.43,345.8l-2.78-11.55c-.51-2.1-.42-4.09-2.05-5.57l.99,5.65c.73,4.14,1.99,8.12,3.52,11.77l.32-.3ZM11.21,332.25c.28-.05,1-1.75.69-2.01l-1.11-.95.42,2.97ZM59.27,335.57c1.12-1.16,1-2.61.5-3.56l-.5,3.56ZM442.19,345.04c0,.81.05,1.39.42,1.39h1.03c.27,0,.41-1.36.14-1.37l-1.58-.02ZM238.93,348.89c.36-1.54-.54-3.24-2.07-3.44l2.07,3.44ZM100.86,346.07l-.55.39c.59,1.52,1.4,3.13,2.39,4.57-.55-2.19-1.2-3.59-1.84-4.96ZM199.65,353.65l.82.11,2.22-4.74-.74.09-2.3,4.55ZM241.03,352.85c.36-.98-.27-2.23-1.46-2.81.35.93.8,1.8,1.46,2.81ZM335.99,356.42c1.32-.21,1.86-.98,1.66-2.01l-1.66,2.01ZM439.5,356.15l-.79,1.42c-.14.25,1.16.39,1.24.12l.31-1.07c.05-.17-.55-.43-.75-.47ZM436.6,362.47l.99-2.09c.13-.27-.88-.26-1.07-.03l-.89,1.03.97,1.1ZM402.12,402.59l13.9,8.44,3.02,1.83,9.69,5.77,2.77-48.97c.05-.95-1.34-2.38-2.28-2.33l-46.58,2.26-.75,16.54-1.69,1.83,5.7,3.54c2.06,2.16,4,2.91,6.5,4.54l4.27,2.8,5.45,3.75ZM54.7,384.53l-.6-16.02-29.58.31-8.14-.27,2.67,49.66,34.58-27.99,1.06-5.7ZM370.85,433.26l1.64-39.48,1.12-23.34c-9.43.66-18.72,3.55-21.59,13.37l-3.07,10.51c-4.7,16.1-19.26,28.04-36.39,28.61-18.2.61-35.65-13.76-37.13-32.46l-1.63-6.72c-10.27-2.28-19.11-6.64-27.15-13.57l-55.65.79c-5.55,5.34-11.82,9.27-19.11,11.89l-4.12,16.35c-2.13,5.44-4.97,9.92-9.38,13.84-12.8,10.44-31.08,11.74-45.06,2.64-7.85-5.11-12.93-12.92-15.94-21.65l-4.01-11.63c-2.99-6.51-8.18-10.8-15.26-12.35l-14.94-1.29.88,18.33c.11,2.26,1.86,4.89-1.12,6.34,1.55.81,1.27,1.59,1.32,3.16l1.28,38.76c6.46,3.4,13.74,2.07,22.24,5.26,6.94,2.6,11.47,8.22,12.77,15.5,3.56,19.93,18.69,35.54,38.62,39.81,13.44,2.88,27.71.72,39.33-6.78,11.26-7.27,18.28-19.03,21.32-31.81l2.94-9.01c2.93-6.84,10.12-11.28,17.57-9.97,7.1,1.25,12.41,6.75,13.54,13.94,2.22,14.16,9.24,26.77,21.18,34.9,15.15,10.31,34.46,12.12,51.11,4.62s27.58-21.11,31.28-38.33c1.52-7.06,6.89-12.01,13.73-13.86l12.12-1.96,3.89-.78c1.83-.36,3.56-.82,3.68-3.62ZM288.84,402.21l-1.71-4.98c-3.55-7.12-1.95-14.59-4.99-20.04l-3.4-6.09c-.89,1.19-.27,2.51.66,3.26l1.46,5.69,2.24,7.6c.68,5.54,1.19,11.05,5.75,14.57ZM100.67,377.04c.67-1.67-.01-2.33-1.33-2.76l1.33,2.76ZM350.24,381.01l3.9-6.82c-2.38,1.57-3.74,3.88-3.9,6.82ZM108.1,397.62l-2.34-7.98c-1.2-4.07-.92-8.95-4.96-11.93l3.7,11.6c.98,3.06,1.05,6.47,3.6,8.31ZM168.1,382.98c1.27-2.37,1.56-3.2.95-4.61-1.07,1.6-1.35,3.34-.95,4.61ZM165.5,396.79c1.04-3.73,1.91-7.15,1.93-11.09l-3.89,12.75c.39.11,1.48.03,1.57-.29l.38-1.37ZM61.31,403.9l.51-.3-.11-5.37-.51.3.11,5.37ZM427.63,437.37c.15-2.61-.36-3.97-1.51-5.72-1.05-1.68-2.27-3.23-4.04-4.46l-40.86-28.52-3.16,66.79-2.52,52.64,38.5-1.06c4.12-.11,7.03-.84,9.34-5.01l4.24-74.65ZM343.64,399.48l-5.83,7.75c2.51-1.2,6.21-5.41,5.83-7.75ZM14.36,407.31c.59-2.14.53-4.4-.68-6.33l.68,6.33ZM46.07,517.64l14.62-.52c-.88-.77-1.28-1.79-1.07-3.37l-4.22-112.26-35.69,31.11,2.73,63.78.64,18.65,9.01,2.52,13.98.08ZM292.34,405.44l-2.66-2.8c-.01,1.7,1.08,3.17,2.66,2.8ZM15.2,415.19l-.72-6.3c-.45,1.94-1.2,4.36.72,6.3ZM332.37,549.36l3.51-12.14c4.98-13.76,17.42-17.56,31.3-18.69l2.95-70.73c.08-1.95-3.13-2.18-4.4-1.98l-11.64,1.9c-4.27.7-7.83,4.3-8.69,8.55-2.28,11.28-7.69,20.77-15.35,28.89-22.75,24.08-59.97,26.49-85.08,4.67-10.34-8.99-16.69-21.23-18.72-34.92-.68-4.6-3.9-8.14-8.23-8.34s-7.5,3.01-8.69,7.23l-3.7,13.19c-4.32,12.37-12.52,23.16-23.74,29.95-20.08,12.14-44.98,11.65-64.38-1.16-13.32-8.8-21.65-21.89-24.92-37.37-1.2-5.69-5.53-9.87-11.15-10.72l-15.52-2.36,2.56,71.73,13.33,1.26c14.57,1.38,25.17,11.25,28.89,25.39,1.88,15.19,15.28,25.44,30.59,22.53,8.93-1.36,15.94-7.37,18.29-16.32l4.08-15.52c4.24-12.2,15.94-14.96,28.36-15.23l38.64-.84,24.5.67c5.44.15,10.49,1.91,15.31,4.44s8.25,6.65,10.39,11.52c1.94,4.44,2.41,8.89,3.26,13.73,2.07,11.82,14.57,19.95,26.12,18.62,9.96-1.15,19.32-8.08,22.17-17.94ZM231.42,452.13c.53-2.08.18-3.4-1.55-3.98l1.55,3.98ZM97.95,456.03c.3-2.03-.18-3.17-1.46-3.95l1.46,3.95ZM241.11,477.5l-1.87-4.92-5.54-12.91c-.28,5.27,2.34,9.25,4.54,13.44l2.87,4.39ZM104.27,473.29l-4.79-12.64c-.37,5.13,2.05,9.28,4.79,12.64ZM64.09,499.85l.53-.31-.08-8.74-.53.31.08,8.74ZM17.17,499c1.11-1.1,1-2.37-.15-3.12l.15,3.12ZM18.74,516.31l-.46-9.97.22-1.74c.04-.3-.57-.59-1.03-.8l.02,12.23.69,2.89c.33-.26.81-.56.78-.85l-.22-1.76ZM431.27,519.07c1.14-1.58.95-3.37.44-4.72l-.44,4.72ZM430.24,552.81l.78-15.87.29-4.63.35-10.49c0-.25.47-.86.3-1.02l-.88-.77-.55,8.4-.66,10.09-.46,20.81.82-6.53ZM409.75,668.95c3.76-.07,4.99-2.9,5.16-6.05l5.15-95.12,2.32-39.46-24.56.88-22.64.77-4.55,103.55,6.84,14.14,9.67,21.74,22.63-.44ZM19.77,561.02l1.05-.28-.44-3.09-.53-16.29-.38-9.43c-.05-1.16-.14-2.37-1.06-2.97l.38,13.52.38,7.83.61,10.7ZM48.97,667.45l11.42-28.63c.98-2.44,2.41-4.73,3.83-6.86l-.21-10.48-3.81-92.53-31.45.29c-1.78.02-3.48.66-5.17,1.39l.43,10.48,3.77,126.2,7.02.46,14.17-.32ZM280.68,566.49c-3.31-4.07-5.85-8.54-7.06-13.69l-2.77-11.82c-1.14-4.85-5.17-7.97-9.99-9.13-5.43-1.31-10.96-2.05-16.72-1.97l-41.55.58-19.99,1.04c-3.98.21-8.41,3.36-9.15,7.39-2.8,15.21-4.96,28.23-20.36,35.45-19.55,9.17-42.79.78-50.16-18.61l-5.09-13.4c-4.42-11.65-16.76-13.57-28.99-13.34l.53,17.54c.08,2.71.91,6.45,4.36,7.02l14.6,2.43c9.51,2.11,14.34,8.75,16.14,17.49,4.62,22.36,24.96,37.55,47.53,37.63,24.18.08,43.37-14.56,48.56-38.12.87-3.96,2.16-7.93,4.54-11.21,2.58-3.56,7.02-6.15,11.51-6.52,8.23-.68,15.47,5.44,16.95,13.44,1.44,7.79,3.71,14.87,8.45,21.45,10.22,14.19,27.08,21.75,44.79,20.65,22.37-1.39,43.03-18.67,46.68-41.62-17.27,14.14-37.79,12.95-52.81-2.67ZM272.58,529.29l.63.96c2.38,3.64,4.61,7.1,6.06,11.17,1.27-10.3-7.91-14.01-6.68-12.13ZM356.73,554.88c3.49-.05,7.35-1.23,9.26-3.84l.79-20.43c-4.67.11-9.15,1.12-13.47,3.22-3.27,2.14-5.48,5.17-6.81,8.91l-5.09,16.15c5.03-2.54,9.79-3.52,15.33-4.02ZM107.21,540.49c-1.11-3.78-3.8-7.43-6.6-9.34,1.21,2.55,2.88,4.77,3.44,7.01l2.61,10.48c3.84-.93-.54-2.38.55-8.15ZM280.49,550.84l-.67-4.51c-.67,1.56-.4,3.18.67,4.51ZM113.8,558.33l-3.25-5c-.11,2.02.76,3.82,1.97,5.11l3.67,3.91-2.39-4.01ZM292.77,566.19c-.85-2.18-3.15-3.03-4.3-4.6l-4.53-6.16c-.31,3.96,2.62,6.31,5.2,8.15l3.64,2.61ZM328.86,696.68c-10.64.2-20.41-2.97-28.29-9.76-13.9-11.98-16.54-31.88-6.16-47.1,8.82-12.93,27.93-18.07,39.82-9.19,6.08,4.54,7.54,12.18,3.81,18.71-2.75,4.8-6.09,9.05-9.84,13.49-2.94-.66-5.06-2.66-6.28-5.33l9.71-13.49c2-2.78-.5-6.59-3.48-7.84-7.22-3.03-15.44-1.41-21.81,3.38-6.91,5.2-10.72,13.54-10.34,22.42.44,10.14,6.9,18.67,15.92,23.07,4.56,2.22,9.9,3.81,14.88,2.79l4.66-.95c1.51-2.47,2.92-5.59,5.06-7.65,5.25-5.07,11.92-7.38,19.08-8.38,3.93-6.3,5.68-13.39,6.05-20.84l1.22-24.55,2.66-61.14c.03-.68-.91-2.2-1.54-2.1l-13.25,2.14c-4.9.79-8.72,4.37-9.78,9.33-2.65,12.32-8.88,23.04-18.74,31.21-8.29,6.87-18.05,11.86-28.89,13.67-17.25,2.88-34.83-2.14-48.18-13.13-10.73-8.83-16.66-20.8-19.07-34.23-.71-3.96-3.59-7.1-7-7.58-3.66-.51-7.82,1.54-8.97,5.3l-5.14,16.87c-4.97,11.37-13.28,20.85-24.23,26.71-21.76,11.65-48.57,8.69-66.88-7.64-9.21-8.2-14.68-18.56-17.31-30.4-1.36-6.14-5.94-10.2-11.98-11.03l-14.59-2,3.38,86.99c.26,6.67,1.42,12.74,4,18.54l10.71,1.26c5.61.66,16.09,6.8,19.03,12.3l3.72,6.97,3.22-.76c6.91-.89,12.16-4.08,16.95-8.98,11.63-11.9,9.33-32.04-5.02-40.69-9.32-5.62-21.77-3.13-23.12,2.35-.46,1.88.24,4.34,1.37,5.84l8.33,10.99c-1.52,2.67-3.66,4.63-6.48,5.82l-8.77-12.08c-3.54-4.88-3.9-11.88-.21-16.73,4.19-5.5,11.03-7.99,18.06-7.76,10.81.35,20.96,6.29,26.32,15.52,8.88,15.3,5.61,33.9-7.77,45.19-3.41,2.88-7.23,5.49-11.46,6.98l-9.66,3.38c2.63,8.38,8.93,14.34,17.33,16.8,4.07,1.19,9.14,1.02,13.54.37,3.78-.55,7.77-2.56,10.59-4.92,4.48-3.74,5.79-9.32,7.25-14.68l3.13-11.54c2.33-6.08,7.81-10.62,14.15-12.06l4.71-1.07,55.73-1.08c7.49-.15,14.68.64,21.67,2.7,20.46,6.03,18.44,26.64,21,31.93,4.93,10.19,16.89,15.77,27.7,13.1,9.53-2.35,18.3-9.66,19.48-19.49ZM230.26,565.64c.41-2.13-.96-2.46-1.87-2.16l1.87,2.16ZM101.58,568.73l-2.49-3.65c-.33,1.28.14,3.36,2.49,3.65ZM110.49,592.97c-.35-2.44-1.47-4.54-3.6-6.37.61,2.5,1.78,4.56,3.6,6.37ZM246.5,598.83l-6.7-9.11c.03,3.73,4.54,7.18,6.51,9.37l.18-.26ZM247.37,598.95l-.39.86,2.31,1.04-1.91-1.9ZM336.9,635.17l-2.41-1.52.78,1.53c.17.33,1.4.21,1.63,0ZM139.28,640.91l-2.19-1.96c.02,1.38,1.14,2.38,2.19,1.96ZM67.9,666.92l-1.71-8.87-1.23-6.63-4.52,11.38-1.37,4.2,8.83-.09ZM377.34,669.55l-7.36-17.58c-1.07,6.76-2.01,11.71-4.12,18.09l11.48-.51ZM109.03,656.51l1.05-.42-3.23-3.06-.16.78,2.35,2.7ZM28.52,695.72l.92,20.95,14.83-37-16.19,1.05.32,12.27c.01.43-.82,1.36-.62,1.65l.74,1.08ZM103.17,681.01c-.43-.52-1.24-1.31-1.63-1.58l1.34,2.15.29-.56ZM406.61,713.52c1.54,3.43,2.39,6.39,4.73,9.57l2.52-42.25-10.42.04-11.06.54,5.81,13.4,8.41,18.71ZM103.74,681.7l-.37.42c.97,1.85,1.78,3.4,3.66,4.46-.12-2.13-1.65-3.83-3.29-4.88ZM116.96,710.71c-.74-2.53-1.27-4.33-3.53-4.86.71,2.16,2.15,4.11,3.53,4.86ZM289.7,716.22l-6.84-6.64c-.48,3.18,3.81,5.78,6.84,6.64ZM110.67,744.44c-1.16-1.37-2.32-2.64-4.05-2.8l6.08,6.67c.3.33,1.56.51,1.65.13.43-1.84-1.92-1.92-3.68-4ZM42.35,799.74c-.76-2.66-1.23-3.15-2.04-4.32l-1.58,1.66,3.62,2.66Z"/>
</svg>