<?xml version="1.0" encoding="UTF-8"?>
<svg id="Layer_1" data-name="Layer 1" xmlns="http://www.w3.org/2000/svg" viewBox="0 0 504.18 532.59">
  <defs>
    <style>
      .cls-1 {
        fill: none;
        stroke: #000;
        stroke-miterlimit: 10;
        stroke-width: 2px;
      }
    </style>
  </defs>
  <path class="cls-1" d="M487.24,182.48c.97,3.88,2.25,15.98-1.44,17.68,2.64-.25,4.01,1.61,4.1,5.59l4.86,4.56c1.82,4.94,2.9,5.48,3.24,1.64-2.63-3.69-3.66-7.12-3.06-10.3,0,0-1.81-1.89-5.44-5.65.74-5.2-.21-10.54-2.85-16l-2.14,1.51c1.03.06,2.54.23,2.73.98Z"/>
  <path class="cls-1" d="M52.1,121.93l9.56-1.33c2.08-7.4,3.26-14.64,4.47-14.86l6.41-1.14c4.15-4.14,8.8-7.4,15.34-7.2,3.11.09,7.01-4.17,9.97-3.09.32-.55,1.68-1.68.35-2.47-5.26-3.14-8.36,2.85-10.37.05-2.22-3.1,8.2-9.8,11.55-10.28,12.63-1.79,14.79-6.23,17.54-5.61.96.22,2.05,2.01,3.26,2.7,3.77,2.14,5.76,4.53,3.86,8.95-1.04,2.43-3.68,5.27-7.47,4.77-.8.51-2.24,1.7-2.81,1.22-.47-.4-1.91-1.72-2.71-1.72-1.27.02-2.91,3.65-2.2,4.86,1.82,2.17,4.91,4.44,7.93,5.22,1.72-.37,4.96-4.91,7.89-3.64,3.28,4.09,2.41,11.94-1.89,15.93-2.13-1.12-2.57-3.76-2.16-6.54-4.51.37-7.58,3.59-7.37,7.51.09,1.74,2.6,3.01,3.78,2.6,1.1-.39,1.81-1.89,2.58-3.37.6-.3,2.39,1.34,2.11,1.93l-1.13,2.36c.72,10.25-5.61,18.57-15.76,20.83.1,7.17,3.49,12.47,10.33,14.3-.76-5.04,8.81-8.83,9.44-8.48,1.86,1.02,1.4,2.87,2.68,4.62l4.43,6.06c1.05,1.44,1.27,3.97,2.73,4.24.87.16,2.37-1.79,2.97-2.46,1.44-1.61,2.07-.18,2.61.34.79.76,1.22,2.9.54,3.2l-3.58,1.57c-.65,2.72,2.72,6.2,5.35,7.32,3.62,1.54,5.91-.18,9.53-2.22l-2.05,5.35c-.48,1.24,7.12,8.09,9.72,4.99,4.91-5.87,11.48-3.44,11.3-7.81l-.21-4.83c.69-.89,4.22-1.37,4.01-2.96-.22-1.71-1.18-3.32-.61-5.94l7.73,9.2c5.73,6.82,13.09,10.65,21.47,14.7,6.36,3.08,6.57,15.7.69,19.19-2.1,1.25-6.22,2.55-4.51,5.48,1.49.67,4.82.92,5.77,2.6l-2.65,10.63c-1.34-.16-2.33-.17-3.46.9,2.32,2.61,2.87,5.27,2.73,9.07,7.45-5.96,4.58-16.33,9.3-24.05,2.33.66,2.33,3.4,2.55,5.17,2.08,1.78,5.27,1.6,7.87,2.4,3.05-3.13,7.08-2.66,10.39-2.43.19-.11.35-.23.52-.35,1.08-1.13.87-4.14-.56-5.96l-4.08-5.24-15.63-.54c-.11-2.78.66-9.47,3.1-10.76,4.86-2.57,6.73,4.74,8.68,7.1,1.82,1.21,5.12.07,5.54,4.68,2.29-3.55,4.72-4.82,4.6-8.69-2.97,1.75-5.05,2.71-7.57,2.03l2.17-9.54,8.82-5.45,17.05-2.81c-.77-2.01-2.12-3.17-3.82-4.26-.29-.12-.54-.26-.77-.4-2.71-1.15-6.42-.15-9.6-1.02-5.34-1.48-9.11-5.93-14.68-6.29,1.67,1.93,4.33,1.85,4.52,5.54l-10.19.85c.79,1.87,1.94,2.64,2.88,3.41l.68.56c1.39-1.21,4.92-2.99,7.07-.67,1.16,1.25-1.75,4.1-3.41,4.32-1.87.25-3.51-.89-4.19-2.93l-1.07-.25c-2.4-.56-3.16-4.13-4.36-5.48-3.3-1.77-7.3-.51-10.49-.34-.79.08-2.19,1.68-2.94.74-.37-.46-2-2.15-2.87-2.15-2.37,2.68-1.45,6.91-1.48,10.63-6.7-6.55-13.14-5.39-15.01-17.01-2.77-5.67-1.07-9.79-8.2-16.87-2.86-2.84-7.11-3.31-11.38-2.18.58-12.13-10.91-14.41-14.15-27.21-.39-.78-.71-1.46-.95-2.04-1.1-1.55-2.87-2.5-4.98-2.97l-11.85-2.65c-1.58-.35-2.77-1.65-2.78-2.56-.05-3.35,6.6-.17,7.2-5.28-.13-.2-.33-.28-.52-.26l-3.99.38c-1.24-2.21-.07-3.24,1.26-3.56,1.8-.44,2.95.29,3.18,1.92.06.41.35.85.98,1.28,4.16.04,3.9-6.07,3.85-8.68,2.88.42,6.26-1.65,7.95-4.65,5.7-10.09,11.54-19.27,19.39-28.28,1.45-1.66,4.31-5.89,4.83-8.03,1.19-4.8,5.42-6.53,7.76-9.45,9.01-11.24,16.18-30.73,27.22-21.45-2.33.92-4.28,1.75-3.84,4.65,3.22-.79,4.73-2.56,7.64-4.24l20.17,12.99c-.98,4.55.8,6.36,3.52,8.62,3.92,3.26,6.66,6.3,12.09,8.04,1.95.62,2.91,4.83,3.78,6.12,3.16.97,5.56,3.15,7.49,6.46,6.29,10.79,13.86,21.3,21.94,30.69-4.09,8.03,6.01,14.42,8.19,26.8l2.69,1.32c1.83-9.02-7.28-14.33-7.77-22.23,2.12-.62,3.6-.93,4.8-1.88-.1-.2-.24-1.44-2.15-1.58,9.28-2.84,18.79-1.77,28.62-2.26l12.31-2.71-1.4-5.54-8.09-16.96,4.7-2.8c1.23-.74-.06-4.64-2.34-4.73-4.56-.18-6.78-2.41-10.31-4.19l-26.83-13.55c-.19,1.97-1.96,1.42-2.91,1.43-2.02.01-2.46-1.3-2.01-2.81-.56-.47-2.23-.05-2.97-.12-.08.5-.32.96-.66,1.38-.45,1.43-.24,2.96.94,3.51l4.96,2.32c-.46,1.35-2.24,3.85-1.24,5.41,1.77,2.79,6.93,2.23,9,6.83-3.04.67-7.88,3.2-8.63,6.75l2.51,3.91c.69,1.07-6.29,1.92-6.05,3.9.09.73,1.08,1.96.36,3.73-5.78-1.8-7.3-8.35-11.05-12.57-2.88-3.23-5.95-4.55-6.9-8.99l-6.24-7.6c4.96-1.86,9.61-2.79,12.08-6.9l-12.89,3.15c-6.8-1.62-13.99-6.81-15.9-13.63l9.56.64c5.28,2.69,9.2,2.12,14.62,4.77,1.12-7.3,9.88-5.31,20.23-2.23,3.15.93,6.38,3.89,10.17,3.09,1.73-.5,3.83-3.55,6.08-3.06,5.58,1.2,12.06,10.47,16.03,6.41,2.67-2.73-2.13-8.38-5.62-7.69-2.03.4-2.87-.86-3.21-1.74-1.47-3.84,12.02-5.09,17.55-1.73,2.58,1.57,7.88,7.18,11.11,3.75,10.2-10.8,13.17-1.59,28.75-5.26l-45.13-15.89-4.67.13c-1.05,0-.73,2-.62,3.89l-12.35-4.96c-4.2-1.69-7.34,2.93-10.36,4.87l-7.31,4.69c-6.52,4.18-14.37-2.53-20.02-6.89-1.18-.91-5.54.6-5.95-2.33-.21-1.53-1.28-3.37-.1-6.2-5.61,1.97-9.77.48-14.63.2-4.1-.23-9.54.56-13.51,2.26l-2.04,3.06c-.74,1.11-3.05-1.12-3.97-2.17-10.76-.49-22,3.48-32.35,7.15-11.83,4.2-22.81,7.88-32.91,15.14l-37.73,19.19-35.8,20.09c-9.31,5.22-15.9,12.61-20.16,22.48l-15.61,36.46c2.51-.46,3.2-4.38,4.87-5.82ZM216.22,170.7l3.74,6.92c-1.64,1.21-2.79-.3-3.92-1.49-1.45-1.52-2.34-3.36.18-5.43ZM206.14,171.16c1.6,2.55,3.7,4.24,7.5,4.4.79,1.22-.42,2.85-1.94,1.67-1.87.32-3.91.75-4.83-.12-1.3-1.23-2.62-3.76-.73-5.96ZM155.41,150.92c2.25-6.92,13.3-5.78,14.89-3.47,1.01,1.46,1.34,4.72.73,7-1.38,5.2-11.41.49-12.59,7.81-2.28-2.1-3.96-3.66-4.59-5.16-.91-2.17.97-4.37,1.56-6.19ZM325,85.93c-3.07.47-5.93,1.61-9.85,1.02,2.04-4.12,4.89-3.69,9.85-1.02Z"/>
  <path class="cls-1" d="M52.66,421.51l1.7,5.92c3.21,4.45,4.87,9.76,6.77,14.62,2.91.93,7.14,1.95,9.69,4.34l4.07-2.38c.79-.46,4.14,1.18,5.29,2.41l-6.15.13c3.6,5.54,5.98,11.12,12.59,14.76,1.8-1.43,5.11-4.63,5.84-7.13.66-5.18-5.08-7.88-9.38-10.38,3.35-5.32,5.21-9.92,3.63-15.92,5.18-.88,8.19,1.89,9.58,5.31-3.32,0-4.68-1.43-6.23-.94.79,3.26,2.18,5.43,3.56,5.99,2.33.96,5.34-.53,6.05-3.46l5.84,1.03c-.86-2.67-1.32-5.49-2.85-7.85-1.45,1.5-3.89,2.92-5.29,2.7-.25-.04-8.35-6.59-7.73-9.93-2.2,1.12-4.55.1-6.86-1.59-1.33-.12-3.73.93-5.39.04-4.54-8.25,4.77-10.92,3.4-14.64l-2.61-7.04c-.4-1.09,2.66-3.4,1.92-4.19-.9-.97-2.65-1.86-1.88-4.42,6.77,6.57,19.56,5.2,15.93,7.64l-2.69,1.8c-1.32,6.36,7.81,5.84,14.53,8.04,1.44.47,2.73.19,3.94,1.62,1.23,1.46,3.47,2.39,5.17,2.93.85-.52,1.37-2.78.66-3.14l-4.83-2.5c-1.01-.52-1.61-1.31-1.99-2.36-.42-1.13-.37-2.51.89-3.19l-3.78-1.31c.06,1.14.08,2.16-.89,3.64-4.36.26-7.65-3.43-7.14-7.42l-8.07-4.2c-4.37-2.27-11.27-2.4-14.74-6.11-4.11-4.4-7.44-5.35-14.85-7.02,3.98-1.42,7.45-2.43,10.79-2.42-.73-2.62-3.58-5.1-3.38-8.27.21-3.25,4.59-7.62,7.39-8.82,1.97,1.53,4.19,5.08,7.07,4.13,1.57-4.07-.33-9.91-3.81-10.27-2.01-.21-6.84,1.9-8.23.68-4.41-3.9-3.43-10.33-3.91-15.08l-6.61-13.08,2.78-17.31c2.45,1.66,4.01,2.78,5.77,2.61-.54-1.88-2.47-3.27-3.8-5.15-1.12-1.58.94-2.64,2.01-2.92,4.87-1.26,1.79-7.86,3.7-15.6,2.27.54,3.62.98,5.77.63.16-4.62,2.48-7.43,6.59-7.85-4.75-3.48-6.27,1.7-8.24,2.86-4.82,2.84-8.44,4.69-8.15,11.1.18,3.88-1.07,8.53-5.29,9.94-1.06-2.89.33-4.29,1.09-6-5.83-3.57-10.61-7.78-13.4-13.31-.8-1.59-3.04-4.23-5.19-5.57.97,8.54,8.96,12.32,13.75,18.52,2.76,3.57,1.16,20.1-3.47,24.22-2.5,2.22-4.77.71-8.47.56-1.88-.08-4.83,2.18-6.91.04-1.21-1.24-2.99-3.09-3.02-6.19,4.54.52,6.11-1.45,6.07-4.52-.08-6.54-7.63-5.54-7.9-7.25l-.8-5.19-8.46-17.37c6.16-13.25-1.1-18.61,6.37-25.25,2.08-1.85,1.78-6.39,2.71-8.75,1.14-2.9,4.48-3.18,6.49-3.23l-9.79-4.94c-4.34-2.19-6.52-6.86-11.4-8.59-.44,3.11.7,4.67,2.84,7.62-2.46-.17-3.92-.13-5.26,1.85-2.94-4.49,2.6-11.72-5.96-15.16-.01.02-.02.04-.03.06,1.23,3.92-.57,5.51-1.1,7.37-2.52,8.72-2.04,17.92-3.14,27.38l-.91,7.85c1.54,1.15,2.94,3.92,5.32,4.26l2.18-2.21c.62-.63,1.37,2.49,1.76,3.89l10.79,39.26c1.48,1.4,5.95,4.51,3.52,6.36-2.61,1.98-6.57-1.23-8.64-3.21l3.39,9.76c2.1-2.95,3.58-3.82,6.5-2.48,1.71.79,3.35,1.74,1.19,4.58,1.47,1.61,5.59,5.04,4.37,7.69-.95.59-4.24.11-5.38.47-1.29.41-1.96,3.22-2.66,4.9-3.05-.78-6.04-1.4-9.62.77l-5.96-16.54c-3.28-9.1-4.44-22.21-2.56-31.77-2.12-1.92-5.81-4.58-5.47-7.71-5.65,28.08-2.35,49.54,11.55,75.87l20.89,39.59c9.02,4.24,8.79,14.34,16.59,21.38Z"/>
  <path class="cls-1" d="M180.73,514.89c-2.08-.68-5.86-.9-5.71-2.91l.43-5.63c.06-.81-2.37-2.05-1.14-3.03.97-.77,1.86-.81,3.98-.99,1.13-.61,1.02-4.58,4.69-4.03-.21,2.06.51,4.64,2.06,4.94,2.58.5,4.77-7.48,17.5-4.6l1.71,8.68c1.01.48,3.16-.14,4.01-1.65-1.6-1.42-2.53-3.31-2.46-5.45l12.62-.1,11.23-.21c5.85-.11,10.86-.88,15.98,4.16,1.89-3.01,2.78-5.27,5.03-7.04,1.05-2.76,5.55-.2,9.26-3.51,1.89-1.69.68-4.11.92-6.19.89-7.49,14.03-1.35,21.83-12.9l3.84-5.74c-4.01-3.25-5.48,1.41-10.87,2.27l1.84,3.76-8.68-1.09c-1.29-.16-2.77-1.78-4.07-3.51-3.24,4.03-7.2,8.12-12.69,9.29-1.63.35-3.23-2.94-3.67-3.87-1.78,1.86-5.44-2.39-4.07-3.15l17.38-9.73,3.44-8.23c-.07-1.02.05-1.81-.55-2.35-1.77-1.58-6.58,2.06-11.35,6.27.23,1.2,1.5,3.55.79,4.2-4.31,3.97-14.47-1.68-20.43-8.17-2.57-2.8.89-7.02.27-8.9-1.58-3.42-2.46-6.68-3.59-9.79l-3.4-9.39c-1.24-3.44-2.43-6.21-3.83-8.83l-1.83-.1,6.36,19.16c2.23,6.72,4.42,14.64,1.6,21.37-2.15,1.99-7.34,1.54-9.7,1.78-.71,2.72-.25,4.59.39,6.9l-13.63,9.77c-8.01,5.74-17.79,4.79-21.99-2.08l9.79,1.84,1.17-1.44c-5.84-.46-9.55-2.79-12.69-8.03-1.13-1.89-5.12-2.92-5.08-4.92.07-3.57.74-5.59,3.76-9.16-6.09-.39-7.85-3.52-9.29-8.37-.84-2.82-2.87-5.9-.8-8.3-1.17-.32-3.32.74-3.99,1.14,1.09,7.32,2.32,13.62,8.54,20.52-3.94.27-6.04-.19-8.75,1.62,1.48,1.86,3.83,1.6,5.3,1.84l8.7,9.72c-6.83,2.32-12.69-.61-19.16-1.38l-17.34-2.05c-3.69-.44-6.97-.84-9.43-4.71-1.65.58-4.56,1.48-6.42,1.21-10.13-7.01-18.85-14.81-27.01-24.58,4.68-.35,7.58,1.65,9.84-.96-1.89-.89-3.77-2.08-5.81-2.44-.06,1.61-1.26,2.08-3.61,1.42-4.01,4.96-8.35,5.13-12.98.81-.96,1.78-1.49,3.49-1.6,5.15,11.11,2.97,8.29,19.91-.58,20.45-5.12.31-11.72-10.05-14.06-14.22-4.73-1.42-8.83-3.58-12.33-6.5-6.46-15.37-14.55-29.63-24.29-42.77l11.93,21.72,17.01,32.18c3.09,5.84,7.88,9.64,13.49,13.25l40.39,26.03c17.48,11.26,43.23,23.07,63.26,27.29l23.07,4.87,1.62-2.14-26.11-8.44ZM253.16,488.55c-.35-3.29-3.07-4.91-5.26-6.87,3.64-1.05,5.27.06,6.78,3.74.6,1.46,4.76,1.54,4.83,5.59l-17.45,1.66c-10.14.97-18.83.91-27.49-2.11l38.58-2.01ZM215.93,474c14.73-10.48,28.48-4.71,26.63.08-1.14,2.96-3.67,4.94-1.24,9.15l-11.23,5.26-20.11,1.3c-2.08-1.26-4.09-3.72-5.9-6.24,2.75-4.75,7.64-6.56,11.84-9.55ZM167.64,502.19c-.33-.28-1.62-.77-1.34-2.21.27-1.39,3.26.78,3.14,1.58-.16,1.05-1.43.95-1.8.63Z"/>
  <path class="cls-1" d="M394.09,84.48c-1.34,2.41-7.86,1.68-9.37-1.54,1.94-.64,3.5-.85,4.5-2.14.83-1.08.49-3.2-.63-4.25-3.75-3.53-10.17,7.64-17.98,5.42-2.14-.61-2.19-4.76-1.56-6.6.65-1.87,3.05-2.17,5.58-2.93l-6.49-3.35c-2.56-1.32-2.48-4.74-1.69-7.86,1.26.96,2.26,1.97,3.11,2.11.8.13,2.62-1.58,3.77-2.26,3.23,2.93,6.71,7.1,11.76,5.83-1.9-9.35-9.77-10.17-17.8-8.67-3.34.39-5.33-7.19-7.91-8.65-9.74-5.5-21.67-2.6-30.53,2.68,12.4,10.07,28.12,12.45,15.39,17.52-1.71,2.18.34,7.18-.79,9.95-2.34,5.7-10.43,6.86-14.82,3.32,2.5,2.5,2.66,4.06.46,4.65l22.55-2.51c4.48-.5,7.98,1.1,8.63,6.21.71,5.54-1.64,12.03-4.83,16.24l-2.05,15.24c-11.15,2.33-22.26,2.27-33.7,1.97-1.56-.04-2.5.55-2.78,1.47,3.74.29,7.25-.64,10.97.56-2.08.93-3.44,1.23-4.27,2.57.35.03,1.02-.12,1.34-.21,3.4-1.01,6.6-.39,11-.49,5.63-.13,13.8-3.61,18.98-.1l12.52,8.5c4.91,3.33.63,11.12,1.46,15.04l1.32,6.29c.49,2.33-3.18,2.02-4.66,2.92-8.57,5.23-17.67,5.65-26.78,8.73l-9.41,3.19-27.03,8.19c-2.55-1.46-5.69-3.85-9.51-2.8l-13.01,3.59-.49,3.6c1.34-.32,3.56.37,5.34-.49,13.89-6.66,18.96,4.13,30.87,6.74,1.51-.59,4.01-2.53,5.96-2.11,1.94.42,1.66,2.65,2.54,3.45l6.04,5.48-3.76-6.65c-.7-1.24-1.03-5.5-3.51-4.58-6.98,2.58-12.6,1.09-16.45-5.69,9.51-.6,19.03-7.54,29.2-5.09l8.99,6.57c3.97-1.63,4.27-6.32,1.56-10.08,2.76-1.67,5.92-2.68,9.28-3.06,3.98-.45,6.59,2.24,7.05,6.1.62,5.2,3.09,9.39,4.11,14.42l2.48,12.27c2.1,3.74,3.3,10.41-.77,12.93.36,1.92.25,3.61-.26,5.35,4.39-2.07,2.69-5,4.09-6.77,2.22,4.32,2.03,7.24,2.12,11.45-1.88,1.25-4.11,1.53-6.03,4.07,2.4,1.83,5.88.14,6.53-1.53,3.16-8.17,1.2-14.57-.84-22.12l-6-22.29c-1.22-4.53-4.38-10.6-4.28-15.52.78-2.91,8.45-6.11,11.19-4.72,2.94,1.49,5.27,5.55,9.15,5.63,5.11.1,8.63,3.57,12.65,5.54,3.24,1.58,4.78,2.15,7.52,5.11l8.83,9.56c4.78,5.17,5.04,13.05,6.42,20.21,4.18,6.06,10.93,8.2,7.54,11.75-2.26,2.36-5.35-3.65-10.06,1.42.12,2.31,4.49,3.28,5.48,4.8,1.28,5.85,5.27,9.71,11.5,11.14l1.38,8.11c4.3.56,6.71,3.32,6.67,7.49l-6.78.4,4.57,2.32c-4.13.62-7.14,1.18-7.99,4.18,5.51-1.72,10.88,3.04,11.25-1.01.07-.77,1.09-1.24,1.64-.94,4.14,2.27-5.65,5.9-10.43,16.41l7.84.43c-.76-2.2-1.18-3.59-.94-4.62.35-1.5,6.27-4.26,6.91-4.2,1.34.12,2.76,1.45,3.62,3.23,2.08-1.16.22-3.16.16-4.1-.03-2.4,2.95-2.28,4.21-2.42,1.9-.21,4.06-.05,4.51,2.74.27,1.64,1.02,3.5,2.15,3.98,3.53,1.48,9.5-8.35,10.66-13.56l4.89-21.99c.39-1.76,1.5-3.57,2.9-3.55,1.52.02,2.85.7,4.6,1.91l-.63-8.2c-.09-1.2-.48-2.24-1.31-2.59-2.88-1.2-1.56,6.01-6.81,4.64.35,5.53-2.19,9.69-3.41,14.73-2.15,8.92-3.94,21.86-8.53,22.89-.83.19-2.09-.17-2.79-1.34-3.6-6.02-9.42-.69-11.41-6.57-.65-1.94.51-2.11,2.27-4.06,1.72-5.23-7.37-8.34-8.75-19.4-.1-.43-.18-.82-.25-1.2-1.01-3.62-4.31-6.24-6.33-9.1l-13.36-18.98-4.01-12.84c-2.8-3.38-8.56-4.51-8.61-9.78,5.07-5.32,12.22-7.67,18.52-10.7,13.37-6.43,13.79,3.22,21.5,1.48-3.81-3.39-8.34-5.22-12.78-6.45l-11.28,1.49c-2.89-1.22-2.08-6.38-1.72-8.64-2,3.81-5.96,7.46-10.59,8.94-2.03-.74-4.77-2.85-7.68-2.67-.06-2.47.96-6.68,3.67-7.34,3.37-.82,6.17-.68,8.19-2.95-2.25-.08-2.7-2.31-4.49-3.73l-6.78-5.37c1.74-2.07,1.3-7.66-.74-8-9.14,4.52,4.75,13.75,1.6,19.1-1,1.71-5.92,4.06-4.19,7.2,2.49,4.54,7.97,6.86,13.18,8.07-1.8,3.35-4.29,4.79-8.05,5.69-3.65-11.34-26.31-9.61-33.08-20.16-3.73-5.81.18-14.83-.75-21.15-2.74-18.48-19.65-34.65-9.99-37.35,1.38,1.18,2.35,5.09,4.94,4.81,1.8-.2,4.5.27,5.43-2.27l3.68-10.08c4.23.08,4.54,4.25,6.17,5.62,3.04,1.01,9.31-.28,11.11-2.44,1.26-3.86.28-8.63,2.74-11.99,2.07,1.63,2.42,3.67,3.39,5.3,8.1,1.7,13.77,5.95,19.7,10.85,4.42,3.65,8.24,6.4,8.72,12.76.12,1.63,2.28,3.73,3.55,3.25,1.3-.5,2.39-1.01,4.29-2.62,10.73,9.49,20.89,20.48,26.17,34.28l7.57,29.52,4.39,12.97c1.93,5.69,4.3,10.64,4.75,16.17.68.42,1.36.82,2.58.95l.38-6.66-1.29-18.66c-.95.49-1.52-.55-1.52-1.98v-13.36s3.17,1.26,3.17,1.26c-2.59-5.14-5.39-10.28-8.62-15.66l-7.56-12.6v2.34c.01.55-1.02.25-1.34,0l-2.13-1.59c-3.47-7.65-9.73-13.92-14.9-20.66-4.6-6-9.79-11.68-16.01-15.82.21-2.91-.07-5.74-1.26-7.66-1.51-2.43-4.69-4.58-7.59-3.32l-1.69,2.84c-1.25,2.09-8.92-8.09-16.96-9.33-3.57-.55-4.85-2.42-6.01-4.88-.9-.64-2.55-1.34-3.43-2.66-.77-1.16-.65-2.48.65-3.51.28-.77-.34-2.5-1.04-3.05-4.09-3.23-5.92-8.84-5.71-14.67,2.15.96,4.98,1.86,5.75,3.73l2.9,7.09c.44,1.07,1.41,1.46,2.24,2.44l8.33,9.43,16.57,5.46c3.56,1.18,5.98,3.43,9.74,1.24-5.8-9.57-16.66-15.8-25.34-22.5-3.36,3.29-12.33-7.15-24.58-10.17-1.23-7.83-6.48-11.88-3.06-12.55-3.81-3.4-7.9-6.16-12.23-8.7,14.06,14.17,10.27,23.59,13.2,28.44,4.39,7.26,13.66,13.14,7.99,23.35ZM369.84,134.09c-5.2-1.56-11.65-5.42-14.59-9.62-.91-5.24,1-11.94,2.96-17.4,4.92,6.58,9.68,17.17,11.62,27.02Z"/>
  <path class="cls-1" d="M497.06,225.6c-1.3.1-2.72,1.52-4.31,2.86-1.47-4.55.53-12.57-3.83-16.43-7.38-6.52-16.72,7.51-24.27,5.15-6.81-2.13-5.3-10.76-7.59-9.91-2.41.89-4.33,22.37-5.81,23.32-1.13.73-2.73.32-4.49-.17-.77-.22-1.35.17-1.75.79-.19.73-.44,1.7-.75,2.91,2.36.66,3.98,2.78,4.89,6.36,6.26,6.08,7.77,11.81,4.53,17.19,4.8.14,8.41,1.87,10.82,5.19,4.45-11.13,7.73-22.67,9.86-34.62,2.64-1.73,4.83-4.02,6.58-6.87,9.13-3.02,10.17,18.08.26,13.5l-6.38,26.5c-3.8,8.82-12.67,20.02-17.12,5.72l-2.91.14c1,5.25-3.39,7.55-6.78,3.34-3.83.7-5.3,2.84-4.4,6.41l-2.61,2.21c-10.27.41-11.19-4.47-2.74-14.62-9.41-.46-11.77-4.63-3.2-9.37l-6.47-4.52c1.13-.64,2.82-2.21,2.41-2.69l-2.77-3.22c-.31-4.25-3.34-6.16-7.25-7.69-1.84-.72-2.99-5.94-6.53-3.84-.09-3.46-1.12-5.7-2.9-8.39,1.41-1.96,4.02-1.23,5.27-1.59-1.38-5.15,3.61-5.33,7.71-4.02-6.84-5.44-10.17-13.11-9.96-23.02l-1.65-6.34-.15,10.88c-4.04.86-6.56,3.05-8.01,5.9-1.85,3.6.58,6.37.95,10.41l1.22,13.41c.26,2.86,3.6,3.76,2.15,7.49-2.41,6.22.31,12.49,5.78,15.62.9-1.21,1.95-2.2,2.68-2.36,1.48-.31,2.73,1.26,2.99,2.21.33,1.2-.11,3.27-1.43,4.25l-3.41,2.55c-2.59,1.93,2.64,5.48,4.1,9.5,2.98-3.08,5.78-7.1,10.58-7.5l-10.91,12.27c1.62,2.65,3.12,5.23,5.64,6.85,2.67,1.71,6.19.44,7.97-2.42,2.41,1.87,1.51,5.39,2.33,7.37l3.61,8.73c3.32-.72,5.57.9,5.75,3.2.18,2.23-1.41,4.01-4.84,4.46l2.85,5.92c-4.98,2.21-1.79,9.12-2.44,12.48-1.3,6.67-.33,10.62,3.26,15.66,1.65,2.32.76,8.84,5.38,10.18,5.43,1.58,3.33-11.3,8.78-23.09l-.43-9.36c5.07-12.45-4.98-16.78-2.86-19.68,1.81-2.47,8.45,1.49,12.85-5.11,1.06-1.59,3.07-2.97,3.95-2.16,3.7,3.42-3.24,9.62,4.15,18.03,1.91,2.18,1.79,7.05,7.06,7.17-1.04-4.79-1.46-8.84.59-12.74,5.85,1.1,10.15-.54,12.52-5.1l4.42-33.29,1.68-20.91c.6-7.43-1.99-15.34-4.63-15.13ZM467.79,244.79c-.36.99-2.08,2.25-2.72,2.06-2.67-.81-3.3-6.29.93-14.24l6.03-11.33.14,11.33-4.37,12.18Z"/>
  <path class="cls-1" d="M489.96,302.61c-5.43-.67-7.13,2.46-5.1,9.41-8.01,9.82-18.14-13.46-15.09-21.12-2.74,4.37-7.15,5.92-12.11,5.64l2.94,6.15c.52,14.68-1.52,29.25-6.11,43.7-1.84,2.85-4.03,3.98-6.78,2.93,1.38.92,2.35,2.23,3.09,3.78-8.71,7.41-14.41,9.8-25.23,7.72,3.97-.77,3.41-3.94,4.05-5.52,4.24-3.24,11.9-5.23,17.22-1.9l-2.53-5.36c.71.11,1.34.3,1.93.52-1.62-1.32-7.76-14.73-8.35-17.21-1.53-6.39.19-17.45,1.38-23.87-2.33-3.58-1.37-6.51,2.89-8.79-5.82-2.49-7.11-5.45-6.75-12.34l-1.44,3.22,2.16,16.95c.63,4.9-.12,8.33-1.17,13.05l.44,13.32c.08,2.41,2.98,8.05-.63,9.41-4.16.14-8.52-.77-13.16.32-5.98,1.4-22.08-5.15-25.66-1.2-3.26,3.59,14.29,1.29,26.66,4.96l-12.35,11.88,3.8,4.62c5.24-2.05,5.14-8.45,10.78-8.8.81-.05,2.61.65,1.5,2.47-2.31,1.14-8.04,2.88-8.36,6.43-.32,3.6,4.65,7.07,6.77,8.97,1.08-2.33,1.34-4.48,1.17-8.02,5.45,2.52,10.27-1.19,13.4,3.53,2.79,4.2.71,21.08-12.37,22.61-2.69,6.62-3.52,12.74-2.37,19.24,6.64-4.6,16.19,4.15,20.67-11.19l9.86-4.84c.62-.3,1.38-1.23,1.97-1.17.52.06.97,1.11.91,1.69,4.46-4.39,7.85-9.98,14.05-12.7.77.52.73,1.45.79,2.05,6.27-9.42,12.74-17.78,14.44-29.73l8.32-58.45c-.76,4.24-2.64,6.79-5.63,7.67Z"/>
  <path class="cls-1" d="M20.18,190.89c2.26.09,7.27,2.24,6.68,4.56-.73,2.86-1.89,4.31-.76,8.46-1.76-1.69-4.64-2.2-4.99-1.05-.55,1.87-.31,3.4-.83,3.79-.51.39-2.43-.23-3.38-.23-1.11,5.51,2.52,11.63,8.61,13.54.19,5.01,3.24,7.2,7.04,8.29,8.14,5.8,14.48,11.15,20.98,18.93.51-2.54-1.78-2.96-2.05-6.48l7.97,4.2c.7-1.42,1.72-2.05,1.49-4.74-2.82,1.4-4.22.79-5.68-.1-1.85-1.12-3.02-2.56-1.82-4.55,3.08,1.44,4.01-1.43,5.19-1.14,1.3.32,4.43,2.14,4.86,3.49,1.24,3.87,6.22,3.62,8.38,4.83,5.06,2.81,9.82,3.49,14.78,5.65l27.28,11.85c4.74,2.06,8.79,2.16,13.52-1.99l6.35,10.29c1.01,1.64,1.93,2.62,3.57,1.96-.16-.07-.25-.15-.29-.26-.81-2.18-2.45-4-4.49-6.1-.64-1.18.98-2.98,2.69-2.01,2.1,1.19,2.37,4.87,2.4,6.97l1.05,1.34.4.09c-.81-2.25.25-3.27,1.42-4.67,1.75-2.11,1.67-9.23-1.58-9.61-4.54-.53-7.9-1.95-9.06-6.43l6.88,4.44c.3-.23.62-.59.86-1.12-1.24-1.21-2.86-2.1-3.75-4.21,1.26-2.07,1.43-4.59-.17-5.85-1.2,1.21-4.86,1.6-6.11.45-1.68-1.56-1.13-3.5-.83-5.78.41-3.11-2.7-5.3-3.59-7.43l-1.18-.18,1.02,10.5c1.44.71,1.38,2.39,1.6,3.82l.14.91c.93,1.36,1.2,3.04,1.03,4.73l1.3,2.31,2.11,1.46c1.17.81-.77,2.32-1.45,1.33l-.83-1.21-4.18-1.89c-5.01,4.71-11.61,1.62-17.12-.53l-24.92-9.7-13.37-6.35c-5.41-2.57-11.34-3.77-15.84-8.71.67-.31,2.62-2.07,2.15-3.22-1.94-1.69-6.74-3.37-8.84-2.43-2.59,1.15-4.06,1.11-5.02-1.79-.9-2.71,1.02-3.3,2.42-5.42l7.46-11.25c3.01-4.54,4.02-9.6,9.56-12.94,1.36-.82,2.46-4.16,2.34-5.57-.12-1.41-1.9-3.85-4.06-4.29-2.19-.45-3.49,3.43-4.61,5.01-5.18,1.39-11.69,4.6-17.28,4.44-.79-5.57,5.16-7.61,6.16-11.43l5.28-20.27,4.5-.1c.83-.02,5.26-6.46,4.46-7.3-1.21-1.28-2.58-1.97-5.01-3.06,4.95-4.11,5.08-8.86,3.41-14.76-.67-2.37,2.61-7.7,4.96-8.77,2.13-.97,5.37,1.33,6.7,3.21,8.91-4.03,11.09-14.55,19.26-11.96,1.6.51,3.2,1.53,4.94.92.99-.34,1.55-1.52,2.33-2.58-3.29.44-6.43-1.61-7.09-5.27,3.93.99,5.93-.33,8.6-1.27l3.69-12.34c-3.56,4.22-8.73,6.42-15.51,6.61-4.71,3.6-9.63,6.07-14.75,7.39-.98,4.76-2.36,9.34-4.14,13.72-3.35.2-6.67.98-9.96,2.34-1.97,4.76-4.06,5.88-6.27,3.37l-26.57,54.07c.3,2.95-1.35,5.31-.48,9.08Z"/>
  <path class="cls-1" d="M354,30.14c-5.67-1.54-10.68-1.37-15.01.53-5.18,6.21-11.8,5.82-19.85-1.19-9.55-1.74-11-.99-4.32,2.25,7.52,17.07-9.4,10.46-17.4,3.65-3.1,2.86-6.43,3.8-10.01,2.82-9.2-5.42-17.88-6.47-26.04-3.16,6.27,7.58,10.44,2.89,15.54,3.39.82-3.63,2.02-3.47,2.97.12,1.28,1.17,3.6.72,4.92,1.38l2.24-1.84,31.17,16.02c7.92.79,13.33,7.16,4.94,12.06l6.14,13.22-1.62,2.77,3.15-.77c3.7,1.99,8.63,1.12,10.27-3.01-1.32-6.29.26-10.39,4.73-12.3l-17.29-10.7c-4.42-5.95,4.59-8.58,9.6-10.04,11.68-3.41,23.46-1.31,28.97,10.32,4.98-1.21,10.5-.96,15.12,1.63-.68-8.08-3.94-15.14-9.52-21l.23-3.61-10.45-6.12c-.76,3.09-3.58,4.28-8.46,3.57Z"/>
  <path class="cls-1" d="M327.66,82.17c.29.32.6.62.94.89-.28-.28-.59-.58-.94-.89Z"/>
  <path class="cls-1" d="M350.88,497.45c.43-.88,1.04-2.1.37-3.58-7.01,2.87-15.12,1.93-21.84-1.69,1.8-2.39,3.72-2.16,4.69-2.89,1.26-.94-1.07-4.97-2.68-4.68-2.61,2.33-5.66,4.43-9.53,2.02-8.13-5.08-14.85,4.77-25.28-2.73-4.35,5.94,9.34,10.26,5.14,11.61-2.91.94-5.13-8-21.53-1.01-5.09,2.17-11.61.83-16.32,5.33-1.24,2.23-1.22,5.9-3.28,7.73-3.37-2.09-1.38-5.65-.58-8.1-1.1-3.54-6.74-2.63-9.42-2.42.82,10.39-6.12,9.26-13.69,5.56l-26.8.24c.97,5.71-3.07,9.35-7.94,5.56-.72-7.15-3.8-9.47-9.25-6.95-5.09,4.59-8.98,5.18-11.67,1.77-2.98.95-4.16,3.64-3.56,8.07l25.28,8.09c2.52.82,3.8,2.13,3.83,3.93,1.08.05,2.19.41,4.14-.24-5.27-5.88-11.33-6.56-6.11-10.27,8.99,9.5,16.31,17.68,29.8,14.55l2.76-3.64c2.67.63,7.47,2.06,10.19.65,4.25-4.23,8.14-7.35,15.03-6.13.27-2.74.01-4.57,1.45-7.02,2.01,1.67,2.25,3.85,3.43,4.28,1.92.72,4.11-.91,5.75-1.4l28.65-8.63c3.78-1.14,7.57-3.71,11.83-3.87.68-1.65-1.09-3.55-2.6-5.01,4.47-1.67,8.11,2.26,11.63,2.09l14.28-.71c2.01-.1,3.52-.24,5.35.66,1.32.65,2.45,2.18,2.25,4.06l7.32-4.27c-1.01.14-1.26-.65-1.1-.98Z"/>
  <path class="cls-1" d="M502.99,205.94c-.04-6.97-4.12-13.23-7.15-19.27l-9.67-19.25c-1.26,1.03-1.43,2.58-.51,4.65-2.22,2.01-2.75,6.91-1.14,9.42-.21-3.01-.54-6.3,1.85-8.8l7.15,18.66c-1.23,1.12-1.83,2.08-1.72,2.89.51,3.9,5.33,4.48,5.82,6.91.18.91-1.2,3.42-.57,4.12,1.8,1.97,4.32,4.92,3.39,7.97-.71,2.33-1.5,4.83-5.59,5.07-.39-5.6-3.59-8.69-7.52-10.95.2-2.43-1.12-4.8-1.46-6.67l1.02,7.48c-.32.11-.63.21-.93.28,4.75.61,8.63,9.58,8.76,14.45,8.67-.96,8.41,11.41,6.97,17.82.67-.4,1.5-1.42,1.49-2.8l-.19-32Z"/>
  <path class="cls-1" d="M484.22,208.63c.49.06,1.09,0,1.75-.17-.57-.07-1.16-.02-1.75.17Z"/>
  <path class="cls-1" d="M445.02,231.22c.29-1.13.44-1.71.44-1.71l-.87-1.2c-.97.71-1.01,2.26-.56,4.62.11.39.2.79.25,1.2-.04-.78.19-2.06.75-2.91Z"/>
  <path class="cls-1" d="M371.28,482.25c-5.78-1.06-9.03,5.39-17.05,5.52-.25-6.34,10.07-6.48,9.29-8.88-.22-.68-1.86-1.63-2.24-1.27l-2.08,1.98-10.63-5.26c-2.01,1.23-4.46,5.15-6.88,4.08l-6.95-3.07c-4.32-1.91-9.53-.05-13.7-.15.8-1.95.99-3.14.67-3.72-.38-.67-2.11-.97-2.99-1.3l-2.47-.93c-.55-.21-.69-2.64-.16-2.69,4.11-.21,7.36-1.94,8.86-5.46-4.79.91-5.79-4.46-8.53-4.38-3,.08-3.75,7.46-8.35,5.3-3.97-1.87-8.65-1.71-10.63,2.89,2.75,1.06,4.43,1.11,6.12,3.08-2.8,1.66-4.59.32-6.84.17.79,3.06,2.56,2.98,5.02,4.01-3.22,3.94-7.88,2.55-12.74,3.38-1.56.78-.5,5.09.57,6.44-4.02.77-6.1.69-9.92.09l4.46-4.83c.54-.59.51-1.59.54-2.03.02-.36-.08-.61-.26-.79-.55.09-1.14.1-1.75,0l.63,1.52c-4.31,6.08-10.77,9.63-19.38,10.64.11,5.94-1.26,9.15-4.11,9.65.79.3,1.53.71,2.21,1.24,9.54-3.99,21.44-8.01,31.91-8.11-1.45-3.02-.97-5.9,2.19-7.48l8.82,2.28c7.37-2.25,14.16-1.95,20.36.88,5.82-3.55,10.61-3.29,11.26,1.4,2.33-2.57,9.05-2.82,9-.25-.06,3.71-7.07,5.35-9.16,3.69-.12.65-.27,1.33-.49,2.06,5.18,1.06,10.47,1.06,15.89-.01,2.33,1.84,2.4,4,.19,6.47l21.25-11.95c-1.77-.22-2-1.72-1.95-4.22Z"/>
  <path class="cls-1" d="M251.72,496.64c1.93-.63,3.98-.77,6.17-.41.69.12,1.32.12,1.9.02-2.25-.84-4.93-.71-8.07.39Z"/>
  <path class="cls-1" d="M322.74,501.35c-4.79-1.91-7.24-1.34-7.36,1.72-14.83,5.53-29.89,10.55-45.17,15.06-3.54-.71-5.59-.15-6.15,1.68-6.3.69-12.02,3.23-17.18,7.6-4.81-.86-8.11-.46-9.9,1.19-8.32,1.36-17.05-.36-24.4-4.47-1.23,1.1-3.3,1.29-4.62.51.07.62-1.05.8-2.73.83,13.31,2.81,26.2,6.05,40.04,4.85l14.88.09,18.36-.32c.81-1.65,2.72-1.28,4.23-1.08,1.54.21,3.46.35,5.01.11-.78-.06-3.05-2.25-2.25-2.98,3-2.7,5.79-6.99,9.71-8.51l21.2-8.21c3.74-1.45,6.31-2.74,10.32-4.48l4.26-1.84c2-.86,3.9.73,3.67,3.59,2.83-1.81,7.14-2.32,10.02-4-6.43-2.47-13.73-2.92-21.93-1.35ZM263.32,526.21c-.96.82-1.07,1.06-1.54,1.25-1.25.53-2.85-1.02-1.47-2.41.39-.4,1.76-.56,2.87-.24.74.21.82.81.13,1.39ZM268.16,522.43c3.88-3.89,9.1-3.49,14.04-1.58-4.97,2.01-8.95,2.42-14.04,1.58Z"/>
  <path class="cls-1" d="M207.95,524.65c-.03-.31-.37-.74-1.11-1.31.2.58.61,1.02,1.11,1.31Z"/>
  <path class="cls-1" d="M4.84,281.63c0,.87-.63,1.34-1.2,1.19l.12,1.18c2.89,1.81,5.44,4.37,7.66,7.68-3.33,5.94,3.87,42.98,7.49,44.77,2.6,1.28,7.8.29,8.65-2.91,4.64-.75,5.25-2.26,1.85-4.53-.03-3.29-.75-4.85-2.17-4.7-8.98,7.18-14.21-17.05-1.72-8.41-1.75-1.19-2.9-2.69-3.44-4.51l-10.47-38.1c-3.89.5-6.12-1.72-6.7-6.65l-.05,2.97v12.02Z"/>
  <path class="cls-1" d="M423.38,441.13c-4.11,2.7-9.3,3.04-13.91,7.52l.59-8.9c-3.67,2.56-5.79,6.51-9.21,9.67l-9.18,8.5c1.07.75,2.15,1.84,2.21,2.48.06.66-1.06,1.84-2.04,2.54l-18.2,12.96c.03,2.34-.14,5.3-2.34,6.36,3.04.97,2.94,1.52,1.95,4.22l29.73-17.85c14.2-8.53,24.87-19.15,33.86-32.27-6.07-2.15-9.21,1.99-13.45,4.78Z"/>
  <path class="cls-1" d="M461.12,394.37l-3.12-.6-12.51,12.32c-1.68,1.65-3.86,4.09-4.58,5.74-1.27,2.89-3.77,2.9-5.68,4.25-7.44,5.22-13.34,12.77-19.71,19.87l-5.45,3.8c2.74-.14,2.79,1.17,2.48,3.44,6.39-2.88,12.59-6.14,18.61-9.78,3.16-.63,5.69-.71,5.68,2.95l20.66-30.16,15.34-23.07-2.04-.06-9.67,11.31Z"/>
  <path class="cls-1" d="M10.05,224.04s-.02-.06-.03-.09c.02,0,.04.02.06.03,1.3-2.57,3.68-2.49,7.07,3.25,4.91,1.05,9.26,3.78,13.04,8.17l9.13,4.66.33,3.14,17,10.82c.51-.18,1.16-.04,1.64.11.68-.49,1.52-1.14,2.29-1.18,3.25-2.86,6.69-6.7,4.98-11.15l-3.14,3.68c-1.04,1.21-1.87,0-2.98-.58l-5.93,3.66-2.41-.77c-7.19-7.9-15.31-14.4-24.37-19.5-2.4-4.26-3.6-6.4-3.6-6.4-11.09-5.56-11.89-17.71-.07-22.49,2.1-3.57.63-5.83-4.42-6.8l2.01-10.8-7.7,23.15c-1.41,4.23-.05,7.45-.72,11.8-.69,4.47-5.92,9.23-3.31,14.64-.08-3,.29-5.71,1.1-7.37Z"/>
  <path class="cls-1" d="M257.79,3.98c.21,4.62.37,5.6,5.36,6.09,12.37,11.75,18.67,8,30.11-1.89,4.86-1.77,10.09-.96,15.69,2.43,2.55-.93,5.34-.9,8.38.08l-19.64-7.2c-11.96-4.39-25.31-1.72-37.82-1.32l-15.96.5c-1.41.04-2.4.54-2.6,1.42,2.69-.48,15.34-1.21,16.48-.11Z"/>
  <path class="cls-1" d="M437.48,89.77c-3.68.9-20.86-4.9-24.79-6.77l-.89-3.09-4.82,1.14-3.51-10.58c-2.96,1.74-3.8.66-2.24-2.44l-1.71.17c-.35.16-.66.4-.85.74-.06.11-.11.24-.15.37-.05.56-.13,1.41-.23,2.57,3.51-2.03,4.83,1.5,1.04,3.05,1.51,1.81,2.48,3.89,2.78,6.17,3.74,1.28,7.72,2.67,11.95,4.16l9.23,6.53c7.92-6.04,15.52,1.47,15.05,10.31,12.87,9.78,22.06,23.92,29.9,37.72l1.77-.66-31.89-52.56c.33,1.18.3,2.94-.62,3.16Z"/>
  <path class="cls-1" d="M331.94,505.48c-11.85,5.38-23.92,10.32-36.22,14.82-2.94,1.56-7.28,5.7-7.84,8.8,14.22-2.44,27.01-9.78,39.52-17.77l7.25-4.63c-1.53.11-2.43-.29-2.7-1.22Z"/>
  <path class="cls-1" d="M412.76,64.11l-15.96-12.31-11.67-10.41c1.37,2.76,3.24,6.26,5.61,10.5,7.37,4.11,14.71,8.18,22.02,12.22Z"/>
  <path class="cls-1" d="M245.26,530.33c4.57,1.68,10.24,1.66,14.88.09-4.9.77-9.97.78-14.88-.09Z"/>
  <path class="cls-1" d="M3.64,282.82c.26-4.34.67-8.75,1.21-13.21-2.23,3.93-1.63,8.88-1.21,13.21Z"/>
  <path class="cls-1" d="M282.72,529.02l-4.23,1.08c1.53-.03,3.02.07,4.23-1.08Z"/>
  <path class="cls-1" d="M182.11,140.63c-2.78-1.55-5.1-2.12-6.33-5.59l4.61-1.65c2.81-1,6.16-.49,9.41-2.29,1.39.61.8,3.56-.22,3.84l-3.58,1c1.42,2.54,5.13,1.41,6.9,2.58,3.11,2.48,6.43,6.72,9.48,6.64,5.84-3.01,11.86,1.26,16.83,3.09l10.76,3.98c3.12,1.15,6.52,1.02,9.46,3.97,1.96,1.97,5.92,0,6.9-2.37,3.42-8.25,15.92-24.71,20.75-26.24,1.38-.43,1.25-3.82-.19-5.21,2.85.85,4.93.18,7.87.48l8.14.84c-2.8-4.28-2.63-6.77,1.22-8.55,1.96-.9,3.7-1.03,5.25.41-3.81-4.86-7.04-10.4-9.66-16.63-.83-2.62-1.92-6.32.33-8.08-8.91-9.67-16.61-20.26-23.11-31.76-2.64-1.78-3.97-3.78-3.98-5.98-.34.11-.66.18-.96.2-2.44.91-4.08,4.67-5.99,5.49-7.08,3.05-13.53,5.04-17.61,12.05-2.36-1.34-6.75-1.95-7.85.09-1.09,2.02,4.07,4.51,5.78,4.73.6,6.7-3.5-2.14-10.43-2.92l2.58,4.52c-3.59.43-5.64-1.63-9.13-2.77-4.92,2.38-12.05,5.85-15.56,8.7l-.22,3.78c-.02.39-.98.71-1.77.79-.73.07-1.95-3.3-2.62-2.99-3.15,1.42-6.18,5.36-10.46,5.32l1.67,6.42c-2.63-.57-4.61-.99-5.84-.5-1.95.77-2.08,3.42-3.61,6.15-1.53-.75.03-2.32-.95-4.32-3.78,1.41-5.62,3.56-8.27,5.29,1.95,2.39,3.28,4.25,2.79,7.31l-8.02-2.99c.85,2.7,3.3,3.81,1.73,4.34-1.81.61-4.49-.92-6.08-1.16-.08.78-.43,1.64-1.07,2.58,2.57.63,4.55,2.82,5.94,6.58,5.27,5.18,8.87,11.01,10.8,17.48,4.01-.36,10.16.59,8.79,5.33,1.79-.35,3.7.52,5.54-2Z"/>
  <path class="cls-1" d="M120.4,227.07c.13.68.16,1.36.1,2,.01.03.02.07.04.1.21.39,1,.75,1.5.89.41-.71.8-.61,1.18.18-.61-1.46-1.15-2.7-2.82-3.17Z"/>
  <path class="cls-1" d="M181.64,168.63l.09-2.54c-.21.88-.24,1.72-.09,2.54Z"/>
  <path class="cls-1" d="M188.65,175.38l1.28.68c-2.58-1.77-5.11-3.64-7.61-5.61,1.05,1.84,3.15,3.49,6.34,4.93Z"/>
  <path class="cls-1" d="M137.2,249.09c1.87,1.26,2.68,2.77,2.43,4.54,4.84,1.36,6.93,10.52,2.43,11.97,2.17.26,4.02,2.71,5.65,3.1l13.38,3.19,11.21-2.14c8.48.93,15.67-4.29,18.38-12.05l6.98-11.07,1.4-12.73c.15-1.36.14-3.25,1.83-3.76.85-.26,2.08.25,2.98.69l7.6,3.72c3.16,1.55,6.93-2.83,7.65-5.4l-3.83-1.66c-1.34-.58-.65-2.6.32-2.79.72-.14,3.16-.67,3.35-1.46-.33-2.44-3.91-3.75-6.15-5.36,10.4-.88,16.81.17,19.09-8.13-5.54,4.12-14.92,7.27-20.47.99-.62,4.66-3.81,24.16-11.69,18.07-.49-.38-3.44-11.12-1.37-11.5,2.26-1.71,3.52-4.46,3.79-8.23-8.19-2.37-7.39-6.95,2.38-13.73,2.55-6.86.17-11.7-6.15-14.21.84,4.78-2.77,6.27-7.38,5.53-8.16,2.69-16.36.95-24.63-5.25-4.46,3.27-6.82,6.73-7.07,10.39-2.12,5.18-5.67,4.38-10.67-2.39-2.99,7.02-5.49,8.54-10.83,4.32.87,2.12-2.71,6.26-8.52,9.74,7.6-22.93-1.29-22.91-.74-20.67l.79,3.19c-1.98,5.75-.12,14.89-3.08,20.13-2.94,5.21-4.9,7.81-6.8,13.65l-4.03,12.45,4.98-5.18c1.15-6.8,4.6-13.91,10.34-18.55,1.01,1.26.88,2.3,1,2.84l.82-.79c-.37-1.63.62-4.16,1.85-4.88.91-.53,3.72,1.03,4.34,2l8.75,13.66c1.89,2.95-1.39,10.57,2.08,14.08,8.36,8.47,25.18-1.72,23.59,8.4l-16.08.83c-9.98-3.59-18.18-6.86-23.33-1.66,3.43-1.17,4.57.86,3.44,6.07ZM163.56,191.89c9.03.93,14.53-5.22,18.87-2.41,1.67,1.08,3.84,3.46,3.93,6.31-10.74-8.64-17.5,3.75-22.8-3.9Z"/>
  <path class="cls-1" d="M189.92,176.06c2.36,1.62,4.75,3.17,7.17,4.63.44.14.87.3,1.28.46-.04-.22-.07-.43-.13-.66l-8.32-4.43Z"/>
  <path class="cls-1" d="M181.59,169.89c.24.19.48.37.72.56-.33-.59-.56-1.19-.68-1.82l-.04,1.26Z"/>
  <path class="cls-1" d="M135.52,103.36c4.76.81,9.41,2.05,13.93,3.74.75.33,1.34.71,1.77,1.13.68-.05,1.58.01,2.77.18,1.93-2.36,3.6-3.91,6.29-2.34-1.03-4.32,1.37-7.67,7.2-10.04,5.95-.63,9.16-3.04,9.64-7.23,4.43-3.01,8.88-5.01,13.35-5.99,3.36-2.83,13.33-9.98,17.26-10.42,2.61-.29,4.07-.07,6.41,1.24,2.81-4.65,7.82-7.37,13.66-6.63,4.66-5,10.41-8.55,17.24-10.66,1.57-2.38,3-3.85,4.28-4.43-.4-.6-.72-1.4-.98-2.39-7.21-3.11-17.42-9.33-17.75-17.94l-17.08-11c-5.26,4.52-12.53,4.16-9.11-3.4l-4.73,2c-6.6,9.43-13.73,18.42-21.4,26.95-3.88,8.32-9.08,16.06-15.61,23.24-4.48,9.53-10.34,17.07-17.59,22.64-.09,4.26-3.03,10.18-6.48,5.47-.21-.06-.68-.09-.92.25,3.28,2.49,1.38,4.55-2.15,5.63Z"/>
  <path class="cls-1" d="M152.11,110.66c.1-.93-.19-1.74-.89-2.43-1.77.12-1.92,1.02-1.12,2.97.42.59.75,1.27.95,2.04-.63-2.29-.05-2.75,1.07-2.58Z"/>
  <path class="cls-1" d="M249.31,51.9c.68,1.04,1.57,1.51,2.67,1.42.31-.12.63-.19.96-.2-1.05-1.44-2.26-1.84-3.64-1.21Z"/>
  <path class="cls-1" d="M203.15,161.29c1.46-.1,4.07-2.16,6.01-.71-2.49-2.63-5.25-3.22-9.04-4.03.59-2.35.62-3.83.1-6.02,4.45-.53,9.31-1.19,12.74,1.48l9.99,7.74c.5-3.83-2.5-4.44-4.07-6.92,8.62,5.19,14.18-.43,17.05,8.15,2.6-2.18,3.82-3.16,6.69-2.87-.11-.17-.21-.36-.31-.58-3.2.98-6.12.14-8.77-2.51-9.31-2.74-18.56-5.47-27.76-8.19-5.15,1.63-9.89-.38-14.21-6.04-2.7-.12-5.03-.92-7.01-2.41,1.31-4.82-4.73-2.14-4.23-1.69,4.72,4.32,4.14,7.71,1,7.7,3.89,3.5,5.79,11.28,3.45,15.12,6.05-1.3,12.22.31,18.37,1.79Z"/>
  <path class="cls-1" d="M261.5,186.29c1.37,1.59,3.35,3.06,6.41,2.33l11.39-2.71c-3.97-.28-2.74-2.84.49-3.6l-2.86-.17c-.78,1.21-3.1,1.88-4.36,1.16-1.16-.66-.88-2.94-.76-3.69-3.33-1.36-5.39-2.56-4.79-5.37,1.1-5.16,3.26-3.92,7.1-4.93,4.93-1.3,11.28-1.1,12.06,4.97l6.7-4.39.84-3.59c.18-.77,1.92-.93,3.09-.86.71-1.74.63-4.32-1.24-5.05-1.79-.7-3.81-.95-6.55-1.04,2.1-4.02,7.47-2.81,10.18-3.04,3.14-4.21-1.02-9.09-4.67-11.29-3.6-2.17-2.65-7.74-3.54-11.76,2.74.55,6.48-1.25,9.17-2.43,9.11,5.16,18.07-1.74,23.4-1.34-.86-.62-.84-1.19-.41-1.65-3.13.62-6.94.85-6.3-1.48-3.95-.31-10.03,1.86-13.75-.83l-9.87-7.12c-1.83,3.24-3.38,2.26-2.69-1.32-2.63-.22-4.91.28-6.85,1.48,2.51,6.66-1.71,8.97-12.66,6.94l-1.22,2.92c-9.7,7.06-16.54,17.32-21.91,27.88-1.79,1.89-3.86,4.05-5.28,1.88l-.88,4.25,7.54-.22c-.56-1.38-.34-3.24.94-3.69l3.86-1.36c-.67-2.83-.56-6.02,2.18-7.97,3.76-2.69,5.79-6.46,8.61-10,2.39-3,5.79-4.74,7.64-8.67l22.69-2.34c-2.67,3.36-7.53,1.26-9.37,4.29-1.33,2.19,1.53,7.1,1.01,9.39-1.3,4.57-1.64,9.33,2.13,13.04-4.01,3.21-7.29,3.49-11.84,3.61-9.2.24-17.75,4.91-25.27,6.21l-1.2,5.27c3.39-2.87,6.4.62,3.82,4.26l5.36,2.79c-1.68,3.93-1.27,5.89,1.63,9.26Z"/>
  <path class="cls-1" d="M176.58,142.63c1.87,1.22,3.51,1.75,4.75,1.75-1.37-1.24-2.99-1.94-4.75-1.75Z"/>
  <path class="cls-1" d="M290.57,117.06c-.38-.62-.78-1.11-1.2-1.49.39.5.79,1.01,1.2,1.49Z"/>
  <path class="cls-1" d="M288.8,98.89l5.58,9.96c1.99,3.81,2.43,6.5,1.31,8.08,5.71,5.89,12.04,8.16,19,6.77l1.05,1.27c-.61-1.3.46-2.24,2.69-2.65,10.92.44,21.77-.09,32.54-1.57l1.57-11.64,2.87-1.45-.06-5.27-10.96-10.28-6.26-.19-12.72.58c-1.95.09-2.72,3.7-3.47,6.04-1.53-4.47-5.52-5.5-10.44-5.26l-21.21,1.01c.89,1.48.4,3.02-1.48,4.61ZM348.2,99.99c1.01-.27,1.25,3.14.17,3.54-.41.15-1.23-.84-1.51-1.15-.45-.49-.42-1.91,1.35-2.39Z"/>
  <path class="cls-1" d="M295.69,116.92c-.07-.08-.15-.14-.22-.22-1.06.06-1.77.65-2.21,1.68,1.12-.26,1.93-.75,2.43-1.46Z"/>
  <path class="cls-1" d="M316.88,126.33l-1.13-1.36c.2.42.56.88,1.13,1.36Z"/>
  <path class="cls-1" d="M237.74,200.26c9.4,5.07,13.25-5.14,16.47-4.28,3.24.87,5.93,2.57,8.62,4.18-3.91,4.79,3.76,13.22,7.28,13.62,2.2.25,3.63-1.17,6.39-2.51,2.48-.04,4.84,4.41,9.25,3.3l-6.87-10.42-11.64-13.19c-.23-.26-.31-.56-.32-.87-3.63,3.81-10.1-3.63-10.66-8.75-.34-2.32-.92-4.69-1.75-7.11l-.99,2.86c-3.97-.67-27.41,4.73-23.56,11.59,9.78-1.93,6.61,5.7,2.37,11.06.4.38.76.78,1.08,1.19-.3-1.38.09-2.74,1.47-3.13,1.69.62,1.61,4.91.85,6.19-.43-.2-.8-.49-1.13-.83.73,2.24.14,4.56-2.2,6.23-.15.16-.32.28-.52.35,3.82-.77,5.27-4.53,5.86-9.5Z"/>
  <path class="cls-1" d="M258.51,48.46c5.53,7.39,11.07,14.86,16.61,22.43,3.78-1.6,5.22-4.54,4.3-8.83,3.78-3.46,5.67-5.19,5.67-5.19-4.66-2.27-8.28-4.04-6.71-10.05-2.93-1.08-5.01-3.27-5.04-5.19-2.19.75-4.81.77-6.22-.25.1,1.82-2.31,4.38-8.61,7.08Z"/>
  <path class="cls-1" d="M266.13,39.55c-.1,0-.19.01-.29.02.11.06.22.13.31.2,0-.07-.02-.14-.03-.22Z"/>
  <path class="cls-1" d="M253.13,40.67c2.9-1.25,5.65-1.85,7.93-1.95-.75-.69-.8-1.85.29-3.68l-2.51,1.78c-12.14-4.4-27.48-7.16-5.71,3.84Z"/>
  <path class="cls-1" d="M273.33,41.63c1.19-.41,2.24-1.03,2.89-1.81.15-.48.38-.96.66-1.38-2.55.57-3.58,1.81-3.56,3.19Z"/>
  <path class="cls-1" d="M265.84,39.57c-1.07-.62-2.73-.93-4.78-.84.87.81,2.68.98,4.78.84Z"/>
  <path class="cls-1" d="M267.12,41.38c-.03-.64-.37-1.18-.96-1.61.09.69.44,1.23.96,1.61Z"/>
  <path class="cls-1" d="M239.23,161.7c-2.68,2.01-5.28,1.03-7.8-2.93-3.66-1.51-6.09-.9-7.27,1.8l-3.51.75c-.82-2.85-19.76-13.4-17.48-6.83,16.76,6.79-.42,11.52-10.06,7.43-2.14.26-3.93.12-5.4-.4,1,1.13,1.85,2.67,2.52,4.62l6.07,4.34c1.69-6.53,4.68-8.3,8.97-5.31,4.12-1.46,13.23-1.93,14.68,1.48.93-.79,2.56-1.27,4.91-1.07-1.61-6.69,2-5.84,6.58-4.46l9.53,4.86c3.39-.32,5.9-.04,7.53.82.3-1.07,1.51-1.97,3.41-2.09.21-.94-1.58-2.55-2.57-2.52.23,4.57-8.86,3.59-10.09-.5Z"/>
  <path class="cls-1" d="M221.93,173.1l.93-1.03c-.99-.29-1.78-.69-2.39-1.16l1.46,2.19Z"/>
  <path class="cls-1" d="M248.49,166.81c-.27.94.17,2,1.44,2.77.27.11.53.24.77.4-.19-1.43-.93-2.48-2.21-3.17Z"/>
  <path class="cls-1" d="M187.71,161.52c-.86-.97-1.83-1.66-2.93-2.02.75.94,1.74,1.6,2.93,2.02Z"/>
  <path class="cls-1" d="M242.62,158.1s.03.04.05.07v-.06s-.03,0-.05,0Z"/>
  <path class="cls-1" d="M318.38,92.5c.96.1,1.9.2,2.8.32.38-.31.85-.62,1.39-.91-1.17.31-2.2.51-2.75.56-.49.01-.96.02-1.43.03Z"/>
  <path class="cls-1" d="M327.48,90.1c4.27-1.01,9.1-.94,10.64,1.8,6.01-4.08,18.38,1.52,18.98,5.91.25,1.83-.51,3.27-1.75,4.56,1.05-.04,1.46.59,1.26,1.89,1.96-6.37,3.38-15.98-3.81-16.51-7.66.83-15.22,1.36-22.68,1.61l-1.06-1.66c.59.82-.21,1.66-1.58,2.39Z"/>
  <path class="cls-1" d="M327.48,90.1c-1.85.44-3.59,1.08-4.91,1.81,1.63-.43,3.55-1.07,4.91-1.81Z"/>
  <path class="cls-1" d="M318.38,92.5c-8.67-.89-19.37-1-27.54.61-.25.05-.42.54-.56,1.16l.65-1.15s9.15-.21,27.45-.62Z"/>
  <path class="cls-1" d="M355.41,107.66c.66-1.41,1.06-2.53,1.19-3.38-.4,1.29-.82,2.46-1.19,3.38Z"/>
  <path class="cls-1" d="M279.86,38.56c.33,2.25,3.26,2.36,4.92,1.38-1.93.94-4,.68-4.92-1.38Z"/>
  <path class="cls-1" d="M74.27,306.68c2.65,4.81,2.6,10.55,2,15.45.46-.07,1.21.44,1.64.65,2.59,1.26,4.32,3.8,3.92,6.93l14.56,9.36c4.78,3.07,22.14,7.93,29.32,7.71,2.87-.09,5.83-.66,8.2,1.26,1.29,1.05,2.75,2.3,5.6,2.94,1.1-4.69,1.3-9.42,4.78-12.02l.57-5.24c7.63,1.24,16.03-.54,14.09,1.89-1.5,1.88-10.61-1.52-13.27,3.31l-4.21,14.62c.36,4.29,3.3,8.61,1.6,13.18,1.75,1.66,2.92,5.15,1.99,7.23-1.87-.25-2.98.77-2.79,1.48l1.13,4.17c.83,3.06.56,6.25,1.86,8.88.23.33.45.68.65,1.08,1.17,1.6,2.17,5.87,5.39,5.9,5.58.05,9.65,2.28,14.68,4.27,3.36,1.13,7.74-1.65,11.25-1.98,15.64,14.61,24.59,5.37,25.64,5.2l27.78-4.4c3.21-.51,6.76-6.35,5.69-8.8-3.23-1.63-6.56-2.6-7.96-5.38-1.27-2.52-.71-5.06-.72-8.3,0-2.32-2.93-4.27-3.68-5.8-.18-.37-.52-.7-1.08-.59-2.05-2.65,1.13-5.89,2.97-7.33,6.31-4.94,9.62,4.16,17.62.1.78,2.44-3.12,4.65-5.12,3.31-3.24-2.17-5.52-3.4-8.75-2.26-2.8.99-5.8,1.39-5.33,5.18l.66.79c9.61,4.68,1.8,11.13,7.09,14.04,5,2.76,7.07-4.11,19.59-4.88,6.29-6.43,13.57-10.65,21.63-13.07,1.16-1.51,2.74-1.34,5.68-1.87-3.07-1.71-4.74-6.97-1.51-8.23,1.94-.76,6.78,1.52,8.06-.04,3.61-4.43,1.98-10.23-.57-13.86l-16.79-5.52c-.62.12-2.88.5-3.83-.15-6.3-4.33-14.05-4.79-20.6-7.66-4.69-2.06-7.88-2.33-13.04-3.4l-25.07-5.2-17.5-8.44-24.71-8.68c.56,4.79,6.16,6.79,6.1,10.37-.03,1.7-1.03,5.47-3.14,4.62l-2.6-1.06c-.46-.19-.9,1.54-.49,1.61s2.31,1.43,2.32,1.91c-5.4,11.31-21.78-.39-23.65,12.42-4.7-7.47-9.36-6.41-15.82-7.55l-11.75-6.33c-.13-2.55-.24-5.85-3.21-7.94,1.19-.84,2.58-.61,3.54-.25.82,3.19,2.45,4.93,5.13,5.16,2.56.23,6.21-1.14,5.42-4.39l-10.48-4.73c-6.63,3.62-19.88.35-20.87-5.88,4.81,3.31,9.86,4.06,15.95,4.06l-.98-7.37c-.91-.95-3.33-2.42-3.07-4.17.19-1.31,2.03-2.65,4.29-3.57l-4.31-7.46c-1.16-2-1.68-3.1-3.23-3.19-1.72-.1-2.61.68-2.73,1.81.12.56.22,1.13.31,1.7.41,2.55.07,5.18,1.89,7.45,2.2,2.74,1.48,7.45.8,10.66-3.92-2.16-1.78-5.86-2.38-7.83l-3.76-12.4-6.71-7.62c-4.43-5.03-11.27-6.44-16.64-9.96-5.15-3.37-9.59-6.62-15-8.4-.22,2.46-1.24,2.35-1.64-.11-2.72.98-4.29-1.81-8.58-1.28,2.02,4.97,3.66,8.55,4.09,13.93l4.55,8.55c-.07,4-5.13,6.35-8.23,7.95,2.9.33,5.49,2.28,7.77,5.83l7.14,5.35c-.26-4.54.39-7.7,3.52-11.15,1.92-2.11,11.19-8.8,13.66-8.34,5.77,1.08,3.07,5.65-1.05,7.99-1.35,4.53-2.09,6.44-7.33,6.59.11,2.7.15,15.02-4.05,13.16-.63-.28-1.19-.72-1.73-1.21-.06.69-.14,1.22-.23,1.64.72,2.29,6.9,1.48,8.09,3.64Z"/>
  <path class="cls-1" d="M35.77,247.1c-.67,5.53-2.43,9.07-5.95,13.39.29,7-.65,13.6-2.81,19.81,3.98,6.87,6.95,13.95,8.9,21.24,8.81,1.89,11.24,11.64,2.96,16.18.42,1.83,12.1,1.36,12.6.92.75-.64,1.15-1.26,1.62-2.14,6.81-12.47,1.27-21.7-8.69-29.68-2.78-4.31-6.84-12.4,1.87-10.32,1.13.27,2.62,1.96,3.11,3.65.87-1.34,2.38-2.72,4.51-4.14-2.12-3.4-8.78-21.63-7.54-23.98.28-.54.69-.95,1.18-1.17-2.69-1.23-5.27-2.7-7.73-4.42l-.14-3.24c-.23,1.73-1.53,3.03-3.89,3.89Z"/>
  <path class="cls-1" d="M49.38,280.16c-.67,1.03-.97,2.03-.9,3.01,1.09-.69,1.24-1.85.9-3.01Z"/>
  <path class="cls-1" d="M47.54,250.87c2.91,1.34,5.95,2.39,9.13,3.15l-8.89-3.26c-.08.02-.16.07-.23.1Z"/>
  <path class="cls-1" d="M96.56,418.66c3.58.35,6.85,3.23,9.45,5.03,3.91,2.7,6.88,6.19,8.68,11.3,1.84,4.41,5.72,7.13,10.53,5.27,1.77,4.76,5.7,5.62,10.69,5.13.05,3.27.5,6.17,2.72,7.4,2.01,1.11,4.31.99,7.44.7,1.41.11,3.17,2.87,5.25,3.95,6.1-5.5,14.41-6.95,14.43-11.62,0-1.97-2.19-2.97-4.01-3.44-.65,1.57-1.96,3.13-1.83,5.32-2.01-1.22-2.02-3.34-2.4-4.71-5.82-3.1-6.88-8.56-9.06-14.02l-4.55-11.4c-.93-2.33-6.25-3.65-7.61-.15,1.01,1.55,3.66,2.83,3.66,5.33-4.73-1.86-7.87-8.14-7.32-13.03,2.02-.72,4.49-1.41,5.01-3.07-1.78-1.16-3.53-1.43-5.28-.46.28,1.4-.54,1.99-1.88,1.86-1.31-.13-1.28-1.31-1.91-1.64l-7.83-3.97c-2.22.57-3.75-.53-5.69-1.12l-5.22-1.6c1.71,1.68,2.37,3.36,1.11,5.55,7.59-.85,16.08,1.81,17.57,10.51-5.26,2.21-10.36-1.28-13.39-4.87-2.97,3.24-6.48,1.24-5.17-2.93-6.94-.61-11.59,3.88-13.36,10.68Z"/>
  <path class="cls-1" d="M161.73,442.37c.5-2.34.18-5.2,2.5-6.85-3.56-5.03-7.21-10.92-13.68-12.83-.97,5.95,3.16,17.61,11.18,19.68Z"/>
  <path class="cls-1" d="M94.78,420.24l10.94,4.91c.15-.4.14-.84.29-1.46-3.19-.61-7.32-2.64-9.45-5.03-3.4-.33-6.39-1.43-8.3-5.94-1.23-2.9,6.78-6.68,16.63-6.41l-11.59-.49c-3.99-1.73-5.17-4.88-4.29-9.09-7.63-3.61-9.46-.74-5.51,8.61-6,9.05-6.03,12.82-.07,11.32,2.58.89,4.65,2.25,6.2,4.06,1.36-.69,2.92-1.45,5.15-.49Z"/>
  <path class="cls-1" d="M140.25,405.3c-1.28-.34-2.55-.59-3.81-.75.49.56.91,1.28,1.18,2.1.73-.2,2.09-.42,2.63-1.34Z"/>
  <path class="cls-1" d="M130.57,404.45c-1.3-.39-2.58-.8-3.88-1.21,1.28.91,2.16,2.08,1.85,3.16,1.09,0,2.88.29,3.79-.22.04-.8.2-1.4.41-1.85-.73,0-1.46.05-2.18.12Z"/>
  <path class="cls-1" d="M115.02,401.31c2.18-.43,3.87.2,5.69,1.12.21-.42.62-.65,1.14-.74-11.44-3.76-22.65-8.08-33.64-12.96,3.15,1.57,6.38,3.01,9.72,4.28l.06,1.6,8.03,3.78c.52-2.52,4.23-1.09,3.78,1.31.71-2.51,5.42-.91,5.22,1.6Z"/>
  <path class="cls-1" d="M75.65,381.34c-1.83-2.08-3.35-4.24-4.53-6.47l-.75,2.61c1.72,1.35,3.49,2.62,5.28,3.86Z"/>
  <path class="cls-1" d="M78.48,384.26c3.22,1.55,6.47,3.03,9.74,4.48-4.37-2.18-8.56-4.65-12.56-7.4.87.99,1.81,1.97,2.82,2.92Z"/>
  <path class="cls-1" d="M132.75,404.34c1.23-.02,2.46.05,3.69.21-1.24-1.43-2.92-1.83-3.69-.21Z"/>
  <path class="cls-1" d="M121.85,401.7c1.61.53,3.22,1.05,4.84,1.55-1.5-1.07-3.53-1.77-4.84-1.55Z"/>
  <path class="cls-1" d="M114.05,438.79l-8.33-13.64c-1.94,2.33-8.45-.27-12.2-1.98,1.62,1.34,3.11,3.02,4.49,5.06,4.9-5.72,11.61,3.08,8.07,7.04,2.57-2.18,4.69-.47,5.25,2.98.37,1.08,2.69,1.3,2.73.53Z"/>
  <path class="cls-1" d="M92.12,422.52c.4.19.88.41,1.41.66-1.23-1.02-2.52-1.84-3.89-2.45.68.83,1.54,1.34,2.49,1.79Z"/>
  <path class="cls-1" d="M107.36,407.3c-.56-.25-1.02-.57-1.39-.94-1.14.47-2.3.94-3.46,1.4,1.59-.47,3.26-.65,4.85-.46Z"/>
  <path class="cls-1" d="M100.31,408.63c-3.05,1.19-6.16,2.36-9.33,3.49,2.11,2.19,3.97,4.37,5.57,6.54-3.1-3.93-.41-7.97,3.76-10.03Z"/>
  <path class="cls-1" d="M109.91,407.98c-.8-.36-1.66-.57-2.55-.68.7.32,1.55.55,2.55.68Z"/>
  <path class="cls-1" d="M100.31,408.63c.74-.29,1.47-.57,2.2-.86-.76.23-1.5.52-2.2.86Z"/>
  <path class="cls-1" d="M117.87,410.14c.05.02.11.04.16.07,11.21,6.47,6.54,1.59.4-2.01.49.7.4,1.4-.56,1.94Z"/>
  <path class="cls-1" d="M115.08,410.91c1.31-.17,2.21-.44,2.79-.77-.87-.37-1.94.15-2.79.77Z"/>
  <path class="cls-1" d="M110.91,405.26c2.04.1,4.91,1.41,7.53,2.94-1.01-1.44-4.44-2.89-7.53-2.94Z"/>
  <path class="cls-1" d="M74.89,319.69c-.79,1.64-2.28,2.84-4.86,3.38l6.23-.94c-.79-.47-1.25-1.29-1.38-2.44Z"/>
  <path class="cls-1" d="M73.7,308.45c.34.51.64,1.1.9,1.76l-.27-1.59c-.22-.06-.42-.11-.63-.17Z"/>
  <path class="cls-1" d="M69.25,307.49c.14-.17.29-.32.43-.44-.26-.12-.51-.24-.74-.36.16.27.27.54.3.8Z"/>
  <path class="cls-1" d="M65.68,304.02c.2.11.39.22.57.33-.11-.22-.2-.44-.25-.67-.09.22-.2.33-.32.34Z"/>
  <path class="cls-1" d="M66,303.68c.07-.16.13-.38.18-.64-.13-.43-.08-.96.23-1.64-.45.8-.58,1.56-.42,2.28Z"/>
  <path class="cls-1" d="M66.25,304.35c.44.84,1.34,1.62,2.7,2.34-.44-.74-1.34-1.51-2.7-2.34Z"/>
  <path class="cls-1" d="M69.25,307.49c-.39.47-.74,1.12-1.05,1.98.81-.62,1.15-1.28,1.05-1.98Z"/>
  <path class="cls-1" d="M69.68,307.05c1.1.5,2.44.97,4.02,1.4-1.17-1.78-2.72-2.49-4.02-1.4Z"/>
  <path class="cls-1" d="M75.31,312.79c-.16-.93-.4-1.8-.7-2.58l.87,5.11c-.52,1.78-.71,3.24-.59,4.37.88-1.84.87-4.24.42-6.91Z"/>
  <path class="cls-1" d="M97.99,394.63c.98,3,6.49,7.41,8.03,3.78-2.85,1.78-5.52.52-8.03-3.78Z"/>
  <path class="cls-1" d="M273.62,437.61c6.91-6.48,10.33-14.37,8.79-24.13,5.67-.37,9.23-3.1,13.67-5.3l44.59-22.07c.8.05,1.45.13,1.95.23,1.2.06,2.47-.1,3.14-.96,1.06-1.36-.51-4.22-.41-5.53,1.78-3.19,6.33-5.87,6.53-11.05-3.09,2.01-4.26,2.64-6.48,1.92-2.69-.87-3.79-2.53-3.92-6.02-5.99-.46-10.91-1.83-15.68-5.84l-6.25,6.45c-3.54-1.82-6.28-2.53-10.98-2.71,3.16-2.92,6.79-3.06,9.92.47l5.05-6.66c-5.1-5.54-11.69-7.6-18.58-9.47l-20.06-5.43c10.18,5.31,5.29,20.16-6.65,16.5,2.73,3.94,1.88,6.33-2.52,7.19,2.05-.07,4.39-.02,6.77-1.78-.91,5.42-4.72,3.28-7.4,4.08-15.25,4.55-20.51,15.64-30.89,15.34-2.81-.08-3.6,2.19-4.5,3.47.04,1.36-.31,5.56.96,6.42,3.16,1.83,3.85,2.86,3.7,6.04-.15,3.07-.41,6.5-4.2,6.82-3.77,3.94,5.78,3.66,11.38,9.28,2.22,2.23,3.35,5.07,5.92,6.49,2.23,1.24,2.32,5.44,4.95,6.73l4.9,2.4c1.31.64.89,3.92.46,5.33-.59,1.94-3.08,2.42-4.44,1.63l-4-2.32c-3.62-.63-6.38-2.39-8.74-4.18-1.29,0-4.21.77-5.5-.41-.75-.69-.28-2.25-1.52-4.36-4.1,3.93-7.65,8.08-13.34,9.51,3.11.93,5.15,3.98,6.12,9.14-4.38,9.87,6.33,14.96,14.58,16.36-.86-4.24,2.84-7.66,6.41-9.57,5.03-2.69,10.46-4.85,7.76,2.82l5.63-9.38,2.9-7.44ZM305.63,382.85l-.05,3.14c-.02,1.6,9.61,3.04,5.85,7.35-3.45,3.96-11.96.33-14.83-3.47-.39-2.78-.42-4.52.73-5.34,2-1.43,5.67-2.29,8.29-1.68ZM282.43,361.98l14.86-8.62-10.99,9.2c-.51.43-1.27,1.52-1.74,1.44-.46-.08-1.35-.44-2.13-2.02Z"/>
  <path class="cls-1" d="M427.34,377.69c-.19.84-1.68.85-2.61-.21-.41,3.28-3.15,3.3-6.24,4.51-3.15,1.24-8.14,4.09-10.37.06l-.74-4.36c-.29-1.7-2.71-1.19-3.7-.67-3.58,1.9.84,5.4-2.46,11.18l-9.88,17.35c-16.67-4.89-18.58,8.98-28.89,11.11-2.05-6.53-1.52-10.78,3.4-16.14-6.91-1.51-4.32,7.68-14.58,19.23-2.71,3.04-11.65,3.46-14.29.45-1.81-2.07-1.86-5.18-5.03-5.02-1.48.07-3.32,1.26-6.34,2.54,4.44,8.02,6.85,10.69.17,18.39-5.43,4.61-12.08-1.04-16.24-1.27l-23.24,4.6c-1.75.35-4.81,3.48-7.8-.21-.03.01-.05.02-.08.03.84,5.2.35,8.3-3.09,10.87-.75.56-2.63-1.61-2.42-2.89-3.92,3.37-5.03,9.15-7.84,13.66.63,1.24,2.19,2.01,2.98,2.34l-16.15,7.01c-2.62,1.14-4.29,2.57-3.57,5.28,3.44,1.32,6.5.73,9.2-1.77,4.44-5.74,8.28-6.68,11.53-2.8,1.99-.48,4.04.26,5.45,1.13.21-.32.58-.68,1.09-1.13-.34-.7,14.46-16.09,24.65-13.79,3.38-.13,6.91-2.77,8.55-5.25-.91-1.65-2.38-2.41-3.9-3.76,2.82-.11,5.24-.11,6.97.82,4.94,2.66,10.08,2.31,14.84-.75l4.12.51,2.73-3.21c2.92,1.01,7.28.56,9.68-1.16,1.2.14,3.72,1.06,4.31.19l2.59-3.82,8.78.09c1.75-7.32,5.37-10.93,11.78-12.86l12.49-8.15,8.94-4.54c4.28-2.17,10.13-.59,15.05-.87l-2.61-14.82c3.21.61,2.87,4.25,3.47,6.12l10.48,4.42c2.47,1.04,4.73.06,6.06-.86-6.3-3.65-2.23-15.39.75-21.03,10.76-.4,20.07-23.45,4.35-20.74-1.2,2.69-2.84,4.17-4.93,4.42l1.35,1.21c.79.7,1.57,3.04,1.23,4.56Z"/>
  <path class="cls-1" d="M164.23,435.52c.69.87.99,2.03.93,3.14.34-.58.95-1.13,1.9-1.63-.93-.24-2.41-.91-2.83-1.51Z"/>
  <path class="cls-1" d="M164.94,440.91c-.07-.24-.1-.48-.12-.72-.08.18-.16.36-.26.53.13.05.26.11.38.19Z"/>
  <path class="cls-1" d="M153.04,459.2c-3.86.4-4.94-.36-7.46-3.18-6.94,1.44-10.62-1.51-12.92-7.89l-4.01-.78c-4.2-2.57-8.63-4.81-13.31-6.71-.01-.03-.02-.06-.03-.1-.93,1.26-2.96,1.66-3.83.56-.51.91-1.83,1.16-3.66,1.31,0,0,7.19,6.33,21.57,18.98,4.02-1.42,6.77-1.84,9.71,1.83,4.5,1.69,30.95,5.83,36.23,5.71.67-.02-5.99-7.66-8.63-6.51-3.28-3.97-1.21-6.61,3.5-7.26-1.29-2.13-2.28-4.02-2.82-6.09-2.2,2.54-12.97,9.97-14.34,10.12Z"/>
  <path class="cls-1" d="M105.72,425.15c1,.15,2.98,2.48,4.92,5.19-1.22-2.05-2.61-4.06-4.16-6.04.05.31-.21.59-.76.85Z"/>
  <path class="cls-1" d="M167.38,449.09c.23-.26.37-.48.39-.62.38-2.33-.99-6.41-2.83-7.56.31,1.13,1.12,2.32,2,3.52-.1,1.73.07,3.24.44,4.66Z"/>
  <path class="cls-1" d="M164.82,440.19c.2-.48.31-1,.34-1.53-.29.49-.38,1-.34,1.53Z"/>
  <path class="cls-1" d="M164.56,440.72c-.9-.34-1.89.04-2.83,1.66,1.32-.03,2.27-.71,2.83-1.66Z"/>
  <path class="cls-1" d="M106.01,423.69c.16.2.31.41.47.61-.03-.19-.18-.4-.47-.61Z"/>
  <path class="cls-1" d="M111.48,441.11c.34-.6.32-1.49-.16-2.85-.42,1.38-.28,2.3.16,2.85Z"/>
  <path class="cls-1" d="M110.64,430.34c1.98,3.31,3.54,6.71,4.67,10.21.33-.45.52-1.01.47-1.64-.06-.71-2.57-4.97-5.14-8.57Z"/>
  <path class="cls-1" d="M179.37,457.41l10.01-.44c3.8-.17.63-10.39,6.43-11.15-2.98-8.6-13.56-5.1-24.76-9.94,2.02,3.72,3.78,7.7,5.28,11.96,7.65,3.25,8.65,6.44,3.04,9.57Z"/>
  <path class="cls-1" d="M204.76,409.03c5.4-4.25,15.09,2.55,22.2-6.42-7.93-.26-16.22-.08-22.66,4.15-3.95,2.59-6.92,4.71-12.33,2.53-9.89-3.98-12.08,7.85-15.71,4.03-2.33,2.07-5.84,2.59-9.22,1.32l-21.32-7.98c2.45-4.68,5.37-6.94,9.64-7.95-6.96-.23-7.67-2.9-12.06-4.13,4.28,2.73,7.41,5.87.72,7.52,2.96,4.33-2.16,8.85-3.48,5.24,0,1.41-.72,1.68-1.83.63.84,1.7-1.23,2.72-3.48,3.82l.48,2.12c7.14-2.44,11.62,1.06,13.42,10.47.2-.81.64-1.41,1.39-1.69.12-.73-1.36-2.7.59-2.99,9.68-1.45,11.54,18.99,32.07,13.96l9.94.22c1.81.04,5.79,3.86,7.28.72l1.06-2.23c.47-1,2.13.18,2.76.61,7.82.91,12.23,6.41,11.12,14.43-.29,2.07,3.18,5.32,1.65,8.39l-6.08-8c.72,2.23,2.24,6.76-.52,7.49l-8.02-3.25-3.09-1.53c-1.03-.51-2.71.51-3.38,2.47,4.17-.12,5.8,1.67,8.87,3.83,1.46.53,5.32-1.13,6.92,2.18-5.7,2-10.67-.23-15.61-3.42-3.5,6.41-12.49,7.15-17.23,2.07-.1.05-.19.1-.29.15,2.43,4.13,5.74,8.1,9.92,11.91,3.5,1.09,5.7,2.73,6.63,4.94-.05.34.33.62.54.62.63-.01,2.24-.04,3.44.79-.73,1.67-3.29,1.68-4.33.27-.15-.21-.48-.34-.82-.23-3.89,2.83,2.85,1.6,5.24.75,2.93-1.04,17.25-10.25,17.57-11.38-1.66-6.39,1.8-9.45,10.36-9.17.37-12.1-2.27-24.21-7.91-36.33l1.93-2.61c-.73-2.19-1.87-4.86-3.24-7.42l-13.17-.93ZM200.18,461.64c-.53,1.08-1.48.68-2.01.83-1.12.31-2.67-1.04-1.74-2.35.4-.56,2.36-.76,3-.69.57.06,1.24,1.22.75,2.21Z"/>
  <path class="cls-1" d="M152.48,435.99c.79,1.5,1.74,2.89,2.9,3.98-1.12-1.28-2.08-2.62-2.58-3.44-.1-.16-.21-.35-.32-.54Z"/>
  <path class="cls-1" d="M152.48,435.99c-1.15-2.19-1.99-4.63-2.67-6.8-.15-1.75-.37-3.34-.65-4.81-.75,2.99,1.74,8.81,3.32,11.61Z"/>
  <path class="cls-1" d="M161.73,442.37c-2.65.12-4.71-.85-6.36-2.41,2.31,2.65,5.29,5.09,6.36,2.41Z"/>
  <path class="cls-1" d="M140.55,407.34c0-.53-.09-1.2-.3-2.04,0,.86.11,1.53.3,2.04Z"/>
  <path class="cls-1" d="M137.62,406.64c.4.57.77,1,1.1,1.32-.2-.4-.55-.84-1.1-1.32Z"/>
  <path class="cls-1" d="M409.35,409.16c.64,3.67-.05,6.18-2.07,7.53-9.95-.67-14.18.83-22.78,5.45-4.39,2.36-18.24,10.35-20.79,13.74-2.36,6.9-4.69,8.41-11.9,7.54l-3.78,3.78c-4.43.35-8.97.84-13.62,1.46-1.73,2.55-4.39,3.29-7.15,2.09-3.9,3.05-14.58,4.74-15.33-1.09-.02.48-.14.91-.36,1.22-.59.84-2.15.8-2.75,1.07,2.19,2.72-.8,5.91-4,6.63,1.76-.02,3.5.37,4.89,1.24,5.19-8.97,10.9-5.62,15.25,1.28.23-.46,1.07-1.01,1.59-1.36.32-1.12.97-3.41,1.99-4,1.12-.64,3.89,2.22,5.08,2.53,4.92-2.65,12.15-3.07,17.73-1.95,8.75,1.74,12.05-15.45,23.38-16.45,4.15-.37,5.91-3.57,6.14-8.36,7.21-3.35,5.76,10.46,9.81,6.98,3.07-2.64-.21-6.93,2.34-12.31l16.56,7.48c1.27,1.46.62,4.78.48,6.1l1.21-4.08c2.04-2.65,18.24-19.23,19.87-19.85,1.34-.5,2.77-.21,4.08.25.9-2.48,2.91-4.17,5.68-4.25-.75-.92-1.67-2.35-1.13-3-4.5,2.4-10.16,2.57-15.18.46l-.06,3.08c-4.97,1.07-10.02,0-15.18-3.2Z"/>
  <path class="cls-1" d="M287.22,472.81c.55,0,1.13.03,1.76.1,1.76.74,4.12.52,7.09-.64-2.09-2.05-2.11-4.27.4-5.92-1.53-4,2.31-6.98,6.65-7.64-1.11-.09-2.14-.54-2.86-1.52l-8.63,6.43c-2.32,1.73-.15,6.35.1,9.34l-5.26-4.26c1.53,1.42,1.55,2.97.74,4.11Z"/>
  <path class="cls-1" d="M446.51,401.5c3.63-3.48,7.71-6.59,11.48-7.73-2.19.61-5.79,2.59-10.82,5.95-.19.62-.41,1.21-.66,1.78Z"/>
  <path class="cls-1" d="M287.22,472.81c-2.12,0-3.65.54-4.58,1.62.63-.35,1.37-.38,1.75,0,1.22-.2,2.24-.8,2.83-1.62Z"/>
  <path class="cls-1" d="M446.51,401.5c-2.55,2.44-4.88,5.06-6.74,7.32,0,0,0,0,0,0,2.87-1.53,5.28-3.97,6.74-7.32Z"/>
  <path class="cls-1" d="M304.82,458.57c-.57,0-1.13.05-1.69.13.55.04,1.13,0,1.69-.13Z"/>
  <path class="cls-1" d="M231.97,432.27c.82-.77,1.9-1.44,3.29-2,6.06-6.88,10.04-7.44,11.96-1.7,2.66-.32,6.56-.53,5.78,2.56,4.96,3,9.89,4.56,14.78,4.7l-14.57-5.95c1.07-.09,3.04-1.15,2.92-2.54-.08-.97-3.05-2.06-3.86-2.71-.85-2.02,2.09-3.28,4.2-3.34-3.14-.39-5.88-2.31-8.23-5.77-2.45-.8-16.49-8.19-10.13-10.01.63-.18,1.34-.08,2.07.09-1.27-.28-2.66-.51-4.29-2.19,2.38-2.51,5.42-3.69,8.48-4.63-4.2-2.11-6.13-7.91-4.66-12.46-2.32,3.3-.25,7.04,0,10.91.21,3.27-5.34,3.21-6.94,4.49-3.62,2.89-6.78,6.3-11.44,7.42.19,3.31.52,6.2,1.66,8.35,3.74-.81,7.98,10.33,8.97,14.79Z"/>
  <path class="cls-1" d="M231.97,432.27c-1.03.98-1.62,2.11-1.74,3.43l1.91-2.53c-.04-.25-.09-.56-.17-.9Z"/>
  <path class="cls-1" d="M228.66,375.26c.01-.14.02-.28.03-.43-.09-.15-.19-.3-.28-.45.1.29.18.58.25.88Z"/>
  <path class="cls-1" d="M241.85,382.23c.08-.03.15-.07.23-.1-.05,0-.1.02-.16.03-.02.02-.05.05-.07.07Z"/>
  <path class="cls-1" d="M274.14,366.56l-.89-1.04c-2.27,1.85-4.92,3.49-7.91,4.94l8.8-3.9Z"/>
  <path class="cls-1" d="M145.39,393.49c-.93-1.24-.76-2.56.52-3.95-.62-.14-1.19-.37-1.7-.67-1.91-.29-3.45,1.02-4.93,1.56,3.16-1.26,4.84,1.16,4.02,4.14.54-.82,1.23-1.18,2.08-1.08Z"/>
  <path class="cls-1" d="M224.95,369.43l-.98.81c1.08.33,1.92.8,2.6,1.37-.53-.75-1.07-1.48-1.62-2.18Z"/>
  <path class="cls-1" d="M149.61,396.28s-.03-.01-.04-.02c0,0,.01.01.02.02,0,0,.02,0,.03,0Z"/>
  <path class="cls-1" d="M166.74,401.22c-4.3-1.93-8.73-3.31-13.28-4.16.91.4,1.55.95,1.91,1.64,3.15.1,5.98,2.34,9.21,3.43,6.81,2.29,14.09-5.93,18.31,4.53-.86,2.91-4.64,4.89-6.62,6.65,3.53-1.14,6.47-3.43,8.82-6.87-.1-.03-.19-.06-.29-.09-3.93-6.47-9.95-8.19-18.05-5.14Z"/>
  <path class="cls-1" d="M238.63,384.96c-1.72,1.11-3.3,1.55-4.67,1.42.81.28,1.71.49,2.7.63,0,.02.01.03.02.05.78-.58,2.03-.94,3.03-.73-.77-.45-1.09-.91-1.09-1.36Z"/>
  <path class="cls-1" d="M222.72,417.04c-.83-1.27-1.59-2.63-2.31-4.08.03,1.3.28,2.77.76,4.42-.29-2.21.22-2.32,1.54-.34Z"/>
  <path class="cls-1" d="M237.73,393.67c-.34,1.85-1.22,3.48-2.51,4.73,1.69-1.21,2.6-2.68,2.51-4.73Z"/>
  <path class="cls-1" d="M228.86,381.15c.27,1.07.73,1.99,1.38,2.78-.6-.94-1.06-2.12-1.33-3.5-.01.24-.03.48-.04.72Z"/>
  <path class="cls-1" d="M227.13,401.07c.89.36,1.26.85,1.28,1.4.31-.43.6-.86.87-1.32.1-.03.19-.07.28-.1-.78.09-1.59.1-2.43.02Z"/>
  <path class="cls-1" d="M196.59,407.61c1.01-.11,2.01-.28,3-.52,1.19-.8,3.14-1.67,5.49-2.51-.5.09-1.01.18-1.53.26-2.15,1.42-4.47,2.34-6.96,2.77Z"/>
  <path class="cls-1" d="M253.54,378.25c3.4-1.72,6.65-4,9.73-6.84-.04.02-.07.03-.11.05-3.01,2.77-6.21,5.03-9.62,6.79Z"/>
  <path class="cls-1" d="M224.63,406.34c-1.12.43-2.02,1.02-2.69,1.78.97-.54,1.86-1.13,2.69-1.78Z"/>
  <path class="cls-1" d="M238.63,384.96c1.03-.66,2.1-1.56,3.22-2.73-1.6.73-3.22,1.71-3.22,2.73Z"/>
  <path class="cls-1" d="M275.74,365.21c-.89.03-1.73.08-2.49.31.93-.06,1.75-.16,2.49-.31Z"/>
  <path class="cls-1" d="M242.07,382.13c4.05-.73,7.87-2.02,11.47-3.88-3.3,1.67-6.76,2.81-10.36,3.42-.35.14-.73.29-1.11.46Z"/>
  <path class="cls-1" d="M263.27,371.4c.71-.3,1.4-.62,2.07-.95l-2,.89s-.04.04-.07.06Z"/>
  <path class="cls-1" d="M153.45,397.06c-.97-.43-2.25-.69-3.84-.78.21.09.41.18.63.26,1.08.14,2.15.32,3.22.52Z"/>
  <path class="cls-1" d="M149.57,396.26c-1.66-1.72-3.05-2.64-4.17-2.77.72.97,2.11,1.89,4.17,2.77Z"/>
  <path class="cls-1" d="M205.08,404.58c14.05-2.43,21.07-3.64,21.07-3.64.33.06.66.1.99.14-.2-.08-.43-.16-.68-.23-3.75-1.01-14.32,1.22-21.37,3.74Z"/>
  <path class="cls-1" d="M185.26,406.19c-.06.09-.13.17-.19.26,4.17,1.38,8,1.77,11.51,1.16-3.6.39-7.37-.08-11.32-1.42Z"/>
  <path class="cls-1" d="M235.23,398.41c-1.4,1-3.34,1.83-5.66,2.65,2.24-.26,4.21-1.22,5.66-2.65Z"/>
  <path class="cls-1" d="M236.07,388.61c1.07,2.02,1.6,3.67,1.66,5.06.36-2,.08-4.27-1.05-6.62-.59.44-.9,1.01-.61,1.56Z"/>
  <path class="cls-1" d="M220.41,412.96c-.04-2.03.46-3.64,1.53-4.84-.95.53-1.96,1.02-3.04,1.46.47,1.19.98,2.3,1.51,3.39Z"/>
  <path class="cls-1" d="M224.63,406.34c.16-.06.31-.12.48-.18,1.71-1.05,3.34-2.5,3.31-3.69-1.05,1.45-2.32,2.73-3.79,3.87Z"/>
  <path class="cls-1" d="M170.18,434.83c.31.29.61.64.87,1.05.79-.14,1.86-.19,3.03-.17-1.4-.24-2.69-.52-3.9-.88Z"/>
  <path class="cls-1" d="M152.37,421.95c1.6.06,3.69,1.36,5.74,3.07-2-2.34-3.91-3.36-5.74-3.07Z"/>
  <path class="cls-1" d="M164.23,435.52c1.34-1.2,2.12-1.59,2.52-1.15.17-.28.44-.45.76-.53-.88-.4-1.73-.88-2.55-1.43.12.17.23.33.32.48.39.63-.44,1.79-1.06,2.64Z"/>
  <path class="cls-1" d="M166.76,434.37c-.33.53-.32,1.41.31,2.66.09-1.43.01-2.31-.31-2.66Z"/>
  <path class="cls-1" d="M178.67,457.44c.07.08.15.15.22.23.16-.09.32-.17.48-.26l-.7.03Z"/>
  <path class="cls-1" d="M167.52,433.84c.85.39,1.73.72,2.66,1-.9-.84-1.93-1.17-2.66-1Z"/>
  <path class="cls-1" d="M150.55,422.69c.6-.4,1.21-.64,1.82-.74-.72-.03-1.35.19-1.82.74Z"/>
  <path class="cls-1" d="M164.97,432.4c-1.23-1.78-4-4.98-6.87-7.39.2.23.39.47.59.73,2.08,3.06,4.08,5.16,6.28,6.66Z"/>
  <path class="cls-1" d="M266.32,455.29c.18-.35.37-.7.56-1.04-.06.07-.12.15-.17.22-.21.26-.85.17-1.62-.02l1.29.65c-.02.07-.04.13-.06.2Z"/>
  <path class="cls-1" d="M340.67,386.12l.43,1.4c-18.16,9.96-36.73,19.24-55.7,27.84-1.05,9.51-4.66,17.16-10.84,22.93-.65,2.58-1.78,5.6-3.16,8.49l1.52.48c1.84-1.59,1.9-4.93,2.31-8.17,8.32-3.72,8.76-14.3,10.4-21.42l32.08-15.6,23.02-11.31c1.34-1.22,1.48-2.95-.07-4.63Z"/>
  <path class="cls-1" d="M262.27,464.09c.05-.13.11-.25.16-.38-3,1.32-5.79,2.81-8.36,4.46l8.2-4.07Z"/>
  <path class="cls-1" d="M264.11,462.98s.74-2.57,2.22-7.7c-1.42,2.73-2.72,5.54-3.89,8.42.55-.24,1.11-.49,1.68-.72Z"/>
  <path class="cls-1" d="M254.08,468.16l-3.42,1.7c-3.02,1.62-6.78,4.02-2.31,5.69l-1.2-2.1c2.1-1.92,4.42-3.68,6.93-5.29Z"/>
  <path class="cls-1" d="M266.88,454.24c1.61-2.03,3.18-4.68,4.52-7.46l-.06-.02c-1.6,2.42-3.08,4.92-4.46,7.48Z"/>
  <path class="cls-1" d="M283.83,465.61c1.81-.38,2.69.65,2.65,3.09.86-2.92,2.17-5.1,3.89-6.79-2.22,1.17-4.4,2.41-6.54,3.7Z"/>
  <path class="cls-1" d="M275.62,470.97c2.68-1.89,5.42-3.67,8.22-5.36-1.81.38-4.55,2.16-8.22,5.36Z"/>
  <path class="cls-1" d="M300.27,457.19c-4.16.97-7.45,2.35-9.89,4.73,3.23-1.7,6.52-3.28,9.89-4.73Z"/>
  <path class="cls-1" d="M220.42,220.04c.16,3.86.35,7.7.56,11.51-5.77,9.34-12.09,6.47-17.12-.72.62,1.09,2.36,2.78,2.66,3.94.28,1.07-2.52,2.67-2.75,3.88-1.45,7.62-5.33,12.89-8.6,19.5l-6.72,13.59c1.56,4.42,6.28,8.71,5.14,13.11.13.19.63.6.85.78,2.85,6.12,8.02,9.86,14.57,12.95-4.55,1.48-9.69-.53-11.29-3.6l-4.4-8.44-.65-.88c-1.18-1.61-2.65-4.93-3.67-7.15-2.55-5.58-7.5-7.34-12.79-4.95-4.06,1.83-7.56,1.15-11.54,1.14-3.94-.01-7.48,1.51-10.94-2.48.42,4.34,3.87,4.79,5.35,7.47,2.97.34,5.74-.42,9.35,1.18-.83,1.05-2.63,1.14-3.5,1.64-1.25,4.39,2.24,9.92,2.56,13.5.15,1.64-1.81,6.36,1.2,6.34,8.39-.04,19.71,1.56,23.84,7.66l4.77-3.23c-.13,1.94-.99,4.36-.18,5.02.78.64,3.25.92,4.08.89-.63-1.37-.9-2.08-.72-2.58,1.48-4.23,4.48,4.6,7.88,2.54,8.44-5.1,8.15,7.3,14.86,7.08,5.42-.18,9.92,1.98,14.85,3.62,7.99,2.66,16.42,3.12,23.34,7.14,1.26.73,3.6.25,5.03.3,8.05-1.14,12.2-5.97,8.16,1.7l.4.23c1.31.6,2.59,1.33,3.83,2.21.91.17,2.51.94,3.31,1.42,4.17-1.28,7.86-1.77,10.24,2.15.32.02.74.23.99.4,1.86,0,1.56-1.44,1.09-2.02-.89-1.12-1.43-1.86-3.47-2.97l7.8-5.11-10.68-4.28c-10.49,2.45-14.56-6.44-28.3-8.84l1.75,7.06c-3.97-.53-3.61-5.1-5.14-6.6-6.21-6.1-17.43-2.69-25.78-10.81,9.65-.04,17.3,8.39,31.48,3.94.21,3.18,1.39,4.97,2.69,5.27,2.17.51,4.52.92,5.86-.26l-2.89-2.75c-2.44-2.31,6.79-1.29,7.03-2.1l1.38-4.59c.44-1.46,2.96.05,2.95.92,0,.74.33,2.92,1.01,3.34,2.94,1.81,2.61-2.93,3.47-3.85,4.49-4.76,14.39-2.37,18.16,2.86,2.4-2.37,4.14-3.97,6.54-3.93,1.28.02,7.16,4.64,7.37,6.01.15,1-.85,1.48-1.3,2.09-.74,1.01-.78,2.72-1.07,3.92l4.47,9.05c.9,1.83,6.38,1.18,7.92,2.42,3.1,2.48,5.74,4.21,9.78,2.73l3.56.44c1.09.13,1.58-2.43.69-3.02-.43-.29-1.54-1.77-1.24-2.64,9.33-4.89-1.66-11.05.67-21.18.43-1.87-.94-4.98-.04-6.63,1.1-2.02,4.51-2.58,5.55-3.55l2.16-7.26c1.66-5.58.6-11.97.18-17.83l-1.83-25.52c-.07-.99-1.06-1.86-1.28-2.27-.4-.73-1.76-.29-1.62.19.14.45-.49,2.75-1.19,2.69-2.26-.21-5.29,4.21-7.28,5.19-4.84,2.39-12.25-.95-16.42-3.24.58-3.46,1.28-7.1,3.56-9.36,1.79-1.79,5.84-.85,8.31.31l2.53-5.39,11.49,1.18,3.27-9-5.44-7.11c-4.88-.01-8.64-2.85-10.84-7.69-.06-.05-.11-.1-.17-.15-4.4,2.42-8.15,5.78-13.21,4.53,10.86-3.96,4.78-12.52,7.1-19.6-3.03-.58-6.23-.23-9.59,1.07-6.33-2.4-12.54-5.17-18.62-8.31l-5.02-.12c-6.03,3.06-9.85,2.98-11.47-.23.33,3.4-6.38,5.48-9.77,4.1,5.49,5.15,20.08,21.57,17.78,25.43-2.25,3.79-8.27,1.02-10.51-1.66-8.41,7.52-18.61-3.43-17.52-12.62l-4.98-2.37c-4.45,3.96-9.31,5.78-14.59,5.48-1.17,4.25-3.8,9.19-7.84,5.5,5.22,5.67-5.58,10.49-11.46,10.27ZM173.13,292.24c-1.05.15-.28,2.94.46,3.7-2.32,1.6-3.31-.8-4.37-2.61-.76-1.3.49-2.53,2.18-5.65,1.13-.15,6.1,1.19,6.07,3.34-.87,1.83-3.42,1.09-4.34,1.22ZM248.05,254.38l-1.6,2.74c-1.15,1.96-.73,4.12-2.54,5.58l32,14.35c.1.69.04,1.41-.26,2.15l-29.48-12.97c-1.55-.68-3.7-.97-5.05-.49-1,.36-1.95,2.23-2.77,3.1-2.74-.17-3.7,1.28-5.52,2.88-1.64,1.43-5.2-.68-6.18-2.08-1.7-2.4-3.02-5.88-3.44-8.97-3.66-1.12-9.16-1.78-9.78-7,3.37,2.86,6.03,5.02,10.85,3.9-1.32-2.1-2.26-3.72-1.64-6.88,10.87,4.57,27.96-.64,25.42,3.7Z"/>
  <path class="cls-1" d="M269.54,190c-.71-.66-1.27-1.15-1.62-1.39.32.64.89,1.09,1.62,1.39Z"/>
  <path class="cls-1" d="M266.92,190.1c.36-.38.7-.87.99-1.48-.56.13-1,.81-.99,1.48Z"/>
  <path class="cls-1" d="M379.83,171.21c-4.59-5.51-9.17-6.1-13.74-1.77,5.43,16.38,9.74,33.07,12.94,50.09.81,6.17-4.19,18.8-9.62,11.76-3.36,2.91-3.97-.44-1.96-4.15,2.69-1.24,4.03-2.79,4.03-4.68-5.66,2.05-7.98-3.64-3.8-6.02-2.22.97-6.66,1.31-7.8-1.39-2-4.74.77-10.83,3.45-14.29,2.2-.25,4.56,1.62,5.71,2.45l-3.46-3.7c-1.77-7.98-3.77-15.9-5.99-23.76-1.53-3.31-4.81-3.69-9.85-1.15,1.83,4.64.25,12.05-5.2,8.96,6.11,9.86,9.53,17.7.51,27.61-11.69-7.07-12.34-17.93-18.75-18.82,8,5.82,2.87,10.31-.37,6.29.61,2.82.61,5.83-.03,9.02l2.37-.9c.61.63,1.23,1.23,1.86,1.82.02-.01.05-.03.07-.04.03.07.06.13.09.19,3.31,3.08,6.92,5.65,10.84,7.69l-14.18-12.58c9.93,1.76,15.72,9.15,20.68,16.62.72,1.09,2.24,1.9,2.41,3.89-2.34,1.71-3.34,3.84-3.7,6.19-.32,2.08,2.34,4.76,3.13,6.52-1.27,3.51-.54,6.4-.42,9.68l.51,14.18c2.28,8.15.93,16.49,2.09,24.77l1.65,11.8c10.43,2.38,9.73,12.37,16.27,15.3-.88-8.69-6.15-13.84-12.99-17.32-.98-2.58,1-6.74,2.76-8.3l5.11,2.25c-1.35-4.43-4.28-6.75-7.77-5.74,1.16-7.19,6.3,1.06,9.91.6,1.75-.22,5.12-1.03,5.41-3.16l.98-7.27c.44-3.25-1.54-6.72-1.94-10.14l-2.45-20.86c-.36-3.09-1.23-7.89.69-11.32l4.57,31.73c1.63,11.36,15.66,15.96,25,28.21l20.96-21.69c-.96.31-2.23.69-2.86.09-6.58-6.2-4.75-10.37,1.07-15.45-9.52,4.36-14.93-10.18-11.16-18.1-2.69-5.83-3.96-12.28-3.81-19.33-3.26-8.54-1.18-14.33,7.13-18.66-.81-4.51.12-7.31,2.77-8.42l-2.91.76c-7.54-9.68-17.93-17.23-30.19-19.45ZM369.01,258.39c.2,2.7-1.87,1.88-2.23.75-.28-.86-.03-1.21.89-3.52.53-.69,2.54.62,1.34,2.77Z"/>
  <path class="cls-1" d="M324.02,193.5c.32,2.4,1.05,4.06,1.91,5.13-.39-1.78-1.02-3.49-1.91-5.13Z"/>
  <path class="cls-1" d="M445.22,178.81c.67-1.77,1.51-2.92,2.47-3.44-2.82-.67-5.97-2.32-7.59-3.21-3.04.63-5.62.68-7.75.15.85.84,1.29,2.34,1.31,4.53,8.55,10.03,12.4,10.69,11.56,1.97Z"/>
  <path class="cls-1" d="M450.63,175.61c-1.06-.65-2.05-.72-2.94-.24,1.06.25,2.07.36,2.94.24Z"/>
  <path class="cls-1" d="M430.24,171.53c.64.34,1.35.59,2.11.78-.54-.53-1.24-.79-2.11-.78Z"/>
  <path class="cls-1" d="M482.84,205.86c-.09.44-.11.81-.1,1.13.05-.38.08-.76.1-1.13Z"/>
  <path class="cls-1" d="M319.32,132.62l1.85,7.28c-2.56-.96-4.55-2.21-5.98-1.81-1.22.34-2.8,2.92-3.52,4.82-1,2.64,3.56,2.66,4.86,3.55,1.78,1.57-.96,4.35-2.83,3.43l-5.57-2.74c.5,2.36-.15,4.09-1.68,5.88,3.48,1.96,5.75,5.52,8.72,8.4,2.56,2.47,7.15,3.13,8.39,7.83.21.78-2.07,1.56-3.04.79-1.33-1.07-.93-5.5-4.13-5.61-1.23-.04-2.53,2.27-3.5,2.89-.78.49-2.37-2.81-3.29-2.68-.94.13-2.31,1.49-3.64,3.12-2.03-2.39-2.83-5.38-6.29-6.73,1.46,2.87,1.57,7.23-1.69,8.34-1.09.37-2.75-.09-3.98.06-.35.16-.71.31-1.1.45,1.57,5.25-8.13,9.17-10.38,2.45-2.96-2.19-17.59-.26-11.41,4.07l.71,3.21c1.41.58,2.75,3.41,5.12,2.53.08-3.41,1.77-3.39,2.64-.64.23-3,11.81-5.67,14.09-5.62,3.49.08,6.12.74,9,2.76,21.76-6.23,43.33-13.11,64.71-20.65-1.09-5.66-1.26-11.52-.52-17.58-9.47-8.2-16.88-13.21-29.55-9.07-4.91.78-9.04.09-12.39-2.08l1.64,2.26-7.24,1.11ZM330.59,157.03c3.29-.68,6.18.65,9.14,3.71,1.74,1.8-.54,4.67-2.05,5.37-2.02.93-5.24,1.78-6.68-.57-1.37-2.23-.8-5.84-.41-8.51Z"/>
  <path class="cls-1" d="M279.8,182.3c-.06-.3-.14-.56-.22-.82-.02.27.04.54.22.82Z"/>
  <path class="cls-1" d="M306.46,163.41c1.54-1.49,4.42-1.35,6.01-.15.08-.16.17-.33.28-.51-8.68-6.85-10.06-12.62-4.14-17.3.63-5.04,2.87-10.4,8.71-9.96-.4-.89-.42-1.62-.19-2.22-5.33,2.37-11.63,3.36-16.96.03-5.73,1.37-7.44,4.18-5.13,8.44,6.3,4.18,12.64,13.41,3.21,17.23.13.42.24.82.34,1.21,2.9-1.54,5.53-.46,7.88,3.23Z"/>
  <path class="cls-1" d="M298.74,164.67c-.23.88-.63,1.67-1.23,2.36.13-.01.25-.04.39-.05.41-.73.69-1.5.85-2.31Z"/>
  <path class="cls-1" d="M323.95,130.71c.02-.16.1-.36.23-.58-.17-.12-.37-.33-.6-.67-.62.46-1.29.93-1.99,1.38.88-.13,1.73-.16,2.36-.13Z"/>
  <path class="cls-1" d="M324.93,129.25c-.34.31-.58.61-.75.89.38.26.64-.02.75-.89Z"/>
  <path class="cls-1" d="M298.58,160.18s-.1.05-.15.07c.46,1.6.56,3.07.31,4.41.32-1.27.27-2.74-.16-4.49Z"/>
  <path class="cls-1" d="M297.51,167.03c-2.39.27-3.94,1.21-4.61,2.84.28-.27.66-.4,1.1-.45,1.53-.68,2.69-1.46,3.51-2.39Z"/>
  <path class="cls-1" d="M317.12,133.27c1.59-.71,3.1-1.54,4.47-2.42-1.87.27-3.91.96-4.47,2.42Z"/>
  <path class="cls-1" d="M340.19,203.73c7.27,8.81,8.54-3.95,6.54-10.37-2.74-3.89-3.47-7.16-2.2-9.81-.45,1.03-1.17,1.62-2.23,1.66-6.98-5.97-8.96-7.02-17.86-5.15-2.11.44-12.07,3.21-13.19,3.94-1.82,1.19,10.79,3.65,11.67,1.09,4.42.98,7.17,4.15,3.38,7.25l2.88-1.84c4.12,3.83,7.79,8.24,11.01,13.23Z"/>
  <path class="cls-1" d="M422.01,234.63c.35.18.67.38,1,.58-1.52-1.67-2.71-3.6-3.29-5.91-1.87-.74-3.08-1.56-3.65-2.45.32,2.46,2.29,5.05,5.93,7.78Z"/>
  <path class="cls-1" d="M438.68,252.35c-4.71-2.53-7.11-6.21-7.2-11.03-1.15-.63-2.32-1.3-3.47-2.04,3.95,4.33,6.04,9.95,6.98,15.43-.24-1.88.99-2.67,3.69-2.36Z"/>
  <path class="cls-1" d="M428.01,239.28c-1.41-1.55-3.07-2.93-5-4.08,1.44,1.58,3.18,2.91,5,4.08Z"/>
  <path class="cls-1" d="M416.08,226.85c-.16-1.22.09-2.41.75-3.57-1.19,1.3-1.44,2.49-.75,3.57Z"/>
  <path class="cls-1" d="M362.41,214.19c2.57-.14,4.52.51,5.85,1.95.07-3.42-.22-6.82-.86-10.19l1.63-2.74c-5.95.38-8.19,4.59-6.62,10.99Z"/>
  <path class="cls-1" d="M398.58,68.53c-.04-.08-.07-.15-.1-.22l1.03-.1c.59-.27,1.29-.31,1.71-.17-3.45-4.83-6.28-.57-2.95,3.85.02-.8,0-1.83.23-2.57.05-.52.07-.79.07-.79Z"/>
  <path class="cls-1" d="M411.79,79.9c-3.77-1.73-6.55-4.88-8.33-9.43,1.96,5.57,4.74,8.71,8.33,9.43Z"/>
  <path class="cls-1" d="M402.1,81.11c-1.78-1.86-2.7-3.92-2.78-6.17-.16,2.22.77,4.28,2.78,6.17Z"/>
  <path class="cls-1" d="M418.1,275.33c-6.4,5.86-12.89,11.92-19.48,18.18,0,0-6.87-6.43-20.6-19.3-2.1-2.24-3.78-2.36-5.04-.36,4.04.8,6.28,3.04,9.66,6.08l7.61,6.83c2.53,2.28,2.66,5.69,5.89,8.5l-13.14,14c-.67.71-2.3,1.4-2.73.98l-2.58-2.44-4.13,8.86c-1.18,2.54-.64,5.23-3.6,6.74-2.08,1.06-3.68.61-6.38-1.8.38,1.95,2.35,4.87,1.02,6.2l-9.06,8.99c4.21,6.4,4.68-3.25,17.53-12.49l3.54-4.27,19.95-19.92,19.44-21.33c3.68,2.84,6.04,5.89,10.15,6.87l5.13-.74c1.23-.18,2.09,3.11,2.7,4.65-.55-2.72-.07-3.79,1.44-3.22-2.09-1.89-3.14-2.83-3.14-2.83-6.54,1.44-14.35-2.98-14.18-8.18Z"/>
  <path class="cls-1" d="M419.84,271.41c.57-.64,1.29-1.28,2.19-1.9l-2.22.26c.13.46.15,1.01.04,1.63Z"/>
  <path class="cls-1" d="M419.84,271.41c-1.16,1.3-1.69,2.64-1.74,3.92.08-.07.16-.15.24-.22.82-1.45,1.32-2.69,1.5-3.71Z"/>
  <path class="cls-1" d="M347.15,225.53c.4-1.68.57-3.37.48-5.07.06,1.17-.72,2.16-1.06,3.07.52.46.71,1.13.58,2Z"/>
  <path class="cls-1" d="M345.67,229.67c.52-1.07.93-2.14,1.24-3.21-.25.73-.66,1.57-1.26,2.53.02.24.01.46.01.69Z"/>
  <path class="cls-1" d="M416.03,322.27c-10.94-.62-8.98,6.31-12.14,7.05-1.37.32-3.52-1.35-3.98-2.85-1.15-3.72-3.83-3.18-6.48-4.43-3.36-1.58-6.83-4.35-10.38-.43-1.43,1.57,1.42,5.11,4.16,5.21l-1.29,9.96-12.95,1.81,3.18-7.33.47-11.24c-1.07,4.83-3.8,8.76-8.19,11.8-6.86,10.2-11.88,11.9-15.06,5.08,2.12-3.99,5.14-7.53,9.06-10.63-2.02-4.7.74-8,5.52-4.95,2.73-3.8,5.07-8.44,7.03-13.94l3.18-1.25c2.4,4.14,14.01-9.8,14.25-10.76.76-3.01-11.64-14.44-17.17-17.81.59,4.23-3.2,9.46-8.39,9.34-.25,2.29-1.14,3.62-2.69,3.97-7.22-.37-6.77,2.14,1.34,7.54,13.84,15.29,1.47,24.02-7.09,3.92-6.96-3.55-8.4-6.49-9.08-14.17-.49,3.29-1.81,5.15-3.97,5.59,1.38-.14,2.82.13,3.17,1.08l1.81,4.9c.69,1.87,6.08,1.14,7.31,5.39l-12.32-.51c-2.06-.09-3.67.97-5.26.1,1.31,1.2,1.91,2.86,1.79,4.99,3.76,6.68,3.81,12.27.15,16.79,3.47,9.61-13.14,8.32-17.79,3.34-7.09.55-14.17-7.51-10.86-13.59l-8.75-1.98c-1.33-.31-2.59-4.39-1.32-5.06,3.73-1.99,9.28-.03,11.14,3.12.22-3.81-8.09-9.6-12.39-2.12-8.11-4.97-14.35-8.32-19.35,1.44-9.32-2.52-16.31,4.48-5.14,8.56,3.59,1.85,7.52,2.53,11.8,2.03,11.88,3.35,14.03,7.26,6.47,11.72,2.24,3.63,2.32,7.06-2.44,4.98,6.45,4.31,18.35,4.38,28.84,11.48l1.3-3.87c3.43.96,6.16.98,9.44.56,6.49,7.88,15.93,11.74,25.61,9.71-1.66-1.75-1.63-4.57-.42-5.15,3.44,1.38,6.75,3.19,10.66,3.18l.98,4.49,28.33,1.18,15.95,2.35c-7.89-2.1-6.99-7.14,2.69-15.11l-19.8-1.89c-4.95-2.19-4.82-6.07-.04-7.97,12.3,1.23,24.62,1.81,36.97,1.75-1.04-3.39-.53-5.64,1.53-6.77l-11.76,1.96c-5.42-1.99-7.2-8.38-7.62-12.57ZM305.95,325.04c-5.48.12-19.51-5.39-18.64-8.1,1.12-3.51,5.1-5.17,7.62-4.59,3.49.8,6.78,2.6,7.38,6.75.95,6.66,11.22,1.57,11.75,9.67-3.53-2.07-5.2-3.78-8.11-3.72Z"/>
  <path class="cls-1" d="M347.04,243.85s0-.08-.01-.13c1.01,11.77,1.72,23.57,2.13,35.38-.23-11.78-.89-23.66-2.12-35.26Z"/>
  <path class="cls-1" d="M333.38,234.25c-1.18,4.09-4.67,5.4-10.47,3.95-7.8,8.84,9.23,12.3,13.77,4.85,4.51-4.61,7.81-5.56,9.91-2.87-.37-2.36-.95-4.58-2.16-6.74-1.78,1.94-5.45,2.22-11.04.81Z"/>
  <path class="cls-1" d="M346.74,240.37c-.05-.07-.1-.12-.15-.19.18,1.15.31,2.33.44,3.54-.1-1.12-.19-2.24-.29-3.36Z"/>
  <path class="cls-1" d="M347.15,225.53c-.07.31-.15.62-.24.93.11-.33.19-.64.24-.93Z"/>
  <path class="cls-1" d="M349.16,279.11c.06,2.9.09,5.8.1,8.69.01.12.02.24.03.36.04-.29.08-.58.11-.89-.06-2.72-.15-5.44-.25-8.16Z"/>
  <path class="cls-1" d="M344.43,233.44c.82-.9,1.24-2.15,1.24-3.77-.48,1-1.05,1.99-1.71,2.97.17.26.32.53.47.79Z"/>
  <path class="cls-1" d="M375.22,277.56c-.2-1.44-.9-2.76-2.23-3.72l.55,2.87c.43.14,1.01.44,1.68.85Z"/>
  <path class="cls-1" d="M432.71,331.51l2.7,1.36c-.76-.83-1.67-1.4-2.72-1.74,0,.12.01.25.02.37Z"/>
  <path class="cls-1" d="M413.2,364.53c-4.36.05-42.94-2.04-44.77-3.36-.52-3.53-8.57-7.72-8.25-3.48-8.59,5.79-22.6-.23-28.18-8.32-4.08-.1-7.21.89-9.38,2.96-1.68-.77-3.36-1.51-5.05-2.25,3.16,1.51,5.77,2.93,7.3,4.02,1.76,2.93,4.82,5.1,9.19,6.5,5.71.36,9.57,2.83,11.59,7.39,13.01-1.99,8.53,5.61,1.6,12.33.48,3.97-.82,7.59-3.33,7.53-.41.74-1.59,1.71-3.19,2.9,2.18-1.07,4.25-2.05,6.57-3.8,1.24.03,4.16,1.54,5.48.36.73-.66,2.31-1.45,2.38-3.39-1.41,1.24-5.92,2.52-6.95,1.09-2.29-3.2,1.79-4.41,3.54-6.24,3.59-3.75,7.13-13,12.91-12.94,5.38.05,8.56.17,14-1.24l23.42,1.21c9.65-1.22,17.47,2.21,22.49,10.15.75-.77,1.25-1.74,1.52-2.81-1.43,1.48-2.02.8-1.35-1.21-1.67,1.11-9.39-6.33-9.36-7.75,0-.07.04-.18.11-.3-.43-.21-.91-.54-1.45-1.01-.28.93-.56,1.66-.86,1.66ZM362.93,359.9c-.59.15-2.47-1.69-1.88-2.72.94-1.64,1.67-.08,1.97.17.61.51.77,2.33-.08,2.55Z"/>
  <path class="cls-1" d="M269.25,334.51c2.25.27,6.64,1.36,10.22,2.88-.43-.43-.69-1.27-.64-2.44-4.28-.16-8.71-1.69-12.39-4.14.34,3.2-3.94,1.97-5.03-.3l-1.26.71c-.08.4.16.87.72,1.15l7.25,3.62c.42-.87.82-1.53,1.13-1.49Z"/>
  <path class="cls-1" d="M292.37,338.53c-3.53-.19-7.15-.3-10.24-2.15-.68.94-1.37,1.36-1.94,1.35,2.42,1.11,4.34,2.42,4.71,3.8.32-.85.65-1.51,1.05-1.55,1.84-.18,4.84.34,8.39,1.3-.41-.13-.82-.27-1.23-.4l.25-1.93c-.58.96-.9.79-.99-.4Z"/>
  <path class="cls-1" d="M342.63,386.35c-.73-.03-1.43-.15-1.95-.23,1.23,1.19,2.33,1.71,3.25,1.73.4-.71.07-1.22-1.3-1.5Z"/>
  <path class="cls-1" d="M280.2,337.72c-.24-.11-.49-.22-.74-.33.21.21.46.32.74.33Z"/>
  <path class="cls-1" d="M294.35,341.27c7.79,2.54,15.54,5.47,23.23,8.82-6.76-3.23-16.11-6.9-23.23-8.82Z"/>
  <path class="cls-1" d="M447.71,349.31c-.44-.29-.93-.54-1.47-.75.03.02.06.05.08.07.48.29.94.51,1.38.68Z"/>
  <path class="cls-1" d="M150.77,239.64c-4.88-3.43-6.76-9.12-5.62-17.07-1.11-3.02-9.55-18.32-12.59-12l.63,1.18,7.96,3.95c-1.31,2.28-3.76,1.99-5.9.44-1.16-.83-2.27-2.1-2.64-4.19-.43-.03-.8-.35-.87-.6-.55-1.53-3.55,3.36-5.55,6.88-.8,3.29-2.05,5.73-3.74,7.36,1.99-.34,3.37,2.41.77,4.64,5.38-1.81,6.81,6.47,5.95,10.94,1.89.08,3.41.69,4.58,1.83-.91-7.89,11.66-5.32,17.01-3.38Z"/>
  <path class="cls-1" d="M120.4,227.07c.75-.37,1.43-.87,2.05-1.47-.66.11-1.38.56-2.05,1.47Z"/>
  <path class="cls-1" d="M136.46,192.65c-1.2,1.16-2.04,1.51-2.55,1.07.54,2.68,1.39,2.33,2.55-1.07Z"/>
  <path class="cls-1" d="M120.34,231.54c-.26.13-.49.21-.69.22-1.19,1.97-3.43,2.7-5.71.27-2.64-2.8,8.16-24.9,10.77-29.16l1.81-16.76c-.54-3.84.57-5.71,2.12-6.17-.77-1.07-.48-2.27.86-3.58-4.7,1.44-9.73,2.19-14.63,2.39l.27,1.91c2.35,1.37,3.94,3.86,4.77,7.47-1.13,3.73-1.23,7.42-.3,11.09-6.34,11-9.51,16.5-9.51,16.5-6.81-2.21-14.27-5.98-8.47-13.76-5.77-2.92-8.5-7.06-8.2-12.4l-9.99-1.91c.1,4.54-3.73,10.03-8.4,10.21,1.39,5.08-1.19,9.33-6.69,7.43-2.25,3.02-5.82,3.39-10.69,1.13-3.92,4.18-7.54,8.27-10.86,12.26,3.81-1.59,11.16,3.07,8.9,8.3,19.78,10.51,40.38,18.78,61.8,24.8,3.17-2.1,5.66-2.39,7.46-.89.15-.28.41-.58.85-.87-.81-1.44-1.57-3.08-1.03-4.73-1.17.19-1.17-.13-.14-.91-2.1-.29-1.49-2.6-1.6-3.82-3.31-.1-4.41-6.08-2.71-9.03Z"/>
  <path class="cls-1" d="M126.96,253.92l.17-1.58c-.32.07-.62.09-.89.07.26.44.51.95.72,1.51Z"/>
  <path class="cls-1" d="M140.55,182.33c-1.65-1.37-1.6-3.8-1.34-5.86-1.74,3.31-3.7,5.18-5.89,5.61.77,1.04,1.29,2.38,1.34,3.93,1.95-1.77,3.91-3,5.89-3.68Z"/>
  <path class="cls-1" d="M44.85,221.09c-.41-.28-.78-.58-1.1-.87.14.36.48.69,1.1.87Z"/>
  <path class="cls-1" d="M44.85,221.09c.65-.8,1.31-1.6,1.98-2.41-.94.39-1.67,1.17-1.98,2.41Z"/>
  <path class="cls-1" d="M120.34,231.54c.48-.25,1.05-.72,1.69-1.47-.73.24-1.29.77-1.69,1.47Z"/>
  <path class="cls-1" d="M132.25,182.18c.36,0,.72-.03,1.07-.1-1.26-1.71-3.17-2.58-4.67-2.13.59.82,1.78,1.56,3.59,2.24Z"/>
  <path class="cls-1" d="M136.46,192.65c.46.41.9.77,1.33,1.11-.2-.49-.63-.87-1.33-1.11Z"/>
  <path class="cls-1" d="M133.91,193.73c-.16-.79-.29-1.84-.4-3.17.87-1.63,1.19-3.16,1.15-4.54-.26.23-.51.48-.77.73-.73,4.03-.72,6.35.02,6.99Z"/>
  <path class="cls-1" d="M119.65,231.76c.45-.75.75-1.68.84-2.69-.16-.45-.08-1.46-.1-2-2.09,2.64-1.99,4.76-.74,4.69Z"/>
  <path class="cls-1" d="M84.78,263.31c2.38,1.34,4.14,7.17,9.19,4.77,1.06-.51,3.87,1.35,3.93,2.39.06.97-1.2,2.18-2.97,3.47,2.98,1.21,4.14,3.54,4.76,6.13-.6-5.07,2.69-5.4,7.3-1.25,3.08,2.77,7.81,12.96,1.54,14.47,3.64,2.51,3.95,7.43,3.29,11.38,10.06-2.42,25.73,10.84,7.79,13.42-.87.13,13.49,7.15,15.29,5.43l5.65,3.06c4.7-3.1,10.06-4.37,16.07-3.82,4.43.1,5.9-2.25,4.41-7.07,3.36-.66,5.29-1.61,5.8-2.85-4.53-4.29-5.69-7.74-3.48-10.35-2.57,1.18-3.62,3.73-5.46,5.39.92,3.56.51,7.75-.75,10.99-4.34-1.56-8.49-1.29-11.15-4.21-2.39-2.62-4.04-4.98-8.29-5.41,1.16-1.59,4.09-3.55,3.33-5.35l-4.21-9.9c.51-1.89,4.08-1.44,4.29-.23l.82,4.74c2.19,3.37,4.86,5.33,5.38,9.63l9.01-.39c.06-4.05-3.01-8.68-6.66-11.43l-3.03-.23c-.47-.03-1.52-.88-.83-3.35,3.25,1.75,6.71-.03,10.43.11,1.55.17,3.96,3.42,6.47,1.73,1.03-3.83-.07-7.92-2.88-11.32-.64,1.84-2.63,2.88-3.59,1.88-1.05-1.09-1.21-2.51-1.3-3.74-1.76.72-3.79.65-6.7,0,1.94-2.95,2.44-7.63-.6-9.59-2.49-1.6-6.14-.83-8.47-1.33-.38,1.09-.51,1.07-.4-.09-.45-.1-.93-.1-1.35.08-1.24,4.07-2.77,2.66-5.3.24l-5.08-8.17c-4.07,1.79-8.09,2.09-12.04.91-15.31-6.87-30.84-13.18-46.6-18.95.14.79.1,1.68-.18,2.69-1.19,4.3-3.34,5.65-7.59,5.79,2.54-.12,6.25.94,8.47,3.03,4.64,4.38,10.7,4.5,15.71,7.32ZM133.95,316.17c-.82.54-2.95-2.95-2.82-4.55,1.29-1.14,5.61,2.72,2.82,4.55Z"/>
  <path class="cls-1" d="M66.91,243.94c.49.18.97.36,1.46.54-.61-3.53-4.67-4.81-5.8-3.23-.76,1.06-1.17,1.75-1.37,2.18-.71.3-1.27.86-1.74,1.48,2.21-1.31,4.36-2.48,6.47-3.5l.98,2.53Z"/>
  <path class="cls-1" d="M152.37,271.95c-.46-.03-.95-.09-1.47-.19.17.12.34.24.51.36.13,3.97,1.3,7.06,3.51,9.24l4.16-1.69c-4.55,1.2-8.67-3.74-6.71-7.73Z"/>
  <path class="cls-1" d="M168.79,272.91c-5.54.41-10.89,0-14.18-1.29-.17.09-.36.15-.57.21,4.76,1.34,9.68,1.7,14.75,1.08Z"/>
  <path class="cls-1" d="M140.98,266.48c.55.97.76,1.68.56,2.25.5-.17,1.03-.25,1.6-.26-.9-.64-1.66-1.31-2.16-2Z"/>
  <path class="cls-1" d="M192.67,285.65l.92-.8c-.74-1.49-1.48-2.95-2.23-4.4.52,1.62.95,3.37,1.31,5.2Z"/>
  <path class="cls-1" d="M187.69,273.52c-.51-.93-1.02-1.85-1.53-2.76,1.39-2.21,2.71-4.43,3.97-6.67-.56.78-1.13,1.5-1.68,2.13-1.51,1.73-4.09,3.15-7.2,4.24,2.7.15,4.79,1.26,6.44,3.06Z"/>
  <path class="cls-1" d="M201.81,232.89c-.07,2.85-.75,6.35-1.82,10.05,1.48-4,2.78-8.03,3.88-12.11-1.37,1.37-2.05,2.06-2.05,2.06Z"/>
  <path class="cls-1" d="M140.56,265.79c.56.02,1.05-.06,1.49-.2-.48-.06-.98-.01-1.49.2Z"/>
  <path class="cls-1" d="M190.13,264.1c3.81-5.29,7.66-13.63,9.85-21.16-2.66,7.17-5.95,14.22-9.85,21.16Z"/>
  <path class="cls-1" d="M152.67,271.41c-.12.18-.21.36-.3.54.63.03,1.2,0,1.67-.13-.46-.13-.92-.27-1.37-.41Z"/>
  <path class="cls-1" d="M173.62,272.04c-1.62.39-3.23.68-4.83.87,4.33-.32,8.77-1.15,12.47-2.44-2.14-.12-4.66.35-7.64,1.57Z"/>
  <path class="cls-1" d="M141.54,268.74c-.92.3-1.72.87-2.39,1.73,1.39-.56,2.16-1.06,2.39-1.73Z"/>
  <path class="cls-1" d="M150.9,271.77c-3.07-2.2-5.66-3.3-7.77-3.29,2.18,1.53,5.24,2.81,7.77,3.29Z"/>
  <path class="cls-1" d="M92.35,112.86c-1.28-1.53-.68-3.6,1.81-6.21-3.14,1.86-4.32,3.51-1.81,6.21Z"/>
  <path class="cls-1" d="M127.72,253.31c-.08.21-.32.41-.75.61,1.24.93,1.49.73.75-.61Z"/>
  <path class="cls-1" d="M127.13,252.34c.24.38.43.7.59.98.1-.28-.1-.6-.59-.98Z"/>
  <path class="cls-1" d="M407.45,435.61l-12.31-5.56c.25,11.78-6.76,16.7-11.82,3.73-.93,4.89-3.93,10.16-8.59,6.09,1.08,1.33,2.51,2.15,2.88,3.59-12.04.1-13.18,22.62-20.12,23.27l-9.86.93c-4.69.44-9.15-.7-12.26-3.39-1.42.06-4.5,1.46-5.82.11-1.32-1.35-1.63-3.91-3-4.64,1.39,2.06.57,2.68-1.59,1.36,3.08,3.12-.33,5.43-3.69,7.11,3,3.33,7.32,4.72,12.97,4.16l8.3,3.65c4.04-4.66,9.24-4.63,15.58.1,5.25-1.78,6.76-1.28,7.57,4.09,2.76-.8,4.42-1.07,5.59,2.06-.85-2.31-.81-4.79.13-7.44,5.99-4.97,12.25-9.63,18.78-13.96-.38-2.16-.32-3.36.28-5.46.33-1.13,15.38-15.84,16.55-16.65l3.04.99c-1.83-.56-2.7-1.95-2.61-4.14Z"/>
  <path class="cls-1" d="M335.84,489.09c.08.33.27.6.54.82.24-1.34.28-2.48.15-3.44-.64.7-.95,1.58-.7,2.62Z"/>
  <path class="cls-1" d="M100.11,282.24c-.14-.54-.24-1.03-.32-1.5-.01.46.09.97.32,1.5Z"/>
  <path class="cls-1" d="M91.92,271.27c-.14-.09-.28-.17-.41-.26.86.82,1.67,1.66,2.41,2.54,1.22-2.95.56-3.72-2-2.28Z"/>
  <path class="cls-1" d="M100.14,288.19c.17,1.38.27,2.82.28,4.32,1.17-.67,1.59-1.77,1.57-2.83-.74-.16-1.37-.73-1.85-1.49Z"/>
  <path class="cls-1" d="M60.6,252.96c.29,1.1-.47,1.49-2.29,1.18,3.54.71,7.91,2.37,12.28,4.35-3.31-1.88-6.64-3.73-9.99-5.53Z"/>
  <path class="cls-1" d="M99.28,283.77c.13-.63.4-1.18.83-1.53-.89-1.3-1.87-2.58-2.94-3.84.88,1.68,1.58,3.47,2.11,5.38Z"/>
  <path class="cls-1" d="M70.59,258.49c7.06,4,14.04,8.17,20.92,12.52-2.11-2-4.56-3.81-7.37-5.46-3.75-2.2-8.65-4.84-13.55-7.06Z"/>
  <path class="cls-1" d="M99.79,280.74c0-.07,0-.14,0-.21-.03-.16-.07-.32-.11-.48.03.22.06.45.1.69Z"/>
  <path class="cls-1" d="M93.52,274.45c1.31,1.3,2.53,2.61,3.65,3.95-.9-1.72-1.99-3.33-3.25-4.84-.12.28-.24.58-.39.9Z"/>
  <path class="cls-1" d="M113.03,169.53l-.35,5.07c.53.78.97,1.57,1.34,2.36.42-.29,1-.56,1.79-.84,3.23-1.12,11.15-2.05,13.71.23-2.68-3.03-4.09-7.14-4.24-12.31-12.73-.61-16.81,1.22-12.25,5.48Z"/>
  <path class="cls-1" d="M115.16,180.66c-.2-1.25-.58-2.48-1.14-3.69-1.38.95-.85,2.06,1.14,3.69Z"/>
  <path class="cls-1" d="M140.55,182.33c1.85-2.03.7-4.43-1.34-5.86,1.63,2.2,2.07,4.16,1.34,5.86Z"/>
  <path class="cls-1" d="M284.83,154.46l-1.49-6.23c.66-2.68.84-14.35-.18-16.15-.22-.4-8.7.82-9.06,1.1-5.58,6.62-11.31,12.99-17.19,19.12-.18,5-1.33,6.69-4.38,8.35.35.25.61.64.71,1.11l.02-.05c10.31-3.48,20.83-5.9,31.56-7.25Z"/>
  <path class="cls-1" d="M249.33,162.2c1.25-.57,2.31-1.05,3.21-1.54-.87-.63-2.31-.41-3.21,1.54Z"/>
  <path class="cls-1" d="M253.25,161.77l-1.35,2.94c1.21-1.03,1.53-2.11,1.35-2.94Z"/>
  <path class="cls-1" d="M271.82,179.6c.57,2.75,2.51,4.1,5.12,2.53-3.06,1.32-4.1.19-5.12-2.53Z"/>
  <path class="cls-1" d="M338.12,91.91c7.2-2.13,16.77,2.98,17.22,10.48.78-6.9-10.63-13.1-17.22-10.48Z"/>
  <path class="cls-1" d="M233.41,200.95c.18.8.59,1.6,1.19,2.23-.25-.76-.65-1.51-1.19-2.23Z"/>
  <path class="cls-1" d="M167.64,303.04l13.68,3.4c-4.52-1.51-9.16-2.76-13.9-3.86.07.15.15.3.22.46Z"/>
  <path class="cls-1" d="M164.7,300.73c.09-2.12.06-4.22-.07-6.31-.64,3.7-3.6,4.02-8.87.97l-2.47.32c2.99,2.87,4.54,5.47,4.65,7.8,1.02-1.73,3.22-2.57,5.43-1.04.45-.87.89-1.45,1.34-1.73Z"/>
  <path class="cls-1" d="M259.98,332.54c-.62-.47-1.06-.92-1.2-1.27-.57-.16-1.43-.39-2.58-.71,1.24.7,2.5,1.36,3.78,1.98Z"/>
  <path class="cls-1" d="M196.7,313.47c.55.16,1.1.32,1.64.48-2.42-1.38-4.86-2.63-7.34-3.75,1.99,1.02,3.89,2.11,5.7,3.27Z"/>
  <path class="cls-1" d="M156.33,307.73l1.58.13c-.29-.56-.46-1.13-.52-1.69-.26.54-.61,1.06-1.06,1.56Z"/>
  <path class="cls-1" d="M207.92,315.51c-2.93-1.29-5.61-1.65-8.05-1.11,5.76,1.7,11.55,3.36,17.34,5.01-2.69-5.02-5.79-6.33-9.29-3.89Z"/>
  <path class="cls-1" d="M158.82,281.95c.97.19,1.9.43,2.8.69-.71-1.07-1.55-2.06-2.54-2.96.2.93.07,1.71-.26,2.26Z"/>
  <path class="cls-1" d="M217.22,319.41c.08.15.16.29.24.45,20.09,5.55,33,9.12,38.74,10.7-.53-.3-1.06-.6-1.59-.92-12.54-3.29-25-6.71-37.39-10.23Z"/>
  <path class="cls-1" d="M164.7,300.73c-.02.41-.03.81-.06,1.22.93.2,1.86.42,2.78.63-.91-1.82-1.81-2.44-2.72-1.85Z"/>
  <path class="cls-1" d="M181.32,306.44c3.28,1.1,6.51,2.33,9.68,3.77-2.11-1.08-4.31-2.08-6.62-3.01l-3.06-.76Z"/>
  <path class="cls-1" d="M199.34,314.52c.18-.05.36-.08.54-.12-.51-.15-1.02-.3-1.53-.45.33.19.66.37.99.57Z"/>
  <path class="cls-1" d="M268.12,336c-2.78-1-5.49-2.15-8.14-3.46,2.02,1.53,5.98,3.35,8.14,3.46Z"/>
  <path class="cls-1" d="M258.78,331.27c.57.16.87.24.87.24l.5-.28c.08-.4.5-.73,1.26-.71-2.22-.24-2.88.12-2.63.75Z"/>
  <path class="cls-1" d="M162.99,283.07c-.44-.16-.91-.29-1.37-.43,1.13,1.71,1.91,3.65,2.33,5.81.33,1.98.55,3.97.68,5.97.41-2.38-.13-6.16-1.64-11.35Z"/>
  <path class="cls-1" d="M158.82,281.95c-1.24-.25-2.54-.44-3.9-.58,1.34,1.97,3.14,1.85,3.9.58Z"/>
  <path class="cls-1" d="M137.99,352.6c.64.67,1.2,1.44,1.65,2.27-.08-.68-.14-1.37-.17-2.06-.48,0-.98-.07-1.48-.21Z"/>
  <path class="cls-1" d="M67.45,323.55c-.46.13-.91.29-1.34.52.14.27,2.47.37,6.99.3-.85-.23-1.87-.66-3.07-1.29-1.09.18-1.94.33-2.58.47Z"/>
  <path class="cls-1" d="M133.9,348.04c-2.82.23-6.13.74-8.2-1.26-.36.73-.75,1.31-1.22,1.39-.43.07-.91.1-1.42.12l1.27,1.28c3.04-.36,5.84-.5,8.22,1.04.73-.22,1.47-.21,2.2-.03-.66-.78-1.03-1.67-.84-2.53Z"/>
  <path class="cls-1" d="M140.69,360.26c-.23,1.02-.79,1.89-1.76,2.48l4.13,3.98c-1-2.15-1.78-4.3-2.37-6.46Z"/>
  <path class="cls-1" d="M114.2,347.06c-5.6-1.37-12.13-3.73-17.95-6.39,5.78,2.85,11.91,5.11,17.95,6.39Z"/>
  <path class="cls-1" d="M81.82,329.71c-2.55-1.64-4.68-3.42-3.92-6.93-.77,2.04-1.65,1.99-1.69.35-.11.56-.35.96-.74,1.19.13,0,.26,0,.4,0,.48,2.58,1.73,4.16,3.71,5.76.8.65,1.63,1.29,2.49,1.93-.15-.15-.29-.3-.42-.45-.28-.33-.11-1.03.18-1.84Z"/>
  <path class="cls-1" d="M145.67,338.92l-1.39.04-.96,3.49c.66-1.27,1.44-2.45,2.35-3.53Z"/>
  <path class="cls-1" d="M96.26,340.67c-5.12-2.52-9.95-5.5-14.19-8.67,2.52,2.64,7.94,5.82,14.19,8.67Z"/>
  <path class="cls-1" d="M139.63,354.87c.21,1.8.57,3.59,1.06,5.39.37-1.63-.09-3.62-1.06-5.39Z"/>
  <path class="cls-1" d="M137.99,352.6c-.95-1-2.07-1.74-3.24-2.03.79.93,2,1.68,3.24,2.03Z"/>
  <path class="cls-1" d="M114.2,347.06c3.44.84,6.51,1.3,8.86,1.22l-.1-.11c-2.86-.1-5.79-.49-8.75-1.12Z"/>
  <path class="cls-1" d="M76.26,322.13c-.05.38-.06.71-.06,1,.06-.29.08-.62.06-1Z"/>
  <path class="cls-1" d="M75.47,324.32c-.84.02-1.63.04-2.36.05,1.05.28,1.84.27,2.36-.05Z"/>
  <path class="cls-1" d="M141.87,386.25c-.59-1.21-.96-2.74-1.1-4.58-3.51,2.37-5.54,5.74-1.48,8.77.06-2.73,1.18-4.12,2.58-4.19Z"/>
  <path class="cls-1" d="M141.75,367.24c.42,1,.69,1.99.8,2.96.19-1.17.36-2.33.52-3.49-.46.41-.89.58-1.31.53Z"/>
  <path class="cls-1" d="M141.54,375.6v.16c.03-.1.04-.2.06-.29-.02.05-.04.09-.06.14Z"/>
  <path class="cls-1" d="M142.54,370.21c-.28,1.75-.6,3.5-.94,5.26.83-1.71,1.15-3.46.94-5.26Z"/>
  <path class="cls-1" d="M141.55,375.76c-.26,1.33-.54,2.66-.84,4,0,.67.02,1.3.06,1.91.32-.22.65-.43,1-.62l-.22-5.28Z"/>
  <path class="cls-1" d="M141.87,386.25c.57,1.17,1.36,2.05,2.35,2.63.53.08,1.1.28,1.7.67-.25-.35-.47-.71-.65-1.08-1.06-1.53-2.31-2.27-3.39-2.22Z"/>
  <path class="cls-1" d="M141.75,367.24c-.61-1.47-1.54-2.98-2.81-4.51.83,2.89,1.77,4.39,2.81,4.51Z"/>
  <path class="cls-1" d="M145.19,338.22c.15.13.31.36.48.69-.15-.29-.24-.59-.3-.89-.06.07-.12.13-.18.19Z"/>
  <path class="cls-1" d="M144.28,338.96c.29-.16.6-.42.91-.74-.35-.32-.66-.08-.91.74Z"/>
  <path class="cls-1" d="M101.96,293s-.06.01-.09.01c.03,1.75.06,1.74.09-.01Z"/>
  <path class="cls-1" d="M101.87,292.66l-1.45-.14c.66.4,1.13.54,1.45.5,0-.12,0-.23,0-.36Z"/>
  <path class="cls-1" d="M102,289.69c0,1.45-.02,2.55-.03,3.32.75-.2.54-1.62.03-3.32Z"/>
  <path class="cls-1" d="M128.54,406.41c1.24.96,3.18,1.44,3.79-.22-.88,1.31-2.15,1.38-3.79.22Z"/>
  <path class="cls-1" d="M257.53,426.25c.28.95.68,1.96,1.23,3.02,1.15.28,2.2.61,3.14.99-.97-.67-1.99-1.32-3.09-1.92-.55-.73-.97-1.43-1.28-2.1Z"/>
  <path class="cls-1" d="M257.53,426.25c-.53-1.84-.56-3.47-.06-4.89-.82,1.43-.8,3.06.06,4.89Z"/>
  <path class="cls-1" d="M257.47,421.37c-.29-.07-.64-.09-1-.08.33.04.66.07,1,.08Z"/>
  <path class="cls-1" d="M261.9,430.27c2.34,1.63,4.31,3.48,5.88,5.56-.79-2.44-2.75-4.29-5.88-5.56Z"/>
  <path class="cls-1" d="M239.82,403.71l.36,1.89c.08-.87.29-1.7.6-2.48-.3.21-.62.41-.96.6Z"/>
  <path class="cls-1" d="M240.77,403.11c1.69-1.15,2.9-2.6,3.6-4.34-1.66,1.04-2.9,2.56-3.6,4.34Z"/>
  <path class="cls-1" d="M276.9,440.21c.02.23.03.45.04.67.21-.46.44-.86.7-1.21-.3.18-.55.35-.74.54Z"/>
  <path class="cls-1" d="M275.51,446.81c-.29.23-.62.39-1,.48h.94c.02-.16.04-.31.06-.48Z"/>
  <path class="cls-1" d="M276.94,440.88c-.66,1.43-1.14,3.41-1.44,5.93,1.12-.89,1.6-2.86,1.44-5.93Z"/>
  <path class="cls-1" d="M274.5,447.28l-1.58-.02c.59.12,1.12.12,1.58.02Z"/>
  <path class="cls-1" d="M281,438.12c-1.35-.18-2.47.33-3.36,1.56.23-.13.49-.27.79-.39,0-.05-.02-.11-.02-.16.03.04.07.08.11.13.6-.25,1.34-.49,2.21-.72.1-.13.18-.27.27-.4Z"/>
  <path class="cls-1" d="M311.88,449c-1.92.06-2.94,1.04-3.06,2.95.46-1.33,1.48-2.31,3.06-2.95Z"/>
  <path class="cls-1" d="M425.91,375.96s.04.02.05.03c.73-.32.57-1.45.14-2.85.19,1.11.12,2.05-.2,2.82Z"/>
  <path class="cls-1" d="M425.97,375.99s-.05.02-.08.03c-.25.58-.63,1.08-1.17,1.46,1.26-.62,1.67-1.24,1.24-1.5Z"/>
  <path class="cls-1" d="M425.89,376.02s.02-.04.03-.06c-.24-.11-.68-.13-1.33-.01.58.16,1,.17,1.3.07Z"/>
  <path class="cls-1" d="M164.88,404.95c-4.68-.9-7.85-2.98-9.52-6.25-.55,2.29-2.36,4.38-5.41,6.26,8.1,3.9,17.28,7.5,26.3,8.35l-.77-1.67c7.64-6.94,4.11-9.17-10.61-6.69Z"/>
  <path class="cls-1" d="M368.44,446.05c.62-.58,1.23-1.16,1.83-1.74-.34.18-.71.37-1.09.54-.24.41-.49.8-.74,1.19Z"/>
  <path class="cls-1" d="M346.79,458.43c-8.6,1.51-12.9,2.27-12.9,2.27-1.42-.76-2.8-1.19-4.13-1.31.57.58,1.06,1.57,1.49,2.97l4.75-.52c6.31,3.52,13.47,4.25,21.48,2.21,2.69-4.26,5.19-8.68,7.5-13.24-5.28,6.19-11.34,8.74-18.18,7.62Z"/>
  <path class="cls-1" d="M364.97,450.81c1.19-1.4,2.35-2.99,3.46-4.76-.66.62-1.33,1.24-2.02,1.87-.47.97-.96,1.93-1.45,2.89Z"/>
  <path class="cls-1" d="M329.76,459.39c-.9-.92-1.97-.81-3.21.34,1.04-.34,2.11-.44,3.21-.34Z"/>
  <path class="cls-1" d="M370.26,444.31c2.41-1.3,3.9-2.77,4.47-4.44-1.42,1.46-2.91,2.94-4.47,4.44Z"/>
  <path class="cls-1" d="M234.34,267.63c1.86-1.07,2.97-2.56,2.21-6.11,2.32.44,4.15.04,4.73-.56.76-.8.2-4.01-.64-4.16-.85.43-2.15.95-2.5.73-.52-.34-.73-1.7.22-3.3-7.86.33-15.7,2.4-15.15,6.44,3.79-1.57,7.73-2.74,11.81-3.51.84,1.75,1.77,2.22,3.26,2.36-1.57.07-4.59.83-4.52,5.32-3.06,1.14-5.43,2.74-7.11,4.8,2.7.46,4.73-.29,7.7-2.01Z"/>
  <path class="cls-1" d="M341.44,298.62c.54,1.76.57,3.1.1,4,2.05-.87,4.45-1.06,7.21-.54l-3.67-7.45c.51,1.57-.7,2.89-3.64,3.98Z"/>
  <path class="cls-1" d="M341.54,302.62c-.84.36-1.63.82-2.36,1.41,1.16-.15,1.95-.62,2.36-1.41Z"/>
  <path class="cls-1" d="M344.69,293.84l.39.79c-.08-.26-.21-.52-.39-.79Z"/>
  <path class="cls-1" d="M340.04,304.7c-.26-.24-.54-.47-.86-.68.29.3.57.52.86.68Z"/>
  <path class="cls-1" d="M342.77,216.45c-.22-.35-.44-.72-.66-1.11l-.98,1.08c.48-.35,1.05-.29,1.64.04Z"/>
  <path class="cls-1" d="M346.02,220.75c.24-.37.76-.48,1.6-.29-.79-.18-1.55-.54-2.27-1.07.25.44.48.91.66,1.36Z"/>
  <path class="cls-1" d="M342.77,216.45c.81,1.27,1.67,2.25,2.59,2.93-.73-1.28-1.68-2.43-2.59-2.93Z"/>
  <path class="cls-1" d="M346.02,220.75c-.3.48-.13,1.39.55,2.78.1-.73-.12-1.74-.55-2.78Z"/>
  <path class="cls-1" d="M305.57,311.4c2.43.33,4.29.94,5.6,1.84.12-.17.28-.34.48-.47-.96-.18-1.98-.66-3.08-1.46l-3.01.09Z"/>
  <path class="cls-1" d="M311.17,313.24c-.67.96-.07,2.36,2.16,3-.29-1.22-1.02-2.21-2.16-3Z"/>
  <path class="cls-1" d="M311.65,312.77c.99.18,1.91.04,2.75-.45-1.22-.16-2.16.05-2.75.45Z"/>
  <path class="cls-1" d="M274.99,332.74c-2.7-1.24-5.55-1.89-8.56-1.93,4.24.94,8.37,2.32,12.39,4.14l-3.83-2.21Z"/>
  <path class="cls-1" d="M282.14,336.37c3.7-.09,7.11.63,10.24,2.15-3.08-1.61-6.49-2.33-10.24-2.15Z"/>
  <path class="cls-1" d="M156.71,308.99c-.14-.32-.27-.74-.38-1.26-1.22,2.13-1.09,2.55.38,1.26Z"/>
  <path class="cls-1" d="M157.91,307.86c-.47.46-.87.84-1.2,1.13.56,1.29,1.22.94,1.2-1.13Z"/>
</svg>