<?xml version="1.0" encoding="UTF-8"?>
<svg id="Layer_1" data-name="Layer 1" xmlns="http://www.w3.org/2000/svg" viewBox="0 0 697.76 1015.38">
  <defs>
    <style>
      .cls-1 {
        fill: none;
        stroke: #000;
        stroke-miterlimit: 10;
        stroke-width: 2px;
      }
    </style>
  </defs>
  <path class="cls-1" d="M695.94,114.95l-5.33,3.93c-2.85,1.26-4.25,3.44-6.47,5.32l-12.61,10.68-5.45,4.6-4.67,3.9-11.83,9.9-7.5,6.31c-3.56,2.99-8.08,5.87-11.93,10.22-1.5.55-2.54,1.58-3.78,2.64-3.13-.78-5.92-2.18-8.74-4.08l-19.98-13.42-10.58-6.96-9.2-6.19-30.28-20.54-8.29-5.99c-.9-.65-1.68-1.15-1.55-2.3.64-1.09.75-2.64.3-4.02-.22-.69-1.11-.69-1.43-.82-.78-2.15-2.6-3.42-1.01-5.79l18.56-17.91,8.75-8.29,11.4-10.88,15.57-15.19c1.83-1.79,4.08-2.9,5.38-5.62-2.83-.21-5.38.03-7.92.46l-18.47,3.19-10.58,2.28c-2.61.56-6.26-.03-8.34,1.71l-9.2,7.68c-1.49,1.24-1.98,3.08-3.24,4.25l-4.44,4.1-3.71,2.03c-2.25,3.83-7.19,9.91-9.42,10.08l-2.09-1.39c-1.37-.1-4.34.26-4.49-1.78-.15-2.04-.15-3.79-.36-5.5l-1.2-9.51c-.51-4.02-1.81-7.84-1.81-11.96,0-4.04-.75-7.63-1.55-11.54-.62-3.04-.58-5.97-1.91-8.94l-1.17-5.67-2.23-5.14c-1.02-3.97-3.72-6.05-6.76-8.23-2.69-1.92-5.01-4.16-8.57-4.72-.79-.12-1.99-1.37-3.06-1.04-1.83.57-2.86-1.55-3.94-1.82-2.39-.6-4.54-.18-6.84-1.31-1.27-.62-2.56.48-2.94,1.41-3.31-.83-5.98-2.67-9.27-.44-.07.17-.24.51-.39.58-.88.42-1.52,1.42-1.54,2.37-.03,1.38.78,2.11,1.97,2.45l3.27,2.58c1.46,1.15,4.31,1.31,6.27,1.13,4.03-.37,7.15.99,10.81,1.8,4.86,1.08,13.05-1,16.87,11.5l2.36,7.7c1.81,5.91,3.1,11.46,3.08,17.69l.61,7.95.97,5.22c1.11,5.98,1.76,11.97-.17,17.58-1.7.14-2.7,1.87-4.13,2.67-1.66.92-3.39,1.15-4.85,2.83l-11.29-7.49-10.46-7.05c-4.63-3.12-9.02-6.22-13.96-8.3l-12.42.64c-1.53.08-2.78.61-4.43.83l-26.5,3.51,20.48,13.6,8.79,6.04,20.64,14.38c1.72,1.2,2.89,2.4,4.26,3.86,1.1,1.18,5.1.94,5.1,3.82v11.33c0,2.03-1.4,2.62-2.56,3.83l-5.45,5.68c-4.57,3.87-8.34,8.13-12.57,12.32l-20.81,20.61-23.25,22.87c-1.98,1.95-4.07,4.47-6.53,5.41-2.51.96-3.1,1.82-4.1,4.43-.46,1.18-3.23,2.23-2.49,4.43l-2.8.24-12.25-6.92-9.32-5.47-8.42-5.28-4.51-2.59-3.75-2.51-15.63-9.25-10.75-6.28c-.19-.11-.44-.41-.49-.65-1.63-1.06-3.44-2.39-5.33-3.01-1.31-.43-2.47-1.22-3.78-2.14-5.81-4.12-11.65-7.83-17.48-11.38.13-.96.08-2,.78-2.8l37.09-43c2.62-3.04,6.32-4.76,8.27-8.6-2.2-.87-4.66-.55-7.01-.16l-8.56,1.41c-4.1.67-7.93,1.36-11.96,2.41-3.76.98-7.62.57-11.42,1.98l-16.16,19.28c-1.45,1.73-2.61,3.26-4.14,4.94l-7.6,8.32-.58,1.81c-.15.46-1.43.37-2.05.23l-17.96-10.43c-1.31-1.62-5.06-1.77-7.26-4-1.79-1.82-3.83-2.39-6.08-1.44l-1.05-.04c-.92.79-1.06,2.2-1.06,3.5.02,3.12,3.87,2.28,4.97,3.6.76.9.28,1.82.47,3.02l.52,3.2c-3.88,4.52-7.69-.15-12.34,1.69l-4.1-2.84c-.52-4.02-4.2-8.06-4.67-7.88l-1.7.67c-2.03.8-4.35.45-5.98,1.68,1.07,1.56,1.42,3.21,1.6,4.65.12.98.07,1.83,1.23,2.49l4.37,2.5c1.2.68,2.12,1.45,3.42,1.31.51.72,1.26,2.07,2.38,2.3,1.25.25,2.93.33,3.93,1.52,1.55,1.86,4.36,1.96,5.7,3.26,1.75,1.7,3.54,3.42,6,4.73,3.98,2.12,7.64,4.46,11.06,7.72l-12.38,15.21-12.11,14.38-15.83,19.13-6.68,7.71c-2.82,3.25-6.13,5.9-8.37,9.69-.46.78-.56,1.89-1.29,2.17-.9.34-1.76.29-2.64.28l-12.32-7.37-33.64-21.46-22.81-14.86c-.74-.48-2.03-.49-2.37-1.08-.47-.82-.48-1.63-.42-2.5.56-.67.87-1.69,1.02-2.56,1.63-1.13,2.38-3.12,3.26-4.85.15-.12.41-.31.45-.49,1.64-1.33,2.53-3.37,3.95-5.13l12.11-14.97,7.92-10.11c1.03-1.32,2.09-2.87,2.6-4.19l1.77-2.01c1.45-1.65,2.44-3.59,1.59-5.92l-22.47,3c-2.42.32-5.14-.32-7.39.66-2.56,1.12-4.04,3.83-5.66,5.96l-5.04,6.64c-2.19,2.88-4.29,5.45-6.6,8.31-1,.75-3.22,1.5-4.15,2.62-.75.16-2.08-.24-2.5.79-.22.45-1.05.81-1.5.95-.64.2-1.78-.33-2.26-.84-1.7-1.81-3.48-1.67-5.75-1.82-2.17-.14-4.45-1.25-6.37-.4-.18-.04-.55-.08-.73.01.2-.24.24-.93.04-.87l-1.4.4c-3.41.12-6.27-1.93-9.06-3.14-5.31-2.3-8.73-5.63-12.16-7.03-2.4-.98-5.6,0-8.27-.34-1.31,1.4-2.48,1.3-3.96.66l-13.13,2.22-7.6,1.24,2.16,2.05c.93.88,1.8,1.5,3.02,2.28l23.61,15.05,9.61,5.99c2.72,1.7,5.09,4.09,8.35,5.32l1.07,3.73,1.6,2.01c.79.99,1.38,1.91,2.49,2.11.45,1.25-1.1,1.78-1.59,2.57-1.87,3-3.85,5.2-5.98,7.89l-23.18,29.34-7.57,9.44c-2.04,2.55-4.7,4.78-5.63,8.04-.69.12-1.28.06-1.7.14l-11.19-6.78-30.53-19.26c-1.76-1.11-3.42-2.13-5.45-1.55-.69.2-.37,1.94.03,2.66l4.58,8.26,10.77,18.33c.94,1.6,2.88,3.06,4.34,4.01l15.27,10.04c-1.84,4-6.16,6.57-6.21,9.8l-.48,30.81c-.02,1,2.7.61,3.11-.25.98-2.03,2.82-3.71,4.39-5.56l13.98-16.54c1.49-1.76,2.76-3.61,3.82-6.33l10.49,6.05,61.06,38.41c.6.38.99,1.03,1.05,1.4.06.41-.4,1.02-.76,1.42l-3.8,4.25-28.46,31.88c-1.38,1.54-2.78,2.44-4.06,3.99l-5.18,6.43c-.19.22-.37.69-.62.85-.55.35-1.07.25-1.71-.15l-16.3-10.23c-1.48-.93-2.45-1.59-3.97-2.51l-18.04-10.85c-.62.17-1.28.72-1.59,1.08-.35.41.46.89.71,1.2-.14,1.15.71,2.34,1.37,3.46l11.36,19.32c4.45,7.56,9.03,7.16,15.25,12.52l-6.82,8.17.08,27.05c.53.52,1.66-.02,2.23-.55l3.25-3.01c2.76-4.29,5.87-7.79,9.33-11.47l8.81-9.35c3.63,1.13,6.47,3.32,9.77,5.35l46.31,28.42,9.43,6.01,4.13,2.27c.85.46,1.29,1.1,1.17,2.03l-12.94,12.32-8.73,8.28-11.75,11.04-4.71,3.78-3.73,3.72c-1.06,1.06-2.22,1.56-3.72,1.08l-11.13-6.88c-1.47-.91-3.42-1.47-4.53-2.83-1.53-1.87-3.62-2.02-5.46-3.15l-6.56-4.06-8.86-5.15c-.5-.29-1.28.34-1.47.67-.31.56.23.84.29,1.22.13.88.5,2.13,1.17,3.19l10.62,16.92c1.89,3.01,4.07,4.91,7.07,6.84l8.53,5.49c-1.87,2.19-4.89,3.31-5.84,5.91-.86,2.34-.18,5.26-.36,7.72-.37,5.15-.8,10.05-.18,15.6,3.41-1.85,5.44-4.73,8.13-7.16l13.7-12.33,7.81,4.46,9.21,5.9,3.29,2.2,2.22,1.54,13.08,8.06,9.55,5.88,16.71,10.3c1.46.9,2.9,1.58,2.53,3.35l-8.65,7.24-12.46,9.8-11.18,8.9c-1.43,1.13-2.39,1.49-3.36,3.25-.6,1.1-2.71,1.75-2.97,3.07-1.72,1.14-3.02.38-4.61-.6l-6.28-3.87-10.85-7.1-18.16-10.96c-.54-.33-1.5.54-1.75.88-.42.56.52,1.2.72,1.66.36,2.02,2.29,4.84,3.55,6.88l5.86,9.53c2.21,3.59,4.49,6.15,8.13,8.48l8.88,5.67c-6.12,4.75-6.9,5.96-7.19,13.34l-.53,13.3c3.27-1.06,6.58-4.23,9.35-6.48l10.29-8.36c.9-.73,1.97-1.62,2.87-1.76,1.51-.24,2.48.6,3.72,1.39l39.46,25.17,14.27,9.16c1.24.8,2.72,1.24,2.17,3.01l-8.28,6.13-16.3,10.9-11.31,7.72-.71,1.7c-.15.35-1.5.08-2.14-.34l-22.18-14.42-13.44-7.8c-.82-.47-1.51-.39-1.91-.11-.65.46-1.15,1.37-.68,2.09l5.84,9.11c2.85,4.45,5.68,9.06,10.05,12.18l8.08,5.77c.86.61,1.23,1.23.86,2.28-3.15,1.46-4.78,4.22-5.12,7.94l-1.08,11.62c-.07.7.18,1.22.67,1.68.39.36,1.14.37,1.85-.13l6.25-4.38,13.02-8.3c.85.29,1.91.58,2.91,1.21l14.65,9.27c6.14,3.89,11.72,8.13,18.17,11.51l5.09,3.37,5.18,3.82,8.96,5.95c1.33.88,3.03,1.31,3.83,3.02l-17.65,9.47c-1.21.65-2.29,1.52-3.1,2.29-.24.15-.78.32-1.06.36-.58.08-1.14.29-1.65.58-3.23,1.78-6.48,3.54-10.04,4.63-1.39.42-2.85.51-3.78,2.27-.77,1.46-2.06,2.1-3.6,1.56l-19.5-12.73-8.32-4.94c-1.72-1.02-3.1-2.79-6.01-2.45.46,2.02.91,4.83,2.23,6.77l7.96,11.65c2.76,2.7,9,5.24,9.14,9.28-3.27,2.14-4.86,13.87-3.68,19.77l8.04-4.02c2.33-1.16,4.14-3.17,6.51-3.91,1.52-.48,2.97-1.24,4.22-2.3h.61c3.01-.08,5.31,2.45,7.85,4.2l3.46,2.38c2.05,1.41,3.87,2.84,6.01,3.59.44,1.27,1.91,2.01,3.25,2.11l.95,1.02,4.86,3.82,1.52,1.01c.5.33.87,1.11,1.76,1.03l7.25,5.24,5,3.59,7.93,5.87c2.4,1.78,5.16,2.78,7.09,5.51l-8.47,4.37-12.6,6-8.49,4.23c-2.07,1.03-4.78,1.49-5.47,3.88-2.02-.09-3.51-1.32-5.19-2.48l-11.61-8.04-15.77-10.87c-.98-.67-3.29-1.5-3.49.05-.03,2.31,1.82,4.6,2.96,6.31l3.43,5.16c2.65,3.98,5.18,7.71,8.81,10.84l2.21,1.9c1.37,1.18-.63,2.67-.96,3.75-1.48,4.83-3.44,10.3-2.46,15.42.52,2.72,4.63.77,6.2.05,4.58-2.12,9.28-3.84,12.88-7.37,1.29.43,2.7.56,3.29,1.23.67.77,1.49,1.04,2.45,1.74l14.56,10.52,16.6,11.87,17.2,12.38c-2.06,1.42-4.13,2-6.15,2.84l-15.29,6.36c-1.11.46-2.48.32-2.94,1.45-.83.2-1.89.24-2.84.78-6.81,3.88-9.53,6.34-16.26,1.99l-16.11-10.42-6.56-4.64c-1.44-1.02-2.74-2.48-4.83-2.03-.15,2.11.84,3.84,1.56,5.46,1.86,4.19,4,8.6,7.45,11.97l8.16,7.98c-1.99,4.08-2.81,8.07-3.86,12.3-.33,1.34-1.09,2.94.02,4.08,1.54,1.59,3.23.11,4.68-.35,2.36-.74,4.02-1.41,5.96-2.53l5.41-3.12c1.25-.72,3.07-.11,4.58-.29l14.77,10.28,30.59,20.72,4.7,3.31c.49.34.87.49.95,1,.08.53-.4,1.17-1.13,1.41l-19.33,6.57c-1.29.44-2.22.69-3.14,1.25-.91.56-2.82,1.52-4.08,1.43-4.01-.43-8.31-.89-11.79-2.85l-8.2-4.62-9.37-6.29-5.65-2.88c-.8-.41-1.49,1.15-1.57,1.73-.13.87.81,1.82.96,2.48.24,1.07.63,2.07,1.82,3.02l2.46,4.36,3.8,4.19c2.02,2.23,5.34,3.68,6.81,6.35.73,1.33-1.43,1.15-1.94,1.59-2.38,2.05-4.88,10.85-3.09,12.83.7.77,2.07,1.53,3.51.97,2.21-.84,5.03-1.41,6.69-2.69l4.72-1.8c2.69-1.17,5.46-1.11,7.86.56l8.75,6.06,18.92,13.49,5.68,3.96,9.02,6.28c.93.65,1.61,1.45,1.9,2.32l-11.02,3.2-8.55,2.98c-1.18.41-2.51,1.74-2.07,3.12l15.56,4.17c1.89.5,4.2.76,6.11.29l15.47-3.79c1.57,1.56,3.56,2.4,5.39,3.67l18.16,12.55,4.96,2.12,1.29,2.26,14.23.16c.84,0,1.9.2,2.13-.52.26-.82-.05-1.41-.78-1.93l-14.22-10.18-7.67-5.06-9.05-6.41c-.17-.39.09-1.08.96-1.32l10.25-2.86c3.3-.92,6.27-1.53,9.4-2.86,3.61-1.54,7.38-1.99,11.13-2.78,2.77-.58,5.92-2.23,8.61-.66l3.97,2.31,17.11,12.04,4.39,2.61,21,13.36c.88,1.17,1.84,2.11,1.88,4.1l55.43.13h9.02s33.84-.11,33.84-.11c.67-.58-.33-2.11-.88-2.58l-2.9-2.49c-1.23-1.06-1.82-3.17-2.54-4.61.01-.05.02-.09.04-.13,1.34-1.13,2.65-1.06,3.72-1.64h1.08s5.32-1.15,5.32-1.15l13.87-3.09.47-.09c1.85-.36,4.34-.88,6.39-1.33l7.07-1.56,9.86-2.32c.13.05.37-.01.5,0,1.54.1,2.87,1.05,4.28,1.98l10.58,6.94,11.9,7.71c2.05,1.33,4.01,2.56,5.8,4.39l23.46-.05c-2.59-3.08-6.02-4.87-9.37-6.69l-4.18-2.27-4.82-3.11c-5.43-2.31-10.44-5.33-14.22-9.55l-2.09-2.33c-.4-.45.68-1.59.94-1.94,1.77-.25,3.8-.52,5.25-1.52,2.12.15,4.07-.64,6.22-1.23l8.34-2.29,5.5-.91,7.86-1.82,11.16-2.57,6.96-2c2.48-.71,4.71-.08,6.93,1.38l11.54,7.62,15.42,10.52,3.9,2.61,5.01,2.86c.43.24.99.74,1.55.51.43-.18.78-.48,1.26-.92.27.8.49,1.67,1.51,1.71-.52-3.77-2.06-6.81-3.6-10.09l-4.56-9.72c-.28-.59-.74-1.28-1.44-1.76l-12.6-8.65c-1.8-2.69,6.07-1.63,11.25-4.46,3.41-1.86,4.83-5.74,6.38-9.05,1.14-2.42,2.95-4.43,3.25-7.32.16-1.54-.98-2.98-2.74-2.68-1.69.28-3.86.3-5.37.99-3.59,1.66-7.3,1.37-10.99,2.43l-14.96,4.68c-1.29.31-2.97.21-4.1.96-7.09,1.15-10.89-7.36-16.43-7.4-2.06-3.04-7.46-6.03-11.31-8.05-.42-.22-1.18-.73-1.39-1.19l-26.74-18.42-5.6-3.59c-.59-.77-.85-1.98.22-2.29l10.78-3.15,34.05-10.4,10-2.68c2.99-.8,6.57.44,8.97,1.91l3.68,2.25,11.1,6.99,3.14,2.17,10.37,6.56,12.39,7.16c.26.11,1.36-.65,1.52-.45l1.12,1.45c.73-1.83-.25-3.72-1.17-5.56l-7.45-14.97c-1.09-2.19-4.39-4.69-6.47-5.12l-11.73-8.46c-.26-.97.23-1.83,1.36-2.21l5.22-1.74c1.74-.58,4.49-.64,5.66-2.27l5.26-7.36c2-2.8,2.93-6.08,5.31-8.63,1.49-1.58,2.92-4.49,1.3-6.01-2.43-.24-5.11.89-7.13,1.69l-4.67,1.83-12.35,3.65-9.06,3.04-4.18,1.95-5.22,1.37c-3.18.44-5.79-1.22-8.62-2.66-2.03-1.03-4.18-1.51-5.84-3.24l-6.73-4.38-7.12-4.6-26.27-17.66-6.87-3.85c-1.26-.71-2.42-2.28-3.77-2.43-1.15-1.03-2.8-2.45-2.18-4.08.85-.15,2.04-.17,2.68-.58.36-.24,1.08-.41,1.52-.49.6-.11,1.22-.09,1.63-.62l.43-.02c.66-.03,1.15-.22,1.72-.47l5.14-2.19c1.48-.1,3.04-.38,4.34-1.05l2.07-1.06c1.2.19,2.03-.51,3.23-1.06l2.24-1.05h.37c.64-.02,1.14-.26,1.69-.56l.95-.52c.64.1,1.32-.01,1.71-.53h.41c.67-.02,1.16-.24,1.72-.44l10.48-3.78c.67.07,1.14-.31,1.71-.5l1.54-.5c1.12-.36,2.23-.48,3.27-1.09.35-.21,1.07-.45,1.48-.53,1.16-.21,2.21-.58,3.28-1.12l.97-.49,5.85-1.6,1.03-.03c4.65-.13,4.81,2.16,7.47,2.61-.39-.28-.8-.62-1.23-.97.41.29.82.61,1.23.97l2.42,1.72,1.77,1.07,19.06,13.17,7,4.65,11.17,7.44c1.08.33,2.7.16,3.83-.29l-6.47-15.68c-.81-1.96-1.47-4.13-1.68-6.18-3.12-4.37-7.9-7.07-12.23-10.09-2.53-1.77-4.66-3.5-7.56-4.73-.71-.3-.66-2.49.04-2.73l7.14-2.52c3.49-1.23,7.54-1.95,10.47-4.37,2.21-1.83,2.87-5.04,4.32-7.35l3.52-5.62,2.46-4.88c.92-1.83,2.15-3.65,1-5.75l-14.27,5.26-4.94,1.39-12.91,4.62-9.42,3.65-8.91,2.93c-2.49-.56-4.27-2.19-6.4-3.36-1.66-.91-3.37-1.87-4.74-3.15-.48-.45-1.04-.77-1.66-1.08l-.95-.48c-.23-.83-1.13-.84-1.64-1.16l-7.5-4.56-10.65-7.02-3.56-2.09c-.43-.74-.99-1.3-1.76-1.59-2.02-.76-3.82-2.17-5.66-3.3l-1.7-1.04-9.48-6.32c-.5-.33-.93-.67-1.63-.67-.43-.85-1.7-1.59-2.63-1.89-.47-.94-1.28-1.44-2.18-1.79l-1.02-.39c-.76-1.08-1.96-1.81-3.22-2.19l-.41-.53c-.44-.57-1-1-1.73-1.08l-.45-.89c.06-.14.1-.27.13-.4.35-.79,1.18-1.2,2.12-1.58l19.25-7.83,17.74-6.96,9.94-4.08,16.1-6.76c1.36-.57,2.94.37,4.04,1.06l13.41,8.36,5.55,3.54,7.01,4.17,6.37,4.21,12.97,8.7,5.67,2.83c.33.16,1.09,0,1.31-.08.32-.13.51-1.02.27-1.58l-6.12-13.99-4.94-9.92s.03-.02.05-.02c-.03,0-.05-.02-.07-.02l-.5-1c-1.23-2.47-4.28-3.74-6.39-4.86-.31-.16-.8-.24-1.1-.26l-6.32-4.46-6.8-4.68s-.03-.02-.05-.03c-.12-.2-.17-1.22.12-1.37l19.98-8.11,9.12-16.88c.85-1.57.46-3.52,2.58-4.48.14-1.53,1.15-3.48.74-5.02-.36-1.35-2.52-.65-3.45-.26l-13.63,5.76-8.25,3.31-9.57,4.1-6.56,2.48-4.4,2c-1.86,3.02-2.07,6.25-4.84,5.64-.39-.73-.64-1.53-1.18-1.83-.78-.43-2.24.02-3.05-.16-2.75-.6-4.91-2.27-7.31-3.8l-54.03-34.45c-4.07-2.59-7.94-4.72-11.23-7.79.24-1.15,1.17-1.62,2.2-2.11l8.69-4.07,15.21-7.05,10.38-4.93,7.02-3.12,17-8.48c.89-.45,2.44-.8,3.02-1.61,1.11-.16,1.92-.68,2.82-1.06l4.81-2.03c1.22-.52,2.48.19,3.67.92l54.15,33.32c.59-.23.57-1.03.42-1.46.29-1.43-.29-2.55-.89-3.96l-10.75-25.33c-2.33-2.61-6.08-3.92-9.03-5.77l-11.73-7.34c-1.26-.79-1.61-1.4-2.21-2.3l7.88-3.8c5.3-2.57,11.1-4.19,15.58-8.23,1.13-1.02,1.39-2.97,2.08-4.31l10.82-21.07c.3-.59.21-1.41.02-1.77-.34-.64-1.43-.68-2.18-.32l-19.25,9.33-17.8,8.25-4.66,1.11c-2.82,4.27-6.98,4.04-10.49,6.6-.54.4-1.38.84-2.03,1.03-2.09.6-4.14-.66-6.09-1.85l-26.68-16.25-30.49-18.85-16.17-10.17c-.34-1.78.85-2.49,2.39-3.37l37.04-21.2,4.96-3,8.64-4.7,23.81-13.45,9.87,6.02,32.49,18.92,18.94,10.82c.38.22.57.23.68.08.2-.26.12-.62.1-.8-.26-2.48-1.7-4.91-2.7-7.47l-8.49-21.66c-1.04-2.66-2.79-4.29-5.11-5.64l-19.39-11.21-1.96-2.53c-.02-.12-.02-.25-.02-.37l22.4-13.02,13.13-30.32c.74-1.7,2.15-3.04,1.09-5l-12.51,6.88c-2.1,1.16-4.24,1.77-6.09,3.49-1.37,1.27-2.81,1.9-4.64,2.39l-3.44,2.51c-2.63.19-4.36,1.07-5.36,3.48-1.24.42-2.75,1.08-3.87,1.84l-8.21,5.56-3.57,2.31c-1.91,1.24-3.72,2.99-6.02,3.41-1.29.23-1.98.44-2.74,1.18-1.02.99-2.47,1.63-3.75,2.3-2.78-.72-5.15-2.34-7.83-3.92l-29.64-17.44c-.31-1.27-1.76-1.47-2.65-2.21-3.74-3.11-7.68-5.37-11.82-7.79l-14.08-8.22-12.62-6.98c-1.68-.93-4.82-1.13-5.97-2.3-.28-.59-.65-.99-1.17-1.2l.08-1.02,8.4-6.39,5.33-3.72,12.77-8.48,14.26-9.6,5.97-4.11,13.79-9.07,19.65-12.61c.36-.23.37-1.65.77-1.72.52-.09,1.66.15,2.25.51l18.02,10.7,43.52,26.34c.4.24,1.06.19,1.28.13.22-.06.46-.71.33-1.14l-4.3-13.74-4.74-17.14c-.8-2.88-4.34-4.53-6.69-5.79l-5.58-3-12.41-7.73-4.63-3.34c-.4-.29-.7-.72-.75-1.03-.07-.46.17-1.04.73-1.42l18.01-12.19c1.57-1.06,3.28-2.1,4.11-3.9l12.47-27.3c.68-1.49,1.76-2.26,2.42-4.03l2.42-6.53c.18-.51.48-.78.27-1.1-.37-.55-1.09-.65-1.67-.25l-9.45,6.49-28.48,19.68-4.99,3.08c-3.12,1.92-5.99,4.41-9.72,5.13-1.43.27-2.82.39-3.68,1.36-.85.96-1.08,2.37-1.01,3.89-.67.89-1.57,1.24-2.33,1.62l-1.99,1c-1.8.38-3.63-.09-5.36-1.12l-20.91-12.41-14.17-8.24-12.72-7.93-14.71-9.68-10.28-6.66-8.47-5.96c-1.24-.87-1.88-2.23-3.62-2-.81-1.4-.2-2.72,1.13-3.79l19.44-15.57,37.05-29.71,24.9-19.68c2.21-.82,3.7-2.33,4.75-4.12.38-.22.9-.65,1.21-.9.98-.09,2.13-.04,3.13.61l13.23,8.48,12.85,8.9,13.17,8.61,16.84,11.18,3.85,2.09c.49-1.97-.57-3.38-.93-4.9l-2.59-11.12-3.72-12.23-4.41-14.8c-.48-1.6-1.91-2.25-3.24-3.12l-19.8-13.01c-.79-.52-1.11-1.46-1.05-2.18.07-.86,1.08-1.02,1.78-1.58l25-20.03c1.75-1.4,3.04-2.55,3.89-4.73l5.47-14.02,6.66-17.23,1.89-5,1.27-4.5c.57-2,1.48-4.07.66-6.14ZM501.07,137.55c-.18-.03-.36-.07-.53-.11.23.03.45.06.68.08-.05.01-.1.02-.14.03ZM485.53,286.76l-2.8,2.92c-20.32,17.01-40.82,33.71-61.49,50.09-1.5,1.45-3.97,3.95-5.1,5.57-.17.24.21.74.47,1.05l-1.2-.37c-1.36,1.49-2.63,2.15-3.79,1.97-26.91-15.94-53.67-32.16-80.27-48.65.03-.69-.1-1.27-.39-1.75l1.28.25,66.17-62.96c8.77,4.86,17.43,10,25.98,15.44l.96-.65.12,1.3,60.06,35.79ZM525.55,908.64c3.42,1.79,2.37,2.8-3.17,3.04-15.76,4.73-31.46,9.32-47.11,13.75-5.31-2.29-10.47-5-15.49-8.12-10.32-8.19-21.23-15.91-32.3-22.96-.23-.15-.71.3-.98.62-.35-.46-.78-.75-1.23-1.08.49-1.62-3.79-4.81-5.14-3.69-.34-.45-.81-.81-1.25-1.08.42-1.46-.51-2.1-1.54-.95l-.47-1.14c.16-.1.38-.46.49-.7l12.06-3.73,8.93-3.23,22.61-8.15c3.96-1.43,7.83-1.94,11.6.53l13.09,8.58.03,1.3c13.17,9.16,26.47,18.17,39.89,27.02ZM512.87,969.95l.98-.62c-.27,1.38.37,1.88,1.48,1.04.32.76,1.19.9,1.65,1.16l.07,1.27c1.37.54,11.77,7.62,11.18,7.98-1.21.75-2.93,1.23-4.33,1.59-11.52,3.01-23.97,5.46-35.69,7.18-1.22.37-1.98,1.05-1.18,1.8-.02.05-.03.12-.04.22-.82-.08-1.78-.15-2.39.51-.61,0-1.56.13-2.03.54l-4.78-.04c.59-.9.31-1.24-.45-.53-1.41-1.65-3.48-2.71-5.28-3.86.57-1.49-3.1-3.93-3.83-2.46l-19.66-13.7c-1.61-1.12-2.91-1.84-4.65-2.93l-8.96-5.58c-1.1-1.3-2.2-2.95-3.82-3.35-.67-.17-1.17-.5-1.55-1-.32-.43-1.57-.66-1.68-1.7,0,0,0,0,0-.01l1.62-.9c.34,1.31,1.29,1.29,2.85-.09,10.55-3.08,21.17-5.96,31.85-8.66,3.6-1.47,7.15-2.69,11.06-2.91l37.57,25.05ZM284.8,780.93l11.11-5.1c.9-.08,1.79-.42,2.19-1.29,1.24-.44,2.52-1.33,3.55-2.1,2.23-.31,4.18-1.47,6.04-2.58.26-.16.67-.39.96-.47l.92.86c3.19-1.22,6.33-1.48,9.42-.79,18.49,11.71,36.59,23.79,54.29,36.26-2.21.17-3.1.92-2.68,2.22-1.58.03-2.71.87-4.24,1.54l-7.39,3.24c-.7-.15-1.14.29-1.65.53l-14.12,6.46c-1.96.9-3.82,1.37-5.52,2.56-1.92-.06-4.06.04-5.41,1.54l-1.46,1.61c-1.03,1.14-2.89.36-4.22.01l.6.33c-.2-.1-.4-.21-.6-.33.87-1.22-4.96-4.44-5.33-4.4-.42.05-.72.33-.93.68.77-1.36.34-1.93-1.01-1.06-.47-.37-1.04-.56-1.69-.57.78-1.26,0-2.14-1-1-1.37-1.37-2.87-2.69-4.77-3.21.5-.92.19-1.19-.57-.49-.92-.79-2.19-1.51-3.16-2.21l.02-1.3c-2.47-1.81-4.95-3.61-7.42-5.41l-1.11.5c-1.19-.87-2.23-1.95-3.74-2.2.57-.87.3-1.17-.47-.49-.25-.75-1.07-.81-1.6-1.18l.09-1.23c-2.01-1.59-18.34-13.65-19.27-12.95-.18.14-.32.34-.44.56-.1-.23-.29-.6-.57-.87-.15-.14-.42-.34-.72.11.57-.84.73-1.12-.41-1.45.77-.28,1.36-.84,1.76-1.54.34-.06.68-.29.96-.49,2.43-.72,5.17-1.38,6.95-3.27.27-.09.85-.15,1.03-.36.63.02,1.25-.15,1.63-.67ZM259.82,706.21c.98,1.46,3.06.4,2.09-1.09.85-.14,1.63-.48,2.23-1.05.4.26.58.12.55-.37l32.96-18.55c1.22-.69,2.6.09,3.61.7l5.99,3.61,17.81,11.43c1.99,2,4.82,3.51,7.45,5.2l21.92,14.13,4.85,3.13c.68.44,1.29.87,1.61,1.37.31.48.31,1.93-.29,2.17l-5.64,2.25c-4.29,1.71-8.21,3.43-12.1,5.49-1.18-1.18-5.59,1.07-5.12,2.71-1.12.59-2.31.81-3.32,1.62l-1.08-.54-6.21,2.18c-6.2.19-9.71,2.65-10.53,7.39-19.88-12.67-39.83-25.47-59.19-38.91,0,0-.08-.41-.24-1.24,1.02-.27,2.01-.73,2.62-1.64ZM601.37,606.16c-1.2-.65-2.36.19-2.06,1.77-.66-.11-1.25.28-1.71.53-.94-1-1.51-.9-1.48.49-.62-.06-1.17.49-1.58.7l-1.17-.59c-11.93,6.26-24.06,12.13-36.4,17.61-2.41.4-3.33,1.25-2.77,2.53-.68-.16-1.2.2-1.73.44-.87-1.31-4.46.21-3.6,1.6l-2.28,1.09-1.1-.63-3.91,2.02c-1.96.84-3.08,1.95-3.37,3.32l-1.66.66c-1.58.62-2.97,2-4.74,2.05-.4-.95-1.36-1.58-2.89-1.89l-35.36-22.17-.86.71.03-1.24c-10.48-6.5-20.8-13.19-30.96-20.07l-.98.62,1-2.69,26.01-14.82,31.05-17.81,1.13.59c2.23-1.78,4.31-2.5,6.24-2.15l74.95,46.18c-.06.5,0,.88.19,1.15ZM415.18,871.56l-7.9,2.04-6.95,2.24c.06-1.31-.23-1.57-.99-.47-.38-.93-1.25-1.1-2.18-1.17-.12-1.23-1.39-2.37-2.5-1.54-.85-1.07-2.15-1.5-3.23-2.22.4-1.68-4.04-4.73-5.35-3.58-.92-1.83-2.7-2.32-4.18-3.28l-.07-1.31c-3.05-2.56-11.22-7.82-14.81-9.67-.3-.15-.78.26-1.1.55-1.06-1.37-2.63-2.23-4.22-2.81.62-.9.33-1.23-.44-.51-.48-.52-1.05-1.32-1.74-1.55-.05-1.02-.77-1.81-2.15-2.37l-12.62-9.26-1.11.5c.39-.82,1.15-1.75,2.2-1.95,3.22-.63,5.91-2.05,8.78-3.44l6.08-2.94,5.06-2.36,9.7-4.07c1.22-.09,2.22-.68,3.3-1.04l1.49-.5,7.55-2.64.99-.5c1.75-.34,3.59-.29,5.21.5.29.14.65.46,1,.43.06.09.22.52.49.66,4,2.08,7.51,4.63,10.94,7.61.59.52,1.36.67,2,.71.22.43,1.04.93,1.5,1,.2.75.85,1.16,1.57,1.23.33.56.91.87,1.53.95.6.98,1.64,1.5,2.75,1.72l.45.37,6.96,4.86,20.75,14.22c2.86,1.96,5.77,3.62,8.22,6.32l-15.69,5.47-4.01,1.34-6.59,2.85-10.66,3.61ZM346.5,732.94s.03-.05.04-.08c.02,0,.04.02.07.03-.04.02-.07.03-.11.05ZM359.42,853.13c1.33,1.04,2.68,2.05,4.05,3.06-1.4-.96-2.75-1.98-4.05-3.06ZM393.72,796.82c-1.6-.06-2.31.33-2.13,1.15-.45-.89-1.5-.97-1.77-.13-.02,0-.04-.02-.06-.02l-2.3-1.29c-1.04-.58-1.53-1.14-2.47-1.42.13-1.34-1.51-2.46-2.57-1.5-.86-1-1.88-1.59-3.26-1.62.48-.98.2-1.28-.49-.49l-5.39-3.74c-1.01-.7-1.85-1.79-3.08-1.62.43-.96.14-1.24-.56-.49-.72-1.52-2.93-2.11-4.34-3.06l-6.44-4.32c-.9-.6-1.65-2.06-3.01-1.72.3-1.3.06-1.72-1.05-.92-.23-.99-1.5-1.11-2.16-1.57l-9.14-6.28-9.98-6.5c.8-1.24.06-2.21-1.04-1.13-.01-1.61,1.1-2.42,2.56-3.12l22.94-10.99c1.13-.54,2.1-1.09,3.21-1.67l4.13-2.16c.66.08,1.26-.08,1.66-.58l8.93-4.48c2.17-1.09,4.58-.23,6.58,1.12l14.6,9.85,13.99,8.9,5.41,3.53,11.93,7.73,12.67,8.46c.49.33.84.82.91,1.29-.07.23-.13.47-.19.74-.51-1.16-1.63-1.39-3.37-.7-15.23,5.46-30.04,11.68-44.74,18.75ZM389.32,709.44s-3.19,2.22-9.56,6.66l-.65,1.07c-.29-.43-.46-.41-.48.08-.37-.49-.99-.63-1.64-.48l-.07-1.31c-3.86-2.88-9.45-6.54-13.63-8.92-.25-.14-.71.3-.98.63l-5.39-3.35c.16-.46.1-.88-.09-1.31-.26-.61-9.84-6.38-11.14-7.07-.26-.14-.71.31-.97.64l-.14-.11c-.4-.37-.64-1.07-1.46-1.15.04-1.42-1.44-2.41-2.59-1.42-.27-.49-.67-.87-1.17-1.06-.22-.48-.36-.49-.43,0-1.15-.92-2.22-2.14-3.78-2.18.74-1.29-.1-2.18-1.06-1l-5.3-3.31-.08-1.3-11.97-7.53c-.86-1.12-1.65-1.47-2.38-1.06l19.57-11.02,24.04-13.85c.62.03,1.21-.16,1.57-.72,1.93-.89,3.59-2.71,5.79-3.02l.78,1.05c14.49,8.79,28.84,17.82,43.05,27.08l1.08-.57,20.46,13.08c.58.42.36,1.9.3,2.25-1.53-.33-3.16-.08-4.91.74-11.85,6.93-24.11,13.09-36.76,18.47ZM370.26,621.17l-1.25,1.52-1.03.18c-.31-.6-1.05-.67-1.71-.44l-25.7-15.14-29.22-17.01-.07-1.28c-3.4-2.33-7.03-4.18-10.9-5.53l-1.22.76c17.18-11.71,34.45-23.4,51.82-35.07,9.56,5.91,19.15,11.81,28.78,17.72l.94-.67.02,1.29c13.04,8.66,26.58,16.97,39.87,25.12-10.6,6.78-21.4,13.23-32.42,19.34-5.81,3.32-11.78,6.39-17.9,9.22ZM487.76,616.96c-.23-.17-.46-.32-.69-.46.23.04.46.11.69.24,0,.08,0,.15,0,.22ZM485.64,555.28l.13,1.15c-.67-.05-1.21.17-1.65.62l-1.2-.41c-1.74.32-11.68,6.35-13.74,7.81-.26.18-.1.81.02,1.22l-7.42,3.9-3.85,2.59-11.1,5.92c-1.17.63-2.51,1.01-2.86,2.29l-4.01,2.44.02-1.23c-14.89-9.04-29.71-18.28-44.44-27.72l-.98.64c-6.03-6.41-13.17-11.52-21.09-15.66l-3.8-.5.11-1.5c18.84-13.07,38.24-26.03,57.31-38.61,25.2,15.24,50.25,30.68,75.15,46.3l.25.26c-5.39,3.84-11.01,7.34-16.86,10.49ZM356.61,520.3l.09,1.21c-1.01-1.12-3.28.15-2.47,1.52-1,.61-2.11,1.18-3.27,1.19l-.02-1.24-69.12-40.15c17.11-14.11,34.89-28.27,52.73-41.45,3.65,1.84,7.2,3.87,10.67,6.12l.95-.67.06,1.3c20.3,12.57,40.58,25.08,60.84,37.53l-50.46,34.64ZM114.44,197.42c.7,2.18,5.37,1.78,7.34,1.52-.39,1.49.7,2.33,3.26,2.53l4.24.25c20.72,11.96,41.08,24.7,61.07,38.21-14.96,17.87-30.09,35.53-45.84,52.73-1.49.85-3.64,2.34-1.3,3.25l-1.28-.13c-24.45-13.96-48.55-29.39-71.96-44.88l2.96-3.75c1.73-3.32,4.47-5.75,6.81-8.58l8.94-10.78c7.01-8.46,13.39-17.1,20.89-25.21l2.83-1.39c.42-1.55,1.16-2.71,2.05-3.75ZM207.74,258.93l4.24-5.25c25.77,16.29,51.63,32.41,77.59,48.37l.98-.64,2.37,2.07-3.99,4.15-19.03,18.62-9.53,9.05-3.26,3.2-13.84,12.63c-1.34,1.22-2.2,2.65-4.4,2.43l-.82,3.03-.91-1.52c-24.35-14.89-48.63-29.87-72.84-44.95-.71-.78-1.42-1.3-2.12-1.58,15.06-16.73,30.25-33.28,45.58-49.64ZM344.26,404.05c-4.06,2.55-7.62,5.6-10.68,9.16l.47,1.23c-.74-.62-1.69-1.08-2.83-1.38-25.07-15.15-49.97-30.47-74.71-45.94l7.92-7.14,45.83-42.64c.97-.9,1.98-2.05,3.39-1.6l11.04,6.72,6.18,3.84c1.04.64,2.23,1.18,3.14,1.74v1.24s19.17,11.68,57.54,35.03c-15.56,13.37-31.32,26.62-47.28,39.73ZM237.16,384.9c1.28-1.18,2.13-2.46,3.81-2.36.12.02.23.03.35.04l.11,1.31c1.98,1.53,9.91,6.5,12.05,7.33.3.12.7-.33.96-.66l29.87,18.32,17.39,10.78,14.1,8.93-24.03,19.86-19.04,15.41-7.76,6.69c-.66-.48-1.49-.5-2.5-.05l-1.57-.46c-22.36-14.08-44.91-28.03-67.66-41.85-.59-.83-1.24-1.19-1.93-1.07l6.4-5.97,39.44-36.24ZM251.33,504.67l11.23-8.69c.66-.51,1.16-1.21,1.94-1.47l.87-.1.11,1.29c22.3,13.66,44.57,27.49,66.81,41.48-14.68,10.36-29.44,20.6-44.27,30.71-2.27.77-5.18,2.61-4.95,5.09l-.76-.92c-21.88-12.34-43.48-25.22-64.8-38.65-.82-1.08-1.61-1.31-2.38-.69l15.92-12.35,10.41-8.13,9.88-7.56ZM264.72,605.65l1.18.5c5.46-3.52,10.88-7.09,16.26-10.69l.38-1.28,10.09,5.92,7.92,5.33,8.07,5.21,18.6,11.52,6.15,4.02,14.95,9.43c-.13,1.01-.7,1.54-1.2,2.07-3.27.81-6.18,3-9.14,4.98l-6.61,4.43c-1.1.74-2.57,1.87-4.02,2.45l-8.73,3.52-16.95,8.94c-.02,1.22-.44,2.02-.97,2.56-.61.64-1.49.77-2.31.65.39-1.35.02-1.67-.81-.53-.46-.3-1.38-.37-1.8-.55l-13-7.7c-1.12-.66-2.05-2.21-3.79-1.99-.08-.21-.39-.29-.48-.45,1-1.03.68-1.79-.58-.98-.84-1.42-2.71-2.24-4.48-2.55.62-1.48-3.27-4.19-4.03-2.72-1.53-1.03-2.7-2.38-4.36-3.21.24-1.39-.17-1.66-.95-.47-.29-.7-.94-1.09-1.72-1.01l-.05-1.3-25.31-16.34-1.18.06,18.6-12.76,10.28-7.06ZM322.16,846.44c2.38-.92,4.88-1.16,7.33-.42,11.18,6.31,21.94,13.33,32.27,21.06l.91-.66.6-1.03c-2.48-2.37-.54-4.7,2.05-2.51,2.22-.1,2.55-2.25.68-3.26,0,0-.44-.85-1.31-2.55.01,0,.03.02.04.03,9.52,6.9,19.32,13.8,29.22,19.95l1.9,1.88c11.07,7.29,21.82,15,32.24,23.15l1.6.41c.44,1.73,1.38,2.78,2.81,3.17-.53.96-.7,1.91-.5,2.85,3.53,2.34,5.29,3.51,5.29,3.51,1.93-.26,3.66.02,5.19.83.18,2.43.06,4.85-.38,7.28,1.48,1.19,2.87,2.44,4.17,3.77l.02,1.31,9.52,6.79c-13.74,3.68-27.61,7.67-41.13,12.21l-.06,1.16c-.72.27-1.77.5-2.47.54-.25,0-.48.02-.69.04-.16,0-.31-.04-.44-.12l-19.65-12.66-20.76-14.18-7.56-5.29-5.57-3.77c-.14-.32-.29-.6-.45-.83-.06-.28-.05-.56.03-.83.12-.16.23-.35.31-.6l1.16-.49.47-.99c-1.67.09-2.5-1.23-3.6-1.68-2.17-.89-3.63-1.75-5.6-3.06-1.13-.76-3.51-1.34-3.32-3.2.06-.6,1.19-1.66.35-2.37l-3.7,1.26-2.73-.1-.79-.18c-.59-.99-1.74-1.38-2.85-1.49l-8.21-5.93c-.93-1.32-2.4-2.26-4.02-2.52l-.42-.49c-.46-.54-1.01-.97-1.71-1.07l-13.73-10.09c-.53-.39-.86-1.68-1.85-1.16l-19.15-13.93c.84.48,1.6.18,2.27-.92l7.19-2.29,25.02-10.53ZM463.26,997.83c-1.02.8-1.75.91-2.54.95-.44-1.46-2.21-1.45-2.02.1l-6.79,1.41c-1.94.4-3.3.97-5.51.9-1.76-.06-3.74,1.1-5.27,1.43-1.14-.93-1.74-.64-.99.6-1.7-.04-3.42.25-4.94.98-.23-.45-.36-.46-.4.01l-5.27.03c-1,0-1.34.6-1.79,1.02-1.51-.55-3.18,1.28-3.48,2.69-.47.06-1.14.04-1.57-.11.29-1.36-2.1-2.74-3.2-1.99-.4-.46-1-.64-1.65-.55.18-1.93-3.08-4.09-4.75-3.05-1.72-1.84-6.1-4.34-6.4-4.35-.2-.47-.33-.49-.41-.02-.41-.69-1-1.23-1.72-1.61.39-1.43-2.29-3.46-3.54-2.66-.64-.54-1.39-.9-2.19-1.14l.06-1.23c-8.41-5.59-16.82-11.17-25.23-16.76l-.99.61c.65-.63.98-.95.98-.95,0,0,7.51-2.09,22.54-6.28,5.15-2.6,10.37-3.81,15.66-3.63,6.85,4.27,13.63,8.45,20.36,12.53l.42-.57,12.19,8.1,9.19,6.58,9.25,6.9s0,.02,0,.03ZM348.38,959.03c.18-1.4-.25-1.65-.97-.43-.14-.83-1.19-.8-1.61-1.07l-2.82-1.84c-1.3-.85-1.89-1.72-3-2.41.53-1.5-2.53-3.51-3.58-2.25l-6.08-3.48c-2.88-1.07-5.05-2.81-7.29-4.92l-2.76-2.6.08-1.23-16.29-11.14-.24-.82.93.83c11.94-4.36,23.96-8.53,36.06-12.52h1.6c4.16,2.47,8.24,5.2,12.24,8.19l.99-.61c.47.32.85.99,1.64.99-.03.35.15.75.44.91.24.13.53.15.75.11.28.93,1.32,1.01,2.13,1.58l29.15,19.93c-.04.53.26.92.86.81,1.18,1.99,4.12,2.44,4.55,4.71-2.86-.04-4.98,1.12-6.74,3.11-3.13.06-6.16.07-8.98,1.51l-8.29,2.63-7.01.96c-2.74.37-5.48.39-7.63,2.36-1.32-1.07-2.63-1.27-3.97-1.14-.33-1.23-1.41-1.37-2.48-.99-.37-.62-1.03-.88-1.68-1.17ZM517.44,985.07s.04,0,.05.01c-.01,0-.03,0-.04.01v-.03ZM472.39,848.63l-.03,1.16c-1.22-1.13-4.11-.38-4.58,1.23-.03-.02-.06-.04-.09-.06.04.02.07.04.09.06-.46-.87-1.69-.81-2.45-1.33l-8.52-5.82-5.24-3.78-10.2-6.81-9.96-6.55-5.89-4.03-9.3-6.14-7.89-5.41c-.35-.24-.83-.36-.93-.79-.06-.24.23-.57.37-.78l17.1-7.38,21.09-8.58c3.91-1.59,7.35-4.31,11.75-4.61,2.91-.2,5.29,1.9,7.5,3.41l7.58,5.18,5.39,3.55,11.36,7.82,13.04,8.65,7.07,4.28.03,1.31c4.02,2.68,7.91,5.46,11.66,8.34-16.6,4.88-32.92,10.57-48.95,17.07ZM471.7,763.26l-5.44,1.24c-1.74.63-5.65,2.44-5.49,4.3l-1.71.51-.11-1.29-15.76-9.43-.96.65c-.35-1-1.29-1.23-2.1-1.73.4-1.47-.54-2.09-1.56-.95.12-.44-.09-.9-.39-1.02-.45-.17-.86-.16-1.24-.14.47-.97.16-1.28-.48-.47-.79-.76-1.73-1.24-2.73-1.67.21-1.43-.48-1.82-1.02-.44-.2-.58-.77-.88-1.47-1.21l-5.44-2.61c.17-1.4-.26-1.66-1-.45-.31-.65-.91-1.05-1.58-1.18.47-.94.16-1.26-.51-.47l-8.01-5.28c.09-1.59-.82-1.78-1.59-.49-.8-1.69-2.55-2.25-4.26-3.25-1.43-.84-2.48-2.3-4.17-2.13.38-1.01.03-1.25-.61-.41-.11-.45-.63-1.1-1.11-1.13-.14-1.16-1-1.53-2.09-1.56-.07-.54-1.1-.75-1.6-.55.43-1.45-1.95-3.36-3.31-2.84l.09-1.61c.06-1.13,1.32-.78,1.93-1.08l17.75-8.84c2.7-1.34,5.24-2.81,8.04-4.11l9.7-4.52,15.88-7.54c2.83-1.34,5.59,2.23,7.67,3.33,1.98,1.04,3.08,1.72,4.84,2.86l5.8,3.74,13.35,8.85,9.13,5.76,15.4,9.64,6.25,3.89c2.06,1.28,3.76,4.34,6.35,4.05.51.64.64,1.64-.04,1.92l-1.67.71-.65-1.05c-14.77,5.59-29.46,11.58-44.08,17.97ZM457.55,675.02c-1.27.76-2.55,1.98-1.9,3.16-.31-.2-.44.1-.19.84-1.07,0-2.33-.17-3.17.56l-1.54.41c-.77-1.03-2.07-1.76-3.9-2.18l-9.83-5.39c-16.91-11.65-34.63-23.33-52.18-34.19-.03-.02-.06-.02-.09-.02.18-.25.31-.52.4-.83,18.43-10.54,37-20.98,55.71-31.3l1.62.48,25.68,16.54,1.07-.55c-.55,1.51,3.47,4.03,4.17,2.53l2.3,1.56-.03,1.24,31.63,20.1c1.16.64,2.1,1.43,2.82,2.37-17.42,8.72-34.83,17.02-52.56,24.67ZM443.93,460.18c-4.68,2.67-8.76,5.84-12.82,9.24-.22.18.09.74.42,1.03-1.17-.51-2.52-.21-4.05.9-24.79-14.77-49.63-29.68-74.49-44.73l-.86.72c.68-.58,1.29-1.26,1.84-2.03,19.82-15.78,39.67-31.66,59.53-47.66,26.82,16.1,53.75,31.92,80.81,47.46-16.6,11.8-33.39,23.5-50.36,35.08ZM229.6,232.75l22.33-24.75-.46-1.07,1.9-2.21c6.23-6.13,11.56-12.7,17.3-19.29l8.39-9.62,5.72-6.61c1.02.18,1.73-.43,2.13-1.83,29.6,17.49,59.27,35.54,88.56,53.66l-.96,1.56c-20.51,20.38-40.83,40.55-61.9,60.28-.8.87-1,1.6.26,1.98-.27.71-1.6,1.41-2.24,1.78-.61-.81-1.51-1.38-2.7-1.71-26.58-16.13-52.98-32.72-79.21-49.76h-1.26c.97-.08,1.68-.89,2.13-2.41ZM141.35,162.78c.05-.1.1-.2.15-.3.02.03.05.05.07.08-.08.07-.15.14-.23.22ZM104.84,370.68c14.27-14.87,28.51-29.81,42.73-44.82,9.27,5.17,18.38,10.69,27.35,16.56l1.15-.73c.21.45.41.45.76.66l8.7,5.44,34.91,21.48c-.39,1.37.19,1.87,1.55,1.65-.17,1.27-1.38,1.84-2.31,2.79l-7.11,7.25-18.24,17.28c-3.71,3.51-7,7.02-11.12,10.17l-5.17,4.8c-1.91,1.77-3.72,3.48-6.43,2.88l-.11-1.3c-22.64-13.71-45.23-27.71-67.79-42.01l-.88.7c.73-.86,1.39-1.79,2-2.81ZM178.7,440.81c-.06,2.06,3.54,3.96,5.25,2.87.69,1.2,2.04,1.69,3.12,2.49.68.5,1.37.87,2.17,1.22l31.9,19.43,19.68,12.07,6.82,4.23-27,22.08-6.51,5.12-5.01,4.14-4.21,3.13-3.82,3.82c-.7-.45-1.45-.34-2.27.32l-64.92-40.13c.25-.3.46-.67.63-1.11,14.56-13.59,29.29-26.81,44.17-39.68ZM160.38,576.52c13.45-10.65,26.94-21.22,40.49-31.7l-.09-.26c.28.39.77.65,1.46.78,4.24,1.96,8.2,4.4,11.87,7.32l50.02,31.12.87-.71.06,2.1c-1.7,1.02-3.42,2.06-5.17,3.28l-13.17,9.13-12.48,8.73-2.77,2.49-7.29,4.53c-1.38-.74-1.74-.34-.96,1.01-.35-.1-.84,0-1.02.31-.13.22-.14.56-.1.79-.98-.23-1.47-.34-1.47-.34-5.22-3.44-10.64-6.57-16.24-9.38-14.89-10.23-30.03-20.13-45.42-29.69l1.41.47ZM184.08,661.29l4.47-3.32-.27-1.12,1.12.53c10.5-7.04,20.99-14.08,31.48-21.11l-.19-1.15c1.81-1.22,4.09.21,5.9,1.24l3.09,1.76c1.1.63,1.86,1.91,3,2.19.25.76.91,1.16,1.66,1.22l.47.42c.28.68.9,1.12,1.65,1.27l14.56,10.17,25.15,16.21,7.12,4.67c-.91,2.09-3.19,2.47-4.8,3.31l-5.32,2.76-15.22,8.61-8.16,4.59c-1.01.57-2.01,1.13-3.06,1.38-.61.08-1.2.1-1.8.05-.29-1.08-.78-1.07-1.05.02-.61.17-.73,1.04-.6,1.65-1.51-.72-2.31.46-.97,1.46-.72.77-1.63,1.29-2.7,1.09l-.02-1.31c-18.42-12.39-36.93-24.59-55.51-36.58ZM216.43,750l.13-1.23-13.16-9.77c2.69-1.81,5.5-3.52,8.44-5.12l-.13-1.15,1.1.63c9.24-5.26,18.54-10.37,27.88-15.33l1.64.07c19.42,12.74,38.73,25.67,57.93,38.79l1.44.17c-.78.53-1.76.68-2.63.99l-2.79,1-2.56,1.64-6.85,3.25c-1.11-.14-2.23.1-2.79,1.06l-.99.45c-1.15-.19-1.95.79-3.07,1.21l-5.45,2.06c-.25-.44-.38-.44-.4.03-1.03.08-2.12.48-2.25,1.64-1.08-1.73-4.86.93-3.63,2.54-1.56,0-2.87,1.05-4.29,1.51-1.13-1.39-3-.6-2.59,1.19-1.36,1.39-3.41,1.28-5.31,1,.65-1.41-2.09-3.39-3.01-2.07-.83-1.36-2.3-1.5-3.61-2.39l-5.96-4.03c.36-1.47-1.32-2.36-2.18-1.07.09-1.13-1.58-1.08-2.05-1.55-1.45-1.47-2.89-2.1-4.49-3.05l-5.69-3.37c-.32-.34-.5-.31-.52.13-1.26-1.41-2.43-3.22-4.29-3.84l-.12-1.46c-1.43-1.56-5.84-5.12-7.72-3.91ZM222.9,812.66l4.39-2.22.19-1.26,1.14.63,25.65-12.33c2.7-.95,4.18-1.25,6.78.11,17.1,11.18,33.91,22.84,50.44,34.97-7.41,2.8-14.79,5.76-22.14,8.86-3.01,2.19-6.25,3.87-9.72,5.05-3.07.03-4.4.82-3.99,2.37l-.96.02h-2.78c.28-.66.09-1.01-.31-1.48-.59-.69-4.79-3.66-5.39-2.27l-4.14-2.79c-.84-.56-1.34-1.43-2.37-1.39.4-1.19-.2-2.2-1.79-3.02-1.54-1.24-4.77-3.6-6.51-2.9-.49-.35-.93-1.07-1.68-1.1.13-1.29-.38-1.78-1.52-1.02-1.97-3.03-10.02-5.04-17.75-13.02-.69-.71-1.78-1.1-2.61-1.4.18.15.35.29.51.44-.17-.15-.34-.29-.51-.44l.12-1.28c-1.86-1.42-3.55-2.93-5.08-4.52ZM242.31,880.5l-.04-1.16.99.73,25.89-11.07c1.9-.64,4-.63,5.87.13,17.9,10.32,34.82,22.44,51.38,34.68-3.07.03-5.95.62-8.65,1.79l-.16,1.32-.99-.82c-9.54,2.94-18.97,6.27-28.27,9.97l-9.34-5-1,.67c.56-1.55-3.11-4.23-4.3-3.04l-4.92-3.66v-1.3c-3.99-3.07-8.19-5.74-12.62-8.03-6.01-4.43-11.98-8.84-17.93-13.25l4.09-1.95ZM285.9,934.55s.78-.07,2.34-.21c13.24,7.59,26,15.96,38.28,25.12l11.48,7.14c-1.87.21-2.69.87-2.47,1.98l-1.04-.67c-4.41,1.93-9.14,3.17-14.2,3.71-5.11,1.71-10.15,3.6-15.12,5.66l-1.91.09c-11.62-7.49-23.1-15.29-34.44-23.4l-1.01.59-.29-1.51c-3.05-2.68-6.35-4.97-9.89-6.87l-.85-1.28,29.11-10.35ZM604.32,962.83s-6.69,1.37-20.08,4.1c-9.84,2.88-19.77,5.45-29.8,7.69l-.66,1.11-1-.96c-1.63.62-3.18.75-4.65.38-9.68-6.31-19.39-12.56-29.14-18.77l-1.33.13c-.42-.59-.97-.91-1.68-1.19.11-1.4-.32-1.64-.99-.39l-8.99-5.97c.39-1.47-1.13-2.32-1.71-.88l.03-1.31c-3.38-2.45-6.68-4.98-9.89-7.59,17-5.47,34.16-10.58,51.47-15.32l1.86.41c19.23,12.38,38.08,25.22,56.56,38.54ZM575.75,867.36c9.49,5.5,18.69,11.54,27.59,18.12.49.25.53.95.1,2.09l-.59-1.1c-16.58,4.96-33.17,10.01-49.76,15.15l-.12,1.15c-1.36.42-3.08,1.06-4.53,1.2-.64-.89-1.77-1.49-3.38-1.81-1.58-1.28-3.16-2.12-4.74-2.53l-.41.58-.41-.51-1.8-1.13-26.39-17.86c.05-1.08-.69-1.75-2.22-2-6.09-4.94-12.53-9.34-19.3-13.29-.44.1-.68.4-.75.87-.07-.72-.49-1.31-1.15-1.53.62-.85.38-1.18-.49-.64l2.27-1.5,49.19-17.56c1.95-.24,4.17.35,5.83,1.38,10.51,6.79,20.87,13.77,31.07,20.93ZM579.62,810.94l-19.69,7.06c-.85-1.35-4.93.2-4.15,1.64-.66-.11-1.3.03-1.69.6-.78-1.57-2.7-.7-1.99.94-.82-.1-1.72-.04-2.23.61-.32-.43-.46-.43-.38.06l-7.61,2.69-.91-1.93c-2.09-1.71-11.22-7.36-13.27-7.09-.38.05-.75.17-1.12.31-.43-.8-1.46-1.09-2.15-1.58l-6.74-4.78-8.74-6.07-8.24-5.51c-.73-.49-1.19-1.37-2.22-1.61-.52-.12-1.14-.6-1.5-1.04-.53-.66-1.71-.72-2.5-1.29-1.7-1.26-2.95-2.72-4.94-3.14-.65-.14-1.67-.88-2.06-1.43-.69-.96-1.49-1.66-2.75-1.61l-4.81-3.57c-1.03-1.73-2.68-2.21-1.83-3.81.3-.56,1.22-.33,1.73-.54l12.43-5.16,5.04-1.92,28.16-11.48,8.68-3.09c1.23-.44,3.17-.98,4.46-.36l5.77,2.78,5.29,3.74,11.86,8.25,19.39,12.88,6.9,4.29,7.52,5.18,7.17,5.06c.63.44,2.23,1.63,1.38,2.58l-7.35,2.66c-1.06-1.39-3.42-.68-3.05,1.14-.82-.12-1.71-.08-2.22.61-.69-1.39-3.65-.62-3.03.84-1.67.47-3.43.41-4.98,1.22-.98-1.23-4.54.54-3.61,1.89ZM600.06,708.69l-32.04,13.56-.04,1.17-1.12-.65c-8.68,3.9-17.55,7.29-26.6,10.16-.69.63-1.16,1.21-.88,1.79-.69-.45-1.35,0-1.01,1.13-1.27-.91-4.02-2.59-5.28-1.64l-10.58-6.51-7.79-5.47-28.1-17.96c-1.54-.99-2.76-2.12-4.48-2.37l-12.64-8.58c-.19-.86.35-1.57,1.4-2.08l22.56-10.89,11.9-5.65,23.53-11.33c2.08-1,3.56-.62,5.43.56l6.86,4.33,13.4,8.74,30.74,19.22,15.58,10.39c.69.46,1.24.92,1.43,1.51-.07.28-.09.63-.05,1.07-.59-.99-1.26-1.04-2.21-.5ZM533.54,526.05l-5.15,3.48.22,1.13-2.62,1.48-23.56-14.55-15.24-9.74-10.56-6.42c-1.29-.78-2.26-2.06-3.71-2.26-.01-1.03-.59-1.88-1.75-2.55-6.51-4.13-13.26-7.96-20.23-11.48l-1.75.49c.48-.66.8-1.52.97-2.58,21.81-14.88,43.79-29.6,65.95-44.17l4.05,1.78c26.59,15.49,53.08,31.14,79.47,46.94-21.91,13.03-43.94,25.84-66.1,38.44ZM597.82,353.93c-25.59,17.77-51.07,35.67-76.45,53.69-1.3.15-3.6.5-2.2,2.01l-.45.55-1.81.51c.65-1.37-.38-2.34-3.09-2.9-27.1-14.95-54.33-31.19-80.75-46.96l1.15.43,71.52-57.11c2.04.48,3.39-.11,4.06-1.75h1.16c28.99,17.06,57.94,34.23,86.86,51.53ZM557.92,226.97c-14.19,11.8-28.22,23.71-42.08,35.73-1.72,2.32-1.02,3.58.36,5.77.83,1.66.87,2.95.11,3.86l-.31-1.25-6.94-2.62-26.96-15.9-1.05.61.29-1.28c-13.75-8.3-27.55-16.51-41.41-24.62l-.81.92.06-1.23c-6.05-4.14-12.15-7.96-18.29-11.45l-.42.57c.39-.69.39-1.5,0-2.44,25.49-24.95,51.47-49.5,77.94-73.65,2.67.3,5.09-.14,7.26-1.29l-.17-1.23c1.19.72,3.52-.33,4.09-1.55,1.14.28,2.12.52,3.84.38l.28,3.8c-1.65.51-.68,2.39.25,3.51,1.47,1.77,6.03,3.22,6.76.85,1.32-.05,2.69-.15,3.91-.66,1.11,1,2.55,1.62,4.32,1.86,5.49,3.93,10.94,7.94,16.35,12.01l53.22,35.98c-13.38,11.29-26.91,22.39-40.6,33.31Z"/>
</svg>