<?xml version="1.0" encoding="UTF-8"?>
<svg id="Layer_1" data-name="Layer 1" xmlns="http://www.w3.org/2000/svg" viewBox="0 0 604.59 535.57">
  <defs>
    <style>
      .cls-1 {
        fill: none;
        stroke: #0095ff;
        stroke-miterlimit: 10;
        stroke-width: 2px;
      }
    </style>
  </defs>
  <path class="cls-1" d="M601.36,163.47c6.15,16.18-.83,32.81-16.33,39.77-9.36,4.2-19.41,4.44-29.97,1.37l1.76,6.94c12.34,57.25,6.62,116.2-16.64,170.33-14.5,33.74-36.94,62.6-64.23,86.96-18.65,16.65-38.89,30.78-61.56,41.41-11.44,5.37-22.4,10.49-34.48,13.78l-22.91,6.24c-9.89,2.69-19.93,3.18-30.3,3.84-19.01,1.22-37.76-.04-56.58-2.54l-24.28-4.99c-2.98-.61-6.58.18-9.95.56-37.15,4.24-74.75.27-109.89-12.78-24.71-9.18-46.27-23.92-65.31-41.89-19.21-18.13-33.21-39.74-43.26-64.12-10.53-25.56-16.26-52.22-16.43-80.03-.09-15.26.66-29.6,2.95-44.74,5.65-37.25,17.19-72.67,34.35-106.24l35.88-66.97,21.15-39.85c1.2-2.27,2.04-5.22,2.62-7.86.57-2.62-8.87-11.52-6.39-28.54,1.06-7.28,5.1-12.25,10.63-16.49,1.93-3.79,3.91-8.19,7.1-11.25.34-2.88,2.29-4.95,5.31-4.01,6.33-2.76,12.48-1.06,17.9,2.79,1.92,1.36,4.41,3.03,5.28,5.27,2.63,6.76,2.67,12.7,2.64,20.28l6.09-1.5,18.6-5.53c24.93-7.41,72.78-11.57,99.96-11.76l15-.1,9.89.26,19.14.42c2.19.05,6.17,2.67,8.12,1.78,2.69-1.21,4.03-1.46,6.73-1.3,19.07,1.18,37.3,3.16,56.32,5.92,24.85,3.61,49.07,8.49,72.96,15.95l1.3,3.06c1.69-.45,4.66-1.18,6.22-.68,17.37,5.65,33.73,12.42,49.18,22.02,16.3,10.12,35.51,26.97,33.52,46.73-.27,2.67-.46,4.94.48,7.43,3.17,8.38,3.12,17.16,1.78,26.02-.41,2.71-.6,5.19,0,8.15l6.61-17.68c1.63-4.35,4.84-8.85,8.93-10.69,5.18-2.34,10.32.29,12,5.46,1.41,4.33,1.2,9.08.92,13.7,12.96,2.91,22.45,12.6,27.21,25.12ZM125.34,25.97c1.26,2.23,2.45,3.53,4.48,4.09,2.61-8.27-.52-18.89-6.28-18.62-3.41.16-7.08,3.04-8,5.66-.82,2.34,6.94,3.77,9.81,8.86ZM295.89,20.85c-1.09-2.96-3.49-3.73-5.86-3.63l-12.86.55c-2.53.11-4.99.38-5.96,3.06l24.68.02ZM319.88,21.66c-.19-1.58-.93-3.07-1.55-3.11l-8.31-.57c-.58-.04-1.81,1.29-1.74,1.83s1.23,1.6,1.9,1.61l9.69.24ZM258.35,20.37l-3.97-.15c.44.61,1.45,1.73,1.89,1.45l2.07-1.3ZM241.68,21.39c-2.51-.87-4.23-.79-5.75.53,1.95.59,4.45.5,5.75-.53ZM292.34,29.88l4.86-2.59c.92-.49.6-3.57.11-4.31-9.72-.99-18.29-1.01-27.78.07-.44.94-.89,2.2-.72,2.84.51,2.02,6.5,3.87,7.16,3.88l16.38.11ZM260.24,24.14c-1.15-1.27-4.58-1.25-5.29-.09-.85,1.37-.2,4.99,1.15,5.47,1.52.55,3.28-.52,3.8-1.48.46-.86,1.02-3.16.34-3.91ZM318.87,29.31c.84-.04,2.27-1.73,2.47-2.52,1.1-4.33-7.99-4.33-15.57-3.04-.53,2.24,1.28,6.1,3.4,6l9.69-.44ZM238.39,31.57l6.02-.61-.86-6.98-13.29,1.62c-2.67.32-5.18.72-7.59,1.71l.39,4.32c.08.85,2.9,1.42,3.84,1.31l11.48-1.36ZM375.96,32.38l1.34-2.98-15.15-2.07c-.14,1.57,1.06,3.89,1.67,3.41l2.65-2.1,3.27,4.36,6.23-.62ZM111.69,47.07c3.19-2.09,6.48-4.76,8.96-7.59.96-1.09-.34-4.42-1.41-5.3l-7.11-5.83c-3.12,7.27.02,9.53-.57,14.85-.13,1.16-.08,2.21.13,3.86ZM375.19,36.53c-.43-1.61-3.99-1.72-4.27.11.1,1.04,3.8.83,4.27-.11ZM433.01,38.2c.29-.49.62-2.52.05-2.43l-2.14.34c-.4.06-1.38.53-1.72.75s.39,1.43.74,1.62l1.67.9c.36.19,1.17-.78,1.4-1.17ZM433.11,42.19c-.65-.82-2.87-1.59-4.31-1.89.58,1.68-.43,4.85-1.47,6.34-.44.63.86,2.21,1.53,2.09,2.27-.4,5.31-5.21,4.25-6.55ZM450.56,44.23l-.97-2.39c-.21-.53-2.05-.4-2.56-.15-.57.29-.4,2.55.24,2.55h3.29ZM468.74,57.5c.53-.81-.75-3-1.9-3.44l-26.89-10.4c-.8,4.34,1.17,6.87,4.66,7.97l8.35,2.62c6.57-3.22,5.82,6.33,15.78,3.26ZM273.76,46.95l-1.2-.59-4.6.2.36.63,5.44-.24ZM290.02,46.98l-.39-.6-3.95.19.39.6,3.95-.19ZM246.72,48.42l-.39-.62-4.66.18.39.62,4.66-.18ZM238.2,49.11l-.39-.6-3.95.19.39.6,3.95-.19ZM231.81,49.82l-.39-.6-3.95.19.39.6,3.95-.19ZM226.16,50.2c-3.17-.32-5.89.12-8.66.96,3.17.32,5.89-.12,8.66-.96ZM427.31,52.45c-2.61-2.39-5.53-2.98-8.39-1.98,2.81,1.34,5.43,1.89,8.39,1.98ZM216.24,51.73c-2.51-.56-4.56-.17-6.55.97,2.46-.06,4.47-.39,6.55-.97ZM327.59,53.32l-7.95-1.08-9.15.1c1.53.64,3.94,1.32,5.61,1.28l11.5-.3ZM359.65,56.1c-2.83-.9-5.52-.99-8.65-1.3l-12.03-1.17-.03,1.13,10.01,1.04c3.64.38,6.86.68,10.7.31ZM376.38,58.04l-6.94-.22c2.12,1.19,4.37,2.57,6.94.22ZM277.16,66.98c-8.53.32-15.8-.3-17.16,7.02l6.09,7.2c6.07-.75,11.26-7.5,11.06-14.23ZM97.98,422.54c-2.13-.51.46-6.01-.89-5.91l-2.48.19c-2.65-2.36-4.68-7.07-5.33-10.46-3.28-2.75-2.07-6.31-3.42-6.08l-1.31.22c-2.62-2.72-4.02-6.4-2.28-10.48-3.98-.49-5.14-3.57-4.66-6.95-1.64-2.67-2.67-5.25-2.74-8.6l-3.13-5.58c-.6-1.07-.85-3.63-.96-4.89-1.44-2.99-1.61-5.99-2.64-9.21l-5.8-18.2c-1.03-3.23-1.34-6.53-2.01-10.03l-1.17-6.2-.77-3.77-1.74-9.23-.55-5.33-1.23-11.17-.95-5.93v-35.2s1.05-11.03,1.05-11.03c3.35-34.76,13.4-68.54,30.93-98.63l8.44-14.49,6.52-10.25c-3.42-7.66-3.77-14.57-4.39-23.15l-26.21,48.24-17.51,32.97c-21.34,40.19-33.5,78.94-38.19,124.29l-.92,17.15-.03,14.89.58,11.21c3.47,38.11,18.33,77.79,43.38,106.95l18.4,18.48c21.04,18.5,45.31,31.81,72.56,38.8,19.73,5.06,39.33,7.96,60.07,7.05l-8.17-2.77c-2.35-.8-4-2.69-6.35-3.66l-6-2.47-19.09-12.05-8.43-5.78-6.76-4.44c-2.91-1.91-5.11-4.53-7.4-7.17l-3.3-3.82-4.36-4.79-5.98-5.2-9.3-9.23-3.75-4.12-5.09-5.51-7.35-9.78c-2.49-3.32-4.1-7.63-9.35-8.89ZM324.44,121.26c2.47-.97,4.76-5.37,3.54-7.63-1.89-3.51-4.53-6.55-5.44-10.19-.69-2.77-1.58-4.98-3.53-6.44s-5.29-.98-7.46.04l-6.26,2.93c-2.98,1.39-5.58,2.11-5.55,6.3,0,1.15.63,3.08,1.67,3.52.88.36,2.61.4,3.08-.23l1.55-2.08c.85-1.13,6.51,18.42,18.38,13.79ZM107.41,105.08c-1.67-3.12-2.82-4.57-4.89-6.23.96,2.9,2.76,5.02,4.89,6.23ZM530.43,145.24l2.96-17.56-5.67,4.75c-.79.66-2.22,2.13-2.13,3.07s1.33,2.56,2.04,3.33l2.8,6.42ZM577.65,191.08c6.01-2.13,10.09-6.86,10.69-13.08,1.09-11.27-5.68-22.14-16.81-26.07-2.31,7.83-4.46,15.53-9.13,22.12l-9.84,13.9c7.82,4.86,16.52,6.16,25.08,3.13ZM117.26,501.87l-.08-1.78c-.01-.34-1.4-.48-1.53-.17l-.71,1.59c-.13.28.4,1.68.65,1.51l1.67-1.14Z"/>
</svg>